<svg width="39" height="39" viewBox="0 0 39 39" fill="none" xmlns="http://www.w3.org/2000/svg">
<path d="M2 2H4.9877L6.26815 7.83579M6.26815 7.83579L10.5363 27.2884H32.7307L36.9988 7.83579H6.26815Z" stroke="#B61C31" stroke-width="3" stroke-linecap="round" stroke-linejoin="round"/>
<path d="M10.5365 37.0155C11.9508 37.0155 13.0974 35.7091 13.0974 34.0976C13.0974 32.4861 11.9508 31.1797 10.5365 31.1797C9.12213 31.1797 7.97559 32.4861 7.97559 34.0976C7.97559 35.7091 9.12213 37.0155 10.5365 37.0155Z" stroke="#B61C31" stroke-width="3" stroke-linecap="round" stroke-linejoin="round"/>
<path d="M32.7328 37.0155C34.1471 37.0155 35.2937 35.7091 35.2937 34.0976C35.2937 32.4861 34.1471 31.1797 32.7328 31.1797C31.3184 31.1797 30.1719 32.4861 30.1719 34.0976C30.1719 35.7091 31.3184 37.0155 32.7328 37.0155Z" stroke="#B61C31" stroke-width="3" stroke-linecap="round" stroke-linejoin="round"/>
</svg>
