<?xml version="1.0" encoding="UTF-8"?>
<svg id="_圖層_2" data-name="圖層 2" xmlns="http://www.w3.org/2000/svg" viewBox="0 0 174.42 81.52">
  <g id="_圖層_1-2" data-name="圖層 1">
    <g>
      <path d="m.11,75.38c-.24.09-.1.29.58.22l.47-.35-1.05.12Z" style="fill: #bf394b;"/>
      <path d="m4.69,75.84c.79-.19,1.7-.5,1.17-.79-.78.34-.97.22-1.81.63-.68.06-1.19-.07-1.08-.19-.24.09-1.06-.04-1.41.18.89.23,2.01.2,3.17-.05.25.06.01.16-.04.22Z" style="fill: #bf394b;"/>
      <path d="m70.85,70.65l-.43.02c.12,0,.27,0,.43-.02Z" style="fill: #bf394b;"/>
      <path d="m111.45,63.98c-.31.07-.43.13-.44.17.28-.08.51-.15.44-.17Z" style="fill: #bf394b;"/>
      <path d="m118.41,62.81c-.15.03-.27.05-.41.07.16,0,.32-.02.41-.07Z" style="fill: #bf394b;"/>
      <path d="m70.85,70.65l1.1-.05c.06-.12-.57,0-1.1.05Z" style="fill: #bf394b;"/>
      <path d="m13.79,74.65c-.23.03-.42.07-.59.12.19-.02.37-.04.56-.06,0-.02.02-.03.03-.05Z" style="fill: #bf394b;"/>
      <path d="m52.87,73.12l-.33.04c-.09.05-.18.1-.26.16l.59-.2Z" style="fill: #bf394b;"/>
      <path d="m39.02,74.54c.31-.02.4-.31.51-.44-.17.13-.39.21-.67.26,0,.05.05.11.16.19Z" style="fill: #bf394b;"/>
      <path d="m16.97,75.62l-.39.06c.1-.02.27-.04.39-.06Z" style="fill: #bf394b;"/>
      <path d="m62.78,72.03s.08.07.14.08c0-.04-.06-.06-.14-.08Z" style="fill: #bf394b;"/>
      <path d="m48.09,76.29s0,.03-.01.05c.08,0,.11-.02.01-.05Z" style="fill: #bf394b;"/>
      <path d="m63.45,80.98l-.22-.02s-.06.1-.07.15l.29-.13Z" style="fill: #bf394b;"/>
      <path d="m130.99,59.84s-.03,0-.06.01c-.32.13-.13.07.06-.01Z" style="fill: #bf394b;"/>
      <path d="m121.08,3.65c1.3.42-2.2.04-.24.58-.17-.13,1.87-.2.24-.58Z" style="fill: #bf394b;"/>
      <path d="m14.16,74.67c.19-.01.38-.02.57-.03-.26,0-.43.02-.57.03Z" style="fill: #bf394b;"/>
      <path d="m120.84,4.23h0s.2.06.2.06c-.08-.02-.13-.04-.2-.06Z" style="fill: #bf394b;"/>
      <path d="m158.26,47.67c-.08,0-.2.03-.32.07.02.02.1,0,.32-.07Z" style="fill: #bf394b;"/>
      <path d="m138.03,56.92l.53-.15c-.21.05-.38.1-.53.15Z" style="fill: #bf394b;"/>
      <path d="m167.14,40.13c.22-.21.32-.26.57-.59-.04.02-.07.04-.11.07-.07.14-.2.3-.46.52Z" style="fill: #bf394b;"/>
      <path d="m173.69,29.86c-.04.05-.09.13-.13.2-.04.12-.08.25-.12.37l.26-.57Z" style="fill: #bf394b;"/>
      <path d="m17.44,58.81c.13.23.18.41.21.56,0-.27,1.3.87-.21-.56Z" style="fill: #bf394b;"/>
      <path d="m13.81,74.81c.07-.07.17-.12.35-.14-.14.01-.27.02-.39.04-.03.04-.04.08.05.1Z" style="fill: #bf394b;"/>
      <path d="m165.86,38.25c.41-.44.86-.86,1.24-1.33-.32.39-.8.85-1.24,1.33Z" style="fill: #bf394b;"/>
      <path d="m41.13,4.66l-.42.1c.16-.02.31-.05.42-.1Z" style="fill: #bf394b;"/>
      <path d="m170.1,32.5c.25-.23.43-.51.62-.81.01-.08.03-.16.03-.22-.22.34-.41.7-.65,1.03Z" style="fill: #bf394b;"/>
      <path d="m17.65,59.37h0s0,0,0,0Z" style="fill: #bf394b;"/>
      <path d="m27.63,66.45c-1.47-.98-.89-.17-1.32-.2-1.8-1.13-.65-.79-1.13-1.35-1.12-.7-2.14-1.04-2.9-1.66-.02-.09-.15-.23.07-.15-1.28-.65-3.2-2.63-4.61-3.51-.07-.11-.09-.17-.09-.21.06.32-.04.48-.17.54-.58-.55-1.25-.86-1.28-1.26.33.36.44.32.66.42-.23-.17-.45-.34-.67-.52-.28-.78.88.74,1.08.54-1.25-1.05-2.76-2.25-3.51-3.27.08-.42,2.02,2.11,1.14.66.39.52.82.99,1.23,1.49-.64-1.43.78.87.26-.5-.85-.93-1.34-1.44-1.83-1.94-.51-.49-.99-1-1.74-2.02-.51-.32-.1.32-.61,0-2.45-2.68-.99-2.76-2.81-4.69-.52-.47-1.09-.45-1.79-2.22l.64.38c-1.11-2.16-1.18-.96-2.04-3.39.33.35.94,1.68.82,1.33-.42-1.63-.72-.95-1.22-2.13l.21-.38c-1.05-2.35-2.17-5.01-2.77-7.83.12.14.32.6.3-.08-.89-3.5-.89-7.72.37-10.73.03-.43.09-.85.16-1.27.12-.27.35-.43.27-.13.64-1.1-.14-.14.02-.75.34-.66.61-.76.47-.32.42-1.04,1.31-2.44,2.5-3.66,1.18-1.21,2.6-2.24,3.74-2.79l-.36.35c1.69-.96,1.56-1.71,3.31-2.36l-.29.21c3.84-1.94,8.27-3.89,11.54-4.53.23-.3,1.27-.58,2.26-.87.99-.29,1.95-.52,2-.85,2.47-.38,1.81-.1,5.24-.71.91-.2,1.28-.65,2.4-.94l.09.3,1.47-.62c.3.06.59.13.89.21l1.05-.26c-.43.05-.93.01-.88-.08,1.65-.42,4.11-.46,4.17-.29,1.31-.25,2.61-.56,3.94-.77-.07.14-.74.24-1.25.39,2.08-.56.42.28,2.33-.23-.27-.04.12-.2.16-.26.99.06,3.2-.13,4.84-.34l-.3.24c2.96-.19,6.24-.51,9.58-.61-1.2-.07-.94-.44.04-.5l.4.32c.63-.22-1.03-.1.27-.38,1.25,0,.85.35.13.47l1.52-.15c.09.1-.26.15-.35.28.62-.23,2.62.28,3.52-.07l.09.1c3.34-.01,4.86-.11,7.58-.06.06-.28,1.12-.2,1.94-.41,2,.16,4.22.43,6.63.52,1.7-.07.51-.22,1.28-.35.11.26,2.53.34,1.27.47,2.9.12,3.7.13,7.37.17-.39-.13-.83-.21-.6-.28.67,0,1.51.21,1.4.33h-.18c4.14-.11,9.41,1.5,12.72,1.29h-.19s3.41.08,3.41.08c1.55.21-.95.09.18.37,3.69-.02,5.75.71,8.78.82,2.22,1.03,8.22,1.09,11.27,2.06l-.15-.21c.83-.04.96.26,1.54.4-.06-.15-.85-.3-.33-.31,6.86.89,13.99,2.73,20.86,4.4,2.51.6,1.65-.6,4.7.57l-.97.1c2.55.42,5.09,1.13,7.41,2.16,1.16.52,2.25,1.12,3.25,1.81l.72.54.66.59.67.58.56.66c-.23-.17-.31-.12-.57-.47.1.23.28.52.5.82.11.15.24.3.35.46.1.17.19.34.29.5.19.32.41.61.55.83.12.23.22.37.26.36.19.68-.12.21-.08.65.12.45.2,1.04.37,1.57.16.53.13,1.04.04,1.3-.04.09-.08-.27-.09-.45.22.62-.31,2.93.06,2.37-.48,1.7-.78,3.36-1.62,4.59-.04.25-.14.55-.29.86-.17.3-.38.62-.56.91-.36.61-.73,1.11-.64,1.36-.16-.19-.67.44-1.27,1.21-.61.76-1.27,1.69-1.62,2.18.17-.38-.8.66-.62.19-.9.98-1.77,1.85-1.43,1.87-2.15,1.26-3.65,3.49-5.2,3.78-3.19,2.51-6.41,4.51-9.63,6.28-.08-.44,3.57-1.94,3.21-2.27-2.96,1.8-4.6,3.06-7.82,4.35-.85.3.39-.38.64-.57-1.56.77-3.11,1.45-4.64,2.02-.76.3-1.51.6-2.25.89-.75.28-1.48.57-2.19.89,0-.04.3-.2.58-.33-.57.22-1.36.41-1.23.58l.55-.25c1.03-.04-2.1,1.4-2.17,1.56.81-.88-2.98.8-1.63-.41-.37.16-.83.41-.7.51-.58.15-.79.13-.26-.21-2.06.75-1.26.72-3.17,1.29-.02-.1.35-.25.52-.42-.91.47-1.83.95-3.49,1.3.08-.08-.13-.11.36-.24-2.78.79-4.65,1.76-7.79,2.31.82-.63-1.09.1-1.33-.22l-1.64.49.71.02c-1.46.33-2.7.86-3.99,1.01l1.06-.38-2.73.65,1.59-.19c-1.45.5.26.44-1.72.73.39-.12-1.47.29-2.28.23h0c-.7.26-1.43.53-2.54.65-.31-.06.15-.45-.05-.49-.66.45-3.43.74-4.29,1.23.29-.13.27-.33.16-.35l-.56.36c-.7.04-.81.02-.72-.15-2.07.33.74.35-1.74.59.19-.06.09-.08.48-.19-2.47.35-4.72.99-7,1.26-.73-.26,1.96-.43,1.14-.61-3.24.64-6.67,1.56-9.84,1.97l.6-.05c-.36.59-2.39.1-3.95.59.39-.1.47-.37.37-.29-2.17.25-4.41.78-7.67,1.41l.39-.19c-1.29.07-3.37.39-4.76.51-.39.19-1.19.27-.68.4-4.36-.21-8.08,1.45-11.95,1.22.45-.05,1.07-.24.71-.2l-3.21.49c.28.2.44.09,1.14.19-.39.18-1.29.39-2.09.48,1.44-.32-.05-.36-.69-.43.11.06-.09.16-.03.23-1.73-.24-.23.49-2.57.45l.11-.13c-.86.15-1.64.39-2.57.45-.41-.23.91-.22.94-.44-1.3.15-2.53.76-3.74.6.55-.13,1.35-.2,1.9-.33-1.32-.19-1.46-.1-2.42-.06h.09s-2.23.06-2.23.06l.57.03c-1.57.85-3.32.43-5.49,1.06,2.11-.61.33-.28.47-.59-.57-.04-1.43-.06-1.2-.17-1.02.33-1.75-.04-3.2.42-.07-.09-1.12.07-.9-.19-1.35.18.33.15.23.28-2.07.48-4.94-.03-7.92.6-2.58.35-3.04.72-5.44,1.01-.82-.11.65-.39.65-.39-1.32-.07-2.31,0-3.54.19.25-.1-.02-.16-.4-.25-.99.08-.65.4-1.96.31.22-.12.5-.3.97-.44-1.16.15-2.31.38-3.52.52-.33-.16.72-.29,1.14-.42-1.36.14-3.52.31-3.93.6l.88.06c-.5.03-.26-.22.1-.29,1.16-.26,1.69.02,1.76.11l-.86.1c.91.53,3.46-.23,5.2-.3l-.7.45,1.76-.44c.38.09.66.31-.2.41,1.26.14,1.09-.21,2.18-.04.12.03.07.05-.04.07l1.21-.19c-.23.1.22.28-.53.26,2.2.13,3.5-.52,4.34-.25l-.18.04c3.02-.33.27-.32,2.52-.83l1.58.65.28-.33c.31-.01.93-.03.83.1,1.15-.29-.21-.12.45-.36,1.52.17,4.13-.43,4.51.03.52-.27-1.45-.07.14-.35.5.49,1.85-.24,3.24-.12-.4.3-1.71.27-.32.4.79-.52,2.68-.12,3.83-.31.02-.37,2.5-.38,4.43-.68-.11.14,3.67-.15,5.49-.21l-.05.07c.31-.4,2.18-.52,3.52-.74-.03.22-.26.34-.99.51l1.27-.14c.29-.15.68-.26,1.5-.39l-.29.31c1.69-.21,3.38-.69,5.57-.78.09-.27-1.81-.5.47-.95.1.13.21.35-.38.48.2-.04.69-.2,1.09-.19l-.89.34c1-.02.49-.26,1.29-.33,0,.2.6.07.51.24-.2.04-.7,0-1,.12.9-.07,1.99-.09,2.37.02-.09-.1-.03-.26.62-.37,1.69-.22.61.17,1.61.14.39-.19,1.49-.19,1.48-.49.49-.06.6.06.81.11.86-.24,4.08-.58,3.05-.76h-.23s.09-.01.14-.02h0s0,0,0,0c2.82-.69,5.97-.66,8.79-1.21v.1c1.69-.37,3.77-.63,4.94-1.03.5-.08,1.21-.01,1.01.14,1.28-.28,1.41-.41,3.3-.56-1.27.38.47.08-1.31.34,1.69-.19,2.1-.08,3.86-.66-.57.35,1.31.1,2.1-.11l-1.21.02c.89-.19,1.68-.3,2.48-.42l-.37.4c3.51-.18,6.06-1.78,8.79-1.58.86-.39-1.89.18-1.13-.24,1.58-.23,3.31-.09,3.8-.18,2.19-.23,1.92-.87,4.19-1.19-.31-.06-.65-.31,1.01-.76,1.58-.28,2.03.08,1.06.39-.37.09-.56.09-.56.05-.5.14-1.16.33-.51.33l.18-.16c.8-.04,2.96-.52,2.49-.22,1.16-.37.47-.3-.43-.17,2.05-.26,3.15-.67,5.24-1.04-.34.01-.68-.05-.35-.13,3.06-.55,1.28-.53,3.31-1.08,1.2-.11-.31.52,1.71-.14,1.29-.19.34.24-.13.46,1.82-.69,3.54-.78,4.62-1.02l-.96.36c.57-.21,1.06-.34,1.55-.48l-.63-.08c.59-.11,1.08-.26,1.09-.16.55-.32-.56-.25.55-.8.8-.11,2.29-.81,2.65-.58-2.44.6.36.22-1.67.87.38-.15.86-.29,1.45-.42.1,0-.06.09-.21.15,2.39-.43.95-.67,3.33-1.42-.25.27.66.14,1.03-.02-.96.3-.55-.13.28-.55,1.55-.4,1.6-.67,2.4-.94l-.92.26c.25-.27,1.01-.52,2.03-.94.14.1-.92.42-.52.35,1.06-.7,2.72-.7,4.26-1.51.79-.19.2.28.88.08,1.69-.99,2.04-.58,3.82-1.61-.63.04-.7.13.5-.7-.98.55-1.98,1.03-2.99,1.52l1.83-1.17c-.92.41-1.89.98-2.46,1.18.86-.58.79-.49.27-.48.7-.11,1.31-.43,1.94-.77.62-.36,1.24-.75,2.01-.99l.21.55c1.15-.39,2.08-.93,3.06-1.57.98-.63,2.05-1.28,3.42-2.03l-.92.42c.24-.42,1.64-1.01,2.46-1.61.03.22.61-.05,1.03-.19-.12-.09,1.92-1.26,1.94-1.74.44-.18.87-.38,1.29-.6,2.1-1.44,1.99-2.15,3.87-3.69-.42.64.53.02-.63,1.2.63-.53,1.21-.99,1.12-1.11.43-.25,1.47-1.75,2.08-2.2.17-.32.1-.53.71-1.2.09-.05.07.07.07.07-.07-.07.8-1.2.13-.72.51-.39,1.06-.91,1.53-1.57.25-.32.49-.66.74-1.01.23-.36.44-.74.66-1.11.88-1.48,1.49-3.05,2.11-4.01.51-1.74.91-3.93.76-5.61.06.1.1,0,.08.32.02-.29.03-.53.03-.73-.03-.2-.07-.37-.11-.5-.08-.28-.18-.45-.28-.63-.1-.18-.18-.37-.29-.67-.13-.29-.27-.69-.42-1.32-.13-1.38.6,1.26.45.43.13-.14.12-.4.04-.75-.08-.35-.35-.73-.59-1.16-.13-.21-.26-.44-.4-.66l-.5-.62c-.34-.4-.58-.87-.85-1.23.11.09.23.18.33.29-.39-.58-1.05-1.12-1.81-1.68-.78-.53-1.71-1-2.65-1.54,0,0,.12,0,.06-.08-1.46-.46-4.05-1.37-6.02-1.84.68-.06.92.15.63-.22-.89-.23.13.46-1.63.02-.53-.29-1.77-.74-1.87-1.05l1.67.42c-.76-.58-2.16-.55-3.02-.81l.15-.13c-2.57-.54-2.69-.14-5.42-.77l.26.18c-1.58.05-1.21-.49-2.77-.51l-.37-.48c-1.01-.11-3.55-.34-5.35-.59,1.06-.1,3.18.16,4.5.26-.98-.21-3.35-.64-3.9-.54.4.04.92.04,1.3.17-1.27.08-2.88-.09-4.85-.45.49-.69-5.09-1.11-6.43-1.91-3.54-.31-6.92-1.22-11.01-1.74,1.37.79-1.19-.15-1.03.49-.96-.08-1.32-.14-1.4-.19l-2.84-.73c-.66-.26.92-.02.85-.17-2.08-.31-.84-.37-2.21-.7.26.25-.76.23-1.95,0l1.65.47c-2.96,0-2.46-.82-5.45-.8l.95-.09c-1.52-.05-5.59-.58-7.11-.21-.26-.1-.6-.29.07-.28-3.62-.41-8.1-.13-10.9-.62l.28-.13c-.68,0-1.19.2-2.03,0,.05-.06.28-.13-.03-.16-.36.03-1.81.16-2.7.02l.78-.12c-3.53-.39-5.45.14-8.42.14.02-.44-2.76-.68-4.15-.78l.05-.06c-4.13-.15-7.03.26-10.85.47-2.38-.45-8.05-.01-11.89.02.59.05-.07.34-.75.44-.9-.01-2.45.51-2.34.1l.32-.02c-.71-.35-2.54-.06-3.98.09l-.18.55c-3.86-.36-9.73,1.67-11.87,1.46-.87.29-1.97.55-2.82.89l-.02-.29c-2.48.5-3.72.81-6.71,1.76l.55-.39c-1.7.53-1.89,1.46-3.42,1.98l-.6-.23c-1.44.55-2.95.95-4.38,1.55-1.45.56-2.88,1.16-4.17,2.03.02-.08.05-.23.49-.46-.66.31-1.96.88-2.99,1.47-1.03.58-1.77,1.15-1.39,1.25-.11-.15-.81.27-1.62.9-.81.63-1.7,1.5-2.28,2.12l.02-.39c-.41.62-.63.95-.88,1.32-.26.37-.59.76-1.19,1.57-.33.35-.44.19.02-.26-1.11,1.17-.6,1.11-1.7,2.69.07-.24.12-.48.2-.72-.43.71-.58,1.07-.66,1.35-.08.28-.1.49-.16.95-.32.98-.95,2.93-1.21,3.15.11.25.17,1.15.05,2.1-.1.12-.14-.23-.16-.41-.36,2.74.34,4.02.3,5.87-.08.05-.11.18-.11.33-.34-2.11-.34-3.87-.32-3.7-.26,0-.21,1.78-.64.39.12.71.36,1.66.6,2.62.26.96.5,1.94.6,2.79,0,.08-.01.17-.04.24l-.07-.17c.06.39.16.72.28,1.03.09.53.11.88.26,1.38-.14.24.41,1.96.72,2.77.24-.16.57.92.44-.15.03.13-.09-.14-.29-.68-.05-.12-.1-.26-.14-.34.01.01.03.03.04.05-.16-.54-.37-1.25-.61-2.05.33.62.63,1.26.76,2.22.32.36.65.75.82.98,0,.62.15,1.47.33,2.21.16.75.31,1.39.27,1.58,1.18,2.36,2.98,5.46,4.35,6.51.47.58.35.79.43,1.07-.28-.33-.56-.75-.75-.91.9,1.19,2.61,3.55,3.14,3.58,1.04,1.55-.93-.6.74,1.35l-.3-.2c1.41,2.12,3.01,3.48,4.69,4.78,1.67,1.32,3.43,2.58,5.39,4.6-.28-.27-.42-.4-.44-.5,4.82,4.22,11,7.05,16.49,10.05,1.6.79,1.87.67,2.94.89l.25.42,1.86.34c2.55.63,4.07,2.22,7.44,2.62l-.36-.31c1.14.38,3.7.81,3.45.99.13,0,.43-.11.86.1v.16s2.93.33,2.93.33c2.22.5-.47.56,2.82,1.15,1.24.11,3.56.03,3.11-.14-.49-.08-1.25-.27-1.26-.43l1.12.07c.26-.43,1.16-.79-1.5-1.49-.64,0-1.28.02-1.92,0l-.57-.33,1.58.25c-.86-.35-1.45-.27-2.11-.25-.13-.14-.38-.27-.74-.38-.64.04-1.27.05-1.91.07-.18-.22.89-.19-.31-.54-.9.03.74.57-.71.41-.84-.4-.54-.52-1.62-.59-.12-.15.12-.17.54-.13-.96-.08-2.45-.53-2.99-.43-.42-.25-1.2-.45-1.85-.63-.64-.2-1.15-.39-1.04-.59-.31,0-1.7-.15-2.53-.44,1.67.03-3.07-1.1-2.47-1.52-1.27.03-4.03-1.34-6.01-2.02.12.02.36.04.52.14-1.05-.53-1.3-.79-1.93-1.22-.3.27-1.99-.44-2.96-.72-1.08-1.03.99.02.76-.52-.08.32-2.34-.92-2.04-.46-.84-.75-.76-.58-1.08-1.15-.41.31-.93-.43-1.85-.68-1.21-1.07-.1-.61-1.64-1.43-.3-.3-.1-.26.16-.15.27.1.62.28.62.28ZM3.17,34.59h0c.06.35.15.64.19.83-.04-.17-.12-.41-.2-.83Zm-.51-3.43c.03.42.09.94.16,1.49-.08.13-.2.02-.24-.33.09.18.04-.64.07-1.16Zm-.44,7.75c-.2-.54-.2-.74-.17-.84.08.26.18.56.31.96.01.01.04.04.05.06-.07-.04-.13-.08-.2-.18Z" style="fill: #bf394b;"/>
      <path d="m2.87,39.79c.03.08.06.12.1.22-.02-.12-.04-.23-.05-.34-.05-.06-.1-.11-.14-.17.03.1.06.2.1.29Z" style="fill: #bf394b;"/>
      <path d="m70.34,70.67h.08c-.06,0-.12,0-.16-.02.05,0,.05.02.09.02Z" style="fill: #bf394b;"/>
      <polygon points="37.31 5.5 37.29 5.43 37.01 5.55 37.31 5.5" style="fill: #bf394b;"/>
      <path d="m50.87,72.06s-.11-.04-.26-.05c.01.02.13.03.26.05Z" style="fill: #bf394b;"/>
      <path d="m42.48,72.82h-1.19c.52.02.89.01,1.19,0Z" style="fill: #bf394b;"/>
      <path d="m36.02,73.26c-.08.06-.1.09-.12.13,0,0,.01,0,.01,0l.1-.13Z" style="fill: #bf394b;"/>
      <path d="m136.98,55.29c.08-.03.16-.07.23-.09.53-.25.16-.09-.23.09Z" style="fill: #bf394b;"/>
      <path d="m107.63,63.66c.31-.11.61-.23.94-.32-.54.09-.95.16-.94.32Z" style="fill: #bf394b;"/>
      <path d="m165.72,38.39h0s.09-.09.14-.14l-.14.14Z" style="fill: #bf394b;"/>
      <path d="m109.97,63.06c-.55.05-.99.15-1.4.28.44-.07.96-.15,1.4-.28Z" style="fill: #bf394b;"/>
      <path d="m8.03,74.89h-.31s-.01.04-.04.05l.35-.05Z" style="fill: #bf394b;"/>
      <path d="m7.68,74.93l-.34.05c.16,0,.3-.02.34-.05Z" style="fill: #bf394b;"/>
      <path d="m6.61,75.09l.72-.1c-.25.01-.56.02-.72.1Z" style="fill: #bf394b;"/>
      <path d="m16.59,74.6l.09-.11c-.05.02-.08.06-.09.11Z" style="fill: #bf394b;"/>
      <path d="m19.19,74.43c-.62.01-1.57-.13-2.43-.02l-.08.09c.4-.17,1.93.14,2.51-.06Z" style="fill: #bf394b;"/>
      <path d="m30.12,74.96l-2.19.08c.39.08.9.19-.09.29,2.77.12-.58-.2,2.27-.37Z" style="fill: #bf394b;"/>
      <path d="m36.89,74.58c-1.17.15.03.16-.03.22.73-.16.91-.2.03-.22Z" style="fill: #bf394b;"/>
      <path d="m85.5,68.66l-.08.27c.89-.18,0-.1.08-.27Z" style="fill: #bf394b;"/>
      <polygon points="94.51 65.82 93.62 65.81 93.25 66.11 94.51 65.82" style="fill: #bf394b;"/>
      <polygon points="100.27 66.64 99.89 66.75 101.36 66.39 100.27 66.64" style="fill: #bf394b;"/>
      <path d="m173.1,32.01l-.41.12c-.22.59.03.87.41-.12Z" style="fill: #bf394b;"/>
      <path d="m152.23,9.44c-.35-.23-1.3-.55-1.94-.52.78.18,1.53.48,1.94.52Z" style="fill: #bf394b;"/>
      <path d="m46.19,1.5l.7-.2c-.45.08-.89.18-1.33.26l.63-.07Z" style="fill: #bf394b;"/>
    </g>
  </g>
</svg>