<?xml version="1.0" encoding="UTF-8"?>
<svg id="_圖層_2" data-name="圖層 2" xmlns="http://www.w3.org/2000/svg" viewBox="0 0 100 100">
  <g id="_圖層_1-2" data-name="圖層 1">
    <g id="_圖層_2-2" data-name="圖層 2">
      <g id="_圖層_1-2" data-name="圖層 1-2">
        <ellipse cx="50" cy="49.89" rx="50" ry="49.89" style="fill: #b61c31;"/>
        <path d="m56.61,98.87v-31.68q0-3.28,3.44-3.28h5.08c1.24,0,1.57-.47,1.72-1.68.27-3.34.8-6.65,1.6-9.91.4-1.33-1.95-1.52-3.02-1.5h-8.93c-2.03,0-3-.68-2.82-2.84.29-3.34-.41-7.11.95-10.39.37-.93,2.38-4.06,5.34-4.27,2.96-.21,5.76,0,8.74,0,1.59,0,1.57-.48,1.92-2.52.34-2.32.47-4.66.4-7,0-2.02-1.09-2.48-2.67-2.5-4.49-.24-9-.22-13.49.07-2.4.28-4.68,1.17-6.63,2.6-.27.19-.8.52-1.33.88-1.31.81-2.38,1.96-3.1,3.33-.68,1.22-1.27,2.48-1.77,3.78-1.45,4.27-.81,8.63-.88,12.94-.11,6.15.49,5.93-5.94,5.89-6.12,0-6.18,0-6.08,6.19,0,2.21-1.04,5.07.51,6.48s4.16.45,6.38.45q5.15,0,5.15,5.33v27.5c0,1.11.08,2.37.08,2.37,7.34,1.54,10.13.72,15.4.25-.05,0-.04-.21-.05-.49Z" style="fill: #fefefe;"/>
      </g>
    </g>
  </g>
</svg>