<?xml version="1.0" encoding="UTF-8"?>
<svg id="_圖層_2" data-name="圖層 2" xmlns="http://www.w3.org/2000/svg" xmlns:xlink="http://www.w3.org/1999/xlink" viewBox="0 0 74.94 75.1">
  <defs>
    <linearGradient id="_未命名漸層_4" data-name="未命名漸層 4" x1="0" y1="37.47" x2="74.94" y2="37.47" gradientUnits="userSpaceOnUse">
      <stop offset="0" stop-color="#f5dea8"/>
      <stop offset=".03" stop-color="#f5dea8"/>
      <stop offset=".88" stop-color="#f5dea8"/>
    </linearGradient>
  </defs>
  <g id="_圖層_1-2" data-name="圖層 1">
    <g id="_圖層_1-2" data-name="圖層 1-2">
      <circle cx="37.47" cy="37.47" r="37.47" style="fill: url(#_未命名漸層_4);"/>
      <path d="m42.42,74.25v-23.79q0-2.46,2.58-2.46h3.81c.93,0,1.18-.35,1.29-1.26.2-2.51.6-5,1.2-7.44.3-1-1.46-1.14-2.26-1.13h-6.69c-1.52,0-2.25-.51-2.11-2.13.22-2.51-.31-5.34.71-7.8.28-.7,1.78-3.05,4-3.21s4.32,0,6.55,0c1.19,0,1.18-.36,1.44-1.89.25-1.74.35-3.5.3-5.26,0-1.52-.82-1.86-2-1.88-3.37-.18-6.74-.16-10.11.05-1.8.21-3.51.88-4.97,1.95-.2.14-.6.39-1,.66-.98.61-1.78,1.47-2.32,2.5-.51.91-.95,1.86-1.33,2.84-1.09,3.21-.61,6.48-.66,9.72-.08,4.62.37,4.45-4.45,4.42-4.59,0-4.63,0-4.56,4.65,0,1.66-.78,3.81.38,4.87s3.12.34,4.78.34q3.86,0,3.86,4v20.65c0,.83.06,1.78.06,1.78,5.5,1.16,7.59.54,11.54.19-.04,0-.03-.16-.04-.37Z" style="fill: #fefefe;"/>
    </g>
  </g>
</svg>