<svg width="1440" height="214" viewBox="0 0 1440 214" fill="none" xmlns="http://www.w3.org/2000/svg">
<path d="M-19.9771 75.9054C-18.3908 83.584 -17.1536 91.2772 -16.9866 98.9791C-16.8196 106.71 -17.6773 114.447 -17.8139 122.178C-18.072 137.547 -17.3433 152.919 -16.3566 168.282C-15.9771 174.161 -15.0056 180.072 -15.2257 185.951C-15.3547 189.39 -16.1213 192.826 -16.7589 196.253C-17.8671 202.2 -19.1574 208.239 -18.7248 214.231H1460C1459.75 213.489 1459.5 212.749 1459.25 212.007C1453.5 195.887 1461.49 173.098 1457.21 156.902C1453.12 141.423 1451.53 132.367 1454.52 111.524C1456.35 98.7782 1453.64 83.9131 1455.42 67.6095C1457.18 51.4572 1458.63 35.4215 1458 19.2547C1457.9 16.7767 1456.08 14.3337 1453.68 11.8993C1372.23 24.6272 1282.84 30.4364 1195.14 29.1115C1142.43 28.3136 1092.25 23.1537 1042.24 16.9573C992.936 10.8481 943.828 4.16536 892.526 1.09041C865.671 -0.083078 838.87 -0.0423111 812.016 1.13991C772.031 3.5131 733.207 7.94789 694.489 12.4147C657.563 16.6748 620.492 20.9087 582.389 23.2964C561.463 24.6068 540.347 25.7773 519.095 25.5327C499.656 25.3114 480.104 24.2457 461.068 22.7257C400.725 17.9094 345.028 6.62881 284.109 2.79095C268.231 2.15034 252.329 2.0921 236.435 2.72689C214.682 4.02268 193.141 5.76107 171.235 6.83847C150.355 7.86636 129.406 8.64675 108.525 9.67173C86.4148 10.8889 64.0768 12.4205 43.1658 15.4722C18.8164 19.8429 -3.89349 25.5269 -28 30.0403C-27.6433 45.3685 -23.1271 60.6326 -19.9696 75.9054H-19.9771Z" fill="url(#paint0_linear_459_771)"/>
<defs>
<linearGradient id="paint0_linear_459_771" x1="721.131" y1="-85.7477" x2="719.778" y2="286.274" gradientUnits="userSpaceOnUse">
<stop offset="0.11" stop-color="white"/>
<stop offset="0.19" stop-color="#F6F9F2"/>
<stop offset="0.34" stop-color="#E1EAD2"/>
<stop offset="0.54" stop-color="#BED29D"/>
<stop offset="0.78" stop-color="#90B256"/>
<stop offset="1" stop-color="#94BA63"/>
</linearGradient>
</defs>
</svg>
