<?xml version="1.0" encoding="UTF-8"?>
<svg id="_圖層_2" data-name="圖層 2" xmlns="http://www.w3.org/2000/svg" xmlns:xlink="http://www.w3.org/1999/xlink" viewBox="0 0 559.39 161.2">
  <defs>
    <linearGradient id="_未命名漸層_13" data-name="未命名漸層 13" x1="279.47" y1="252.9" x2="280.75" y2="-306.49" gradientUnits="userSpaceOnUse">
      <stop offset=".1" stop-color="#fff"/>
      <stop offset=".1" stop-color="#fcfdfb"/>
      <stop offset=".16" stop-color="#d7e5c5"/>
      <stop offset=".22" stop-color="#bad29a"/>
      <stop offset=".27" stop-color="#a5c57c"/>
      <stop offset=".32" stop-color="#98bc69"/>
      <stop offset=".35" stop-color="#94ba63"/>
    </linearGradient>
  </defs>
  <g id="_圖層_1-2" data-name="圖層 1">
    <path d="m220.82,11.73s8.32-7.27,8.92-7.13,4.04-3.36,4.34-3.51,5.89,5.32,5.89,5.32l-8.54,16.37-10.61-11.05Z" style="fill: #425451;"/>
    <path d="m558.9,157.95l-7.66-8.62c-.16-.18-.34-.3-.54-.38l-33.33-12.64c-.16-.06-.32-.16-.46-.29l-29.44-28.49-32.27-32.48c-.13-.13-.27-.23-.43-.3l-27.1-11.59c-.13-.05-.25-.08-.39-.09-2.12-.12-21.01-1.59-23.86-15.05-2.78-13.17-23.72-9.36-26.93-8.69-.27.06-.55.01-.8-.13l-37.88-21.13c-.47-.26-.97-.17-1.36.15h0s-11.13-6.29-11.42-3.8c-3.09-2.36-5.98-5.13-9.16-7.31-1.74-1.19-3.59-2.26-5.56-1.95-3.4.54-6.76.69-10.11-.45-1.22.2-2.49.54-3.1-1.44-.1-.17-.23-.29-.38-.37-.61,0-.97-.57-1.39-1.01-.98-.5-1.21,1.53-2.21,2.04-.16,1.94-2.14,2.17-3.82,2.73-.48.16,0,0-.21.58-.19.53-.39,1.05-.58,1.57-2.66-.56-4.27-6.13-4.69-4.24-.8-1.93-3.54,1.57-4.83.09-.47-.54-.21-4.4-.86-4.02-.76.44-1.5,4.73-1.37,5.57.22,1.4.47-2.66.47-1.25-.23.5-1.3,2.73-2.42,2.67-1.3-2.24.01-.68-.8-3.17-.78-1.41-1.6-2.78-2.98-3.26-1.29-.45-1.91.14-1.72,1.83.26,2.33.33,4.64.23,6.97-.05,1.15.47-1.26.38-.25,0-.02-.38.25-.38.25-.33-.05-.63.09-.7.27.02-.39-.47,2.34-.63,1.92-.37.12-.55.31-.63.56-.01-.17-.03-.34-.05-.51-.16-.17-.33-.21-.52-.1-.61.89-.35,2.09-.63,3.09,3.85-2.44.88-5.77-.24-4.31-.4-.53,1.56.76.99.39-.56-.2-1.96.98-2.17,1.55-.1.65-1.03-1.34-.99-.65-1.07-.29-.9-1.68-.9-1.68.28-.13.14.39,0,0-.87-1.6-1.69,2.05-1.39.08.2-1.28.15-2.63.1-3.95-.04-1.22-.46-2.26-1.44-2.31-1.29-.07-1.86-1.12-2.42-2.3-.41-.21-.84-.22-1.26-.12-4.97,1.23-9.86.83-14.79-.79-2.88-.94-5.9-.51-8.69,1.12-.07.49.2.66.48.83.32.14.64.16.98.21.17,0,.29.18.22.26-.18.19.06-.03-.14.14-.76.64-2.61-.04-1.85,2.47.67.49,1.35.13,2.03.03.54-.05,1.08-.06,1.61.1.05.02.45.04.03.19-.11.04-.24.01-.36.04-.16.04-.32.09-.48.17-.15.09-.3.19-.43.32-.37.29-.8.29-1.2.43-2.7.97-2.86,1.24-2.7,4.61.01.47.16.86.38,1.23.58.82.84,1.7.35,2.73-.45.93-1.2,1.1-1.91.9-2.13-.61-4.03-2.16-6.17-2.78-.16-.05-.25-.41-.39-.65v-.4c.04-1.36-1.05-2.31-2.02-1.77l-1.89,1.06c-1.49-.05-2.84.76-4.25,1.23-.42.47-.73,1.01-.91,1.65l-30.83,17.19c-.25.14-.53.18-.8.13-3.21-.67-24.15-4.48-26.93,8.69-2.85,13.46-21.74,14.93-23.86,15.05-.13,0-.26.04-.39.09l-27.1,11.59c-.16.07-.3.17-.43.3l-32.27,32.48-29.44,28.49c-.14.13-.29.23-.46.29l-33.33,12.64c-.2.08-.38.21-.54.38l-7.66,8.62c-1,1.13-.37,3.27.97,3.26l194.94-1.57h0s142.78,5.92,142.78,5.92c.26.4.65.66,1.08.66l18.4.15,38.79,1.61,1.53-1.28,158.94,1.28c1.34.01,1.98-2.13.97-3.26Z" style="fill: url(#_未命名漸層_13);"/>
    <path d="m287.9,7.53h0c-1.15-.31-2.33-.14-3.44-.89.78-2.42,3.78,3.55,5.13,3.27.6-.13,6.49-6.27,6.51-7.23.01-.77,2.93.94-.77-.8l-3.15-.28-2.79.88c-.56-.23-1.78.94-2.35.71-.39-.23-.78-.46-1.18-.69-2.5-.67-5-1.33-7.51-2h0c-4.43-1.04-8.61-.18-12.84.26-1.84-.26-3.62-.08-5.35.34-1.39-.6-2.05,1.48-3.46.41-.06.2-1.53.55-1.6.75l-.72.12h-2.13c-.47,2.26,2.67,3.36,2.2,5.62,1.03-.09,1.48-1.06,2.14-1.72,2.2,1.8,1.7,2.22,3.92,3.89-3.33,3.13,1.78,1.93,1.78,1.93.6.04,1.66.72,2.27.76.76,1.32,1.66-1.99,2.86-1.4-.54,1.82,1.09,2.25,2.69,2.89,1.38.55,3.1.94,3.73,2.58.99,2.56,2.86,2.91,4.61,3.86,1.73.94,2.78.07,3.54-1.18.83-1.35.87-2.95-.71-4.29-.09-.49-.19-.98-.28-1.46.71-.16,1.71-.28.93-1.52-1.4-2.22-.09-1.8,1.06-2.01,1.8-.34,3.67.34,5.46.16h0s0,0,0,0h0c.05-.2.1-.4.15-.61h0c.18.08.36.16.54.23.8.24,1.55,1.02,2.48.71-.42-2.51-2.33-2.46-3.72-3.26Z" style="fill: #425451;"/>
    <path d="m272.98,13.56c.07-.31.14-.62.19-.94" style="fill: #94ba63;"/>
    <path d="m272.32,13.9c.03-.41.05-.77.07-1.1" style="fill: #94ba63;"/>
    <path d="m485.76,159.74c-.09-.78-.31-1.56-.32-2.34.05-1.42-.21-2.83-.04-4.26.07-.61.31-1.43-.32-1.83-.64-.4-1.07.15-1.47.71-.1.13-.25.18-.39.23-1.35.4-.37-.93-.6-1.36.36-.76.24-1.61.26-2.44.02-.31.08-.63-.01-.93-.29-.88-.37-2.33-1.31-2.11-.91.22-.89,1.78-.64,2.55.78,2.5-.56,4.02-1.34,5.78-.45,1.02-1.12.87-1.38-.27-.29-1.28-.99-2.28-1.27-3.56-.08-.36-.31-.68-.62-.7-.37-.02-.41.45-.5.79-.38,1.44-.92,2.74-1.76,3.82-.32.42-.46.94-.42,1.54-.02.88-.77.55-1.02,1.05-1.07-.47-1.66-1.53-2.24-2.74-.68-1.4-1.05-2.94-1.51-4.44-.25-.2-.45-.44-.54-.83-.29-1.27-.36-2.57-.34-3.89,0-.37-.03-.84-.37-.91-.37-.07-.4.41-.49.76-.22.89-.41,1.8-.68,2.67-.28.71-.53,1.51-1.18.39-.28-.47-.57-1.19-1.14-.77-.62.46-.54,1.29-.27,2,.28.74.24,1.45.06,2.18-.3,1.19-.25,2.33.24,3.44.18.41.44.87.14,1.39-.75.53-1.37.01-2-.44-.4-.28-.67-.96-1.24-.7,0,1.96,0,3.91,0,5.87,8.23-.55,16.48-.73,24.73-.64Z" style="fill: #415553;"/>
    <path d="m371.14,153.24c-.02,1.1-.05,2.19-.07,3.29.19.81.95,1.36.68,2.38l-8.42-.39c-.15-1.53-.29-3-1.11-4.33-1.06-1.71-.43-3.69.44-4.92,1.71-2.42,2.27-5.3,2.42-8.29.11-2.06,1.35-3.68,1.04-5.84.91,2.21,2,4.26,1.65,6.99-.18,1.38.15,2.78,1.33,3.47.95,1.59,1.03,3.54,1.28,5.39.12.86.22,1.64.76,2.23Z" style="fill: #415552;"/>
    <path d="m453.19,153.5c.92-.59,1.46-1.6,1.89-2.74.37-.35.04-1.04.4-1.39,1.02,2.6-.65,3.92-1.59,5.58-.49-.02-.98-.04-1.46-.07-.19-.87.23-1.17.77-1.37Z" style="fill: #44564b;"/>
    <path d="m59.38,116.26c.06.07.12.14.17.21.05.07.1.13.14.21.31.59.65,1.04,1.16,1.17.46.11.84.64,1.27.95.23.17.36.57.28.96-.09.38-.34.4-.55.26-.4-.26-.5.14-.62.53h0c.27,1.02.25,1.11-.33,1.17-.16.02-.25.21-.36.35-.22.18-.41-.02-.61-.18-.17-.15-.34-.21-.39.18.05.32.24.54.32.84.33.83.76,1.54,1.25,2.17.42.54.8,1.13,1.15,1.76.17.3.44.68.22,1.06-.18.32-.45,0-.65-.19-.25-.23-.49-.48-.76-.66-.06-.04-.12-.08-.17-.12-.26-.99-1.58-2.35-2.17-2.25-.4.07-.61.86-.4,1.48.11.31.29.54.45.79.15.24.25.48.12.8-.29.71-.8.73-1.18.04-.47-.85-.75-1.89-1.24-2.74-.37-.65-.26-1.32.24-1.7.31-.25.27-.49.08-.84-.12-.22-.22-.44-.31-.69-.38-.8-.59-1.78-1.02-2.51,1.31-1,2.62-2.02,3.92-3.04Z" style="fill: #415553;"/>
    <path d="m482.72,147.52c-.09-.35-.12-.76-.28-1.05-.32-.58-.24-1.98-.82-1.7-.71.35-.66,1.93-.43,2.6.56,1.62.49,2.75-.57,3.93-.43.48-.56,1.41-.85,2.13-.33.83-.92.45-1.41.48-.42.02-.57-.37-.57-.87,0-1.78-1.29-2.81-1.53-4.6.06,2.81-2.08,3.93-2.53,6.25-.06.1-.13.13-.19.09-.06-.03-.09-.07-.09-.1.02-1.16-.71-1.95-.87-3.02-.19-.39-.25-.83.05-1.11.22-.21.4.1.54.35.63.62,1.17,1.16,1.53-.42.21-.91,1.04-1.48,1.06-2.58.29-.34.59-.3.88,0,.09,0,.19,0,.28,0,.28.3.35.79.57,1.14h0c.36.54.29,1.31.58,1.89h0c.25.44.38.98.7,1.49.55-.43.58-1.38,1.04-1.86.24-1.16,1.21-2,.87-3.4-.33-.76-.48-1.51,0-2.27.15-1.21.13-2.44,1.43-2.8.65-.18.62-1.2.49-2.08-.18-1.25-.46-2.51-.18-3.81-.08-1.97.94-3.36,1.56-4.94.21-.53.58-.97.87-1.45.51-.77,1.49-.35,1.92-1.31.28-.27.57-.45.92-.26.29.42.39.92.34,1.48-.18.55-.7.46-.97.84-.65,1.38-1.55,2.5-2.06,4.04-.6,1.85-.75,3.55-.32,5.52.34,1.53.03,3.18-.98,4.31-.79.89-.1,2.24-.71,3.14-.06.12-.13.16-.19.12-.06-.04-.1-.08-.1-.12Z" style="fill: #435550;"/>
    <path d="m328.21,40.61c-.46-.96-.52-2.25-1.41-2.88-.24-.05-.44-.21-.6-.43-.36-.54-.62-1.16-.95-1.73-.1-.17-.18-.34-.27-.52-1.44-3.17-3.49-5.69-5.41-8.35-1.19-2.06-2.68-3.8-3.81-5.93-.34-.64-.84-1.14-.9-1.98.09-1.28.73-1.08,1.39-.85.6.29,1.08.79,1.43,1.48,1.27,1.96,2.55,3.9,3.8,5.87,3.75,5.93,7.48,11.87,11.22,17.8.15.23.38.38.57.57.33.52.8.92.9,1.64-.57,2.22-1.39-.18-2.06.16-1.56-1.28-3.1-2.59-3.9-4.87Z" style="fill: #425451;"/>
    <path d="m401.09,78.33c.03-.13.05-.23.07-.34,0-.05,0-.11,0-.16.02-.69-.47-.85-1.01-.97-1.41-.31-2.81-.7-4.2-1.14-.47-.15-.93-.35-1.41-.43-1.04-.19-2.17-.67-1.64,1.79.43,1.99-1.08,2.48-1.87,2.05-2.02-1.11-4.18-.81-6.21-1.56-1.61-.59-.62-1.95-.51-2.84.19-1.62.82-.27,1.26-.1.52.21,1.02.55,1.56.64,1.7.31,3.27-2.03,2.52-3.88-.99-2.42-2.72-3.92-4.61-5.04-.49-.29-1.2-.4-1.7.3.94-.02,1.45.99,2.17,1.52.33.69.82.99,1.44,1.02.4.48.84.91,1.18,1.45.3.47.64,1.08.41,1.7-.27.77-.91.72-1.44.6-1.8-.4-3.6-1.3-5.26.64-.44.52-1.62-.58-1.84.7-.18,1.08.8,1.63,1.3,2.39.31.47.71.83,1.07,1.25.45.74,1.12.89,1.76.95,1.09.11,2.1.47,3.07,1.07.98.33,2,.32,3,.69,1.86.68,3.27.01,3.84-1.87.45-1.5,1.17-1.47,2.12-1.41,1.68.11,3.24,1.28,4.96.97Z" style="fill: #43564e;"/>
    <path d="m490.09,159.81c3.35.07,6.7.18,10.04.33-.06-.07-.12-.13-.18-.19-.58-.34-1.2-.42-1.83-.47-1.05-.08-2.11-.11-3.16-.15-3.04-.11-5.78-2.74-8.94-1.75-.17.05-.36-.14-.55-.19-.16-.02-.31.04-.43.18,0,.72.26,1.44.38,2.17,1.55.02,3.11.04,4.66.07Z" style="fill: #44554f;"/>
    <path d="m391.03,66.56c-1.9.06-3.53-1.13-5.18-2.07-1.75-1-3.47-2.04-5.46-2.37.3,2.11,2.53,1.92,2.58,4.08-1.75-.49-3.13-1.85-4.11-3.63-1.33-2.42-2.4-5.07-3.59-7.62-.22-.47-.57-.89-.13-1.43.42-.52.79-.1,1.16.14.64.42,1.07,1.13,1.22,1.98.5,2.69,2.05,4.04,3.83,5.09,2.49,1.47,5.01,2.87,7.52,4.31,1.17-.56,1.91-.1,2.17,1.52Z" style="fill: #45564d;"/>
    <path d="m401.03,78.31s.07.09.1.13c.04-.65.08-1.31.12-1.96-1.8.1-3.51-.76-5.29-.75.32.63.91.32,1.3.59,1.2.85,2.94,0,3.78,1.98Z" style="fill: #42554d;"/>
    <path d="m342.46,58.22c.34,1.74,1.68,2.88,1.73,4.79-.74-.28-.42.85-.83,1.02-.86-.19-.99-1.21-1.3-1.98-.31-.78-.79-1.3-1.32-1.79-.81-2.27-2.78-3.59-3.14-6.23.34-.69.98-.54,1.47-.83,1.45,1.32,2.56,3.02,3.39,5.03Z" style="fill: #425451;"/>
    <path d="m392.8,53c-.48.92-.45,1.82-.08,2.82.38,1.03.71,2.12.67,3.31.53-.42,1.26-.46,1.81-1.61-.35-.34-.77-.68-1.12-1.11-.35-.42-.8-.97-.42-1.59.39-.63,1.24-.55,1.46-.08.67,1.49,2.16,1.81,2.72,3.29.75,2,2.01,2.72,3.59,2.88-2.85-2.68-4.57-7.41-8.62-7.91Z" style="fill: #45564d;"/>
    <path d="m292.07,17.29c1.64-3.22,2.3-6.75,2.08-10.59-.05-.86.02-1.71-.32-2.5.34-.28.57-.98,1.11-.42-.25,2.37.19,4.71.22,7.06.2.27.32.59.35.96-.09.94.07,1.95-.39,2.8-.11.2-.26.35-.43.45-.48,0-.72.31-.75.91-.54.72-.88,1.67-1.51,2.29h0c-.63-.02-.61-.43-.35-.97Z" style="fill: #425451;"/>
    <path d="m455.48,149.36c-.03.52.04,1.08-.4,1.39-.03-.78.07-1.83-.95-.93-1.22,1.07-2.39,1.5-3.83.37-.71-.56-1.65-.17-2.43.37-.62.43-1.3.23-1.96.24-.89-2.04.64-2.72,1.35-3.84-.33-.59-.76-.79-1.24-.86-.12-.23-.1-.43.06-.62.37-.13.73-.14,1.05.2,1.54.65,1.37,1.48.18,2.46-.37.31-1.03.59-.64,1.37.29.58.93.62,1.32.22.86-.88,1.71-.66,2.56-.14,1.25.77,2.32.21,3.45-.47.42-.25,1.16-1.52,1.48.24Z" style="fill: #47594f;"/>
    <path d="m389.89,117.84c.12.02.29,0,.35.08,1.85,2.93,4.45,2.46,6.92,2.59,0,.16,0,.31,0,.47-1.56-.17-3.13.25-4.69-.18-.32-.09-.84-.66-1.11.13-.19.56.01,1.07.32,1.5.33.47.67.93.64,1.63-.25.28-.49.27-.72-.04-1-1.87-1.78-3.84-1.7-6.19Z" style="fill: #49584d;"/>
    <path d="m386.6,150.64c-.37-.02-.73-.03-1.1-.05-.72.44-1.22-.36-1.82-.55-.36-.02-.73-.05-1.09-.07-.37-.8-.99-1.6.05-2.33,1.98.08,3.98.38,5.88-.68-.37,2.11-1.85,1.34-2.84,1.69-.71.25-1.53-.01-2.8-.07,1.57.84,2.87.81,3.73,2.06Z" style="fill: #44564c;"/>
    <path d="m337.46,52.81c-1.05-1.63-1.69-3.71-3.19-4.86-.53-.75-1.03-1.56-1.79-1.97-.11-.32-.23-.64-.34-.96.62-.59,1.17,2.08,1.83.09,1.47,1.92,2.62,4.16,3.88,6.3-.3.38-.02,1.04-.39,1.39Z" style="fill: #425451;"/>
    <path d="m390.08,59.92c-.24-.17-.48-.34-.72-.5-.05-1.18.44-1.56,1.25-1.31.94.29,1.86.68,2.78,1.02-.52.66-2.28.29-1.15,2.31-.93-.01-1.58-.68-2.16-1.51Z" style="fill: #48554e;"/>
    <path d="m305.01,12.71c.2-1.67-.7-3.1-.64-4.73.72,1.16.45-.45.75-.44.64.97.28,2.43,1.02,3.35-.01.52,0,1.05-.04,1.57-.1,1.85-.64.75-1.1.26Z" style="fill: #425451;"/>
    <path d="m343.77,65.92c-.11-.58-.22-1.16-.33-1.75.05-.72-.13-1.82.76-1.12.27,1.7,1.46,2.85,1.22,5.28-.65-.95-1.15-1.68-1.65-2.41Z" style="fill: #425451;"/>
    <path d="m487.95,129.77c-.2-.47-.33-.97-.29-1.52-.48-1.13-.4-2.26,0-3.4h0c.16-.21.24-.61.58-.37,0,.13,0,.25,0,.38.3,1.45.07,2.92.12,4.37.01.35-.11.58-.42.53Z" style="fill: #45554a;"/>
    <path d="m389.99,63.69c-.12,0-.24-.02-.36-.02-.53-1.16.13-1.24.75-1.37.33-.07.86.2.91-.41.05-.63-.53-.72-.86-1.01-.29-.22-.35-.57-.34-.96.72.5,1.44,1.01,2.16,1.51-.02.52.04,1.08-.4,1.4-.52.64-1.23.59-1.85.86Z" style="fill: #4f604d;"/>
    <path d="m369.74,117.38c.13-.15.26-.3.39-.46.28.07.87-.89.78.22-.07.95.43,1.74.25,2.65-.51-.08-1.09.17-1.46-.53.02-.63.03-1.25.05-1.88Z" style="fill: #45554a;"/>
    <path d="m371.26,115.1c-1.51-1.11-3.17-.34-4.75-.69,1.55-.89,3.15-.32,4.71-.13.93.11.74,1.36.74,2.27-.48-.29-.71-.77-.7-1.45Z" style="fill: #4f5d54;"/>
    <path d="m366.15,114.39c.12.32.23.64.35.95-.9-.13-1.85.15-3.03-.57,1.07-.71,1.9-.31,2.68-.38Z" style="fill: #546245;"/>
    <path d="m391.22,140.02c-.41,1.12.25.93.72.99-.21.14-.43.42-.62.39-.6-.1-1.64.46-1.69-.57-.06-1.15.98-.71,1.59-.8Z" style="fill: #56654c;"/>
    <path d="m391.59,124.03c.24.01.48.02.72.04.04.55.85.93.32,1.55-.81.97-1.13-.77-1.81-.68-.12-.11-.16-.21-.12-.31.04-.1.09-.15.13-.15.3,0,.58-.08.75-.45Z" style="fill: #475c57;"/>
    <path d="m387.09,128.54c-.49-.02-.97-.05-1.46-.07,0-.31,0-.62,0-.93.73.03,1.46.07,2.2.1-.25.3-.5.6-.75.91Z" style="fill: #4a5946;"/>
    <path d="m443.16,142.68c-.53.76-.1,1.55-.05,2.34-.84-.82-1.81-1.64.05-2.34Z" style="fill: #515f44;"/>
    <path d="m292.42,18.26c.36-.92.7-1.86,1.51-2.29.04.82-.56,1.2-.77,1.85,0,.15-.01.31-.01.46-.24,0-.48-.01-.73-.02Z" style="fill: #425451;"/>
    <path d="m390.84,124.48c0,.15,0,.31,0,.46-.84-.31-1.66-.7-2.55-.59,0-.16,0-.31.01-.47.87.07,1.77-.1,2.55.6Z" style="fill: #49584d;"/>
    <path d="m383.67,150.05c.61.18,1.22.37,1.82.55,0,.16,0,.31,0,.47-.72,0-1.35-.26-1.81-1.02Z" style="fill: #52634d;"/>
    <path d="m313,15.43c-.46-.5-.64-1.17-.69-1.91,0,0,0,0,0,0,1.07.14,1.16.86.69,1.91h0Z" style="fill: #425451;"/>
    <path d="m298.56,6.24c1.77.71,3.38,1.8,4.35,3.89.66,1.43,1.21,1.27,1.93.25,0,.31-.01.62-.02.93.45,1.06-.18,2.26.29,3.31,0,0,0,0,0,0-.06.34.12.83-.22.97-.12.05-.35-.34-.54-.53-.83-1.1-.74-2.87-1.74-3.84-1.05-2.7-4.58-2.56-7.12-2.37.12-.29,1.6-2.24,1.73-2.53.44-.03.89-.06,1.33-.09Z" style="fill: #425451;"/>
    <path d="m395.77,128.87c-.47-.03-.84-.18-.84-.58,0-.32.33-.48.71-.48.47,0,.84.17.84.57,0,.33-.33.45-.71.49Z" style="fill: #485c5a;"/>
    <path d="m389.99,63.69c.27-1.5,1.2-.69,1.85-.86.01.69.26,1.13.77,1.42,1.38.77,1.37,1.76.22,2.85-.58-1.65-1.98-2.17-2.85-3.42Z" style="fill: #42554b;"/>
    <path d="m312.87,13.68c1.34-.39.39-1.32.16-1.83-.36-.78-.96-1.39-.8-2.43,2.47,3.17,3.43,7.43,5.01,11.26.87,2.11,2.02,4.05,3.04,6.06-.37.16-1.01-.82-1.12.43-1.06-.77-.92-2.77-2.12-3.4.05-.8-.04-1.52-.69-1.91-.66-3.07-2-5.66-3.48-8.16Z" style="fill: #425451;"/>
    <path d="m272.57,20.64c.59-1.36.13-1.9-.93-1.85-.54.02-1.07.22-1.6.34-1.41.66-2.43,1.84-3.01,3.63-.79,3.39-1.98,6.56-3.14,9.74h0c-1.12,2.44-2.01,5.09-3.82,6.89h0c-.69-.8-1.23-.17-1.41.53-.45,1.76-1.83,2.55-2.44,3.99-.94,2.23-3.04,3.05-3.7,5.5,0,0,0,0,0,0,0,0,0,0,0,0-.26,1.59-1.54,1.77-2.27,2.72h0c-1.5,1.34-2.99,2.68-4.49,4.02-1.26.55-2.29,1.58-3.29,2.65,0,.33-.01.65-.02.98.1,0,.2,0,.3,0h0c1.28.89,2.27-.12,3.32-.79.1,1.24.6,2.46,1.57,1.85,1.74-1.11,3.57-.04,5.38-.91,1.92-.93,2.61-1.32,2.26-3.87-.16-1.2-.49-2.25-1.63-.96-.56.63-1.24.96-2.01.85,1.06-2.3,3.04-2.93,4.68-4.14,1.59-1.17,2.88-2.88,4.74-3.64-.66-.97-1.11-.15-1.55-.33h0,0c.51-.76,1.02-1.52,1.52-2.28,1.02-.21,1.65-.97,1.88-2.27,0,0,0,0,0,0h0c.37-.3.74-.6,1.11-.89h0c1.2-.16,1.47-1.18,1.55-2.54.06-1.17-.31-2.45.42-3.48.02-1.56-.13-3.22.91-4.35,1.55-1.69,1.95-3.97,2.29-6.37.33-2.4,1.71-3.95,3.36-4.04,0-.32.01-.63.02-.95h0s0,0,0,0Zm-7.68,16.14h0s0-.07,0-.1c0,.01.02.02.03.03-.01.02-.02.05-.04.07Z" style="fill: #425451;"/>
    <path d="m326.66,119.57s0,0,0,0c0,0,0,0,0,0-.56-2.22-1.6-1.79-2.61-.7-.99,1.07-1.95,1.34-3.3,1.26-1.83-.1-3.84-.36-5.48,1.28h0s0,0,0,0h0c-.72.33-1.1,1.55-2.04,1.29-2.86-.81-4.09,2.02-5.61,4.15-.4.56-.02,1.18.15,1.75.02,1.96-1.72,1.52-2.26,2.72-1.83-.92-3.54-.69-5.19.7-.53.45-1.18,1.09-1.85.74-2.09-1.11-3.86.95-5.83.81-.15.12-.38.19-.44.37-.33.96-1.53,2-.67,2.86.6.6.89-1.23,1.44-1.81,1.85.86,3.88-1.18,5.69.67.16.16.58-.02.86-.13,1.13-.48,2.25-1,3.37-1.5.23.48.46.97.69,1.45h0c-.67.82-.33,1.49.32,1.79.8.36,1.9,1.45,2.48.17.9-1.98,2.16-2.73,3.78-3.13.83-.21.79-.82.08-1.35h0s0,0,0,0c.13-.31.27-.61.4-.92h0s0,0,0,0c.44.14.63,1.03,1.29.7,0-.21.02-.44-.02-.64-.58-3.02-.29-3.42,2.11-2.79.77.2,1.5.05,2.08-.54.76-.77,1.62-.85,2.42-.53.85.34,1.35.16,1.81-.78.49-1.01.7-1.96,0-2.96,1.34.17,2.52-1.29,3.95-.6.25.12.45-.62.49-1.1.9.21,1.31-.73,1.86-1.33-.25-.56-.69-.48-1.09-.52.27-.6,1.17-.32,1.13-1.36Z" style="fill: #44554c;"/>
    <path d="m399.54,111.69c.03-.8.06-1.59.09-2.39-.05.79-.07,1.58-.09,2.39Z" style="fill: #415553;"/>
    <path d="m292.07,17.29c0,.39.06.75.35.97-.25,1.11-.71,2.01-1.81,2.96.48-1.69.42-3.12,1.46-3.93Z" style="fill: #425451;"/>
    <path d="m337.46,52.81c.16-.45-.58-1.32.39-1.39.36.64.71,1.28,1.07,1.92-.11,1.24-.65.69-1.12.43-.29-.22-.34-.58-.34-.96Z" style="fill: #425451;"/>
    <path d="m310.58,11.77c1.72-.73,2.5-.25,3.25,2.02-.96-1-2.04-1.69-3.25-2.02Z" style="fill: #425451;"/>
    <path d="m305.12,7.54c-.69-1.02-.18-2.21-.29-3.31.67,1.03.18,2.21.29,3.31Z" style="fill: #425451;"/>
    <path d="m295.66,111.65c-.62-.92-1.36-1.54-2.35-1.54-.54.05-1.01-.19-1.46-.53h0c-.66-1.12-1.08-2.64-2.51-2.48-.35-.49-.71-.98-1.06-1.46,0,0,0,0,0,0,.15-1.95-.49-3.01-2.06-2.89-.71.05-1.11-.46-1.53-1.03h0c-.49-1.07-1.04-2.04-2.15-2-.49-.01-.98-.02-1.46-.04h0c-.37-.02-.73-.04-1.1-.06h0c-2.01-2.04-4.12-.96-5.99.03-3.07,1.62-6.36,1.14-8.78-1.86-.46-.57-1.02-.83-1.65-.82,0,0,0,0,0,0,.21-3.35-.26-6.23-3.06-7.65-.41-.21-.68-.87-1.06-1.24-1.72-1.71-3.05-4.02-5.34-4.84-1.26-.45-2.8-.36-3.76-1.92-.95-1.77-2.01-1.05-3.07-.23-.16.1-.28.31-.39.55-.46-.04-.9-.18-1.31-.54-1.11-.84-2.43-.52-3.58-1.11-.01.47-.02.94-.03,1.4h0,0c0,.16,0,.32-.01.48h0,0c-.02.94-.03,1.88-.05,2.82h0c-.01.47-.02.94-.04,1.41,0,0,0,0,0,0h0c0,.16,0,.32,0,.48,1.17-.08,1.97-1.73,3.27-1.27,0,0,0,0,0,0,0,0,0,0,0,0,.53-.04,1,.2,1.44.53t0,0c1.36-.43,2.31,1.25,3.64,1.14,1.36-.11,2.77-.14,2.98,2.34.05.58.52.66.87.61,1.54-.2,2.11.95,2.55,2.62.26.98.44,2.82,1.6,2.37,2.56-1,2.03,1.12,2.03,2.86-.56.72-.62,1.59-.06,2.24.55.63.65,1.15.42,2.01-.18.67.13,1.3.71,1.33.79.04.62-.68.48-1.31-.13-.55-.26-1.15.37-1.26.04,0,.07,0,.11,0,.26.25.51.53.74.83.01.04.02.08.04.12.79,2.94,2.24,4.22,4.36,3.89t0,0h0c.3,0,.57-.06.74-.43,1.8-.78,3.46-2.29,5.53-1.61-.76.72-.74.89-.57.85.7-.14,1.48,1.38,2.17-.33.4-.98,1.42-1.45,2.39-1.21.88.22.72,1.21.68,2.06,1.59-.95,3.22-.93,4.86-.95h0c.24.17.48.34.72.51h0c.94,1.1,2.32.04,3.27,1.09-.04,1.06-.02,2.09.68,2.87.65.91,2.12-.02,2.39,1.87.25,1.75,1.19,2.14,2.42,1.56.24-.15.53-.2.79-.32.32.08.62.22.91.47.21.14.49.21.6.43.25.5.35,1.41.98.75.51-.53.03-1.12-.29-1.58Zm-39.08-20.85c-.18-.18-.37-.34-.56-.49.05.02.1.04.16.06.2.05.32.22.4.44Zm4.37,9.06c.12.06.23.13.34.19-.13-.05-.24-.11-.34-.19Z" style="fill: #44554c;"/>
    <path d="m178.44,114.13c-.41-.61-.9-1.02-1.55-1.01-.35.04-.66-.13-.96-.35h0c-.43-.74-.71-1.74-1.65-1.63-.23-.32-.47-.64-.7-.97h0c.1-1.29-.32-1.99-1.36-1.91-.47.04-.73-.31-1.01-.68h0,0c-.33-.7-.69-1.34-1.42-1.32-.32,0-.64-.02-.97-.02h0c-.24-.01-.48-.03-.73-.04-1.32-1.35-2.72-.63-3.95.02-2.02,1.07-4.19.75-5.79-1.22-.3-.38-.67-.55-1.09-.54,0,0,0,0,0,0,.14-2.21-.17-4.11-2.02-5.05-.27-.14-.45-.57-.7-.82-1.13-1.13-2.01-2.65-3.52-3.19-.83-.3-1.84-.24-2.48-1.27-.63-1.17-1.32-.69-2.02-.15-.35.21-.39,1.28-.96.73-.85-.83-1.69-.47-2.55-.21-.01.62-.02,1.24-.03,1.86.3.38.6.1.9.02.1-.04.2-.07.31-.12.69-.12,1.35.5,2.05.45-.06.11-.12.25-.17.41.9-.29,1.52.82,2.4.75.89-.07,1.83-.09,1.97,1.55.03.38.34.44.57.4,1.02-.13,1.39.63,1.68,1.73.17.65.29,1.86,1.06,1.56,1.69-.66,1.34.74,1.34,1.88.23-.28.38-.57.48-.87-.1.81-.23,1.71.57,2.13,1.15.61,1.98,1.72,2.89,2.72.38.41.73.78,1.22.75,0,.05,0,.11.05.16,1.19-.52,2.28-1.51,3.64-1.06.98-.14,1.84-.64,2.6-1.42,0-.01,0-.02,0-.04.42,0,.71.42,1.04.68.14.03.29.05.43.05-.08.15-.1.33.04.58.53-.3,1.04-.66,1.67-.54.46.09.77.26.5.96.16.11.32.22.47.34h0c.62.73,1.53.02,2.16.72-.03.7-.01,1.38.45,1.89.43.6,1.4-.01,1.58,1.23.17,1.15.79,1.41,1.6,1.03.16-.1.35-.13.52-.21.21.05.41.15.6.31.14.09.33.14.4.29.16.33.23.93.64.5.33-.35.02-.74-.19-1.04Zm-22.81-10.93c-.02-.2-.07-.4-.15-.6.12.15.15.36.15.6Zm-2.97-2.82c-.12-.12-.24-.23-.37-.33.04.01.07.03.1.04.13.03.21.15.26.29Zm16.21,7.16c.12-.23.16-.5.14-.8.17.09.37.1.48.33-.18.22-.4.34-.61.47Z" style="fill: #425451;"/>
    <path d="m125.38,110.46c-.19-.39-.44-.67-.81-.75-.2-.02-.36-.15-.51-.31h0c-.2-.46-.3-1.05-.83-1.1-.11-.21-.22-.41-.34-.62h0c.13-.7-.07-1.14-.65-1.22-.26-.03-.39-.26-.52-.5h0,0c-.14-.43-.31-.83-.72-.9-.18-.04-.36-.08-.54-.13h0c-.13-.04-.27-.07-.4-.11-.66-.91-1.48-.67-2.2-.45-1.19.36-2.38-.07-3.16-1.36-.15-.24-.34-.38-.58-.43,0,0,0,0,0,0,.2-1.21.14-2.31-.84-3.05-.14-.11-.22-.37-.34-.54-.57-.76-.97-1.71-1.78-2.19-.45-.26-1.01-.35-1.31-1-.28-.72-.7-.54-1.12-.32-.2.08-.29.67-.58.29-.43-.56-.91-.46-1.41-.41-.04.34-.08.69-.12,1.03.14.24.33.12.5.12.06,0,.12-.02.18-.03.39.01.72.44,1.12.49-.04.06-.08.12-.12.21.52-.05.8.64,1.29.7.5.07,1.02.16,1.01,1.09,0,.22.16.28.3.29.57.04.74.51.84,1.16.06.38.06,1.07.5.99.98-.17.7.57.64,1.21.14-.13.25-.27.31-.43-.1.44-.23.92.19,1.25.6.47,1.01,1.19,1.45,1.85.19.28.36.52.64.56,0,.03,0,.06.02.1.69-.15,1.36-.57,2.09-.16.55.03,1.06-.14,1.53-.49,0,0,0-.01,0-.02.24.05.37.31.54.5.08.04.16.06.24.08-.06.07-.08.17,0,.33.31-.1.62-.25.96-.11.25.11.42.24.22.59.08.08.16.16.24.24h0c.31.48.85.19,1.16.65-.06.39-.08.77.14,1.1.21.39.78.16.81.87.03.66.36.88.83.76.09-.04.2-.03.3-.06.11.05.22.13.32.24.07.07.17.12.2.21.07.2.08.54.33.35.21-.16.05-.41-.05-.6Zm-12.08-8.76c0-.11-.02-.23-.05-.35.06.1.06.22.05.35Zm-1.49-1.92c-.06-.08-.12-.15-.19-.22.02.01.04.02.06.03.07.03.11.11.13.19Zm8.62,5.89c.08-.12.12-.26.12-.43.09.07.2.1.25.24-.11.1-.24.14-.37.19Z" style="fill: #425451;"/>
    <path d="m176.09,45.18c-.35.02-.7.14-1.05.22-.93.43-1.6,1.21-1.99,2.39-.52,2.23-1.31,4.33-2.07,6.43.26.31.45.65.54,1.06-.06-.07-.13-.13-.22-.18-.62-.29-.7.63-.95,1.09-.88,1.63-1.75,3.26-2.71,4.81-.61.75-1.05,1.78-1.98,2.03-.74.76-1.58,1.36-2.18,2.34-.17,1.05-1.02,1.17-1.49,1.79h0c-.99.88-1.97,1.77-2.96,2.65-.83.36-1.51,1.04-2.17,1.75,0,.22,0,.43-.01.65.07,0,.13,0,.2,0,.65-.78,1.73-.66,2.22-1.76,1-.68,2-1.36,3-2.03.09.02.19.04.29.06,2.03-.99,3.93-2.25,5.54-4.15.34-.5.67-1,1.01-1.5.44-.4.91-.75,1.01-1.52-.17-1.4.93-1.95,1.22-3.04.04-.09.06-.18.09-.28-.1.43-.25.85-.43,1.25-.09.2-.14.42-.15.65,0,.33.06.62.24.86.79-.11.97-.78,1.02-1.68.04-.77-.21-1.62.28-2.3.01-1.03-.08-2.12.6-2.87,1.02-1.11,1.29-2.62,1.51-4.2.22-1.58,1.13-2.6,2.22-2.67,0-.21,0-.42.01-.63h0s0,0,0,0c.39-.9.09-1.25-.61-1.22Zm-4.63,12.54s-.01.05-.02.08c0-.03.01-.05.02-.08Zm.11-.59c.01-.06.03-.12.05-.18.01.01.02.03.04.04,0,.02-.01.03-.02.05-.02.03-.04.06-.06.09Z" style="fill: #425451;"/>
    <g>
      <polygon points="201.5 105.63 201.5 105.63 201.5 105.62 201.5 105.63" style="fill: #425451;"/>
      <path d="m207.43,104.76s-.08-.02-.13-.02c-.7.44-1.44.38-2.2.43-1.2.08-2.45-.29-3.6.46-.32.92-.72,1.4-1.65,1.24-.86-.15-1.75.25-2.26,1.38-.02.03-.03.07-.05.1-.69.32-.86,1.15-.99,2.02.01,1.3-1.13,1-1.49,1.79,1.26.48,1.35.89.51,2.23-.69,1.1-1.05,1.08-1.66-.14-.14-.28-.2-.78-.58-.3.15.32.3.64.46.96h0c-.44.54-.22.98.21,1.18.53.24,1.25.95,1.63.11.59-1.31,1.43-1.8,2.49-2.06.55-.14.52-.54.05-.89h0,0l.27-.6c.05-1.46.13-2.17.51-2.44.04-.03.08-.05.12-.07.33-.14.85-.07,1.68.11.25.05.48.04.64-.25-.11-.16-.23-.24-.36-.3.47-.34.82-.98,1.32-1.26.56-.26,1.04-1.07,1.73-.41.31.11.55-.06.74-.34.89.11,1.66-.85,2.6-.39.16.08.3-.41.32-.73.2-.29.3-.62.26-1,0-.02-.01-.04-.01-.06.09-.05.18-.11.27-.16.18-.39.77-.21.74-.89-.54.07-1.17-.31-1.59.34Z" style="fill: #425451;"/>
    </g>
    <g>
      <polygon points="96.35 138.9 96.35 138.9 96.35 138.9 96.35 138.9" style="fill: #425451;"/>
      <path d="m100.84,143.07s-.05-.08-.08-.12c-.66-.25-1.16-.89-1.71-1.47-.87-.91-1.61-2.18-2.7-2.58-.58.39-1.05.4-1.64-.46-.54-.79-1.33-1.24-2.12-.86-.02,0-.05.02-.07.03-.61-.34-1.05.11-1.48.62-.5.92-1.19-.21-1.75.05.7,1.35.6,1.71-.51,1.97-.92.22-1.16-.09-1.11-1.44.01-.31.16-.71-.29-.68-.02.35-.04.69-.06,1.04h0c-.52.02-.54.52-.31,1,.28.59.5,1.68,1.1,1.39.93-.44,1.71-.11,2.56.56.44.35.58.04.39-.58h0s0,0,0,0l.42-.21c.61-.98.94-1.42,1.32-1.3.04.01.08.03.11.05.29.17.62.64,1.14,1.43.15.24.32.41.55.34-.01-.2-.07-.36-.13-.5.47.14.96-.02,1.42.18.49.27,1.15.08,1.38,1.11.18.33.4.4.66.36.58.79,1.5.74,1.98,1.82.08.19.37-.05.51-.25.25-.04.45-.19.57-.5,0-.02,0-.03.01-.05.08.03.17.07.25.1.28-.13.63.47.87-.03-.41-.38-.69-1.16-1.25-1.04Z" style="fill: #425451;"/>
    </g>
    <g>
      <polygon points="210.41 34.64 210.42 34.63 210.42 34.63 210.41 34.64" style="fill: #425451;"/>
      <path d="m216.94,34.53c-.08-.52-.3-.8-.72-.79-.7.44-1.44.38-2.2.43-1.2.08-2.45-.29-3.6.46-.32.92-.72,1.4-1.65,1.24-.86-.15-1.75.25-2.26,1.38-.52.99-.8,2.09-1.01,3.24-.1.58-.43,1.21.23,1.59.54.31,1.54-.28,1.51-1.03-.09-2.02.91-2.11,2.02-2.15.92.04,1.31-1.09,2.02-1.49.56-.26,1.04-1.07,1.73-.41.31.11.55-.06.74-.34.89.11,1.66-.85,2.6-.39.16.08.3-.41.32-.73.2-.29.3-.62.26-1Z" style="fill: #425451;"/>
      <path d="m207.09,42.24c-1.07.2-1.96.59-2.58,1.98-.3.68-1.3.82-1.81-.31-.44.54-.22.98.21,1.18.53.24,1.25.95,1.63.11.59-1.31,1.43-1.8,2.49-2.06.55-.14.52-.54.05-.89Z" style="fill: #425451;"/>
    </g>
  </g>
</svg>