<?xml version="1.0" encoding="UTF-8"?>
<svg id="_圖層_2" data-name="圖層 2" xmlns="http://www.w3.org/2000/svg" viewBox="0 0 100 100">
  <g id="_圖層_2-2" data-name=" 圖層 2">
    <rect x="9" y="12" width="82" height="75.88" style="fill: #fff;"/>
    <g id="_圖層_1-2" data-name=" 圖層 1-2">
      <path d="m66,50c0,8.84-7.16,16-16,16s-16-7.16-16-16,7.16-16,16-16c8.83,0,15.99,7.17,16,16Zm34-22v44c-.02,15.46-12.54,27.98-28,28H28c-15.46-.02-27.98-12.54-28-28V28C.02,12.54,12.54.02,28,0h44c15.46.02,27.98,12.54,28,28Zm-26,22c0-13.25-10.75-24-24-24s-24,10.75-24,24,10.75,24,24,24c13.25-.01,23.99-10.75,24-24Zm8-26c0-3.31-2.69-6-6-6s-6,2.69-6,6,2.69,6,6,6,6-2.69,6-6Z" style="fill: #b61c31;"/>
    </g>
  </g>
</svg>