<?xml version="1.0" encoding="UTF-8"?>
<svg id="_圖層_2" data-name="圖層 2" xmlns="http://www.w3.org/2000/svg" xmlns:xlink="http://www.w3.org/1999/xlink" viewBox="0 0 100 100.01">
  <defs>
    <linearGradient id="_未命名漸層_2" data-name="未命名漸層 2" x1="0" y1="50" x2="100" y2="50" gradientUnits="userSpaceOnUse">
      <stop offset="0" stop-color="#f5dea8"/>
      <stop offset=".03" stop-color="#f5dea8"/>
      <stop offset=".88" stop-color="#f5dea8"/>
    </linearGradient>
  </defs>
  <g id="_圖層_2-2" data-name=" 圖層 2">
    <g>
      <rect x="9.09" y="24.74" width="79.04" height="38.74" style="fill: #fff;"/>
      <g id="_圖層_1-2" data-name=" 圖層 1-2">
        <path d="m50,0c27.57,0,50,19.1,50,42.59,0,9.4-3.47,17.86-10.72,26.2h0c-10.49,12.67-33.95,28.11-39.28,30.47-5.19,2.29-4.59-1.3-4.35-2.71,0-.04,0-.08.02-.12.13-.79.71-4.49.71-4.49.17-1.34.34-3.42-.16-4.74-.56-1.46-2.78-2.22-4.4-2.59C17.79,81.27,0,63.64,0,42.59,0,19.1,22.43,0,50,0Zm-10.14,31.24h-3.55c-.53,0-.96.45-.96,1v22.9c0,.55.43,1,.96,1h3.55c.53,0,.95-.45.95-1v-22.9c0-.55-.43-1-.95-1Zm-7.5,23.9c0,.55-.43,1-.95,1h-14.05c-.53,0-.95-.45-.95-1v-22.9c0-.55.43-1,.95-1h3.55c.52,0,.95.45.95,1v18.18h9.55c.52,0,.95.45.95,1v3.72Zm36.96,1h14.05c.53,0,.95-.45.95-1v-3.72c0-.55-.43-1-.95-1h-9.55v-3.86h9.55c.53,0,.95-.45.95-1v-3.72c0-.55-.43-1-.95-1h-9.55v-3.86h9.55c.53,0,.95-.45.95-1v-3.72c0-.55-.43-1-.95-1h-14.05c-.53,0-.95.45-.95,1v22.9c0,.55.43,1,.95,1v-.02Zm-8.86-24.91h3.55c.53,0,.95.45.95,1v22.9c0,.55-.43,1-.95,1h-3.53c-.09,0-.17,0-.25-.04h0s-.04,0-.07-.02h-.03s-.03-.02-.05-.03c-.02,0-.03-.02-.05-.02,0,0-.02,0-.03-.02-.02,0-.04-.02-.06-.04h0c-.09-.07-.18-.16-.25-.26l-10-14.17v13.6c0,.55-.43,1-.95,1h-3.55c-.53,0-.95-.45-.95-1v-22.9c0-.55.43-1,.95-1h3.7s.06.01.06.01l.03.02s.04.01.06.02h.03s.04.03.06.04l.03.02s.04.02.05.03l.03.02s.03.02.05.04l.03.02s.03.03.05.05l.02.02s.04.04.06.06h0s.05.07.08.11l9.98,14.15v-13.6c0-.55.43-1,.95-1h0Z" style="fill: url(#_未命名漸層_2); fill-rule: evenodd;"/>
      </g>
    </g>
  </g>
</svg>