<?xml version="1.0" encoding="UTF-8"?>
<svg id="_圖層_2" data-name="圖層 2" xmlns="http://www.w3.org/2000/svg" viewBox="0 0 276.29 371.19">
  <g id="_圖層_1-2" data-name="圖層 1">
    <g id="_圖層_2-2" data-name="圖層 2">
      <g id="_圖層_1-2" data-name="圖層 1-2">
        <g id="_圖層_2-2" data-name="圖層 2-2">
          <g id="_圖層_1-2-2" data-name="圖層 1-2-2">
            <path d="m71.89,110.3c1,6.64,1.17,15.61-3.77,20.68-8.79,9.03-21.76,11.32-43.34,7.75-19.82-3.3-22.49-14.38-22.82-16.57l-.06-.4c-.32-3.29.9-6.54,3.3-8.81,3.16-3.06,7.95-4.41,11.65-5.02-3.51-2.5-9.08-6.8-9.82-11.71-.41-2.72,1.22-6.02,3.17-8.53,2.1-2.8,5.28-4.58,8.76-4.9,3.83-.45,7.82,1.48,10.68,2.9-.44-1.31-.77-2.66-.99-4.02-.88-5.81,1.16-10.13,6.06-12.81,11.26-6.16,19.51,4.99,26.77,14.81,4.86,6.57,8.96,17.06,10.41,26.61Z" style="fill: #ac1e30;"/>
            <path d="m3.82,121.92l-.04-.28c-.67-9.36,9.94-12.19,15.38-12.73.44,0,.8-.35.81-.8,0-.32-.19-.61-.48-.74-3.36-2.17-9.37-6.15-10.12-11.17-.32-2.09-.72-4.76,1.92-8.14,5.69-6.61,14.94-4.4,19.31-.42.95.65,1.22-.44.88-1.32-.61-1.62-1.31-2.93-1.5-4.65-.86-4.61,1.43-9.22,5.61-11.33,8.98-4.96,15.76,2.78,24.3,14.27,4.66,6.25,8.71,16.52,10.14,25.96,1.21,7.99.52,15.36-3.3,19.29-8.36,8.58-21.02,10.61-41.58,7.19-18.71-3.11-21.08-13.35-21.35-15.17m-3.7.56H.11c.36,2.4,3.26,14.48,24.27,17.99,10.89,1.81,19.64,2.1,26.72.9,7.59-1.29,13.61-4.29,18.39-9.22,5.42-5.57,5.29-15.08,4.23-22.07-1.49-9.82-5.7-20.56-10.72-27.36-4.86-6.56-8.69-11.19-12.75-14.08-5.4-3.83-10.96-4.24-16.53-1.21-3.88,2.07-8.22,6.35-6.99,14.55l.11.73c-2.71-1.64-4.68-2.12-7.48-1.79-4,.38-7.67,2.41-10.11,5.6-2.2,2.87-3.45,7.11-2.97,10.28.54,3.57,2.75,6.68,5.26,9.15.38.38.37.99,0,1.37-.1.1-.21.17-.34.22-2.74.86-5.25,2.32-7.36,4.26-2.74,2.63-4.14,6.37-3.79,10.15l.08.52-.02.02Z" style="fill: #fff;"/>
          </g>
        </g>
      </g>
    </g>
    <g id="_圖層_2-3" data-name="圖層 2">
      <g id="_圖層_1-2-2" data-name="圖層 1-2">
        <g id="_圖層_2-2-2" data-name="圖層 2-2">
          <g id="_圖層_1-2-2-2" data-name="圖層 1-2-2">
            <path d="m123.13,71.32c-6.58,1.71-15.59,2.82-21.21-1.6-10.02-7.89-13.7-20.7-12.39-42.81,1.22-20.3,12.1-24.16,14.26-24.72l.4-.1c3.28-.67,6.68.22,9.22,2.39,3.41,2.85,5.28,7.53,6.28,11.2,2.15-3.79,5.89-9.86,10.74-11.12,2.7-.7,6.19.59,8.92,2.29,3.04,1.81,5.16,4.83,5.86,8.3.86,3.8-.66,8.03-1.79,11.06,1.27-.58,2.59-1.05,3.94-1.42,5.76-1.5,10.32.09,13.53,4.74,7.4,10.68-2.96,20.16-12.08,28.51-6.1,5.59-16.22,10.83-25.68,13.29Z" style="fill: #ac1e30;"/>
            <path d="m104.23,4.04l.27-.07c9.35-1.67,13.32,8.71,14.44,14.14.04.45.44.77.89.73.32-.03.6-.25.69-.56,1.83-3.61,5.2-10.08,10.17-11.37,2.07-.54,4.71-1.23,8.39,1.07,7.25,5.03,6.01,14.58,2.47,19.39-.55,1.03.57,1.19,1.42.75,1.56-.79,2.82-1.63,4.52-2,4.54-1.35,9.44.46,12,4.45,5.95,8.51-1.13,16.16-11.79,25.97-5.8,5.35-15.7,10.52-25.06,12.96-7.92,2.06-15.4,2.15-19.76-1.28-9.52-7.51-12.91-20.04-11.64-41.09,1.16-19.16,11.21-22.63,13.01-23.1m-.95-3.66h0c-2.37.62-14.23,4.82-15.54,26.34-.67,11.15-.04,19.99,1.92,26.99,2.1,7.5,5.76,13.24,11.22,17.53,6.18,4.86,15.74,3.73,22.67,1.92,9.73-2.54,20.09-7.91,26.41-13.69,6.08-5.58,10.35-9.93,12.82-14.32,3.28-5.84,3.1-11.48-.53-16.77-2.5-3.68-7.26-7.61-15.38-5.49l-.72.19c1.37-2.9,1.64-4.94,1.01-7.72-.8-3.99-3.23-7.46-6.71-9.58-3.13-1.91-7.52-2.72-10.66-1.9-3.54.92-6.43,3.48-8.66,6.27-.34.42-.96.48-1.38.14-.11-.09-.19-.2-.26-.32-1.16-2.66-2.89-5.04-5.06-6.96-2.94-2.48-6.85-3.49-10.62-2.74l-.51.13-.02-.02Z" style="fill: #fff;"/>
          </g>
        </g>
      </g>
    </g>
    <g id="_圖層_2-4" data-name="圖層 2">
      <g id="_圖層_1-2-3" data-name="圖層 1-2">
        <g id="_圖層_2-2-3" data-name="圖層 2-2">
          <g id="_圖層_1-2-2-3" data-name="圖層 1-2-2">
            <path d="m125.28,207.84c1.33,5.85,2.06,13.82-2,18.66-7.23,8.62-18.63,11.5-38.09,9.75-17.87-1.64-20.97-11.33-21.4-13.26l-.08-.35c-.5-2.91.38-5.88,2.37-8.06,2.61-2.93,6.79-4.45,10.05-5.23-3.29-2-8.53-5.46-9.51-9.78-.55-2.4.69-5.44,2.26-7.8,1.68-2.63,4.4-4.42,7.48-4.94,3.38-.65,7.06.8,9.7,1.88-.47-1.14-.86-2.31-1.14-3.51-1.16-5.12.37-9.1,4.56-11.8,9.63-6.23,17.7,3.17,24.8,11.44,4.76,5.53,9.1,14.6,11.01,23.01Z" style="fill: #ac1e30;"/>
            <path d="m65.43,222.65l-.06-.24c-1.21-8.29,8.05-11.51,12.86-12.34.39-.03.69-.37.67-.76-.02-.29-.21-.53-.48-.63-3.13-1.71-8.74-4.86-9.75-9.28-.42-1.84-.95-4.19,1.18-7.37,4.63-6.25,13.02-4.89,17.17-1.64.89.52,1.06-.47.7-1.23-.65-1.4-1.36-2.53-1.64-4.04-1.07-4.04.67-8.31,4.26-10.45,7.67-5.01,14.22,1.44,22.57,11.12,4.56,5.26,8.84,14.14,10.73,22.45,1.6,7.04,1.47,13.64-1.67,17.39-6.88,8.19-18.03,10.83-36.55,9.13-16.86-1.55-19.64-10.51-20.01-12.11m-3.26.74h0c.48,2.11,3.85,12.68,22.79,14.43,9.81.9,17.63.59,23.85-.95,6.67-1.64,11.83-4.71,15.77-9.41,4.46-5.31,3.72-13.77,2.32-19.93-1.97-8.65-6.42-17.93-11.34-23.66-4.75-5.52-8.47-9.4-12.28-11.7-5.05-3.06-10.03-3.05-14.8,0-3.32,2.1-6.91,6.19-5.27,13.41l.15.64c-2.52-1.28-4.31-1.58-6.78-1.1-3.54.6-6.67,2.65-8.63,5.65-1.77,2.7-2.61,6.55-1.97,9.35.72,3.15,2.89,5.77,5.29,7.81.36.31.4.86.09,1.22-.08.09-.18.17-.29.22-2.38.95-4.52,2.41-6.27,4.27-2.27,2.52-3.27,5.94-2.71,9.29l.1.45-.02.02Z" style="fill: #fff;"/>
          </g>
        </g>
      </g>
    </g>
    <g id="_圖層_2-5" data-name="圖層 2">
      <g id="_圖層_1-2-4" data-name="圖層 1-2">
        <g id="_圖層_2-2-4" data-name="圖層 2-2">
          <g id="_圖層_1-2-2-4" data-name="圖層 1-2-2">
            <path d="m191.71,158.04c-4.82,3.57-11.83,7.44-17.89,5.67-10.79-3.16-18.02-12.44-24.23-30.96-5.68-17.02,1.95-23.75,3.54-24.93l.29-.21c2.46-1.62,5.54-2.02,8.33-1.07,3.73,1.21,6.8,4.43,8.83,7.1.51-3.81,1.57-10,5.13-12.64,1.98-1.46,5.26-1.56,8.05-1.06,3.08.49,5.82,2.25,7.52,4.86,1.96,2.83,2.1,6.79,2.17,9.64.85-.89,1.78-1.71,2.76-2.46,4.22-3.12,8.48-3.32,12.64-.57,9.57,6.31,4.21,17.48-.5,27.31-3.15,6.58-9.71,14.2-16.64,19.33Z" style="fill: #ac1e30;"/>
            <path d="m154.1,109.19l.2-.15c7.1-4.44,13.77,2.75,16.47,6.82.18.35.61.49.96.3.25-.13.41-.4.38-.69.31-3.56.94-9.96,4.58-12.66,1.52-1.12,3.45-2.56,7.22-1.89,7.59,1.73,9.71,9.95,8.4,15.06-.11,1.02.86.78,1.41.15,1.02-1.16,1.77-2.26,3.04-3.13,3.27-2.6,7.87-2.73,11.28-.3,7.67,5.01,4.39,13.6-1.11,25.14-2.98,6.29-9.39,13.78-16.25,18.85-5.8,4.29-11.9,6.83-16.59,5.46-10.26-3.01-17.16-12.15-23.05-29.8-5.36-16.06,1.73-22.21,3.05-23.19m-1.99-2.68h0c-1.74,1.29-10.06,8.62-4.05,26.67,3.12,9.35,6.55,16.38,10.45,21.46,4.19,5.45,9.07,8.94,14.96,10.66,6.66,1.95,14.11-2.12,19.19-5.88,7.13-5.28,13.84-13.08,17.11-19.89,3.14-6.57,5.2-11.53,5.78-15.94.77-5.86-1.24-10.41-5.95-13.55-3.26-2.19-8.45-3.84-14.4.57l-.53.39c.16-2.82-.28-4.58-1.71-6.65-1.97-3-5.1-5.04-8.64-5.63-3.19-.53-7.05.25-9.35,1.95-2.59,1.92-4.12,4.96-5.02,7.98-.14.46-.63.71-1.08.57-.12-.04-.22-.1-.32-.18-1.82-1.8-4.02-3.17-6.43-4.03-3.22-1.06-6.75-.6-9.6,1.25l-.37.28h-.02Z" style="fill: #fff;"/>
          </g>
        </g>
      </g>
    </g>
    <g id="_圖層_2-6" data-name="圖層 2">
      <g id="_圖層_1-2-5" data-name="圖層 1-2">
        <g id="_圖層_2-2-5" data-name="圖層 2-2">
          <g id="_圖層_1-2-2-5" data-name="圖層 1-2-2">
            <path d="m204.12,285.15c.9,5.93,1.04,13.94-3.36,18.46-7.84,8.06-19.43,10.11-38.7,6.92-17.7-2.94-20.08-12.84-20.37-14.79l-.05-.36c-.28-2.94.81-5.84,2.95-7.86,2.82-2.73,7.09-3.94,10.4-4.48-3.13-2.23-8.1-6.07-8.77-10.45-.37-2.43,1.08-5.37,2.83-7.61,1.87-2.5,4.71-4.09,7.82-4.37,3.42-.4,6.98,1.32,9.54,2.59-.39-1.17-.68-2.37-.88-3.59-.79-5.19,1.03-9.05,5.41-11.44,10.06-5.5,17.42,4.46,23.9,13.23,4.34,5.87,8,15.23,9.29,23.76Z" style="fill: #ac1e30;"/>
            <path d="m143.34,295.52l-.04-.25c-.6-8.36,8.87-10.88,13.73-11.37.39,0,.72-.31.72-.71,0-.29-.17-.55-.43-.66-3-1.93-8.36-5.49-9.04-9.97-.28-1.87-.64-4.25,1.71-7.27,5.08-5.9,13.34-3.93,17.24-.38.85.58,1.09-.39.79-1.18-.55-1.44-1.17-2.62-1.34-4.15-.77-4.11,1.27-8.24,5.01-10.11,8.02-4.43,14.07,2.48,21.69,12.74,4.16,5.58,7.78,14.75,9.05,23.18,1.08,7.14.47,13.71-2.94,17.22-7.47,7.66-18.77,9.48-37.12,6.42-16.7-2.78-18.82-11.92-19.06-13.55m-3.3.5h0c.32,2.14,2.91,12.93,21.67,16.06,9.72,1.61,17.54,1.88,23.86.8,6.77-1.15,12.15-3.83,16.42-8.23,4.83-4.97,4.72-13.46,3.78-19.71-1.33-8.77-5.09-18.35-9.57-24.43-4.34-5.85-7.76-9.99-11.38-12.57-4.82-3.42-9.78-3.78-14.76-1.08-3.46,1.85-7.34,5.67-6.24,12.99l.1.65c-2.42-1.47-4.18-1.9-6.68-1.6-3.57.34-6.84,2.15-9.02,5-1.96,2.57-3.08,6.35-2.65,9.18.48,3.19,2.46,5.97,4.7,8.17.34.34.33.89,0,1.22-.09.09-.19.15-.3.2-2.44.77-4.69,2.07-6.57,3.8-2.45,2.35-3.7,5.69-3.39,9.07l.07.46-.02.02Z" style="fill: #fff;"/>
          </g>
        </g>
      </g>
    </g>
    <g id="_圖層_2-7" data-name="圖層 2">
      <g id="_圖層_1-2-6" data-name="圖層 1-2">
        <g id="_圖層_2-2-6" data-name="圖層 2-2">
          <g id="_圖層_1-2-2-6" data-name="圖層 1-2-2">
            <path d="m272.04,356.57c-1.69,4.74-4.77,10.72-9.82,12.32-9,2.85-18.38-.24-31.37-10.25-11.92-9.2-9.75-17.47-9.19-19.03l.1-.29c.96-2.28,2.92-4,5.31-4.64,3.17-.9,6.81-.1,9.47.82-1.43-2.9-3.58-7.71-2.33-11.21.69-1.94,2.94-3.54,5.12-4.51,2.38-1.1,5.11-1.15,7.52-.13,2.69,1.06,4.64,3.75,6.02,5.7.18-1.02.44-2.02.77-3,1.48-4.15,4.36-6.28,8.54-6.31,9.62-.07,11.11,10.21,12.42,19.27.88,6.06-.13,14.44-2.56,21.26Z" style="fill: #ac1e30;"/>
            <path d="m222.98,340.11l.07-.2c2.87-6.42,10.88-4.52,14.67-2.95.29.16.66.05.81-.24.12-.21.09-.47-.06-.66-1.45-2.62-4-7.38-2.72-10.96.53-1.49,1.21-3.4,4.15-4.69,6.1-2.34,11.42,2.4,12.9,6.57.4.77.97.14,1.05-.56.17-1.28.18-2.4.66-3.6,1.06-3.35,4.21-5.58,7.72-5.49,7.69-.09,9.42,7.42,10.98,18.04.86,5.78-.11,13.99-2.51,20.74-2.04,5.71-5.1,10.32-9.01,11.56-8.56,2.7-17.64-.45-30-10-11.25-8.69-9.18-16.29-8.72-17.59m-2.64-.94h0c-.61,1.71-2.98,10.72,9.65,20.49,6.55,5.05,12.22,8.35,17.32,10.07,5.47,1.84,10.5,1.99,15.41.43,5.55-1.76,8.84-8.08,10.62-13.07,2.5-7.01,3.53-15.59,2.62-21.87-.88-6.05-1.77-10.47-3.43-13.82-2.2-4.44-5.73-6.68-10.48-6.66-3.3,0-7.68,1.28-9.77,7.13l-.19.52c-1.21-2.04-2.34-3.06-4.3-3.83-2.78-1.17-5.91-1.13-8.66.11-2.47,1.12-4.8,3.47-5.61,5.73-.91,2.55-.55,5.39.23,7.91.11.38-.11.79-.49.9-.1.03-.2.04-.3.02-2.11-.4-4.29-.33-6.37.2-2.74.76-4.99,2.74-6.1,5.36l-.13.37h-.02Z" style="fill: #fff;"/>
          </g>
        </g>
      </g>
    </g>
    <g id="_圖層_2-8" data-name="圖層 2">
      <g id="_圖層_1-2-7" data-name="圖層 1-2">
        <g id="_圖層_2-2-7" data-name="圖層 2-2">
          <g id="_圖層_1-2-2-7" data-name="圖層 1-2-2">
            <path d="m251.59,239.98c-4.56,3.03-11.14,6.24-16.58,4.34-9.7-3.39-15.86-12.18-20.66-29.37-4.39-15.79,2.89-21.57,4.39-22.57l.27-.18c2.32-1.37,5.14-1.58,7.65-.59,3.35,1.28,6,4.35,7.72,6.88.64-3.45,1.9-9.05,5.27-11.29,1.87-1.24,4.87-1.17,7.39-.59,2.79.59,5.2,2.32,6.64,4.79,1.65,2.67,1.6,6.29,1.53,8.89.82-.77,1.7-1.48,2.63-2.11,3.99-2.65,7.89-2.63,11.55.07,8.43,6.2,3.03,16.14-1.73,24.88-3.18,5.85-9.52,12.5-16.08,16.86Z" style="fill: #ac1e30;"/>
            <path d="m219.56,193.67l.19-.13c6.69-3.72,12.43,3.15,14.71,6.99.15.33.54.47.87.32.24-.11.39-.35.38-.61.44-3.23,1.32-9.04,4.77-11.33,1.44-.95,3.27-2.17,6.68-1.38,6.84,1.93,8.39,9.53,6.96,14.13-.15.93.75.75,1.28.2.98-1.01,1.72-1.98,2.92-2.71,3.11-2.22,7.31-2.12,10.31.25,6.76,4.93,3.37,12.61-2.18,22.87-3.02,5.6-9.21,12.13-15.7,16.44-5.49,3.65-11.17,5.68-15.39,4.21-9.22-3.23-15.08-11.89-19.63-28.26-4.14-14.9,2.61-20.18,3.86-21m-1.69-2.54h0c-1.65,1.09-9.58,7.4-4.94,24.14,2.41,8.67,5.21,15.24,8.54,20.06,3.56,5.16,7.85,8.58,13.14,10.42,5.98,2.09,12.97-1.28,17.77-4.47,6.75-4.48,13.23-11.29,16.53-17.35,3.17-5.85,5.28-10.27,6.02-14.27.97-5.31-.64-9.56-4.8-12.64-2.87-2.15-7.53-3.89-13.16-.15l-.5.33c.28-2.57-.04-4.19-1.25-6.14-1.66-2.83-4.42-4.84-7.62-5.54-2.88-.63-6.44-.1-8.62,1.34-2.46,1.63-3.99,4.33-4.95,7.04-.15.41-.61.62-1.02.47-.1-.04-.2-.1-.28-.18-1.58-1.73-3.52-3.08-5.68-3.97-2.89-1.12-6.13-.87-8.81.69l-.35.24h-.02Z" style="fill: #fff;"/>
          </g>
        </g>
      </g>
    </g>
  </g>
</svg>