<?xml version="1.0" encoding="UTF-8"?>
<svg id="_圖層_2" data-name="圖層 2" xmlns="http://www.w3.org/2000/svg" viewBox="0 0 19 21.13">
  <g id="_圖層_1-2" data-name="圖層 1">
    <g>
      <path d="m.5,7.63L9.5.63l9,7v11c0,1.1-.9,2-2,2H2.5c-1.1,0-2-.9-2-2V7.63Z" style="fill: none; stroke: #4c4c4c; stroke-miterlimit: 10;"/>
      <g>
        <path d="m4.16,15c-.53,0-.96-.19-1.28-.56-.33-.38-.49-.88-.49-1.52s.16-1.14.49-1.51c.32-.36.75-.54,1.28-.54s.96.18,1.28.54c.33.37.49.87.49,1.51s-.16,1.14-.49,1.51c-.32.37-.75.56-1.28.56Zm0-.69c.29,0,.53-.12.7-.38.18-.25.26-.59.26-1.01s-.09-.76-.26-1c-.17-.24-.41-.36-.71-.36s-.53.12-.71.36c-.17.24-.26.57-.26,1s.09.76.26,1.02c.17.25.41.38.7.38Z" style="fill: #4c4c4c;"/>
        <path d="m7.11,14.93c-.26,0-.4-.13-.4-.4v-3.22c0-.1.03-.19.1-.25.06-.06.15-.1.25-.1h.95c1.04,0,1.55.41,1.55,1.24,0,.43-.15.76-.44,1-.27.21-.63.32-1.09.32h-.53v1.01c0,.26-.13.4-.4.4Zm.4-2.04h.48c.54,0,.81-.23.81-.69,0-.22-.07-.38-.21-.48-.13-.09-.34-.13-.62-.13h-.45v1.3Z" style="fill: #4c4c4c;"/>
        <path d="m10.63,14.93c-.1,0-.19-.03-.25-.1s-.1-.15-.1-.25v-3.27c0-.1.03-.19.1-.25.06-.06.15-.1.25-.1h1.76c.22,0,.33.11.33.33s-.11.33-.33.33h-1.31v.92h1.06c.22,0,.33.11.33.33s-.11.33-.33.33h-1.06v1.06h1.37c.22,0,.33.11.33.33s-.11.33-.33.33h-1.81Z" style="fill: #4c4c4c;"/>
        <path d="m13.96,14.93c-.25,0-.38-.12-.38-.38v-3.24c0-.1.03-.19.1-.25.06-.06.15-.1.25-.1h.27c.13,0,.22.05.28.17l1.06,1.95.4.86h.03s0-.05-.01-.1c-.06-.59-.09-1.02-.09-1.29v-1.21c0-.25.12-.38.38-.38s.38.12.38.38v3.19c0,.13-.05.23-.14.3-.09.07-.2.1-.34.1-.1,0-.18-.02-.26-.06-.09-.04-.16-.1-.2-.18l-1.01-1.88-.4-.85h-.03c0,.06.01.16.03.28.05.49.07.86.07,1.1v1.22c0,.25-.12.38-.38.38Z" style="fill: #4c4c4c;"/>
      </g>
    </g>
  </g>
</svg>