<?xml version="1.0" encoding="UTF-8"?>
<svg id="_圖層_2" data-name="圖層 2" xmlns="http://www.w3.org/2000/svg" viewBox="0 0 155.56 63.1">
  <defs>
    <style>
      .cls-1 {
        fill: #bf394b;
      }
    </style>
  </defs>
  <g id="_圖層_1-2" data-name="圖層 1">
    <g>
      <g>
        <path class="cls-1" d="m134.2,21.28c-.09-.19-.46-.32-.57,0l.45.53.12-.53Z"/>
        <path class="cls-1" d="m131.98,22.56c.07.49.32,1.17.97,1.27-.34-.66-.06-.6-.5-1.35.11-.32.48-.38.66-.21-.09-.19.39-.37.13-.73-.67.11-.96.56-.9,1.26-.19.03-.27-.16-.36-.25Z"/>
        <path class="cls-1" d="m109.21,44.09l.22-.02c-.07-.01-.14,0-.22.02Z"/>
        <path class="cls-1" d="m90.65,47.69c.14,0,.21-.05.22-.11-.14.03-.25.05-.22.11Z"/>
        <path class="cls-1" d="m87.58,46.52c.06.04.11.07.17.09-.06-.06-.12-.13-.17-.09Z"/>
        <path class="cls-1" d="m109.21,44.09l-.56.04c.06.21.31.03.56-.04Z"/>
        <path class="cls-1" d="m130.94,27.18c.04-.11.04-.22.03-.34-.03.09-.06.18-.1.26.03.02.05.05.08.07Z"/>
        <path class="cls-1" d="m116.02,38.99l.12-.09c-.01-.09-.03-.18-.06-.29l-.06.38Z"/>
        <path class="cls-1" d="m120.76,34.52c-.12.09.24.52.38.74-.11-.22-.11-.38-.05-.51-.07-.08-.18-.15-.33-.23Z"/>
        <path class="cls-1" d="m128.19,27.12l.04-.2c0,.05-.04.13-.04.2Z"/>
        <path class="cls-1" d="m112.18,41.59c-.05-.06-.11-.11-.16-.14.04.06.09.1.16.14Z"/>
        <path class="cls-1" d="m3.52,51.15s.04-.05.07-.08c-.07,0-.11.03-.07.08Z"/>
        <path class="cls-1" d="m2.55,42.29l.03.11c.11.02.21.04.31.04l-.34-.15Z"/>
        <path class="cls-1" d="m82.31,44.13s.01.01.02.02c.16,0,.08-.03-.02-.02Z"/>
        <path class="cls-1" d="m75.48,20.91c.38-.69.81.8,1.19-.19-.19.11-1.03-.58-1.19.19Z"/>
        <path class="cls-1" d="m130.77,27.29c-.05.08-.1.16-.16.23.09-.09.14-.17.16-.23Z"/>
        <path class="cls-1" d="m76.67,20.72h0s.03-.1.03-.1c-.02.04-.03.07-.04.1Z"/>
        <path class="cls-1" d="m71.58,37.13c-.06.08-.09.17-.11.26.04-.04.08-.11.11-.26Z"/>
        <path class="cls-1" d="m78.74,43.71l-.19-.18c.06.09.13.15.19.18Z"/>
        <path class="cls-1" d="m68.35,33.26c-.01-.14.04-.21-.11-.35-.02.03-.03.05-.04.08.1.03.17.09.15.27Z"/>
        <path class="cls-1" d="m66.85,28.15s-.06.08-.1.12c.02.05.04.11.06.17l.04-.28Z"/>
        <path class="cls-1" d="m20.49,58.64c-.09-.18-.12-.37-.14-.55,0,.41-.91.34.14.55Z"/>
        <path class="cls-1" d="m130.67,27.01c.1.11.13.19.1.28.03-.06.06-.12.09-.18-.06-.06-.12-.11-.19-.1Z"/>
        <path class="cls-1" d="m64.18,34.8c-.11-.32-.2-.65-.3-.98.06.28.15.64.3.98Z"/>
        <path class="cls-1" d="m62.17,53.91l-.17.14c.08-.02.15-.06.17-.14Z"/>
        <path class="cls-1" d="m62.89,30.93c.14-.22.22-.43.25-.64-.05-.03-.1-.07-.17-.08-.03.24-.07.48-.09.73Z"/>
        <path class="cls-1" d="m20.34,58.08h0s0,0,0,0Z"/>
        <path class="cls-1" d="m13.94,57.39c.85.35.66-.52.99-.84,1.08.2.28.69.49,1.18.71.07,1.43-.45,1.9-.26,0,.13.08.2-.08.31.86-.36,2.03.65,3.04.11.04.08.06.14.06.2-.04-.39.04-.76.13-1.01.39.08.83-.28.86.22-.23-.07-.3.11-.45.23l.46-.11c.2.76-.61.1-.74.6.86-.03,1.91-.37,2.47-.03,0,.7-1.48-.12-.79.67l-.89-.48c.48,1.22-.57-.21-.16,1.06,1.24.48,1.49.04,2.74.43.36-.32,0-.57.36-.89,1.89-.38,1.16,1.94,2.64,1.23.41-.41.64-1.26,1.53-.71l-.4.73c1.25.2.81-1.03,2.07-.39-.25.28-1,.16-.81.27.8.68.63-.36,1.28-.33l.1.68c.67-.03,1.38-.16,2.1-.29.72-.12,1.45-.26,2.18-.36-.08.2-.33.43.02.62.93-.21,1.92-.19,2.9-.15.99.02,1.98.14,2.9.26.21-.22.41-.43.61-.66.16-.02.33.22.17.36.72.12-.01-.37.29-.65.38-.1.56.26.34.47.58-.34,1.4-.73,2.25-.99.84-.28,1.7-.46,2.4-.28l-.21.22c1.04.02.85-1.39,1.87-1.07l-.15.15c1.08-.15,2.16-.5,3.21-.77,1.03-.29,2.01-.52,2.94-.35.04-.87,2.16-.33,1.9-1.5,1.35.12,1.1.45,2.88.21.45-.13.37-.95.85-1.28l.25.57.47-.9.67.52.44-.35c-.21.05-.53-.08-.57-.26.67-.57,2.06-.42,2.22-.15.54-.44,1.09-.89,1.62-1.36.07.24-.2.48-.37.74.7-1.06.47.49,1.12-.49-.19-.06-.11-.36-.15-.48.62.09,1.65-.47,2.3-1.09l.09.45c1.42-.76,2.68-2.08,3.99-3.33-.61.31-.99-.35-.67-.75l.6.33c-.04-.52-.56.2-.41-.63.51-.4.84.21.71.63.15-.24.27-.5.41-.74.17.1.12.31.26.52-.06-.5,1.46-.63,1.25-1.46l.18.09c1.15-1.42,1.41-2.25,2.14-3.54-.48-.31-.08-.74-.28-1.33.63-.83,1.54-1.71,1.94-2.91.06-.92-.35-.41-.53-.89.5.12.86-1.08,1-.35.39-1.45.5-1.87.53-3.79-.24.15-.39.35-.53.2,0-.34.37-.7.6-.6l.03.1c-.15-1.1.42-2.21.88-3.35.47-1.12.83-2.27.31-3.14l.05.1c-.16-.59-.37-1.18-.56-1.76.07-.81.4.47.7-.14-.48-.95-.48-1.69-.52-2.41,0-.71-.02-1.42-.47-2.16.61-.77.3-1.92-.22-3.03-.23-.56-.59-1.1-.8-1.64-.26-.53-.46-1.05-.48-1.58l-.25.28c-.55-.22-.14-.59-.27-.94-.2.2.02.61-.3.47-.31-.39-.64-.78-.99-1.16-.32-.4-.73-.77-1.1-1.16-.84-.74-1.73-1.54-3.1-2.01-1.32-.49-3.05-.5-4.51.1-.65.32-1.36.68-1.83,1.12-.25.21-.54.44-.75.66l-.61.69c-.55.7-.22,1.15-.05,1.56.17.42.3.79-.46,1.48-.13-.25-.26-.5-.39-.76-.27,1.59-.67,2.98-.94,4.4-.27,1.41-.46,2.82-.15,4.17-.15-.16-.34-.18-.33-.44-.52.56-.05,2.12.35,2.11-.04.42-.35.11-.55.37-.25.59.69,1.39.24,1.73-.07.06-.17-.15-.22-.25.26.35.12,1.74.63,1.32-.13,1.04.53,1.86.38,2.71.71.37.14,1.78,1.03,1.7-.45.09-.48.58-.32,1.11.16.53.54,1.05.85,1.27-.34-.09-.04.63-.48.54.31.69.76,1.23,1.13.91-.19.85.35,1.37.82,1.8.48.43.87.79.53,1.5,1.68,1.57,3.33,2.79,4.93,3.87-.32.33-.74-.01-1.15-.34-.4-.34-.79-.67-1.09-.3,1.64,1.07,2.94,1.11,4.27,2.32.31.36-.44.17-.66.2,1.69.78,2.96,1.9,4.6,2.22-.04.07-.24.07-.41.06.29.12.59.46.74.08l-.32-.04c-.16-.76,1.64-.54,1.81-.8-.47.4-.18.68.1.9.27.23.51.48-.18,1.01.23,0,.54-.08.61-.35.25.19.28.37-.13.54,1.14.21.93-.34,1.86.03-.07.19-.29.18-.47.36.62-.18,1.22-.34,1.96.11-.08.09-.04.29-.28.19,1.45.35,2.68-.35,4.13.41-.31.36-.2.47,0,.57.19.08.46.16.44.54l.91-.1-.29-.4c.76.11,1.48-.34,2.09,0l-.59.23,1.42.04-.77-.39c.78-.29,0-.94.96-.62-.2.07.73.02,1.1.46h0c.38-.23.75-.48,1.29-.29.14.24-.11.82-.02.98.36-.62,1.77-.14,2.18-.9-.14.17-.12.56-.07.64l.27-.54c.35.12.41.2.38.51,1.05-.02-.42-.91.85-.64-.09.05-.04.12-.23.22.63.04,1.22-.11,1.79-.25.57-.15,1.1-.39,1.68-.38.49.66-.94.4-.44.94.8-.25,1.6-.67,2.37-1.04l.58-.27c.19-.11.37-.21.56-.3.38-.18.75-.33,1.14-.42l-.31.02c-.14-1.07,1.28.1,1.87-.63-.16.14-.03.63-.02.51.27-.05.54-.14.8-.26.25-.14.5-.31.76-.51.5-.4,1.06-.84,1.73-1.36l-.06.33c.34-.03.74-.18,1.14-.35.39-.17.76-.41,1.09-.53.04-.34.4-.51,0-.73,1.29.12,2.08-.59,2.78-1.3.66-.78,1.24-1.56,2.39-1.6-.18.14-.29.51-.14.4l1.14-1.16c-.39-.29-.34-.09-.83-.18-.01-.34.23-.75.52-1.01-.35.69.48.58.87.57-.13-.07-.15-.27-.26-.36,1.15.08-.49-.8.7-1.12l.11.22c.24-.37.31-.87.7-1.12.5.27-.17.48.1.83.47-.45.26-1.58,1.05-1.57-.1.29-.39.55-.49.84.9.04.85-.13,1.27-.37l-.04.02c.33-.19.64-.39.96-.58l-.31.08c-.43-1.57.96-1.37,1.04-2.77-.09,1.34.24.47.63.94.31-.09.75-.27.79-.06-.02-.71.91-.35.83-1.4.17.1.36-.41.66,0,.31-.62-.36-.1-.51-.3.14-1.22,2.17-1.36,2.4-3.08.48-1.24.06-1.84.47-2.98.48-.14.39.68.39.68.6-.35.84-.78,1-1.4.07.2.26.18.55.15.24-.43-.4-.66.21-1.02.12.21.33.52.37.83.19-.57.2-1.24.35-1.84.37.05.25.58.32.88.22-.65.64-1.64.29-2.1l-.38.26c.1-.22.46.14.45.34.06.71-.59.6-.77.52l.11-.43c-.59-.12-.77.26-.87.76-.1.5-.16,1.09-.42,1.42l-.49-.75.07,1.09c-.28.03-.74-.14-.6-.54-.68.25-.06.6-.74.76-.09,0-.11-.04-.11-.1l-.14.62c-.08-.2-.53-.27-.23-.49-.99.56-.47,1.75-1.2,1.69v-.1c-.66,1.31.42.48.29,1.77l-1.65-.37.39.49c-.11.1-.34.3-.49.1-.03.7.27.09.36.6-.89.2-1.07,1.71-1.91,1.2.18.51.71-.3.46.51-.91-.51-.48.77-1.28.93-.26-.51.38-.76-.43-.62.4.91-1.03.78-1.27,1.29.49.52-.59,1.1-1.11,1.9-.13-.21-1.58.86-2.39,1.23l-.06-.11c.35.66-.39,1.16-.79,1.69-.25-.36-.27-.56-.14-.94-.15.13-.3.27-.46.38.03.27-.04.48-.3.77l-.22-.52c-.62.49-.91,1.47-1.95,1.79.24.46,1.49.67.79,1.62-.19-.2-.49-.57-.32-.83-.06.09-.14.39-.36.41l.09-.65c-.5.11.02.47-.31.66-.21-.33-.39-.08-.52-.37.06-.07.36-.05.39-.26-.37.21-.96.24-1.26.09.15.17.29.45.05.65-.67.44-.49-.26-.99-.19-.02.33-.6.35-.31.87-.2.12-.38-.1-.53-.19-.11.22-.51.48-.8.73-.29.25-.49.43-.12.62h.12s-.03.02-.05.04h0s0,0,0,0c-.98,1.1-2.69.95-3.83,1.69l-.07-.18c-.68.48-1.63.71-2.05,1.31-.23.08-.64-.16-.62-.41-.53.35-.54.6-1.49.47.51-.47-.28-.25.54-.38-.82.01-1.05-.26-1.75.46.16-.56-.71-.49-1.04-.26l.61.23c-.39.17-.76.21-1.13.25l.08-.7c-.84-.23-1.48.12-2.11.49-.63.34-1.25.64-1.88,0-.4.5.87.26.53.83-.75,0-1.54-1.04-1.75-1.02-.97-.38-.94.96-1.99.7.12.23.22.9-.61,1.06-.75-.19-.82-1.11-.34-1.24.18,0,.25.09.24.17.24-.05.56-.11.29-.41l-.11.22c-.34-.29-1.33-.4-1.05-.75-.56.15-.28.36.11.53-.88-.47-1.45-.2-2.36-.55.13.15.22.44.06.42-1.32-.6-.7.3-1.67.16-.45-.49.4-.79-.62-.74-.51-.38.05-.64.32-.77-.96.21-1.48-.65-1.89-.94l.48-.02c-.28,0-.49-.08-.69-.16l.08.54c-.22-.18-.43-.26-.36-.45-.36.19-.07.82-.73,1.02-.25-.36-1.14-.17-1.01-.8.98.61.13-.63,1.04-.38-.2,0-.4-.08-.62-.25-.01-.08.08-.11.17-.11-.76-.91-.73.49-1.77.04.27-.26.06-.73-.13-.75.39.22-.06.64-.55.68-.52-.59-.79-.19-1.12-.4l.33.32c-.29.25-.6.03-1.11-.12.09-.26.5.05.4-.14-.81.26-.83-1.15-1.71-1.19-.18-.4.32-.58.14-.89-.97-.08-.5-.9-1.43-1.11-.08.53.03.48-.76.46.46.21.93.41,1.4.59-.4.02-.78.02-1.19.02.37.27.96.31,1.15.52-.6.07-.5,0-.53.45-.12-.94-1.28-.38-1.58-1.23l.75-.91c-.47-1.05-1.83-.73-2.57-1.95l.15.46c-.47.19-.63-.58-1.06-.79.33-.22.26-.52.34-.83-.22.2-.58-.78-1.28-.43.02-.27.04-.53.08-.8-.4-1.02-1.64-.48-2.04-1.55.53.1.56-.46,1.15.03-.16-.32-.23-.63-.48-.51.12-.28-.9-.68-.7-1.13-.22-.07-.62.04-.74-.36.06-.07.18-.07.18-.07-.18.07-.48-.51-.76-.02.38-.76.11-1.47-.12-2.22-.25-.73-.45-1.49-.01-2.06-.27-.76-.5-1.72-.59-2.45.12.04.2-.01.16.13.32-1.02-1.19-.55-.81-1.75.63-.6.35.61.59.23,1.29-.18-.2-1.38.6-2.13l.07.19c.46-.54-.42-1.44-.18-2.38,0,0,.11.06.19.03-.59-.73-.54-2.01-.46-2.96.41.43.15.48.69.46.04-.41-.86-.12-.72-.96.35-.17.78-.64,1.33-.48-.1.21-.16.46-.23.69.77-.12.32-.86.59-1.17l.26.18c.38-.92-.28-1.42.52-2.22l-.25-.09c-.05-.49.14-.53.31-.51.19,0,.37.11.47-.31.18.19.36.39.52.6.04-.08.11-.16.19-.29.09-.12.2-.28.35-.37.29-.25.73-.38,1.11-.37-.28.22-.58.43-.82.6-.1.1-.2.21-.3.31-.09.09-.14.24-.18.33.21-.16.7-.15.95-.52-.14.07-.28.24-.39.1.33-.59,1.16-.8,1.88-.3-.45.61-.1.96.3,1.38.4.43.85,1.03.54,1.6.63.41.96,1.08,1.17,1.82.21.74.33,1.54.6,2.35.98-.93.17.48,1.32.07.2.4.2.57.13.63-.16.49-.3.94-.49,1.4-.31.35-.32-.36-.59-.27.04.91-.46.45-.71,1.08.41-.17.68.24.54.77.17-.26.34-.52.49-.79.41.61.15.93-.08,1.22-.23.3-.47.58-.14,1.22l-.39-.4c.26.66,0,2.41.9,3.15-.15.11-.49.24-.56-.06-.25,1.55.57,3.75-.33,4.87l-.26-.19c.01.31.42.65.03.94-.11-.05-.26-.2-.31-.06.07.18.28.92,0,1.25l-.22-.43c-.83,1.37.02,2.56-.36,3.9-.8-.35-1.58.63-1.99,1.07l-.1-.08c-.93,1.44-.95,2.9-1.81,4.42-.71.07-1.36.62-2.1,1.2-.73.58-1.55,1.21-2.38,1.43.3-.01.35.59.14.83-.42.06-.62,1.11-.99.38l.13-.06c-.66-.53-1.24.05-1.83.33l.39.99c-1.11-.29-2.05.31-2.95.88-.91.55-1.73,1.08-2.43.63-.29.4-.77.62-1.08,1l-.18-.54c-1.15.26-1.72.4-3.03,1.02l.14-.48c-.77.24-.46,1.86-1.18,2.13l-.47-.74c-.68.21-1.41.27-2.12.37-.71.09-1.39.28-1.98.83,0-.13-.03-.37.19-.46-.33.07-.98.11-1.49.23-.52.11-.89.34-.65.89-.18-.74-1.44.22-2.15.71l.02-.57c-.51.83-.5,1-1.38,1.34-.23-.04-.26-.41.05-.31-.76-.18-.48.6-1.39.44l.27-.4c-.74.07-.65.25-1.01.72-.44.27-1.43,0-1.58-.5-.07.31-.44.76-.89.66-.07-.18.08-.32.15-.38-1.25-.25-1.8.77-2.68.26-.02-.18-.08-.27-.15-.33.98-.02,1.77,0,1.7.03-.04-.51-.82-.58-.24-1.3-.59.4-1.64,1.28-2.42,1.06-.04-.05-.07-.1-.1-.17l.08-.06c-.18-.05-.33,0-.48.1-.24-.07-.4-.14-.63-.16-.09-.43-.89-.26-1.28-.29.02.56-.5.46-.03.94-.06-.04.08-.06.34-.08.06-.01.13-.02.17-.05,0,.01-.02.03-.03.05.26,0,.6,0,.98,0-.31.28-.65.5-1.07.18-.21.35-.45.72-.58.89-.52-.81-1.53-1.24-1.64-1.76-1.21.18-2.8-.04-3.69.88-.36.08-.35-.37-.45-.55.21-.07.44-.02.57-.15-.71.16-2.01-.23-2.3.47-.8-.47.6-.59-.59-.66l.2-.2c-1.02-.81-2.01-.59-3.08-.4-1.06.21-2.16.2-3.17-.89.14.14.21.21.21.34-.33-.19-.67-.35-1.02-.49-.34-.17-.69-.31-1.04-.45-.71-.27-1.44-.49-2.17-.72-.72-.26-1.42-.57-2.08-.92-.66-.36-1.3-.77-1.79-1.38-.62-.6-.92-.23-1.55-.17l.15-.61-1.11.17c-.69-.08-.9-.68-1.11-1.25-.21-.58-.38-1.08-1.18-1.3l-.2.4c-.29-.42-1.14-1.22-.68-1.38-.09,0-.45.05-.35-.22l.28-.15c-.34-.28-.65-.6-.95-.96-.02-.51.32-.53.59-.61.29-.08.52-.2.48-.78-.17-.39-.91-1.36-1.13-1.21-.02.21-.22.54-.54.56l-.14-.53c-.46-.08-.92-.26-1.36-.24-.43.02-.87.24-1.19,1.1.2.39.41.77.66,1.11-.13.14-.27.29-.39.44-.06-.33-.12-.66-.16-.99-.36.61.06.95.4,1.28-.21.14-.34.35-.37.61.4.31.79.59,1.21.82-.28.27-.87-.23-.76.59.59.33.55-.78,1.15-.11-.15.66-.52.71.12,1.08-.16.2-.36.17-.58-.01.53.38.96,1.24,1.53,1.15-.05.8,1.37,1.26.75,1.86.28-.02,1.21.12,1.63.36-.68.16-.31.46.17.79.43.28.89.58.51,1.01,1.01-.52,2.1.72,3.28.76-.09.04-.26.13-.32.04.49.34.53.66.79.99.42-.67,1.34-.43,1.98-.65.34,1-.79.64-.89,1.4.24-.59,1.42-.02,1.41-.62.31.67.34.42.35,1.12.48-.86.55.04,1.22-.34.57.74-.15.93.8.98.29.44-.58.47-.58.47Zm21.05,2.05h0c-.18.03-.33.05-.43.06.09-.01.21-.03.43-.06Zm1.75-.06c-.21-.02-.48-.01-.76,0-.07-.19,0-.39.17-.39-.09.13.32.23.59.39Zm-3.64-3.84c.26-.07.34.04.38.16-.12,0-.27.02-.45.05,0,.02-.02.05-.03.07.03-.11.06-.21.11-.28Z"/>
        <path class="cls-1" d="m32.62,56.26s-.06.03-.11.04c.05.05.1.1.15.13.03-.06.07-.12.1-.17-.05,0-.1,0-.14,0Z"/>
        <path class="cls-1" d="m109.47,44.07h-.04s.07.02.1.04c-.03-.01-.04-.03-.07-.04Z"/>
        <polygon class="cls-1" points="60.47 54.91 60.41 54.78 60.32 54.95 60.47 54.91"/>
        <path class="cls-1" d="m118.33,40.4s.1.04.19.03c-.03-.02-.1-.03-.19-.03Z"/>
        <path class="cls-1" d="m121.52,37.75l.55-.28c-.26.1-.42.2-.55.28Z"/>
        <path class="cls-1" d="m123.93,35.64c-.04-.1-.09-.16-.13-.21h0s.14.21.14.21Z"/>
        <path class="cls-1" d="m77.18,47.14s-.08-.03-.12-.04c-.32-.04-.12.01.12.04Z"/>
        <path class="cls-1" d="m92.27,49.91c-.16.1-.33.2-.5.26.27.05.48.06.5-.26Z"/>
        <path class="cls-1" d="m64.21,34.91s0,0,0,0l-.05-.1.04.11Z"/>
        <path class="cls-1" d="m91.06,50.15c.26.11.5.09.71.02-.22-.04-.48-.1-.71-.02Z"/>
        <path class="cls-1" d="m132.53,24.83l.1-.12s-.05-.04-.07-.06l-.03.18Z"/>
        <path class="cls-1" d="m132.56,24.65l.03-.18c-.04.07-.07.13-.03.18Z"/>
        <path class="cls-1" d="m132.66,24.08l-.07.38c.07-.11.16-.23.07-.38Z"/>
        <path class="cls-1" d="m129.97,28.19l.14.16s-.06-.1-.14-.16Z"/>
        <path class="cls-1" d="m129.28,29.27c.21-.22.8-.37.94-.8l-.11-.13c.13.34-.94.48-.83.92Z"/>
        <path class="cls-1" d="m124.04,31.83l.78-.7c-.28,0-.66,0-.4-.4-1.32.59.54.1-.38,1.1Z"/>
        <path class="cls-1" d="m121.66,33.99c.31-.47-.23-.21-.3-.32-.1.39-.12.49.3.32Z"/>
        <path class="cls-1" d="m102.7,46.4l-.1-.51c-.37.21.05.19.1.51Z"/>
        <path class="cls-1" d="m98.92,50.02c.17.1.32.15.49.23l.12-.51c-.2.09-.4.21-.61.28Z"/>
        <polygon class="cls-1" points="95.86 46.7 96.03 46.6 95.37 46.87 95.86 46.7"/>
        <path class="cls-1" d="m67.51,28.99l-.59.25c.17.25.87.15.59-.25Z"/>
        <path class="cls-1" d="m68.94,14.01c.34.14.66.02.63-.29-.22.07-.58.15-.63.29Z"/>
        <polygon class="cls-1" points="62.56 48.48 62.76 48.15 62.29 48.57 62.56 48.48"/>
      </g>
      <g>
        <path class="cls-1" d="m132.77,61.94c.12.14.48.3.49.12l-.52-.43.03.3Z"/>
        <path class="cls-1" d="m134.37,61.6c-.19-.32-.57-.79-1.16-.98.46.47.21.38.77.93-.01.18-.32.14-.52,0,.12.13-.25.15.07.43.55.07.7-.15.46-.6.16.02.28.15.38.23Z"/>
        <path class="cls-1" d="m142.47,47.99l-.11.06c.05,0,.09-.03.11-.06Z"/>
        <path class="cls-1" d="m146.7,39.11c-.01.08.04.13.09.15-.01-.08-.03-.15-.09-.15Z"/>
        <path class="cls-1" d="m147.99,37.81s-.05.05-.08.08c.07-.01.12-.04.08-.08Z"/>
        <path class="cls-1" d="m142.47,47.99l.3-.15c-.19-.11-.2.06-.3.15Z"/>
        <path class="cls-1" d="m134.03,58.94c0,.06.04.13.09.21,0-.05,0-.1,0-.15-.03-.02-.06-.04-.09-.06Z"/>
        <path class="cls-1" d="m141.1,52.14l-.03.07c.06.05.13.11.21.18l-.18-.25Z"/>
        <path class="cls-1" d="m139.71,55.17c.06-.06-.43-.33-.64-.47.19.14.26.24.27.32.09.05.21.1.37.15Z"/>
        <path class="cls-1" d="m136.38,59.38l.02.12s-.01-.08-.02-.12Z"/>
        <path class="cls-1" d="m142.25,50.04c.08.03.15.05.19.06-.06-.03-.13-.05-.19-.06Z"/>
        <path class="cls-1" d="m105.42,5.67s0-.07,0-.1c-.02.06-.02.1,0,.1Z"/>
        <path class="cls-1" d="m101.54,2.96l.05-.03c0-.11,0-.21,0-.32l-.06.35Z"/>
        <path class="cls-1" d="m149.77,35.18s0,0-.02,0c.03.1.04.05.02,0Z"/>
        <path class="cls-1" d="m154.13,6.1c-.2.61-.89-.16-1.02.64.14-.18,1.02-.03,1.02-.64Z"/>
        <path class="cls-1" d="m134.13,58.9s.03-.08.06-.12c-.05.05-.06.08-.06.12Z"/>
        <path class="cls-1" d="m153.11,6.74h0s-.01.08-.01.08c0-.03.01-.05.02-.08Z"/>
        <path class="cls-1" d="m151.85,28.36c-.1-.02-.18-.02-.26-.01.06.02.13.02.26.01Z"/>
        <path class="cls-1" d="m149.34,33.09l.11-.1c-.07.03-.1.06-.11.1Z"/>
        <path class="cls-1" d="m151.96,25.5c.06-.05.14-.05.1-.17-.03,0-.05,0-.07,0,.06.06.08.11-.03.16Z"/>
        <path class="cls-1" d="m152.82,22.78s-.08.01-.12.02c0,.03,0,.06,0,.1l.12-.11Z"/>
        <path class="cls-1" d="m114,5.3c-.06-.16-.1-.33-.13-.5.05.4-.37.54.13.5Z"/>
        <path class="cls-1" d="m134.31,59.09c-.12-.08-.17-.14-.17-.19,0,.03-.01.06-.02.1.07.05.14.09.19.09Z"/>
        <path class="cls-1" d="m147.78,24.03l.22-.4c-.09.1-.17.25-.22.4Z"/>
        <path class="cls-1" d="m134.25,5.44l-.1.06s.08,0,.1-.06Z"/>
        <path class="cls-1" d="m148.31,22.35c.21-.02.35-.06.45-.12-.04-.03-.06-.06-.12-.09l-.32.22Z"/>
        <path class="cls-1" d="m113.86,4.79h0s0,0,0,0Z"/>
        <path class="cls-1" d="m110.92,6.15c.43.01.19-.73.28-1.15.51-.21.24.54.42.92.32-.2.56-.88.79-.85.02.12.07.17.01.32.33-.59,1-.03,1.39-.77.03.07.04.13.05.18-.07-.37-.08-.75-.07-1.01.19-.01.35-.47.43.01-.12-.01-.13.18-.18.33l.2-.21c.18.69-.27.24-.27.76.39-.23.85-.8,1.15-.61.06.68-.7.23-.3.83l-.47-.26c.36,1.07-.28-.07.05,1.07.61.2.68-.35,1.29-.15.14-.38-.05-.56.09-.94.87-.68.68,1.71,1.32.8.16-.45.23-1.31.68-.86l-.16.77c.59.08.34-1.1.96-.59-.11.3-.47.25-.38.34.4.61.28-.44.59-.43l.06.68c.63-.11,1.33-.59,2.03-.71-.04.2-.16.41,0,.62.88-.34,1.88.1,2.72.51l.33-.58c.08,0,.14.27.05.38.33.23.02-.37.18-.6.19-.04.24.34.12.51.59-.49,1.68-1.05,2.28-.41l-.12.17c.48.25.56-1.2.99-.64l-.09.1c1.04.27,2.2-.25,2.97.66.17-.84,1.02.4,1.11-.78.58.6.41.8,1.23,1.22.22.06.35-.73.63-.84v.62s.38-.64.38-.64l.18.74.26-.15c-.1-.04-.21-.28-.19-.46.41-.27.97.45.98.77l.97-.49c-.03.25-.19.33-.32.48.53-.61.07.65.56.09-.06-.14.04-.37.06-.49.22.38.75.4,1.15.25l-.09.42c.7.13,1.5-.15,2.3-.12-.28-.21-.19-.94.05-1l.07.65c.16-.4-.24-.25.09-.74.3.09.17.75,0,.95l.37-.21c.01.2-.07.29-.1.54.16-.4.6.68.84-.02v.19c.8.04,1.2-.18,1.8-.18.04-.56.26-.42.47-.87.44.21.87.69,1.38.71.39-.23.17-.46.38-.76-.05.51.46.54.14.87.61.02.77.02,1.6-.18-.02-.22-.09-.34,0-.49.16-.04.25.29.16.52l-.05.04c.52-.25.88.28,1.12.75.26.49.4.9.91.6l-.06.03c.27-.06.54-.1.81-.11.16.24-.37.2-.41.57.52-.16.66.07.78.26.11.21.13.43.52.46-.53.61-.34.78-.13,1.06.25.23.48.6.11.94l.34-.12c.37.05-.16.21-.22.32.27-.07.28-.21.49-.17.34.54.28,1.24.03,1.91-.25.68-.65,1.33-.94,2-.2.5,1.75.68.76,1.19l-.6-.35c.52,1.28-.64,2.3-.34,3.64-.13-.11-.32-.17-.28-.28-.53.11-.29.9.09,1.01-.1.17-.35-.06-.58,0-.34.16.41.79-.09.78-.08,0-.13-.11-.15-.17.18.23-.29.72.29.73-.39.35-.02.9-.44,1.15.52.41-.51.65.3.99-.85-.3-.93.54-.62.94-.23-.18-.35.15-.67-.07-.09.31-.02.65.44.74-1.22.23.45,1.43-.97,1.31.15,1.07.17,2.03.08,2.93-.84-.33.23-.94-.68-1.22.08.9.66,1.61.17,2.32-.19.16-.33-.24-.45-.36.07.9-.62,1.48-.41,2.34-.08-.03-.14-.14-.18-.23-.02.15-.24.27.15.4l-.05-.17c.64-.01.96.97,1.25,1.11-1.01-.64-.53.58-1.79-.3.04.12.18.3.44.37-.13.1-.29.09-.53-.15.03.57.5.55.32.99-.19-.07-.22-.19-.42-.32.28.36.56.72.26,1.04-.1-.07-.27-.08-.22-.19-.18.66.54,1.46-.09,2.03-.72-.52-.36.13-1.07-.1l.06.46.4-.02c-.14.32.25.82-.09,1.01l-.19-.36-.12.67.41-.24c.22.48.89.32.52.68-.03-.12-.14.33-.62.33h0c.15.25.32.51.04.69-.25-.03-.74-.36-.91-.38.51.4-.16.83.38,1.29-.12-.13-.48-.28-.56-.29l.41.33c-.21.09-.29.08-.57-.06-.28.42.94.22.33.6-.02-.06-.1-.07-.13-.19-.43.46-.15,1.17-.6,1.58-.75-.15.02-.51-.64-.59-.18.77.19,1.84-.28,2.46l.13-.1c.93.53-.71.3-.41.85-.03-.12-.49-.35-.39-.28-.37.4-.19,1.08-.22,1.93l-.21-.2c-.35.18-.47.67-.72.92.21.2.09.36.49.42-1.83.26-.07,2.11-1.63,2.37.04-.1-.1-.33-.14-.26l-.11.8c.44.15.3.03.69.04.2.21.3.5.22.67-.12-.45-.67-.32-.96-.3.14.04.26.15.39.21-.91,0,.81.47.06.72l-.2-.13c.02.24.22.55.06.72-.52-.16-.13-.31-.51-.52-.11.29.63,1,.03,1.02-.07-.19,0-.36-.06-.54-.7,0-.57.1-.76.26h.02s-.49.33-.49.33l.21-.04c1.07.98-.12.82.44,1.7-.53-.85-.41-.3-.93-.61-.21.04-.47.14-.6,0,.32.44-.53.19-.06.83-.18-.08-.14.23-.55-.05-.01.36.34.09.54.23.36.75-1.25.66-.78,1.71.04.72.56,1.13.58,1.79-.37.02-.55-.48-.55-.48-.4.14-.47.37-.41.73-.12-.13-.28-.15-.51-.18-.07.23.55.48.15.61-.16-.15-.44-.38-.57-.58.03.33.21.74.22,1.08-.33-.1-.37-.4-.51-.6-.02.35-.14.88.28,1.23l.27-.09c-.03.12-.43-.17-.48-.3-.23-.45.36-.26.54-.18v.24c1.11.37.26-.81.51-1.14l.65.55-.4-.7c.23.02.67.19.68.43.5-.06-.13-.37.39-.38.08,0,.11.04.12.08l-.08-.37c.13.13.54.24.35.34.67-.23-.15-1.04.5-.91l.02.06c.1-.77-.51-.35-.88-1.16l1.5.38-.51-.35c.05-.06.16-.17.37-.03-.24-.44-.26-.08-.53-.41.66-.06.23-1,1.13-.62-.35-.33-.48.14-.59-.35.98.38.05-.47.62-.55.43.34.04.48.62.41-.72-.59.47-.48.44-.81-.64-.34,0-.68,0-1.2.2.14.75-.6,1.18-.88l.1.07c-.62-.4-.3-.74-.3-1.1.39.2.52.33.62.58l.13-.28c-.18-.17-.25-.31-.24-.52l.46.31c.15-.38-.23-1.02.33-1.33-.45-.25-1.47-.24-1.54-.88.26.1.7.29.73.46-.01-.06-.13-.25.01-.29l.32.4c.29-.13-.3-.28-.18-.43.36.17.32,0,.59.15.01.06-.22.08-.11.21.16-.16.48-.3.79-.25-.21-.08-.48-.23-.46-.39.15-.38.49.08.77-.05-.21-.21.16-.32-.37-.58.05-.11.31-.01.48.02-.15-.3.35-.93-.32-.97l-.06.03s0-.03,0-.04h0s0,0,0,0c-.24-.87.9-1.16.95-1.89l.18.08c-.04-.47.25-.89-.02-1.32.05-.11.45-.11.64.03-.01-.35-.19-.46.28-.75.19.43.32.02.1.4.32-.3.64-.27.32-.88.41.34.71-.03.64-.27l-.45.12c.02-.23.13-.39.25-.55l.57.36c1.08-.45-.68-1.92.81-1.98-.35-.38-.47.29-.9-.1.23-.32,1.26-.32,1.31-.44.54-.35-.71-.82-.27-1.23-.25-.02-.86-.2-.91-.66.23-.32,1.1-.06,1.19.23-.02.09-.1.11-.18.07.03.15.07.34.36.29l-.2-.14c.3-.08.47-.59.79-.33-.1-.35-.32-.26-.51-.11.5-.33.29-.71.69-1.1-.15.03-.44,0-.41-.08.55-.58-.3-.47-.21-.97.44-.13.77.41.67-.17.34-.2.61.17.75.35-.26-.59.59-.7.76-.92l.09.3c-.05-.18,0-.29.03-.4l-.49-.04c.13-.1.17-.22.36-.14-.24-.25-.78-.18-1.07-.6.29-.09-.04-.63.57-.47-.41.49.62.16.53.67-.04-.12,0-.23.14-.33.07,0,.11.06.14.11.73-.34-.57-.5-.35-1.05.31.19.68.1.64-.01-.09.22-.6-.1-.77-.4.39-.26-.05-.46.05-.64l-.2.17c-.31-.19-.2-.36-.21-.64.27.07.1.29.24.24-.49-.49.83-.41.58-.94.29-.1.63.21.84.11-.28-.59.63-.31.43-.89-.5-.03-.4.03-.72-.44l.05.86-.48-.71c-.09.22.11.58-.01.68-.28-.36-.18-.3-.59-.32.79-.07-.17-.75.41-.94l1.11.4c.68-.37-.24-1.16.28-1.76l-.27.16c-.41-.25.09-.45-.02-.74.37.15.55.05.82.03-.28-.08.2-.51-.52-.82l.6-.15c.39-.5-.86-1-.55-1.51.35.3.7.14.87.6.06-.18.19-.32-.07-.41.27-.03-.34-.67.07-.72-.14-.13-.53-.28-.43-.48.08,0,.19.06.19.06-.19-.06-.15-.4-.62-.36,1.36-.19.41-1.6,1.57-1.77,0-.44.03-.96.11-1.33.11.06.19.06.13.12.5-.4-.99-.64-.43-1.09.7-.11.24.4.53.29,1.27.29.03-.74.88-.91l.05.12c.51-.17-.26-.86-.03-1.31,0,0,.1.06.19.06-.54-.52-.57-1.2-.63-1.72.45.27.2.28.73.32-.02-.23-.82-.15-.85-.6.3-.07.62-.32,1.16-.24l-.07.42c.75-.04.11-.54.28-.73l.3.1c.04-.68-.73-.84-.55-1.51l-.24.03c-.71-.49.48-.25-.04-.71l.8-.02c-.16-.29-.66-.98-.8-1.43.58.27.84.85,1.15,1.24.04-.26.02-.92-.37-1.07.07.11.26.26.13.35-.6-.37-.89-.77-.89-1.27.76.03.85-.33.87-.75.02-.43-.05-.9.49-1.22-.38-.46-.47-.95-.53-1.51-.06-.55-.15-1.18-.51-1.72-.8.97-.22-.3-1.22.41-.2-.18-.24-.27-.19-.34.05-.36.06-.72.07-1.1.14-.39.38.04.58-.15-.35-.58.23-.56.15-1.12-.26.36-.62.26-.78-.13,0,.27,0,.52-.02.78-1.08-.16.13-1.33-1.03-1.43l.47-.12c-.5-.16-1.51-1.05-2.35-.35,0-.16.05-.51.27-.5-.45-.33-1.11-.31-1.69-.3-.58,0-1.08.01-1.37-.37l.15-.27c-.21.04-.45.45-.6.12.04-.12.14-.28.06-.31-.12.08-.59.41-.79.19l.27-.29c-.89-.57-1.57.57-2.32.69.09-.87-.61-1.23-.97-1.39l.02-.12c-1.08-.17-1.73.66-2.67.97-.53-.98-1.9-.46-2.79-1.03.13.16-.04.69-.21.77-.21-.19-.61.59-.55-.21l.08.02c-.14-.8-.58-.6-.92-.63l-.09,1.05c-.85-1.56-2.35.5-2.81-.89-.22.26-.49.25-.71.51l.03-.57c-.59-.16-.89-.24-1.63-.12l.16-.4c-.42-.05-.56,1.62-.94,1.65l-.1-.85c-.73,0-1.45-.76-2.18,0,.01-.12.04-.37.16-.4-.34-.03-1.32-.59-1.21.57,0-.76-.75-.08-1.15.24l.07-.56c-.34.71-.35.9-.82,1.09-.11-.07-.09-.45.05-.3-.36-.3-.29.52-.73.22l.17-.35c-.38-.05-.35.14-.56.56-.24.22-.71-.15-.76-.65-.05.31-.26.72-.48.57-.03-.19.05-.31.09-.37-.62-.39-.94.64-1.37.09,0-.18-.04-.28-.07-.33.5.02.9.05.86.09,0-.51-.4-.61-.07-1.31-.33.39-.89,1.22-1.28.98-.02-.05-.04-.1-.05-.18l.04-.06c-.09-.05-.17,0-.25.08-.12-.08-.2-.15-.32-.16-.04-.43-.46-.23-.66-.25.01.56-.25.47,0,.94-.03-.04.04-.07.17-.09.03-.02.07-.02.09-.06v.05c.12-.02.29-.03.49-.03-.16.28-.33.52-.55.21-.1.36-.22.73-.28.91-.27-.78-.8-1.21-.87-1.69-.61.31-1.45.2-1.83,1.26-.17.14-.2-.3-.27-.47.1-.11.22-.09.27-.24-.35.27-1.03.11-1.12.85-.44-.33.25-.68-.36-.56l.08-.23c-1.19-1.18-1.92,1.89-3.25.39.09.09.14.14.16.26-1.51-.66-3.08.65-4.58-.38-.42-.21-.46.26-.71.63l-.1-.6-.43.7c-.61.52-1.1-1.46-1.88-.48l.11.41c-.28-.07-.89.26-.85-.21-.03.07-.08.42-.2.22l-.02-.32-.68.56c-.54-.22.06-1.26-.73-1.3-.29.13-.81.94-.7,1.15.12.01.31.19.32.51l-.26.17c-.03.93-.21,1.89.46,2.53l.44-.58.16.45-.38.04c.23.42.36.04.5-.22.04.24.11.41.2.49l.43-.9c.06.36-.19.73.12.92.2-.42-.22-.81.12-1.09.23.42.17.76.42.4.04.24-.01.39-.11.5.22-.29.6-.13.71-.63.24.52.77-.15.76.73.07-.21.39-.7.6-.74-.36,1.06.78.05.7,1.18.27-.95,1.01-.44,1.51-.97-.03.08-.08.23-.12.18.28.07.37.36.55.54.03-.78.46-.97.69-1.46.35.75-.2.92-.08,1.65-.03-.64.59-.64.47-1.17.27.47.23.22.37.87.04-.98.24-.17.46-.77.39.48.11.92.52.61.2.3-.17.65-.17.65Zm9.98-1.71h0c-.09.02-.16.03-.21.04.04,0,.1-.02.21-.04Zm.84,0c-.1-.02-.23-.03-.36-.02-.03-.19,0-.39.09-.38-.05.13.15.24.27.41Zm-1.76-3.91c.13-.08.18.03.2.15-.06,0-.14.03-.23.07,0,.02-.01.05-.02.07.01-.11.03-.21.05-.28Z"/>
        <path class="cls-1" d="m119.74,1.26s-.03.04-.06.04c.03.05.05.09.08.13.02-.06.03-.12.05-.18h-.07Z"/>
        <path class="cls-1" d="m142.34,48.06h.02s-.05,0-.09-.01c.03,0,.05,0,.07.01Z"/>
        <polygon class="cls-1" points="133.31 5.7 133.31 5.55 133.24 5.68 133.31 5.7"/>
        <path class="cls-1" d="m138.61,51.42s-.1-.02-.16,0c.03.01.09.01.16,0Z"/>
        <path class="cls-1" d="m137.61,53.15l-.3.16c.16-.06.24-.11.3-.16Z"/>
        <path class="cls-1" d="m136.67,54.39c.08.06.14.1.2.14h0s-.21-.14-.21-.14Z"/>
        <path class="cls-1" d="m145.77,31.89s0-.04,0-.06c-.06-.17-.05-.06,0,.06Z"/>
        <path class="cls-1" d="m144.38,39.11c-.07-.11-.13-.22-.16-.32-.09.1-.14.19.16.32Z"/>
        <polygon class="cls-1" points="147.75 24.07 147.76 24.07 147.78 24.03 147.75 24.07"/>
        <path class="cls-1" d="m144.36,38.49c-.15.08-.17.19-.14.31.07-.08.18-.18.14-.31Z"/>
        <path class="cls-1" d="m133.32,60.1l-.06.05s.06.04.07.05l-.02-.1Z"/>
        <path class="cls-1" d="m133.34,60.21l.02.1s.03-.06-.02-.1Z"/>
        <path class="cls-1" d="m133.4,60.53l-.04-.22c-.03.05-.08.11.04.22Z"/>
        <path class="cls-1" d="m134.52,58.46l-.17-.12s.09.07.17.12Z"/>
        <path class="cls-1" d="m134.76,57.89c-.11.11-.56.12-.54.36l.13.09c-.22-.23.64-.17.41-.45Z"/>
        <path class="cls-1" d="m138.2,56.79l-.39.39c.23.02.55.05.48.28.88-.28-.49-.11-.1-.67Z"/>
        <path class="cls-1" d="m139.23,55.49c-.04.3.28.14.39.21-.09-.25-.12-.31-.39-.21Z"/>
        <path class="cls-1" d="m144.25,44.91l.46.23c.02-.23-.18-.08-.46-.23Z"/>
        <polygon class="cls-1" points="142.7 41.82 142.32 41.89 142.72 42.16 142.7 41.82"/>
        <polygon class="cls-1" points="146.57 42.03 146.6 42.14 146.57 41.74 146.57 42.03"/>
        <path class="cls-1" d="m153.14,23.41l-.62-.12c.06.17.73.41.62.12Z"/>
        <path class="cls-1" d="m154.8,14.89c.33-.04.57-.28.28-.48-.07.2-.35.36-.28.48Z"/>
        <polygon class="cls-1" points="135.68 .71 135.86 .5 135.53 .67 135.68 .71"/>
      </g>
    </g>
  </g>
</svg>