<?xml version="1.0" encoding="UTF-8"?>
<svg id="_圖層_2" data-name="圖層 2" xmlns="http://www.w3.org/2000/svg" viewBox="0 0 20.89 20.93">
  <g id="_圖層_1-2" data-name="圖層 1">
    <path d="m20.39,15.42v3c0,1.1-.89,2-1.99,2.01-.06,0-.13,0-.19,0-3.08-.33-6.03-1.39-8.63-3.07-2.42-1.54-4.46-3.58-6-6C1.89,8.74.84,5.77.51,2.68c-.1-1.1.71-2.07,1.81-2.17.06,0,.12,0,.18,0h3c1,0,1.86.73,2,1.72.13.96.36,1.9.7,2.81.27.73.1,1.55-.45,2.11l-1.27,1.27c1.42,2.5,3.5,4.58,6,6l1.27-1.27c.56-.55,1.38-.72,2.11-.45.91.34,1.85.57,2.81.7,1.01.14,1.75,1.01,1.72,2.03Z" style="fill: none; stroke: #4c4c4c; stroke-miterlimit: 10;"/>
  </g>
</svg>