<?xml version="1.0" encoding="UTF-8"?>
<svg id="_圖層_2" data-name="圖層 2" xmlns="http://www.w3.org/2000/svg" viewBox="0 0 98.44 97.81">
  <g id="_圖層_1-2" data-name="圖層 1">
    <g>
      <path d="m0,51.67v-5.34c.16-1.72.14-3.46.31-5.18.37-3.85,1.52-7.5,3.02-11.04C7.31,20.7,13.64,13.23,22.23,7.65,27.99,3.92,34.23,1.34,41.07.48c4.95-.63,9.96-.61,14.92-.12,8.99.88,16.92,4.47,23.9,10.02,9.74,7.74,15.91,17.73,18.04,29.98.66,3.79.53,7.68.39,11.54-.11,2.94-.23,5.86-.96,8.73-2.26,8.93-6.62,16.65-13.19,23.18-6.98,6.94-15.29,11.4-24.94,13.42-1.94.41-3.93.36-5.9.49-.5.03-1.02-.12-1.51.09h-5.38c-1.82-.19-3.65-.18-5.47-.34-3.1-.28-6.04-1.15-8.92-2.2-5.79-2.12-11.05-5.18-15.65-9.26-4.52-4.01-8.3-8.62-11.12-13.98-2.15-4.08-3.77-8.34-4.67-12.86-.4-1.98-.4-3.99-.52-6-.03-.5.12-1.01-.09-1.5Z" style="fill: #b61c31;"/>
      <path d="m49.16,67.36c-5.5,0-11.01.1-16.5-.03-5.21-.12-9.31-4.25-9.4-9.45-.1-5.91-.1-11.82,0-17.73.08-5.23,4.18-9.38,9.46-9.49,6.46-.13,12.92-.05,19.38-.05,4.48,0,8.96-.08,13.43.05,5.3.14,9.39,4.2,9.49,9.46.11,5.91.1,11.82,0,17.73-.09,5.26-4.17,9.37-9.46,9.49-5.47.13-10.94.03-16.41.03Z" style="fill: #fff;"/>
      <path d="m55.74,49.1c-4.25,2.46-8.47,4.89-12.69,7.34-.42.25-.68.34-.68-.32.01-4.73,0-9.46,0-14.18,0-.4,0-.74.56-.41,4.24,2.47,8.48,4.93,12.72,7.39.02.01.02.05.07.19Z" style="fill: #b61c31;"/>
    </g>
  </g>
</svg>