<?xml version="1.0" encoding="UTF-8"?>
<svg id="_圖層_2" data-name="圖層 2" xmlns="http://www.w3.org/2000/svg" xmlns:xlink="http://www.w3.org/1999/xlink" viewBox="0 0 98.43 97.81">
  <defs>
    <linearGradient id="_未命名漸層_2" data-name="未命名漸層 2" x1="42.37" y1="48.88" x2="55.74" y2="48.88" gradientTransform="translate(0 97.89) scale(1 -1)" gradientUnits="userSpaceOnUse">
      <stop offset="0" stop-color="#f5dea8"/>
      <stop offset=".03" stop-color="#f5dea8"/>
      <stop offset=".88" stop-color="#f5dea8"/>
    </linearGradient>
    <linearGradient id="_未命名漸層_2-2" data-name="未命名漸層 2" x1="0" y1="48.99" x2="98.43" y2="48.99" xlink:href="#_未命名漸層_2"/>
  </defs>
  <g id="_圖層_2-2" data-name=" 圖層 2">
    <g>
      <rect x="7.99" y="21.5" width="80.71" height="57.17" style="fill: #fff;"/>
      <g id="_圖層_1-2" data-name=" 圖層 1-2">
        <g id="_圖層_1-2-2" data-name=" 圖層 1-2">
          <g>
            <path d="m55.65,48.92c-4.24-2.46-8.48-4.92-12.72-7.39-.56-.33-.56,0-.56.41,0,4.72,0,9.45,0,14.18,0,.66.26.57.68.32,4.22-2.45,8.44-4.88,12.69-7.34h-.02c-.05-.13-.05-.17-.07-.18Z" style="fill: url(#_未命名漸層_2);"/>
            <path d="m97.93,40.36c-2.13-12.25-8.3-22.24-18.04-29.98-6.98-5.55-14.91-9.14-23.9-10.02-4.96-.49-9.97-.51-14.92.12-6.84.86-13.08,3.44-18.84,7.17C13.64,13.23,7.31,20.7,3.33,30.11c-1.5,3.54-2.65,7.19-3.02,11.04-.17,1.72-.15,3.46-.31,5.18v5.34c.21.49.06,1,.09,1.5.12,2.01.12,4.02.52,6,.9,4.52,2.52,8.78,4.67,12.86,2.82,5.36,6.6,9.97,11.12,13.98,4.6,4.08,9.86,7.14,15.65,9.26,2.88,1.05,5.82,1.92,8.92,2.2,1.82.16,3.65.15,5.47.34h5.38c.49-.21,1.01-.06,1.51-.09,1.97-.13,3.96-.08,5.9-.49,9.65-2.02,17.96-6.48,24.94-13.42,6.57-6.53,10.93-14.25,13.19-23.18.73-2.87.85-5.79.96-8.73.14-3.86.27-7.75-.39-11.54Zm-22.91,17.49c-.09,5.26-4.17,9.37-9.46,9.49-5.47.13-10.94.03-16.41.03h0c-5.5,0-11.01.09-16.5-.04-5.21-.12-9.31-4.25-9.4-9.45-.1-5.91-.1-11.82,0-17.73.08-5.23,4.18-9.38,9.46-9.49,6.46-.13,12.92-.05,19.38-.05,4.48,0,8.96-.08,13.43.05,5.3.14,9.39,4.2,9.49,9.46.11,5.91.1,11.82,0,17.73Z" style="fill: url(#_未命名漸層_2-2);"/>
          </g>
        </g>
      </g>
    </g>
  </g>
</svg>