<?xml version="1.0" encoding="UTF-8"?>
<svg id="_圖層_2" data-name="圖層 2" xmlns="http://www.w3.org/2000/svg" viewBox="0 0 800.47 347.98">
  <g id="_圖層_1-2" data-name="圖層 1">
    <g>
      <path d="m25.02,201.81h719.39c9.77,0,19.56.16,29.33,0,.42,0,.85,0,1.27,0,13.08,0,25.6-11.5,25-25-.61-13.55-10.98-25-25-25H55.63c-9.77,0-19.56-.16-29.33,0-.42,0-.85,0-1.27,0-13.08,0-25.6,11.5-25,25s10.98,25,25,25h0Z" style="fill: #4c4c4c;"/>
      <path d="m585.34,42.49c19.51,16.56,39.02,33.13,58.53,49.69,30.83,26.17,61.65,52.34,92.48,78.51,7.16,6.08,14.32,12.15,21.48,18.23,9.96,8.45,25.71,10.5,35.36,0,8.55-9.31,10.65-26.32,0-35.36-19.51-16.56-39.02-33.13-58.53-49.69-30.83-26.17-61.65-52.34-92.48-78.51-7.16-6.08-14.32-12.15-21.48-18.23-9.96-8.45-25.71-10.5-35.36,0-8.55,9.31-10.65,26.32,0,35.36h0Z" style="fill: #4c4c4c;"/>
      <path d="m620.7,340.91c19.51-16.56,39.02-33.13,58.53-49.69,30.83-26.17,61.65-52.34,92.48-78.51,7.16-6.08,14.32-12.15,21.48-18.23,10.01-8.49,9.4-26.73,0-35.36-10.65-9.78-24.68-9.06-35.36,0-19.51,16.56-39.02,33.13-58.53,49.69-30.83,26.17-61.65,52.34-92.48,78.51-7.16,6.08-14.32,12.15-21.48,18.23-10.01,8.49-9.4,26.73,0,35.36,10.65,9.78,24.68,9.06,35.36,0h0Z" style="fill: #4c4c4c;"/>
    </g>
  </g>
</svg>