<?xml version="1.0" encoding="UTF-8"?>
<svg id="_圖層_2" data-name="圖層 2" xmlns="http://www.w3.org/2000/svg" viewBox="0 0 276.29 371.19">
  <g id="_圖層_1-2" data-name="圖層 1">
    <g id="_圖層_2-2" data-name="圖層 2">
      <g id="_圖層_1-2" data-name="圖層 1-2">
        <g id="_圖層_2-2" data-name="圖層 2-2">
          <g id="_圖層_1-2-2" data-name="圖層 1-2-2">
            <path d="m214.81,83.7c7.26-9.82,15.5-20.98,26.77-14.81,4.9,2.67,6.94,7,6.06,12.81-.22,1.36-.55,2.71-.99,4.02,2.86-1.43,6.85-3.36,10.68-2.9,3.48.32,6.66,2.1,8.76,4.9,1.95,2.51,3.58,5.8,3.17,8.53-.74,4.9-6.31,9.2-9.82,11.71,3.71.61,8.5,1.96,11.65,5.02,2.4,2.27,3.62,5.52,3.3,8.81l-.06.4c-.33,2.19-3,13.27-22.82,16.57-21.59,3.56-34.56,1.27-43.34-7.75-4.93-5.07-4.77-14.04-3.77-20.68,1.44-9.55,5.55-20.04,10.41-26.61Z" style="fill: #ac1e30;"/>
            <path d="m272.48,121.89c-.27,1.82-2.64,12.06-21.35,15.17-20.55,3.42-33.21,1.39-41.58-7.19-3.82-3.93-4.5-11.29-3.3-19.29,1.43-9.45,5.48-19.71,10.14-25.96,8.54-11.49,15.32-19.23,24.3-14.27,4.19,2.1,6.48,6.72,5.61,11.33-.19,1.72-.88,3.04-1.5,4.65-.34.88-.07,1.97.88,1.32,4.37-3.97,13.62-6.18,19.31.42,2.64,3.38,2.24,6.05,1.92,8.14-.76,5.02-6.76,9-10.12,11.17-.29.13-.48.42-.48.74,0,.44.36.8.81.8,5.45.54,16.06,3.37,15.38,12.73l-.04.28m3.69.51l.08-.52c.35-3.79-1.05-7.52-3.79-10.15-2.11-1.94-4.62-3.4-7.36-4.26-.13-.05-.24-.12-.34-.22-.38-.38-.38-.99,0-1.37,2.51-2.47,4.72-5.58,5.26-9.15.48-3.18-.77-7.41-2.97-10.28-2.44-3.19-6.1-5.23-10.11-5.6-2.8-.33-4.77.15-7.48,1.79l.11-.73c1.24-8.2-3.11-12.47-6.99-14.55-5.58-3.02-11.14-2.61-16.53,1.21-4.06,2.89-7.89,7.52-12.75,14.08-5.03,6.8-9.24,17.54-10.72,27.36-1.06,7-1.18,16.51,4.23,22.07,4.78,4.93,10.8,7.93,18.39,9.22,7.08,1.2,15.83.91,26.72-.9,21.01-3.51,23.91-15.59,24.27-17.99h0l-.02-.02Z" style="fill: #fff;"/>
          </g>
        </g>
      </g>
    </g>
    <g id="_圖層_2-3" data-name="圖層 2">
      <g id="_圖層_1-2-2" data-name="圖層 1-2">
        <g id="_圖層_2-2-2" data-name="圖層 2-2">
          <g id="_圖層_1-2-2-2" data-name="圖層 1-2-2">
            <path d="m127.48,58.03c-9.11-8.35-19.47-17.82-12.08-28.51,3.21-4.65,7.78-6.24,13.53-4.74,1.35.37,2.67.84,3.94,1.42-1.13-3.03-2.65-7.25-1.79-11.06.69-3.47,2.82-6.48,5.86-8.3,2.73-1.7,6.22-2.99,8.92-2.29,4.86,1.27,8.6,7.33,10.74,11.12,1-3.67,2.87-8.34,6.28-11.2,2.54-2.18,5.94-3.06,9.22-2.39l.4.1c2.17.56,13.04,4.42,14.26,24.72,1.3,22.1-2.37,34.92-12.39,42.81-5.63,4.43-14.64,3.32-21.21,1.6-9.46-2.46-19.58-7.71-25.68-13.29Z" style="fill: #ac1e30;"/>
            <path d="m172.03,4.02c1.8.47,11.86,3.93,13.01,23.1,1.27,21.05-2.12,33.58-11.64,41.09-4.36,3.43-11.84,3.34-19.76,1.28-9.36-2.44-19.26-7.6-25.06-12.96-10.66-9.81-17.74-17.46-11.79-25.97,2.56-3.99,7.45-5.81,12-4.45,1.71.37,2.96,1.21,4.52,2,.85.44,1.97.28,1.42-.75-3.54-4.82-4.78-14.37,2.47-19.39,3.68-2.3,6.32-1.61,8.39-1.07,4.97,1.3,8.34,7.76,10.17,11.37.1.31.37.53.69.56.45.04.84-.28.89-.73,1.12-5.43,5.09-15.8,14.44-14.14l.27.07m.9-3.66l-.51-.13c-3.77-.75-7.68.26-10.62,2.74-2.18,1.92-3.91,4.29-5.06,6.96-.06.12-.15.23-.26.32-.42.34-1.04.28-1.38-.14-2.22-2.79-5.12-5.35-8.66-6.27-3.14-.82-7.54,0-10.66,1.9-3.47,2.12-5.91,5.59-6.71,9.58-.63,2.78-.36,4.82,1.01,7.72l-.72-.19c-8.12-2.12-12.88,1.81-15.38,5.49-3.63,5.29-3.81,10.93-.53,16.77,2.47,4.4,6.74,8.74,12.82,14.32,6.32,5.78,16.68,11.15,26.41,13.69,6.93,1.81,16.49,2.94,22.67-1.92,5.47-4.29,9.12-10.03,11.22-17.53,1.96-7,2.59-15.84,1.92-26.99-1.31-21.52-13.16-25.72-15.54-26.34h0l-.02.02Z" style="fill: #fff;"/>
          </g>
        </g>
      </g>
    </g>
    <g id="_圖層_2-4" data-name="圖層 2">
      <g id="_圖層_1-2-3" data-name="圖層 1-2">
        <g id="_圖層_2-2-3" data-name="圖層 2-2">
          <g id="_圖層_1-2-2-3" data-name="圖層 1-2-2">
            <path d="m162.03,184.83c7.11-8.27,15.18-17.66,24.8-11.44,4.19,2.7,5.72,6.68,4.56,11.8-.29,1.2-.67,2.38-1.14,3.51,2.64-1.08,6.32-2.54,9.7-1.88,3.08.52,5.79,2.31,7.48,4.94,1.58,2.36,2.81,5.4,2.26,7.8-.98,4.32-6.22,7.78-9.51,9.78,3.26.78,7.44,2.3,10.05,5.23,1.99,2.18,2.86,5.15,2.37,8.06l-.08.35c-.44,1.93-3.54,11.62-21.4,13.26-19.45,1.76-30.85-1.13-38.09-9.75-4.06-4.84-3.33-12.81-2-18.66,1.91-8.41,6.26-17.48,11.01-23.01Z" style="fill: #ac1e30;"/>
            <path d="m210.88,222.62c-.36,1.6-3.14,10.56-20.01,12.11-18.53,1.7-29.67-.94-36.55-9.13-3.14-3.75-3.27-10.35-1.67-17.39,1.89-8.32,6.17-17.19,10.73-22.45,8.36-9.67,14.9-16.12,22.57-11.12,3.59,2.15,5.32,6.41,4.26,10.45-.28,1.52-.99,2.65-1.64,4.04-.36.76-.19,1.75.7,1.23,4.15-3.25,12.53-4.61,17.17,1.64,2.13,3.18,1.6,5.53,1.18,7.37-1.01,4.42-6.61,7.57-9.75,9.28-.27.09-.46.34-.48.63-.03.39.27.73.67.76,4.81.84,14.07,4.06,12.86,12.34l-.06.24m3.25.69l.1-.45c.56-3.35-.44-6.77-2.71-9.29-1.75-1.87-3.89-3.33-6.27-4.27-.11-.05-.21-.13-.29-.22-.31-.36-.28-.91.09-1.22,2.4-2.04,4.57-4.66,5.29-7.81.64-2.8-.2-6.65-1.97-9.35-1.96-3-5.09-5.05-8.63-5.65-2.47-.48-4.26-.18-6.78,1.1l.15-.64c1.64-7.22-1.95-11.31-5.27-13.41-4.77-3.06-9.75-3.06-14.8,0-3.81,2.3-7.52,6.18-12.28,11.7-4.92,5.73-9.38,15.01-11.34,23.66-1.4,6.16-2.13,14.62,2.32,19.93,3.94,4.7,9.1,7.77,15.77,9.41,6.22,1.54,14.04,1.85,23.85.95,18.94-1.75,22.31-12.32,22.79-14.43h0l-.02-.02Z" style="fill: #fff;"/>
          </g>
        </g>
      </g>
    </g>
    <g id="_圖層_2-5" data-name="圖層 2">
      <g id="_圖層_1-2-4" data-name="圖層 1-2">
        <g id="_圖層_2-2-4" data-name="圖層 2-2">
          <g id="_圖層_1-2-2-4" data-name="圖層 1-2-2">
            <path d="m67.94,138.71c-4.71-9.83-10.07-21-.5-27.31,4.16-2.75,8.42-2.55,12.64.57.98.74,1.91,1.57,2.76,2.46.07-2.85.22-6.81,2.17-9.64,1.71-2.61,4.44-4.38,7.52-4.86,2.8-.49,6.08-.4,8.05,1.06,3.56,2.63,4.62,8.83,5.13,12.64,2.03-2.67,5.1-5.88,8.83-7.1,2.79-.95,5.87-.55,8.33,1.07l.29.21c1.59,1.17,9.22,7.91,3.54,24.93-6.21,18.52-13.43,27.8-24.23,30.96-6.06,1.77-13.07-2.1-17.89-5.67-6.93-5.13-13.49-12.75-16.64-19.33Z" style="fill: #ac1e30;"/>
            <path d="m122.17,109.16c1.32.98,8.41,7.12,3.05,23.19-5.89,17.65-12.78,26.79-23.05,29.8-4.7,1.37-10.79-1.17-16.59-5.46-6.86-5.07-13.26-12.56-16.25-18.85-5.5-11.54-8.77-20.13-1.11-25.14,3.41-2.42,8.01-2.3,11.28.3,1.28.87,2.03,1.97,3.04,3.13.55.64,1.52.88,1.41-.15-1.31-5.11.81-13.33,8.4-15.06,3.77-.67,5.7.76,7.22,1.89,3.64,2.7,4.28,9.1,4.58,12.66-.02.29.13.56.38.69.35.18.78.05.96-.3,2.7-4.07,9.37-11.26,16.47-6.82l.2.15m1.94-2.7l-.37-.28c-2.84-1.85-6.37-2.32-9.6-1.25-2.41.85-4.61,2.23-6.43,4.03-.09.08-.2.14-.32.18-.46.14-.94-.11-1.08-.57-.9-3.02-2.43-6.06-5.02-7.98-2.3-1.71-6.17-2.48-9.35-1.95-3.54.59-6.67,2.63-8.64,5.63-1.43,2.07-1.88,3.83-1.71,6.65l-.53-.39c-5.95-4.4-11.14-2.76-14.4-.57-4.71,3.14-6.72,7.7-5.95,13.55.58,4.41,2.64,9.37,5.78,15.94,3.27,6.81,9.98,14.62,17.11,19.89,5.08,3.76,12.53,7.83,19.19,5.88,5.89-1.71,10.77-5.21,14.96-10.66,3.91-5.08,7.33-12.11,10.45-21.46,6.01-18.05-2.31-25.38-4.05-26.67h-.02Z" style="fill: #fff;"/>
          </g>
        </g>
      </g>
    </g>
    <g id="_圖層_2-6" data-name="圖層 2">
      <g id="_圖層_1-2-5" data-name="圖層 1-2">
        <g id="_圖層_2-2-5" data-name="圖層 2-2">
          <g id="_圖層_1-2-2-5" data-name="圖層 1-2-2">
            <path d="m81.47,261.39c6.48-8.77,13.84-18.73,23.9-13.23,4.38,2.39,6.19,6.25,5.41,11.44-.2,1.22-.49,2.42-.88,3.59,2.55-1.27,6.12-3,9.54-2.59,3.11.29,5.95,1.88,7.82,4.37,1.74,2.24,3.2,5.18,2.83,7.61-.66,4.38-5.64,8.22-8.77,10.45,3.31.54,7.58,1.75,10.4,4.48,2.14,2.03,3.23,4.93,2.95,7.86l-.05.36c-.3,1.95-2.68,11.85-20.37,14.79-19.27,3.18-30.85,1.14-38.7-6.92-4.4-4.53-4.26-12.54-3.36-18.46,1.29-8.52,4.96-17.89,9.29-23.76Z" style="fill: #ac1e30;"/>
            <path d="m132.96,295.49c-.25,1.62-2.36,10.76-19.06,13.55-18.35,3.06-29.66,1.24-37.12-6.42-3.41-3.51-4.02-10.08-2.94-17.22,1.28-8.43,4.89-17.6,9.05-23.18,7.62-10.26,13.68-17.17,21.69-12.74,3.74,1.88,5.78,6,5.01,10.11-.17,1.53-.79,2.71-1.34,4.15-.3.78-.06,1.76.79,1.18,3.9-3.55,12.16-5.52,17.24.38,2.36,3.02,2,5.4,1.71,7.27-.68,4.48-6.04,8.04-9.04,9.97-.26.11-.43.37-.43.66,0,.39.33.71.72.71,4.86.48,14.33,3.01,13.73,11.37l-.04.25m3.3.45l.07-.46c.31-3.38-.94-6.72-3.39-9.07-1.89-1.73-4.13-3.03-6.57-3.8-.11-.04-.22-.11-.3-.2-.34-.34-.34-.89,0-1.22,2.25-2.21,4.22-4.98,4.7-8.17.43-2.83-.69-6.61-2.65-9.18-2.18-2.85-5.45-4.67-9.02-5-2.5-.3-4.26.13-6.68,1.6l.1-.65c1.11-7.32-2.77-11.14-6.24-12.99-4.98-2.7-9.95-2.33-14.76,1.08-3.63,2.58-7.05,6.72-11.38,12.57-4.49,6.08-8.25,15.66-9.57,24.43-.95,6.25-1.06,14.74,3.78,19.71,4.27,4.4,9.65,7.08,16.42,8.23,6.32,1.08,14.14.81,23.86-.8,18.76-3.13,21.35-13.92,21.67-16.06h0l-.02-.02Z" style="fill: #fff;"/>
          </g>
        </g>
      </g>
    </g>
    <g id="_圖層_2-7" data-name="圖層 2">
      <g id="_圖層_1-2-6" data-name="圖層 1-2">
        <g id="_圖層_2-2-6" data-name="圖層 2-2">
          <g id="_圖層_1-2-2-6" data-name="圖層 1-2-2">
            <path d="m1.69,335.32c1.31-9.06,2.8-19.35,12.42-19.27,4.18.03,7.06,2.16,8.54,6.31.34.98.6,1.98.77,3,1.38-1.96,3.34-4.65,6.02-5.7,2.41-1.02,5.14-.97,7.52.13,2.18.96,4.42,2.56,5.12,4.51,1.25,3.5-.9,8.32-2.33,11.21,2.66-.91,6.3-1.72,9.47-.82,2.39.65,4.35,2.36,5.31,4.64l.1.29c.56,1.56,2.73,9.83-9.19,19.03-12.99,10.01-22.36,13.1-31.37,10.25-5.06-1.6-8.13-7.58-9.82-12.32-2.43-6.82-3.44-15.2-2.56-21.26Z" style="fill: #ac1e30;"/>
            <path d="m53.31,340.08c.46,1.3,2.53,8.9-8.72,17.59-12.36,9.55-21.44,12.69-30,10-3.92-1.24-6.98-5.86-9.01-11.56-2.41-6.74-3.37-14.96-2.51-20.74,1.56-10.61,3.29-18.13,10.98-18.04,3.51-.1,6.66,2.14,7.72,5.49.48,1.2.49,2.32.66,3.6.09.7.65,1.32,1.05.56,1.48-4.17,6.8-8.91,12.9-6.57,2.94,1.3,3.62,3.2,4.15,4.69,1.28,3.58-1.27,8.34-2.72,10.96-.15.19-.17.45-.06.66.16.29.52.4.81.24,3.79-1.57,11.8-3.47,14.67,2.95l.07.2m2.62-.97l-.13-.37c-1.11-2.62-3.36-4.59-6.1-5.36-2.08-.53-4.26-.6-6.37-.2-.1.01-.2,0-.3-.02-.38-.11-.6-.52-.49-.9.78-2.52,1.14-5.36.23-7.91-.81-2.27-3.14-4.62-5.61-5.73-2.74-1.24-5.88-1.29-8.66-.11-1.96.77-3.1,1.79-4.3,3.83l-.19-.52c-2.09-5.85-6.47-7.13-9.77-7.13-4.75-.02-8.28,2.22-10.48,6.66-1.66,3.35-2.54,7.77-3.43,13.82-.91,6.28.12,14.85,2.62,21.87,1.78,4.99,5.07,11.32,10.62,13.07,4.91,1.56,9.94,1.4,15.41-.43,5.1-1.71,10.78-5.01,17.32-10.07,12.63-9.77,10.26-18.77,9.65-20.49h-.02Z" style="fill: #fff;"/>
          </g>
        </g>
      </g>
    </g>
    <g id="_圖層_2-8" data-name="圖層 2">
      <g id="_圖層_1-2-7" data-name="圖層 1-2">
        <g id="_圖層_2-2-7" data-name="圖層 2-2">
          <g id="_圖層_1-2-2-7" data-name="圖層 1-2-2">
            <path d="m8.62,223.13c-4.76-8.75-10.17-18.68-1.73-24.88,3.66-2.7,7.56-2.72,11.55-.07.93.63,1.81,1.34,2.63,2.11-.07-2.61-.12-6.22,1.53-8.89,1.44-2.46,3.85-4.2,6.64-4.79,2.53-.58,5.52-.65,7.39.59,3.37,2.24,4.63,7.83,5.27,11.29,1.72-2.53,4.37-5.6,7.72-6.88,2.5-.99,5.33-.78,7.65.59l.27.18c1.5,1,8.78,6.79,4.39,22.57-4.8,17.18-10.96,25.98-20.66,29.37-5.45,1.9-12.02-1.31-16.58-4.34-6.56-4.35-12.9-11-16.08-16.86Z" style="fill: #ac1e30;"/>
            <path d="m56.71,193.65c1.25.83,8,6.1,3.86,21-4.55,16.37-10.41,25.03-19.63,28.26-4.22,1.47-9.9-.56-15.39-4.21-6.49-4.31-12.68-10.84-15.7-16.44-5.55-10.27-8.94-17.95-2.18-22.87,3-2.37,7.2-2.47,10.31-.25,1.2.73,1.94,1.7,2.92,2.71.53.55,1.43.73,1.28-.2-1.43-4.6.12-12.2,6.96-14.13,3.41-.79,5.24.43,6.68,1.38,3.45,2.29,4.32,8.1,4.77,11.33,0,.26.14.5.38.61.33.15.72,0,.87-.32,2.28-3.84,8.02-10.71,14.71-6.99l.19.13m1.65-2.55l-.35-.24c-2.68-1.56-5.92-1.81-8.81-.69-2.16.89-4.1,2.25-5.68,3.97-.08.08-.17.14-.28.18-.41.15-.86-.06-1.02-.47-.96-2.71-2.5-5.41-4.95-7.04-2.18-1.45-5.74-1.98-8.62-1.34-3.2.7-5.96,2.71-7.62,5.54-1.21,1.95-1.53,3.58-1.25,6.14l-.5-.33c-5.63-3.74-10.29-2-13.16.15-4.15,3.08-5.77,7.33-4.8,12.64.73,4,2.84,8.42,6.02,14.27,3.3,6.06,9.78,12.87,16.53,17.35,4.81,3.19,11.79,6.56,17.77,4.47,5.29-1.84,9.58-5.25,13.14-10.42,3.33-4.82,6.12-11.39,8.54-20.06,4.64-16.74-3.29-23.04-4.94-24.14h-.02Z" style="fill: #fff;"/>
          </g>
        </g>
      </g>
    </g>
  </g>
</svg>