<?xml version="1.0" encoding="UTF-8"?>
<svg id="_圖層_2" data-name="圖層 2" xmlns="http://www.w3.org/2000/svg" xmlns:xlink="http://www.w3.org/1999/xlink" viewBox="0 0 85.75 63.37">
  <defs>
    <linearGradient id="_未命名漸層_4" data-name="未命名漸層 4" x1="42.89" y1="-.13" x2="42.85" y2="79.29" gradientUnits="userSpaceOnUse">
      <stop offset="0" stop-color="#fff"/>
      <stop offset=".19" stop-color="#e1e9d2"/>
      <stop offset=".44" stop-color="#bdcf9d"/>
      <stop offset=".66" stop-color="#a2bb76"/>
      <stop offset=".84" stop-color="#92b05e"/>
      <stop offset=".95" stop-color="#8dac56"/>
    </linearGradient>
  </defs>
  <g id="_圖層_1-2" data-name="圖層 1">
    <g>
      <g>
        <g>
          <path d="m.66,13.13c.22-.02.2-.12.24-.16-.03-.05-.1-.06-.14-.1-.1-.08-.11-.09,0-.13.13-.05.21-.13.22-.25,0-.05.03-.09.04-.13-.02-.02,0-.04-.02-.05-.03,0-.04.02-.05.04,0,0-.01.01-.02.02-.14.19-.35.31-.67.3.03-.02.07-.03.11-.04.02,0,.07,0,.05-.03-.01-.02-.05-.02-.08-.02-.06-.01-.12-.02-.18-.05-.07-.04-.08-.06-.03-.1.04-.03.09-.06.15-.07.25-.13.37-.35.56-.52-.06,0-.11,0-.14.03-.14.09-.32.07-.51.03-.01,0-.03,0-.04-.01,0-.02.01-.01.02-.01.05,0,.09,0,.12-.03.02-.01.05-.03.07-.04.09-.03.16-.07.21-.14.08-.1.16-.21.24-.31.02-.05,0-.07-.08-.09-.14-.03-.26-.1-.33-.21-.06-.1-.03-.16.1-.15.09,0,.16,0,.23-.04.13-.06.13-.19.21-.28.05-.06.02-.09-.08-.12-.02,0-.05-.01-.07-.02-.11-.05-.22-.12-.17-.19.03-.05.07-.1.16-.1.07,0,.12-.04.12-.1,0-.03,0-.07.02-.1.06-.09.06-.19.05-.29-.01-.07-.02-.13-.03-.2-.01-.08-.02-.16-.03-.23,0-.02,0-.04.04-.05.03,0,.04.02.05.04.04.09.12.16.18.25.04.04.03.08.04.12.02.11.03.21.1.32h0s.02.05.03.07c.01.04.03.09.07.12.08.07.13.14.13.22.05.07.15.1.23.14.08.04.1.06.06.13,0,.02-.02.04-.04.06-.02.03-.06.06,0,.1.02,0,.03,0,.03.02.04.09.12.15.24.18.05.01.11.04.16.05.11.04.22.08.31.16.05.05.05.08,0,.1-.01,0-.02.01-.04.01-.07.01-.11.04-.03.1,0,0,.02.02,0,.03-.01,0-.03,0-.05,0-.12-.03-.23-.08-.35-.07-.07,0-.08.02-.05.06,0,0,0,0,.01,0,.05.05.11.09.17.14.11.08.24.13.34.22.07.06.15.09.24.09.04,0,.09.01.13.03.09.03.17.08.24.13.1.06.19.13.32.13.05,0,.09.03.13.05.01,0,.03.02.02.03-.01.01-.03,0-.04,0-.05,0-.11,0-.16,0-.04,0-.07.01-.07.05.03.03.06.06.11.09-.05,0-.08-.01-.1-.04-.05,0-.09-.02-.13-.03-.11-.03-.22-.08-.34-.09-.1,0-.1,0-.06.07.04.02.03.05.06.07.05.04.1.08.13.14.09.09.2.16.32.22.05.03.09.05.11.1-.07-.02-.13-.03-.18-.04-.26-.04-.49-.15-.7-.3-.16-.1-.3-.21-.44-.32-.02-.02-.04-.05-.07-.03-.02,0,0,.04,0,.05.02.04.05.08.05.12.04.03.04.08.07.11l.18.2c.08.05.16.1.21.17.07.11.19.18.31.25.08.05.15.1.23.15.04.02.02.05.02.07,0,.02-.03,0-.04,0-.15-.01-.31-.03-.46-.04-.02,0-.05-.01-.05.01,0,.02.02.03.04.04.03.02.06.03.08.04.12.06.24.11.35.18-1.03-.03-1.47-.06-2.5-.09-.06,0,.07-.19.07-.19Z" style="fill: #7ea04c;"/>
          <path d="m4.5,11.98c.19-.07.14-.17.17-.22-.05-.04-.11-.04-.16-.07-.12-.06-.13-.06-.04-.13.1-.08.15-.17.12-.3-.01-.05,0-.09,0-.14-.02-.01,0-.05-.04-.05-.03,0-.03.03-.04.05,0,0-.01.01-.02.02-.07.22-.23.39-.52.45.02-.03.06-.04.09-.07.01-.01.07-.01.04-.04-.02-.02-.05,0-.08,0-.06,0-.12,0-.18-.01-.07-.02-.09-.05-.06-.09.03-.04.06-.08.12-.1.19-.19.24-.43.36-.65-.06,0-.1.03-.12.06-.1.12-.27.14-.46.14-.01,0-.03,0-.04,0-.01-.02,0-.02.02-.02.05,0,.08-.03.1-.05.02-.02.03-.04.05-.06.07-.05.13-.11.15-.19.04-.12.08-.25.12-.37,0-.06-.02-.07-.1-.07-.14,0-.27-.04-.37-.14-.09-.08-.07-.15.04-.17.08-.01.15-.04.2-.09.1-.09.06-.22.11-.33.03-.07,0-.09-.11-.1-.03,0-.05,0-.08,0-.12-.03-.23-.07-.21-.15.02-.06.04-.11.12-.14.07-.02.1-.07.08-.13-.01-.03-.02-.07-.01-.11.02-.1,0-.21-.05-.31-.03-.07-.06-.13-.09-.2-.03-.08-.07-.15-.1-.23,0-.02-.01-.05.02-.06.03,0,.04.01.06.03.07.08.16.14.24.21.05.03.05.08.07.12.06.1.1.21.19.3h0s.04.04.05.06c.03.04.06.08.11.11.09.05.16.11.19.2.07.06.17.07.25.09.09.02.11.04.1.12,0,.02,0,.04-.02.07-.01.03-.03.07.03.1.01,0,.03,0,.04.01.06.09.15.13.27.13.05,0,.11.01.16.02.12.01.23.04.33.09.06.03.07.07.03.1,0,0-.02.02-.03.02-.06.03-.09.06,0,.11.01,0,.02.02.01.03,0,.01-.03,0-.05,0-.12,0-.24-.03-.35,0-.06.02-.07.03-.02.08,0,0,0,0,.01,0,.07.04.13.07.2.1.12.06.26.08.38.14.08.04.16.05.25.03.04,0,.09,0,.13,0,.1.01.18.05.26.08.11.04.22.09.33.06.04,0,.09.01.14.02.01,0,.03,0,.03.02,0,.01-.02.01-.04,0-.05.01-.1.02-.15.03-.04,0-.06.03-.05.06.04.02.08.04.13.07-.05,0-.07,0-.1-.02-.04.01-.09,0-.13,0-.11,0-.23-.04-.34-.01q-.09.02-.03.08s.05.05.08.06c.06.03.12.06.16.11.11.07.24.11.36.15.05.02.1.03.13.08-.07,0-.13,0-.18,0-.26.02-.5-.04-.74-.15-.18-.06-.34-.15-.51-.23-.02-.01-.05-.04-.08-.02-.02.01.01.04.02.05.03.04.07.07.09.11.05.03.06.07.1.1l.23.17c.09.04.18.07.25.13.1.1.23.14.37.19.09.03.17.07.26.1.04.01.04.04.04.06,0,.02-.02,0-.04,0-.14.02-.29.04-.43.06-.02,0-.05,0-.05.02,0,.02.03.02.05.03.03,0,.06.02.09.03.13.04.26.06.38.11-.96.2-1.37.26-2.33.46-.06.01,0-.21,0-.21Z" style="fill: #4d4c4c;"/>
        </g>
        <g>
          <path d="m7.54,10.72c.22-.02.2-.12.24-.16-.03-.05-.1-.06-.14-.1-.1-.08-.11-.09,0-.13.13-.05.21-.13.22-.25,0-.05.03-.09.04-.13-.02-.02,0-.04-.02-.05-.03,0-.04.02-.05.04,0,0-.01.01-.02.02-.14.19-.35.31-.67.3.03-.02.07-.03.11-.04.02,0,.07,0,.05-.03-.01-.02-.05-.02-.08-.02-.06-.01-.12-.02-.18-.05-.07-.04-.08-.06-.03-.1.04-.03.09-.06.15-.07.25-.13.37-.35.56-.52-.06,0-.11,0-.14.03-.14.09-.32.07-.51.03-.01,0-.03,0-.04-.01,0-.02.01-.01.02-.01.05,0,.09,0,.12-.03.02-.01.05-.03.07-.04.09-.03.16-.07.21-.14.08-.1.16-.21.24-.31.02-.05,0-.07-.08-.09-.14-.03-.26-.1-.33-.21-.06-.1-.03-.16.1-.15.09,0,.16,0,.23-.04.13-.06.13-.19.21-.28.05-.06.02-.09-.08-.12-.02,0-.05-.01-.07-.02-.11-.05-.22-.12-.17-.19.03-.05.07-.1.16-.1.07,0,.12-.04.12-.1,0-.03,0-.07.02-.1.06-.09.06-.19.05-.29-.01-.07-.02-.13-.03-.2-.01-.08-.02-.16-.03-.23,0-.02,0-.04.04-.05.03,0,.04.02.05.04.04.09.12.16.18.25.04.04.03.08.04.12.02.11.03.21.1.32h0s.02.05.03.07c.01.04.03.09.07.12.08.07.13.14.13.22.05.07.15.1.23.14.08.04.1.06.06.13,0,.02-.02.04-.04.06-.02.03-.06.06,0,.1.02,0,.03,0,.03.02.04.09.12.15.24.18.05.01.11.04.16.05.11.04.22.08.31.16.05.05.05.08,0,.1-.01,0-.02.01-.04.01-.07.01-.11.04-.03.1,0,0,.02.02,0,.03-.01,0-.03,0-.05,0-.12-.03-.23-.08-.35-.07-.07,0-.08.02-.05.06,0,0,0,0,.01,0,.05.05.11.09.17.14.11.08.24.13.34.22.07.06.15.09.24.09.04,0,.09.01.13.03.09.03.17.08.24.13.1.06.19.13.32.13.05,0,.09.03.13.05.01,0,.03.02.02.03-.01.01-.03,0-.04,0-.05,0-.11,0-.16,0-.04,0-.07.01-.07.05.03.03.06.06.11.09-.05,0-.08-.01-.1-.04-.05,0-.09-.02-.13-.03-.11-.03-.22-.08-.34-.09-.1,0-.1,0-.06.07.04.02.03.05.06.07.05.04.1.08.13.14.09.09.2.16.32.22.05.03.09.05.11.1-.07-.02-.13-.03-.18-.04-.26-.04-.49-.15-.7-.3-.16-.1-.3-.21-.44-.32-.02-.02-.04-.05-.07-.03-.02,0,0,.04,0,.05.02.04.05.08.05.12.04.03.04.08.07.11l.18.2c.08.05.16.1.21.17.07.11.19.18.31.25.08.05.15.1.23.15.04.02.02.05.02.07,0,.02-.03,0-.04,0-.15-.01-.31-.03-.46-.04-.02,0-.05-.01-.05.01,0,.02.02.03.04.04.03.02.06.03.08.04.12.06.24.11.35.18-1.03-.03-1.47-.06-2.5-.09-.06,0,.07-.19.07-.19Z" style="fill: #7ea04c;"/>
          <path d="m11.01,9.88c.2-.04.17-.14.21-.18-.04-.05-.1-.06-.15-.1-.11-.08-.11-.09-.02-.14.11-.06.18-.14.17-.27,0-.05.01-.09.02-.14-.02-.02,0-.05-.03-.05-.03,0-.03.02-.04.04,0,0-.01.01-.02.02-.11.2-.29.34-.59.35.03-.02.07-.03.1-.05.02-.01.07,0,.05-.04-.01-.02-.05-.02-.08-.02-.06,0-.12-.02-.18-.05-.07-.03-.08-.06-.04-.1.04-.03.08-.07.13-.08.22-.15.31-.38.47-.57-.06,0-.1,0-.13.03-.12.1-.29.09-.48.05-.01,0-.03,0-.04-.01-.01-.02.01-.01.02-.01.05,0,.08-.01.11-.03.02-.02.04-.04.06-.05.08-.04.15-.08.18-.16.06-.11.12-.23.19-.34.02-.05-.01-.08-.08-.09-.14-.03-.26-.09-.34-.2-.07-.1-.04-.16.08-.16.08,0,.15-.02.21-.06.11-.07.09-.21.16-.3.04-.06.01-.09-.09-.12-.02,0-.05,0-.07-.02-.11-.05-.22-.11-.18-.19.03-.06.06-.1.14-.12.07-.01.11-.05.1-.11,0-.04,0-.08,0-.11.04-.1.04-.2,0-.31-.02-.07-.04-.14-.06-.21-.02-.08-.04-.16-.06-.24,0-.02,0-.05.03-.05.03,0,.04.02.05.04.05.09.13.17.2.25.04.04.04.09.05.13.04.11.06.22.14.33h0s.03.05.04.07c.02.05.04.09.09.13.08.07.14.14.15.23.06.07.15.1.23.13.09.04.1.06.08.13,0,.02-.01.04-.03.06-.02.03-.04.06.01.1.02,0,.03,0,.04.02.05.1.13.16.25.18.05.01.1.03.16.05.11.03.22.08.31.15.06.04.06.08,0,.11-.01,0-.02.01-.03.02-.07.02-.1.04-.02.11,0,0,.02.02,0,.03-.01,0-.03,0-.05,0-.11-.03-.23-.07-.34-.06-.06,0-.08.02-.04.07,0,0,0,0,.01,0,.06.05.12.09.18.14.11.08.24.13.35.21.07.06.15.08.24.08.04,0,.09,0,.13.02.09.03.17.08.25.13.1.06.2.12.32.12.05,0,.09.03.13.04.01,0,.03.02.02.03,0,.01-.03,0-.04,0-.05,0-.1,0-.15,0-.04,0-.06.02-.06.05.03.03.07.06.11.09-.05,0-.07,0-.1-.03-.04,0-.09-.02-.13-.03-.11-.03-.22-.08-.33-.07-.09,0-.09,0-.05.08.04.02.04.05.07.07.06.04.11.08.14.14.1.09.21.15.33.21.05.02.09.05.12.1-.07-.01-.12-.03-.18-.04-.26-.03-.49-.13-.7-.28-.16-.09-.31-.21-.46-.32-.02-.02-.05-.05-.07-.03-.02.01,0,.04.01.06.02.04.06.08.06.13.04.03.05.08.08.12l.2.2c.08.05.17.1.22.17.08.11.2.18.33.25.08.05.16.1.24.14.04.02.03.05.03.07,0,.02-.02,0-.04,0-.15,0-.29-.01-.44-.02-.02,0-.05-.01-.05.02,0,.02.02.03.04.04.03.02.06.03.08.04.12.06.24.1.36.17-.98.02-1.4,0-2.37.03-.06,0,.04-.21.04-.21Z" style="fill: #4d4c4c;"/>
        </g>
        <g>
          <path d="m14.65,9c.21-.07.17-.16.2-.21-.04-.04-.11-.04-.16-.07-.12-.06-.12-.06-.03-.13.11-.07.18-.16.17-.28,0-.05,0-.09.02-.14-.02-.01,0-.04-.03-.05-.03,0-.04.02-.04.04,0,0-.01.01-.02.02-.11.21-.29.37-.6.42.03-.02.07-.04.1-.06.02-.01.07-.01.05-.04-.02-.02-.05-.01-.08,0-.06,0-.13,0-.19-.02-.07-.02-.09-.05-.05-.09.04-.04.08-.08.14-.1.22-.17.3-.41.46-.61-.06,0-.11.02-.14.05-.12.12-.3.13-.49.12-.01,0-.03,0-.04,0-.01-.02.01-.01.02-.02.05,0,.08-.02.11-.05.02-.02.04-.04.06-.05.08-.05.15-.1.18-.17.06-.12.12-.23.18-.35.01-.05-.02-.07-.09-.07-.15,0-.27-.05-.36-.14-.08-.08-.05-.15.07-.17.09-.01.16-.04.22-.09.12-.08.09-.21.15-.31.04-.07,0-.09-.1-.1-.03,0-.05,0-.08,0-.12-.03-.23-.07-.2-.15.02-.06.06-.11.14-.13.07-.02.11-.06.1-.12,0-.03-.01-.07,0-.1.04-.1.03-.2-.01-.3-.02-.06-.05-.13-.07-.19-.03-.07-.05-.15-.07-.22,0-.02,0-.04.03-.05.03,0,.04.01.06.03.06.08.15.14.22.21.05.03.05.08.06.11.04.1.07.2.16.29h0s.03.04.04.06c.02.04.05.08.1.11.09.05.15.11.17.19.07.06.16.07.25.09.09.02.11.04.09.12,0,.02-.01.04-.03.06-.02.03-.04.07.02.1.02,0,.03,0,.04.01.05.08.14.13.27.13.05,0,.11.01.17.02.12.01.23.04.33.1.06.03.07.07.01.1-.01,0-.02.01-.03.02-.07.03-.11.06-.01.11.01,0,.02.02.01.03-.01.01-.03,0-.05,0-.12-.01-.24-.03-.36,0-.07.01-.08.03-.03.07,0,0,0,0,.01,0,.06.04.13.07.2.11.12.06.26.08.38.15.08.04.16.06.25.04.04,0,.09,0,.14,0,.1.01.18.05.26.08.11.05.21.09.34.07.05,0,.09.02.14.02.01,0,.03,0,.03.02,0,.01-.03.01-.04,0-.05,0-.11.02-.16.03-.04,0-.06.03-.06.06.04.02.07.04.12.07-.05,0-.08,0-.1-.02-.05,0-.09,0-.14,0-.12-.01-.23-.04-.35-.02q-.1.02-.05.08s.04.05.08.06c.06.03.12.06.15.11.1.07.23.11.36.15.05.02.1.04.13.08-.07,0-.13,0-.19,0-.27,0-.51-.05-.75-.16-.17-.07-.33-.15-.49-.23-.02-.01-.05-.04-.08-.02-.02.01,0,.03.02.05.02.04.06.07.07.11.04.03.05.07.09.1l.22.16c.09.04.18.07.24.13.09.09.22.14.35.19.09.03.17.07.25.1.04.01.03.04.04.06,0,.01-.03,0-.04,0-.15.02-.3.03-.46.05-.02,0-.05,0-.05.02,0,.02.03.02.04.03.03.01.06.02.09.03.13.04.26.06.38.11-1.02.17-1.46.21-2.47.38-.06,0,.03-.2.03-.2Z" style="fill: #7ea04c;"/>
          <path d="m17.99,7.98c.2-.04.17-.14.21-.18-.04-.05-.1-.06-.15-.1-.11-.08-.11-.09-.02-.14.11-.06.18-.14.17-.27,0-.05.01-.09.02-.14-.02-.02,0-.05-.03-.05-.03,0-.03.02-.04.04,0,0-.01.01-.02.02-.11.2-.29.34-.59.35.03-.02.07-.03.1-.05.02-.01.07,0,.05-.04-.01-.02-.05-.02-.08-.02-.06,0-.12-.02-.18-.05-.07-.03-.08-.06-.04-.1.04-.03.08-.07.13-.08.22-.15.31-.38.47-.57-.06,0-.1,0-.13.03-.12.1-.29.09-.48.05-.01,0-.03,0-.04-.01-.01-.02.01-.01.02-.01.05,0,.08-.01.11-.03.02-.02.04-.04.06-.05.08-.04.15-.08.18-.16.06-.11.13-.23.19-.34.02-.05-.01-.08-.08-.09-.14-.03-.26-.09-.34-.2-.07-.1-.04-.16.08-.16.08,0,.15-.02.21-.06.11-.07.1-.21.16-.3.04-.06.01-.09-.09-.12-.02,0-.05,0-.07-.02-.11-.05-.22-.11-.18-.19.03-.06.06-.1.14-.12.07-.01.11-.05.1-.11,0-.04,0-.08,0-.11.04-.1.04-.2,0-.31-.02-.07-.04-.14-.06-.21-.02-.08-.04-.16-.06-.24,0-.02,0-.05.03-.05.03,0,.04.02.05.04.05.09.13.17.2.25.04.04.04.09.05.13.04.11.06.22.14.33h0s.03.05.04.07c.02.05.04.09.09.13.08.07.14.14.15.23.06.07.15.1.23.13.09.04.1.06.08.13,0,.02-.01.04-.03.06-.02.03-.05.06.01.1.02,0,.03,0,.04.02.05.1.13.16.25.18.05.01.1.03.16.05.11.03.22.08.31.15.06.04.06.08,0,.11-.01,0-.02.01-.03.02-.07.02-.1.04-.02.11,0,0,.02.02,0,.03-.01,0-.03,0-.05,0-.11-.03-.23-.07-.34-.06-.06,0-.08.02-.04.07,0,0,0,0,.01,0,.06.05.12.09.18.14.11.08.24.13.35.21.07.06.15.08.24.08.04,0,.09,0,.13.02.09.03.17.08.25.13.1.06.2.12.32.12.05,0,.09.03.13.04.01,0,.03.02.02.03,0,.01-.03,0-.04,0-.05,0-.1,0-.15,0-.04,0-.06.02-.06.05.03.03.07.06.11.09-.05,0-.07,0-.1-.03-.04,0-.09-.02-.13-.03-.11-.03-.22-.08-.33-.07-.09,0-.09,0-.05.08.04.02.04.05.07.07.06.04.11.08.14.14.1.09.21.15.33.21.05.02.09.05.12.1-.07-.01-.12-.03-.18-.04-.26-.03-.49-.13-.7-.28-.16-.09-.31-.21-.46-.32-.02-.02-.05-.05-.07-.03-.02.01,0,.04.01.06.02.04.06.08.06.13.04.03.05.08.08.12l.2.2c.08.05.17.1.22.17.08.11.2.18.33.25.08.05.16.1.24.14.04.02.03.05.03.07,0,.02-.02,0-.04,0-.15,0-.29-.01-.44-.02-.02,0-.05-.01-.05.02,0,.02.02.03.04.04.03.02.06.03.08.04.12.06.24.1.36.17-.98.02-1.4,0-2.37.03-.06,0,.04-.21.04-.21Z" style="fill: #4d4c4c;"/>
        </g>
        <g>
          <path d="m21.02,7.09c.22-.02.2-.12.24-.16-.03-.05-.1-.06-.14-.1-.1-.08-.11-.09,0-.13.13-.05.21-.13.22-.25,0-.05.03-.09.04-.13-.02-.02,0-.04-.02-.05-.03,0-.04.02-.05.04,0,0-.01.01-.02.02-.14.19-.35.31-.67.3.03-.02.07-.03.11-.04.02,0,.07,0,.05-.03-.01-.02-.05-.02-.08-.02-.06-.01-.12-.02-.18-.05-.07-.04-.08-.06-.03-.1.04-.03.09-.06.15-.07.25-.13.37-.35.56-.52-.06,0-.11,0-.14.03-.14.09-.32.07-.51.03-.01,0-.03,0-.04-.01,0-.02.01-.01.02-.01.05,0,.09,0,.12-.03.02-.01.05-.03.07-.04.09-.03.16-.07.21-.14.08-.1.16-.21.24-.31.02-.05,0-.07-.08-.09-.14-.03-.26-.1-.33-.21-.06-.1-.03-.16.1-.15.09,0,.16,0,.23-.04.13-.06.13-.19.21-.28.05-.06.02-.09-.08-.12-.02,0-.05-.01-.07-.02-.11-.05-.22-.12-.17-.19.03-.05.07-.1.16-.1.07,0,.12-.04.12-.1,0-.03,0-.07.02-.1.06-.09.06-.19.05-.29-.01-.07-.02-.13-.03-.2-.01-.08-.02-.16-.03-.23,0-.02,0-.04.04-.05.03,0,.04.02.05.04.04.09.12.16.18.25.04.04.03.08.04.12.02.11.03.21.1.32h0s.02.05.03.07c.01.04.03.09.07.12.08.07.13.14.13.22.05.07.15.1.23.14.08.04.1.06.06.13,0,.02-.02.04-.04.06-.02.03-.06.06,0,.1.02,0,.03,0,.03.02.04.09.12.15.24.18.05.01.11.04.16.05.11.04.22.08.31.16.05.05.05.08,0,.1-.01,0-.02.01-.04.01-.07.01-.11.04-.03.1,0,0,.02.02,0,.03-.01,0-.03,0-.05,0-.12-.03-.23-.08-.35-.07-.07,0-.08.02-.05.06,0,0,0,0,.01,0,.05.05.11.09.17.14.11.08.24.13.34.22.07.06.15.09.24.09.04,0,.09.01.13.03.09.03.17.08.24.13.1.06.19.13.32.13.05,0,.09.03.13.05.01,0,.03.02.02.03-.01.01-.03,0-.04,0-.05,0-.11,0-.16,0-.04,0-.07.01-.07.05.03.03.06.06.11.09-.05,0-.08-.01-.1-.04-.05,0-.09-.02-.13-.03-.11-.03-.22-.08-.34-.09-.1,0-.1,0-.06.07.04.02.03.05.06.07.05.04.1.08.13.14.09.09.2.16.32.22.05.03.09.05.11.1-.07-.02-.13-.03-.18-.04-.26-.04-.49-.15-.7-.3-.16-.1-.3-.21-.44-.32-.02-.02-.04-.05-.07-.03-.02,0,0,.04,0,.05.02.04.05.08.05.12.04.03.04.08.07.11l.18.2c.08.05.16.1.21.17.07.11.19.18.31.25.08.05.15.1.23.15.04.02.02.05.02.07,0,.02-.03,0-.04,0-.15-.01-.31-.03-.46-.04-.02,0-.05-.01-.05.01,0,.02.02.03.04.04.03.02.06.03.08.04.12.06.24.11.35.18-1.03-.03-1.47-.06-2.5-.09-.06,0,.07-.19.07-.19Z" style="fill: #7ea04c;"/>
          <path d="m24.86,6.53c.19-.07.14-.17.17-.22-.05-.04-.11-.04-.16-.07-.12-.06-.13-.06-.04-.13.1-.08.15-.17.12-.3-.01-.05,0-.09,0-.14-.02-.01,0-.05-.04-.05-.03,0-.03.03-.04.05,0,0-.01.01-.02.02-.07.22-.23.39-.52.45.02-.03.06-.04.09-.07.01-.01.07-.01.04-.04-.02-.02-.05,0-.08,0-.06,0-.12,0-.18-.01-.07-.02-.09-.05-.06-.09.03-.04.06-.08.12-.1.19-.19.24-.43.36-.65-.06,0-.1.03-.12.06-.1.12-.27.14-.46.14-.01,0-.03,0-.04,0-.01-.02,0-.02.02-.02.05,0,.08-.03.1-.05.02-.02.03-.04.05-.06.07-.05.13-.11.15-.19.04-.12.08-.25.12-.37,0-.06-.02-.07-.1-.07-.14,0-.27-.04-.37-.14-.09-.08-.07-.15.04-.17.08-.01.15-.04.2-.09.1-.09.06-.22.11-.33.03-.07,0-.09-.11-.1-.03,0-.05,0-.08,0-.12-.03-.23-.07-.21-.15.02-.06.04-.11.12-.14.07-.02.1-.07.08-.13-.01-.03-.02-.07-.01-.11.02-.1,0-.21-.05-.31-.03-.07-.06-.13-.09-.2-.03-.08-.07-.15-.1-.23,0-.02-.01-.05.02-.06.03,0,.04.01.06.03.07.08.16.14.24.21.05.03.05.08.07.12.06.1.1.21.19.3h0s.04.04.05.06c.03.04.06.08.11.11.09.05.16.11.19.2.07.06.17.07.25.09.09.02.11.04.1.12,0,.02,0,.04-.02.07-.01.03-.03.07.03.1.01,0,.03,0,.04.01.06.09.15.13.27.13.05,0,.11.01.16.02.12.01.23.04.33.09.06.03.07.07.03.1,0,0-.02.02-.03.02-.06.03-.09.06,0,.11.01,0,.02.02.01.03,0,.01-.03,0-.05,0-.12,0-.24-.03-.35,0-.06.02-.07.03-.02.08,0,0,0,0,.01,0,.07.04.13.07.2.1.12.06.26.08.38.14.08.04.16.05.25.03.04,0,.09,0,.13,0,.1.01.18.05.26.08.11.04.22.09.33.06.04,0,.09.01.14.02.01,0,.03,0,.03.02,0,.01-.02.01-.04,0-.05.01-.1.02-.15.03-.04,0-.06.03-.05.06.04.02.08.04.13.07-.05,0-.07,0-.1-.02-.04.01-.09,0-.13,0-.11,0-.23-.04-.34-.01q-.09.02-.03.08s.05.05.08.06c.06.03.12.06.16.11.11.07.24.11.36.15.05.02.1.03.13.08-.07,0-.13,0-.18,0-.26.02-.5-.04-.74-.15-.18-.06-.34-.15-.51-.23-.02-.01-.05-.04-.08-.02-.02.01.01.04.02.05.03.04.07.07.09.11.05.03.06.07.1.1l.23.17c.09.04.18.07.25.13.1.1.23.14.37.19.09.03.17.07.26.1.04.01.04.04.04.06,0,.02-.02,0-.04,0-.14.02-.29.04-.43.06-.02,0-.05,0-.05.02,0,.02.03.02.05.03.03,0,.06.02.09.03.13.04.26.06.38.11-.96.2-1.37.26-2.33.46-.06.01,0-.21,0-.21Z" style="fill: #4d4c4c;"/>
        </g>
        <g>
          <path d="m27.9,5.7c.22-.02.2-.12.24-.16-.03-.05-.1-.06-.14-.1-.1-.08-.11-.09,0-.13.13-.05.21-.13.22-.25,0-.05.03-.09.04-.13-.02-.02,0-.04-.02-.05-.03,0-.04.02-.05.04,0,0-.01.01-.02.02-.14.19-.35.31-.67.3.03-.02.07-.03.11-.04.02,0,.07,0,.05-.03-.01-.02-.05-.02-.08-.02-.06-.01-.12-.02-.18-.05-.07-.04-.08-.06-.03-.1.04-.03.09-.06.15-.07.25-.13.37-.35.56-.52-.06,0-.11,0-.14.03-.14.09-.32.07-.51.03-.01,0-.03,0-.04-.01,0-.02.01-.01.02-.01.05,0,.09,0,.12-.03.02-.01.05-.03.07-.04.09-.03.16-.07.21-.14.08-.1.16-.21.24-.31.02-.05,0-.07-.08-.09-.14-.03-.26-.1-.33-.21-.06-.1-.03-.16.1-.15.09,0,.16,0,.23-.04.13-.06.13-.19.21-.28.05-.06.02-.09-.08-.12-.02,0-.05-.01-.07-.02-.11-.05-.22-.12-.17-.19.03-.05.07-.1.16-.1.07,0,.12-.04.12-.1,0-.03,0-.07.02-.1.06-.09.06-.19.05-.29-.01-.07-.02-.13-.03-.2-.01-.08-.02-.16-.03-.23,0-.02,0-.04.04-.05.03,0,.04.02.05.04.04.09.12.16.18.25.04.04.03.08.04.12.02.11.03.21.1.32h0s.02.05.03.07c.01.04.03.09.07.12.08.07.13.14.13.22.05.07.15.1.23.14.08.04.1.06.06.13,0,.02-.02.04-.04.06-.02.03-.06.06,0,.1.02,0,.03,0,.03.02.04.09.12.15.24.18.05.01.11.04.16.05.11.04.22.08.31.16.05.05.05.08,0,.1-.01,0-.02.01-.04.01-.07.01-.11.04-.03.1,0,0,.02.02,0,.03-.01,0-.03,0-.05,0-.12-.03-.23-.08-.35-.07-.07,0-.08.02-.05.06,0,0,0,0,.01,0,.05.05.11.09.17.14.11.08.24.13.34.22.07.06.15.09.24.09.04,0,.09.01.13.03.09.03.17.08.24.13.1.06.19.13.32.13.05,0,.09.03.13.05.01,0,.03.02.02.03-.01.01-.03,0-.04,0-.05,0-.11,0-.16,0-.04,0-.07.01-.07.05.03.03.06.06.11.09-.05,0-.08-.01-.1-.04-.05,0-.09-.02-.13-.03-.11-.03-.22-.08-.34-.09-.1,0-.1,0-.06.07.04.02.03.05.06.07.05.04.1.08.13.14.09.09.2.16.32.22.05.03.09.05.11.1-.07-.02-.13-.03-.18-.04-.26-.04-.49-.15-.7-.3-.16-.1-.3-.21-.44-.32-.02-.02-.04-.05-.07-.03-.02,0,0,.04,0,.05.02.04.05.08.05.12.04.03.04.08.07.11l.18.2c.08.05.16.1.21.17.07.11.19.18.31.25.08.05.15.1.23.15.04.02.02.05.02.07,0,.02-.03,0-.04,0-.15-.01-.31-.03-.46-.04-.02,0-.05-.01-.05.01,0,.02.02.03.04.04.03.02.06.03.08.04.12.06.24.11.35.18-1.03-.03-1.47-.06-2.5-.09-.06,0,.07-.19.07-.19Z" style="fill: #7ea04c;"/>
          <path d="m31.74,5.15c.19-.07.14-.17.17-.22-.05-.04-.11-.04-.16-.07-.12-.06-.13-.06-.04-.13.1-.08.15-.17.12-.3-.01-.05,0-.09,0-.14-.02-.01,0-.05-.04-.05-.03,0-.03.03-.04.05,0,0-.01.01-.02.02-.07.22-.23.39-.52.45.02-.03.06-.04.09-.07.01-.01.07-.01.04-.04-.02-.02-.05,0-.08,0-.06,0-.12,0-.18-.01-.07-.02-.09-.05-.06-.09.03-.04.06-.08.12-.1.19-.19.24-.43.36-.65-.06,0-.1.03-.12.06-.1.12-.27.14-.46.14-.01,0-.03,0-.04,0-.01-.02,0-.02.02-.02.05,0,.08-.03.1-.05.02-.02.03-.04.05-.06.07-.05.13-.11.15-.19.04-.12.08-.25.12-.37,0-.06-.02-.07-.1-.07-.14,0-.27-.04-.37-.14-.09-.08-.07-.15.04-.17.08-.01.15-.04.2-.09.1-.09.06-.22.11-.33.03-.07,0-.09-.11-.1-.03,0-.05,0-.08,0-.12-.03-.23-.07-.21-.15.02-.06.04-.11.12-.14.07-.02.1-.07.08-.13-.01-.03-.02-.07-.01-.11.02-.1,0-.21-.05-.31-.03-.07-.06-.13-.09-.2-.03-.08-.07-.15-.1-.23,0-.02-.01-.05.02-.06.03,0,.04.01.06.03.07.08.16.14.24.21.05.03.05.08.07.12.06.1.1.21.19.3h0s.04.04.05.06c.03.04.06.08.11.11.09.05.16.11.19.2.07.06.17.07.25.09.09.02.11.04.1.12,0,.02,0,.04-.02.07-.01.03-.03.07.03.1.01,0,.03,0,.04.01.06.09.15.13.27.13.05,0,.11.01.16.02.12.01.23.04.33.09.06.03.07.07.03.1,0,0-.02.02-.03.02-.06.03-.09.06,0,.11.01,0,.02.02.01.03,0,.01-.03,0-.05,0-.12,0-.24-.03-.35,0-.06.02-.07.03-.02.08,0,0,0,0,.01,0,.07.04.13.07.2.1.12.06.26.08.38.14.08.04.16.05.25.03.04,0,.09,0,.13,0,.1.01.18.05.26.08.11.04.22.09.33.06.04,0,.09.01.14.02.01,0,.03,0,.03.02,0,.01-.02.01-.04,0-.05.01-.1.02-.15.03-.04,0-.06.03-.05.06.04.02.08.04.13.07-.05,0-.07,0-.1-.02-.04.01-.09,0-.13,0-.11,0-.23-.04-.34-.01q-.09.02-.03.08s.05.05.08.06c.06.03.12.06.16.11.11.07.24.11.36.15.05.02.1.03.13.08-.07,0-.13,0-.18,0-.26.02-.5-.04-.74-.15-.18-.06-.34-.15-.51-.23-.02-.01-.05-.04-.08-.02-.02.01.01.04.02.05.03.04.07.07.09.11.05.03.06.07.1.1l.23.17c.09.04.18.07.25.13.1.1.23.14.37.19.09.03.17.07.26.1.04.01.04.04.04.06,0,.02-.02,0-.04,0-.14.02-.29.04-.43.06-.02,0-.05,0-.05.02,0,.02.03.02.05.03.03,0,.06.02.09.03.13.04.26.06.38.11-.96.2-1.37.26-2.33.46-.06.01,0-.21,0-.21Z" style="fill: #4d4c4c;"/>
        </g>
        <g>
          <path d="m34.79,4.62c.22-.02.2-.12.24-.16-.03-.05-.1-.06-.14-.1-.1-.08-.11-.09,0-.13.13-.05.21-.13.22-.25,0-.05.03-.09.04-.13-.02-.02,0-.04-.02-.05-.03,0-.04.02-.05.04,0,0-.01.01-.02.02-.14.19-.35.31-.67.3.03-.02.07-.03.11-.04.02,0,.07,0,.05-.03-.01-.02-.05-.02-.08-.02-.06-.01-.12-.02-.18-.05-.07-.04-.08-.06-.03-.1.04-.03.09-.06.15-.07.25-.13.37-.35.56-.52-.06,0-.11,0-.14.03-.14.09-.32.07-.51.03-.01,0-.03,0-.04-.01,0-.02.01-.01.02-.01.05,0,.09,0,.12-.03.02-.01.05-.03.07-.04.09-.03.16-.07.21-.14.08-.1.16-.21.24-.31.02-.05,0-.07-.08-.09-.14-.03-.26-.1-.33-.21-.06-.1-.03-.16.1-.15.09,0,.16,0,.23-.04.13-.06.13-.19.21-.28.05-.06.02-.09-.08-.12-.02,0-.05-.01-.07-.02-.11-.05-.22-.12-.17-.19.03-.05.07-.1.16-.1.07,0,.12-.04.12-.1,0-.03,0-.07.02-.1.06-.09.06-.19.05-.29-.01-.07-.02-.13-.03-.2-.01-.08-.02-.16-.03-.23,0-.02,0-.04.04-.05.03,0,.04.02.05.04.04.09.12.16.18.25.04.04.03.08.04.12.02.11.03.21.1.32h0s.02.05.03.07c.01.04.03.09.07.12.08.07.13.14.13.22.05.07.15.1.23.14.08.04.1.06.06.13,0,.02-.02.04-.04.06-.02.03-.06.06,0,.1.02,0,.03,0,.03.02.04.09.12.15.24.18.05.01.11.04.16.05.11.04.22.08.31.16.05.05.05.08,0,.1-.01,0-.02.01-.04.01-.07.01-.11.04-.03.1,0,0,.02.02,0,.03-.01,0-.03,0-.05,0-.12-.03-.23-.08-.35-.07-.07,0-.08.02-.05.06,0,0,0,0,.01,0,.05.05.11.09.17.14.11.08.24.13.34.22.07.06.15.09.24.09.04,0,.09.01.13.03.09.03.17.08.24.13.1.06.19.13.32.13.05,0,.09.03.13.05.01,0,.03.02.02.03-.01.01-.03,0-.04,0-.05,0-.11,0-.16,0-.04,0-.07.01-.07.05.03.03.06.06.11.09-.05,0-.08-.01-.1-.04-.05,0-.09-.02-.13-.03-.11-.03-.22-.08-.34-.09-.1,0-.1,0-.06.07.04.02.03.05.06.07.05.04.1.08.13.14.09.09.2.16.32.22.05.03.09.05.11.1-.07-.02-.13-.03-.18-.04-.26-.04-.49-.15-.7-.3-.16-.1-.3-.21-.44-.32-.02-.02-.04-.05-.07-.03-.02,0,0,.04,0,.05.02.04.05.08.05.12.04.03.04.08.07.11l.18.2c.08.05.16.1.21.17.07.11.19.18.31.25.08.05.15.1.23.15.04.02.02.05.02.07,0,.02-.03,0-.04,0-.15-.01-.31-.03-.46-.04-.02,0-.05-.01-.05.01,0,.02.02.03.04.04.03.02.06.03.08.04.12.06.24.11.35.18-1.03-.03-1.47-.06-2.5-.09-.06,0,.07-.19.07-.19Z" style="fill: #7ea04c;"/>
          <path d="m38.42,4.29c.21,0,.19-.12.23-.15-.03-.05-.09-.08-.13-.12-.1-.09-.1-.1,0-.14.12-.04.2-.12.21-.24,0-.05.03-.09.04-.14-.02-.02,0-.04-.02-.06-.03-.01-.04.02-.05.03,0,0-.01,0-.02.01-.14.19-.34.3-.64.26.03-.02.07-.02.1-.04.02,0,.07,0,.05-.03-.01-.02-.05-.03-.07-.03-.06-.02-.12-.03-.17-.07-.06-.04-.07-.07-.02-.11.04-.03.08-.06.14-.06.24-.12.36-.33.54-.5-.06-.01-.1,0-.14.01-.14.08-.3.05-.48-.02-.01,0-.03,0-.03-.02,0-.02.01-.01.02,0,.04,0,.08,0,.11-.02.02-.01.04-.03.07-.04.08-.03.16-.06.2-.13.08-.1.16-.21.23-.31.02-.05,0-.08-.07-.1-.13-.05-.24-.13-.31-.25-.06-.11-.02-.17.1-.15.08.01.16,0,.22-.03.12-.05.12-.19.2-.28.05-.06.03-.09-.07-.13-.02-.01-.05-.02-.07-.03-.1-.06-.2-.14-.15-.21.03-.05.07-.1.15-.1.07,0,.11-.03.12-.1,0-.04,0-.08.02-.1.06-.09.06-.19.05-.31,0-.07-.02-.14-.03-.21,0-.08-.02-.17-.02-.25,0-.02,0-.05.04-.05.03,0,.04.02.05.04.04.1.11.18.16.28.04.05.03.09.03.13.02.11.02.23.09.35h0s.02.05.03.08c.01.05.03.1.07.14.07.08.12.16.12.25.05.08.14.12.21.16.08.05.09.08.06.14,0,.02-.02.04-.04.06-.02.03-.05.06,0,.11.01,0,.03,0,.03.02.03.1.1.17.22.21.05.02.1.05.15.07.11.05.2.11.28.19.05.05.05.09,0,.11-.01,0-.02,0-.03.01-.07,0-.11.03-.03.11,0,0,.02.02,0,.03-.01,0-.03,0-.04,0-.11-.05-.21-.1-.33-.11-.06,0-.08,0-.05.06,0,0,0,0,.01,0,.05.06.1.11.16.16.1.1.22.16.32.26.06.07.14.1.22.11.04,0,.08.02.13.04.09.04.15.1.22.16.09.08.18.15.3.16.05,0,.08.04.12.06.01,0,.03.02.02.03,0,.01-.03,0-.04,0-.05,0-.1-.01-.15-.02-.04,0-.06,0-.06.04.03.03.06.06.1.11-.04-.01-.07-.02-.09-.05-.04,0-.08-.03-.12-.05-.11-.04-.21-.11-.32-.12-.09-.01-.09-.01-.06.07.03.02.03.06.06.08.05.05.1.1.12.16.08.1.19.18.3.26.04.03.08.06.1.12-.06-.02-.12-.05-.17-.06-.25-.07-.46-.2-.65-.38-.15-.12-.27-.25-.41-.38-.02-.02-.04-.05-.07-.04-.02,0,0,.04,0,.06.01.04.04.09.05.13.03.04.04.09.06.13l.17.23c.07.06.15.12.19.2.07.12.18.21.29.29.07.06.14.12.21.18.03.03.02.05.02.07,0,.02-.03,0-.04,0-.14-.03-.29-.05-.43-.08-.02,0-.05-.02-.05,0,0,.02.02.03.03.04.03.02.05.04.08.05.11.07.23.14.33.22-.97-.12-1.38-.19-2.35-.31-.06,0,.07-.2.07-.2Z" style="fill: #4d4c4c;"/>
        </g>
        <g>
          <path d="m41.83,4.28c.22-.02.2-.12.24-.16-.03-.05-.1-.06-.14-.1-.1-.08-.11-.09,0-.13.13-.05.21-.13.22-.25,0-.05.03-.09.04-.13-.02-.02,0-.04-.02-.05-.03,0-.04.02-.05.04,0,0-.01.01-.02.02-.14.19-.35.31-.67.3.03-.02.07-.03.11-.04.02,0,.07,0,.05-.03-.01-.02-.05-.02-.08-.02-.06-.01-.12-.02-.18-.05-.07-.04-.08-.06-.03-.1.04-.03.09-.06.15-.07.25-.13.37-.35.56-.52-.06,0-.11,0-.14.03-.14.09-.32.07-.51.03-.01,0-.03,0-.04-.01,0-.02.01-.01.02-.01.05,0,.09,0,.12-.03.02-.01.05-.03.07-.04.09-.03.16-.07.21-.14.08-.1.16-.21.24-.31.02-.05,0-.07-.08-.09-.14-.03-.26-.1-.33-.21-.06-.1-.03-.16.1-.15.09,0,.16,0,.23-.04.13-.06.13-.19.21-.28.05-.06.02-.09-.08-.12-.02,0-.05-.01-.07-.02-.11-.05-.22-.12-.17-.19.03-.05.07-.1.16-.1.07,0,.12-.04.12-.1,0-.03,0-.07.02-.1.06-.09.06-.19.05-.29-.01-.07-.02-.13-.03-.2-.01-.08-.02-.16-.03-.23,0-.02,0-.04.04-.05.03,0,.04.02.05.04.04.09.12.16.18.25.04.04.03.08.04.12.02.11.03.21.1.32h0s.02.05.03.07c.01.04.03.09.07.12.08.07.13.14.13.22.05.07.15.1.23.14.08.04.1.06.06.13,0,.02-.02.04-.04.06-.02.03-.06.06,0,.1.02,0,.03,0,.03.02.04.09.12.15.24.18.05.01.11.04.16.05.11.04.22.08.31.16.05.05.05.08,0,.1-.01,0-.02.01-.04.01-.07.01-.11.04-.03.1,0,0,.02.02,0,.03-.01,0-.03,0-.05,0-.12-.03-.23-.08-.35-.07-.07,0-.08.02-.05.06,0,0,0,0,.01,0,.05.05.11.09.17.14.11.08.24.13.34.22.07.06.15.09.24.09.04,0,.09.01.13.03.09.03.17.08.24.13.1.06.19.13.32.13.05,0,.09.03.13.05.01,0,.03.02.02.03-.01.01-.03,0-.04,0-.05,0-.11,0-.16,0-.04,0-.07.01-.07.05.03.03.06.06.11.09-.05,0-.08-.01-.1-.04-.05,0-.09-.02-.13-.03-.11-.03-.22-.08-.34-.09-.1,0-.1,0-.06.07.04.02.03.05.06.07.05.04.1.08.13.14.09.09.2.16.32.22.05.03.09.05.11.1-.07-.02-.13-.03-.18-.04-.26-.04-.49-.15-.7-.3-.16-.1-.3-.21-.44-.32-.02-.02-.04-.05-.07-.03-.02,0,0,.04,0,.05.02.04.05.08.05.12.04.03.04.08.07.11l.18.2c.08.05.16.1.21.17.07.11.19.18.31.25.08.05.15.1.23.15.04.02.02.05.02.07,0,.02-.03,0-.04,0-.15-.01-.31-.03-.46-.04-.02,0-.05-.01-.05.01,0,.02.02.03.04.04.03.02.06.03.08.04.12.06.24.11.35.18-1.03-.03-1.47-.06-2.5-.09-.06,0,.07-.19.07-.19Z" style="fill: #7ea04c;"/>
          <path d="m45.26,4.13c.21.01.2-.09.24-.13-.02-.05-.08-.09-.12-.13-.09-.1-.09-.11.02-.14.12-.03.21-.1.23-.22,0-.05.04-.09.06-.13-.01-.02.01-.04-.01-.06-.03-.02-.04.01-.05.03,0,0-.01,0-.02.01-.16.17-.37.26-.66.19.03-.01.07-.01.11-.02.02,0,.07.01.05-.02,0-.02-.04-.03-.07-.04-.06-.02-.11-.05-.16-.09-.06-.05-.06-.08-.01-.11.04-.02.09-.05.15-.04.25-.09.39-.29.59-.44-.06-.02-.1-.02-.14,0-.15.07-.31.02-.47-.07-.01,0-.03,0-.03-.02,0-.02.01-.01.02,0,.04.01.08,0,.11,0,.02-.01.05-.02.07-.03.08-.02.16-.05.22-.11.09-.1.18-.19.27-.28.03-.05,0-.08-.06-.11-.13-.06-.23-.15-.28-.28-.05-.11,0-.17.11-.14.08.02.15.02.22,0,.13-.04.14-.18.23-.25.06-.05.03-.09-.06-.14-.02-.01-.05-.02-.07-.04-.09-.07-.18-.16-.13-.23.04-.05.08-.09.16-.08.07,0,.12-.02.13-.09,0-.04.01-.08.03-.1.06-.08.08-.19.08-.3,0-.07,0-.14,0-.22,0-.08,0-.17,0-.25,0-.02,0-.05.04-.04.03,0,.04.03.04.05.03.1.09.2.13.29.03.05.02.09.02.14,0,.12,0,.23.05.35h0s.02.05.02.08c0,.05.02.1.05.14.07.08.1.17.09.26.04.09.12.13.19.19.07.06.08.09.04.15,0,.02-.02.04-.04.05-.03.02-.06.05-.01.1.01,0,.03.01.03.03.02.11.09.18.19.24.05.02.09.06.14.08.1.06.19.13.26.22.04.06.04.09-.02.11-.01,0-.02,0-.03,0-.07,0-.11.02-.05.1,0,0,.01.03,0,.03-.01,0-.03,0-.04-.01-.1-.06-.2-.12-.32-.14-.06,0-.08,0-.05.06,0,0,0,0,0,0,.04.06.09.12.14.18.09.1.21.18.29.29.06.07.13.12.21.13.04,0,.08.03.12.05.08.05.14.12.21.18.08.09.16.17.28.19.04,0,.08.05.11.07.01,0,.03.02.02.03-.01.01-.03,0-.04-.01-.05-.01-.1-.02-.15-.03-.04,0-.06,0-.07.04.03.04.05.07.09.12-.04-.02-.07-.03-.09-.06-.04,0-.08-.04-.12-.06-.1-.05-.19-.13-.3-.15-.09-.02-.09-.02-.06.06.03.03.02.06.05.09.05.05.09.11.1.17.07.11.17.2.27.29.04.04.08.07.09.13-.06-.03-.11-.06-.17-.08-.24-.09-.44-.25-.61-.44-.13-.13-.25-.28-.36-.42-.02-.02-.03-.06-.06-.05-.02,0,0,.04,0,.06,0,.05.04.09.03.14.03.04.03.09.05.13l.14.25c.06.07.14.14.17.22.05.13.15.22.26.32.07.06.13.13.19.2.03.03.02.05.01.08,0,.02-.03,0-.04-.01-.14-.04-.28-.08-.42-.12-.02,0-.05-.02-.05,0,0,.02.02.03.03.05.02.02.05.04.07.06.1.09.21.16.3.26-.95-.22-1.36-.33-2.31-.55-.06-.01.09-.19.09-.19Z" style="fill: #4d4c4c;"/>
        </g>
      </g>
      <g>
        <g>
          <path d="m84.21,12.06c-.2-.09-.15-.19-.17-.24.05-.03.11-.03.17-.05.12-.04.13-.05.04-.13-.1-.09-.15-.19-.13-.31.01-.05,0-.09,0-.14.02-.01,0-.04.04-.04.04,0,.03.03.04.05,0,0,.01.01.02.02.08.23.23.41.54.5-.02-.03-.06-.05-.09-.07-.01-.01-.07-.02-.04-.05.02-.02.05,0,.08,0,.06,0,.13.02.19,0,.08-.01.09-.04.06-.09-.03-.04-.06-.09-.12-.11-.2-.21-.24-.46-.37-.68.06.01.1.04.13.07.11.13.28.17.47.19.01,0,.03,0,.04,0,.01-.02,0-.02-.02-.02-.05-.01-.08-.03-.11-.06-.02-.02-.03-.05-.06-.06-.07-.06-.13-.12-.16-.2-.04-.13-.08-.25-.13-.38,0-.06.03-.07.1-.06.15.01.28-.01.38-.1.09-.07.07-.15-.05-.18-.08-.02-.15-.06-.2-.12-.1-.1-.06-.23-.11-.34-.03-.07,0-.09.11-.09.03,0,.05,0,.08,0,.12-.02.24-.05.22-.13-.02-.06-.04-.12-.12-.15-.07-.03-.1-.08-.08-.14.01-.03.02-.07.01-.1-.02-.11,0-.21.05-.3.03-.06.07-.12.1-.19.04-.07.07-.15.1-.22,0-.02.01-.05-.02-.06-.03-.01-.05,0-.06.02-.07.07-.17.12-.25.19-.05.03-.06.07-.08.11-.06.1-.1.2-.2.28h0s-.04.04-.05.06c-.03.04-.06.08-.11.1-.1.04-.17.1-.2.18-.07.06-.17.05-.26.06-.09.01-.11.03-.1.11,0,.02,0,.04.02.07.01.03.03.08-.03.1-.02,0-.03,0-.04,0-.07.08-.16.11-.28.1-.05,0-.11,0-.17,0-.12,0-.23.01-.34.06-.07.03-.07.06-.03.1,0,0,.02.02.03.02.07.04.1.07,0,.11-.01,0-.02.02-.02.03.01.01.03.01.05.01.12,0,.24,0,.36.04.06.02.07.04.02.08,0,0,0,0-.01,0-.07.03-.14.06-.21.08-.13.05-.27.05-.39.1-.08.03-.17.04-.26,0-.04-.01-.09-.02-.14-.01-.1,0-.18.03-.27.05-.11.03-.22.06-.34.03-.05-.01-.09,0-.14,0-.01,0-.03,0-.03.02,0,.02.03.01.04,0,.05.02.1.03.15.05.04.01.06.03.05.07-.04.02-.08.03-.13.06.05,0,.08.01.11,0,.04.02.09,0,.14.01.12,0,.24-.01.35.02q.1.03.03.09s-.05.04-.08.05c-.06.02-.13.05-.17.09-.11.06-.24.09-.38.11-.05,0-.1.02-.14.06.07,0,.13,0,.19.02.27.04.52,0,.76-.07.18-.05.35-.12.52-.18.03,0,.06-.03.08-.01.02.02-.01.03-.02.05-.03.04-.07.06-.09.1-.05.02-.06.06-.1.09l-.24.14c-.09.03-.19.05-.26.1-.11.09-.24.12-.38.15-.09.02-.18.05-.27.07-.04.01-.04.04-.05.06,0,.01.02.01.04,0,.15.04.3.07.45.11.02,0,.05,0,.05.03,0,.02-.03.02-.05.02-.03,0-.06.01-.09.02-.13.02-.27.03-.4.07.99.3,1.42.4,2.4.7.06.02,0-.21,0-.21Z" style="fill: #7ea04c;"/>
          <path d="m80.8,10.8c-.18-.1-.12-.19-.14-.24.05-.03.12-.03.17-.05.13-.04.14-.05.06-.13-.09-.09-.12-.2-.08-.32.02-.05.02-.1.02-.14.02-.01.01-.05.04-.04.03,0,.03.03.03.05,0,0,0,.02.01.02.04.24.17.43.45.52-.02-.03-.05-.05-.08-.08-.01-.02-.06-.02-.03-.05.02-.02.05,0,.08,0,.06.01.12.02.19,0,.08-.01.1-.03.07-.09-.02-.05-.05-.09-.1-.12-.16-.21-.17-.47-.26-.71.06.01.1.04.12.07.08.14.25.18.44.2.01,0,.03,0,.04,0,.02-.02,0-.02-.02-.02-.04-.01-.07-.04-.09-.07-.02-.02-.03-.05-.05-.07-.06-.06-.11-.13-.13-.21-.02-.13-.05-.26-.07-.39,0-.06.03-.07.11-.06.14.02.27,0,.39-.09.1-.07.09-.15-.02-.18-.08-.03-.14-.06-.18-.12-.09-.1-.02-.23-.06-.35-.02-.08.02-.09.12-.09.03,0,.05,0,.08,0,.12-.01.24-.04.23-.13,0-.06-.02-.12-.09-.16-.06-.03-.09-.08-.06-.14.02-.03.03-.07.03-.11,0-.11.03-.21.09-.31.04-.06.08-.13.12-.19.05-.07.09-.15.13-.22.01-.02.02-.05-.01-.06-.03-.01-.05,0-.06.02-.08.07-.18.12-.27.19-.05.03-.06.07-.09.11-.07.1-.13.2-.24.28h0s-.04.04-.06.06c-.03.04-.07.08-.12.1-.1.04-.18.1-.22.18-.08.06-.17.05-.27.06-.09,0-.11.03-.11.11,0,.02,0,.05,0,.07,0,.03.02.08-.05.1-.01,0-.03,0-.04,0-.08.08-.17.11-.29.1-.05,0-.11,0-.16,0-.12,0-.23,0-.34.05-.07.03-.08.06-.04.1,0,0,.01.02.03.02.06.04.08.08-.02.11-.01,0-.03.01-.02.03,0,.01.03.01.04.01.12,0,.24,0,.34.05.06.03.07.04.01.08,0,0,0,0-.01,0-.07.03-.14.06-.22.08-.13.05-.27.05-.4.1-.09.03-.17.03-.25,0-.04-.01-.08-.02-.13-.02-.1,0-.18.02-.27.05-.11.03-.23.06-.34.02-.04-.02-.09,0-.14,0-.01,0-.03,0-.03.02,0,.02.02.02.04.01.05.02.1.04.14.05.04.01.05.04.04.07-.04.02-.08.03-.14.06.05,0,.07.01.1,0,.04.02.09.01.13.01.11,0,.23,0,.34.03q.09.03.02.09s-.05.04-.09.05c-.07.02-.13.05-.18.09-.12.06-.25.09-.38.11-.05,0-.1.02-.14.06.07,0,.13,0,.18.02.25.05.5.02.76-.06.18-.04.36-.11.54-.17.03,0,.06-.03.08,0,.02.02-.02.04-.03.05-.03.04-.08.06-.1.1-.05.02-.07.06-.12.09l-.25.14c-.09.03-.19.05-.26.1-.11.08-.25.11-.39.14-.09.02-.18.05-.27.07-.04,0-.04.04-.05.06,0,.01.02.01.04.01.14.04.28.08.42.12.02,0,.05,0,.04.03,0,.02-.03.02-.05.02-.03,0-.06,0-.09.01-.13.02-.27.03-.4.06.92.32,1.33.44,2.25.77.05.02.03-.22.03-.22Z" style="fill: #4d4c4c;"/>
        </g>
        <g>
          <path d="m77.88,9.56c-.2-.1-.14-.19-.17-.24.05-.03.11-.03.17-.05.13-.04.13-.05.05-.13-.1-.09-.15-.2-.12-.32.01-.05,0-.09,0-.14.02,0,0-.04.04-.04.03,0,.03.03.04.05,0,0,.01.01.02.02.07.23.22.42.53.52-.02-.03-.06-.05-.09-.08-.01-.02-.07-.02-.04-.05.02-.02.05,0,.08,0,.06.01.12.02.19.01.08-.01.1-.03.06-.09-.03-.04-.06-.09-.12-.12-.19-.21-.23-.47-.35-.7.06.01.1.04.13.07.1.14.28.18.47.2.01,0,.03,0,.04,0,.01-.02,0-.02-.02-.02-.05-.01-.08-.04-.1-.07-.02-.02-.03-.05-.05-.07-.07-.06-.13-.13-.15-.21-.04-.13-.08-.26-.12-.39,0-.06.03-.07.1-.06.14.02.28,0,.38-.09.09-.07.08-.14-.04-.18-.08-.03-.15-.06-.2-.12-.1-.1-.05-.23-.1-.34-.03-.07,0-.09.11-.09.03,0,.05,0,.08,0,.12-.01.24-.04.22-.13-.02-.06-.04-.12-.12-.16-.07-.03-.1-.08-.08-.14.01-.03.02-.07.02-.1-.02-.11,0-.21.06-.3.03-.06.07-.12.1-.18.04-.07.07-.14.11-.22,0-.02.01-.04-.02-.06-.03-.01-.05,0-.06.02-.07.07-.17.12-.25.18-.05.03-.06.07-.08.11-.06.1-.1.2-.21.27h0s-.04.04-.05.06c-.03.04-.06.08-.11.1-.1.04-.17.09-.2.17-.07.05-.17.05-.26.05-.09,0-.11.03-.1.1,0,.02,0,.04.02.07.01.03.03.08-.03.1-.02,0-.03,0-.04,0-.07.08-.16.11-.29.1-.05,0-.11,0-.17,0-.12,0-.23,0-.34.05-.07.03-.08.06-.03.1,0,0,.02.02.03.02.06.04.1.08,0,.11-.01,0-.03.01-.02.03,0,.01.03.01.05.01.12,0,.24,0,.36.05.06.03.07.04.02.08,0,0,0,0-.01,0-.07.03-.14.05-.21.08-.13.04-.27.04-.4.09-.08.03-.17.03-.26,0-.04-.02-.09-.02-.14-.02-.1,0-.18.02-.27.05-.11.03-.22.06-.34.01-.05-.02-.09,0-.14,0-.01,0-.03,0-.03.02,0,.02.02.02.04.01.05.02.1.04.15.05.04.01.06.04.05.07-.04.02-.08.03-.13.05.05,0,.08.01.11,0,.04.02.09.01.14.01.12,0,.24,0,.35.03q.09.03.03.09s-.05.04-.08.05c-.07.02-.13.04-.17.09-.11.06-.25.08-.38.1-.05,0-.1.02-.14.06.07,0,.13.01.19.02.26.05.52.03.76-.05.18-.04.35-.1.52-.16.03,0,.06-.03.08,0,.02.02-.01.03-.03.05-.03.03-.07.06-.09.1-.05.02-.07.06-.11.09l-.24.13c-.09.02-.19.04-.26.1-.11.08-.24.11-.38.14-.09.02-.18.04-.27.06-.04,0-.04.04-.05.06,0,.01.02.01.04.01.15.04.3.08.44.12.02,0,.05,0,.05.03,0,.02-.03.02-.05.02-.03,0-.06,0-.09.01-.13.02-.27.02-.4.05.98.33,1.4.45,2.38.78.06.02,0-.21,0-.21Z" style="fill: #7ea04c;"/>
          <path d="m75,8.16c-.2-.04-.17-.15-.21-.19.04-.05.1-.06.15-.1.11-.08.11-.09.02-.14-.11-.06-.18-.15-.17-.28,0-.05-.01-.1-.02-.15.02-.02,0-.05.03-.05.03,0,.03.02.04.04,0,0,.01.01.02.02.11.21.29.35.59.36-.03-.02-.07-.03-.1-.05-.02-.01-.07,0-.05-.04.01-.02.05-.02.08-.02.06,0,.12-.02.18-.05.07-.04.08-.06.04-.11-.04-.04-.08-.07-.13-.08-.22-.15-.31-.4-.47-.59.06,0,.1,0,.13.04.12.11.29.09.48.05.01,0,.03,0,.04-.01.01-.02-.01-.01-.02-.01-.05,0-.08-.01-.11-.03-.02-.02-.04-.04-.06-.05-.08-.04-.15-.09-.18-.16-.06-.12-.13-.23-.19-.35-.02-.06.01-.08.08-.09.14-.03.26-.09.34-.21.07-.1.04-.17-.08-.17-.08,0-.15-.02-.21-.06-.11-.07-.1-.22-.16-.31-.04-.06-.01-.09.09-.12.02,0,.05,0,.07-.02.11-.05.22-.12.18-.2-.03-.06-.06-.11-.14-.12-.07-.01-.11-.05-.1-.12,0-.04,0-.08,0-.11-.04-.1-.04-.21,0-.32.02-.07.04-.14.06-.22.02-.08.04-.17.06-.25,0-.02,0-.05-.03-.05-.03,0-.04.02-.05.04-.05.09-.13.17-.2.26-.04.04-.04.09-.05.13-.04.11-.06.23-.14.34h0s-.03.05-.04.07c-.02.05-.04.1-.09.13-.08.07-.14.15-.15.24-.06.08-.15.1-.23.14-.09.04-.1.06-.08.14,0,.03.01.04.03.06.02.03.05.07-.01.11-.02,0-.03,0-.04.02-.05.1-.13.16-.25.19-.05.01-.1.03-.16.05-.11.03-.22.08-.31.15-.06.05-.06.08,0,.11.01,0,.02.01.03.02.07.02.1.05.02.11,0,0-.02.02,0,.03.01.01.03,0,.05,0,.11-.03.23-.07.34-.06.06,0,.08.02.04.07,0,0,0,0-.01,0-.06.05-.12.1-.18.14-.11.08-.24.13-.35.22-.07.06-.15.09-.24.08-.04,0-.09,0-.13.02-.09.03-.17.08-.25.13-.1.06-.2.13-.32.12-.05,0-.09.03-.13.05-.01,0-.03.02-.02.03,0,.01.03,0,.04,0,.05,0,.1,0,.15,0,.04,0,.06.02.06.06-.03.03-.07.06-.11.1.05,0,.07,0,.1-.04.04,0,.09-.02.13-.03.11-.03.22-.08.33-.08.09,0,.09,0,.05.08-.04.02-.04.06-.07.08-.06.04-.11.08-.14.14-.1.09-.21.16-.33.22-.05.03-.09.05-.12.1.07-.01.12-.03.18-.04.26-.03.49-.14.7-.29.16-.1.31-.22.46-.33.02-.02.05-.05.07-.03.02.01,0,.04-.01.06-.02.04-.06.08-.06.13-.04.04-.05.08-.08.12l-.2.21c-.08.05-.17.1-.22.18-.08.12-.2.19-.33.26-.08.05-.16.1-.24.15-.04.02-.03.05-.03.07,0,.02.02,0,.04,0,.15,0,.29-.01.44-.02.02,0,.05-.01.05.02,0,.02-.02.03-.04.04-.03.02-.06.03-.08.04-.12.06-.24.11-.36.18.98.02,1.4,0,2.37.03.06,0-.04-.21-.04-.21Z" style="fill: #4d4c4c;"/>
        </g>
        <g>
          <path d="m71.97,7.23c-.22-.03-.2-.13-.24-.17.03-.05.1-.07.14-.1.1-.08.11-.09,0-.14-.13-.05-.21-.13-.22-.26,0-.05-.03-.09-.04-.14.02-.02,0-.04.02-.05.03,0,.04.02.05.04,0,0,.01.01.02.02.14.19.35.32.67.31-.03-.02-.07-.03-.11-.04-.02,0-.07,0-.05-.03.01-.02.05-.02.08-.03.06-.01.12-.02.18-.06.07-.04.08-.06.03-.1-.04-.03-.09-.06-.15-.07-.25-.13-.37-.36-.56-.53.06,0,.11,0,.14.03.14.09.32.07.51.03.01,0,.03,0,.04-.02,0-.02-.01-.01-.02-.01-.05,0-.09,0-.12-.03-.02-.01-.05-.03-.07-.04-.09-.03-.16-.07-.21-.14-.08-.11-.16-.21-.24-.32-.02-.05,0-.08.08-.09.14-.03.26-.1.33-.21.06-.1.03-.16-.1-.16-.09,0-.16,0-.23-.05-.13-.06-.13-.2-.21-.29-.05-.06-.02-.09.08-.12.02,0,.05-.01.07-.02.11-.05.22-.12.17-.2-.03-.05-.07-.1-.16-.11-.07,0-.12-.04-.12-.11,0-.04,0-.07-.02-.1-.06-.09-.06-.2-.05-.31.01-.07.02-.14.03-.21.01-.08.02-.16.03-.24,0-.02,0-.05-.04-.05-.03,0-.04.02-.05.04-.04.09-.12.17-.18.26-.04.04-.03.09-.04.13-.02.11-.03.22-.1.33h0s-.02.05-.03.07c-.01.05-.03.09-.07.13-.08.07-.13.14-.13.23-.05.08-.15.1-.23.14-.08.04-.1.07-.06.13,0,.02.02.04.04.06.02.03.06.06,0,.1-.02,0-.03,0-.03.02-.04.1-.12.16-.24.19-.05.01-.11.04-.16.05-.11.04-.22.09-.31.16-.05.05-.05.08,0,.11.01,0,.02.01.04.01.07.01.11.04.03.11,0,0-.02.02,0,.03.01,0,.03,0,.05,0,.12-.03.23-.08.35-.08.07,0,.08.02.05.07,0,0,0,0-.01,0-.05.05-.11.1-.17.15-.11.08-.24.13-.34.22-.07.06-.15.09-.24.09-.04,0-.09.01-.13.03-.09.03-.17.09-.24.14-.1.07-.19.13-.32.13-.05,0-.09.03-.13.05-.01,0-.03.02-.02.03.01.01.03,0,.04,0,.05,0,.11,0,.16,0,.04,0,.07.01.07.05-.03.03-.06.06-.11.1.05,0,.08-.01.1-.04.05,0,.09-.02.13-.03.11-.03.22-.09.34-.09.1,0,.1,0,.06.07-.04.02-.03.05-.06.08-.05.04-.1.09-.13.14-.09.09-.2.16-.32.23-.05.03-.09.05-.11.1.07-.02.13-.03.18-.04.26-.04.49-.15.7-.31.16-.1.3-.22.44-.33.02-.02.04-.05.07-.04.02,0,0,.04,0,.06-.02.04-.05.08-.05.13-.04.04-.04.08-.07.12l-.18.21c-.08.05-.16.11-.21.18-.07.11-.19.19-.31.26-.08.05-.15.1-.23.15-.04.02-.02.05-.02.07,0,.02.03,0,.04,0,.15-.01.31-.03.46-.04.02,0,.05-.01.05.01,0,.02-.02.03-.04.04-.03.02-.06.03-.08.04-.12.06-.24.11-.35.19,1.03-.03,1.47-.06,2.5-.09.06,0-.07-.2-.07-.2Z" style="fill: #7ea04c;"/>
          <path d="m68.14,6.66c-.19-.08-.14-.18-.17-.23.05-.04.11-.04.16-.07.12-.06.13-.07.04-.14-.1-.08-.15-.18-.12-.31.01-.05,0-.1,0-.15.02-.01,0-.05.04-.05.03,0,.03.03.04.05,0,0,.01.01.02.02.07.23.23.4.52.46-.02-.03-.06-.04-.09-.07-.01-.01-.07-.01-.04-.05.02-.02.05,0,.08,0,.06,0,.12,0,.18-.01.07-.02.09-.05.06-.1-.03-.04-.06-.08-.12-.11-.19-.19-.24-.45-.36-.67.06,0,.1.03.12.06.1.13.27.15.46.14.01,0,.03,0,.04,0,.01-.02,0-.02-.02-.02-.05,0-.08-.03-.1-.05-.02-.02-.03-.04-.05-.06-.07-.05-.13-.11-.15-.19-.04-.13-.08-.25-.12-.38,0-.06.02-.08.1-.08.14,0,.27-.04.37-.14.09-.09.07-.16-.04-.18-.08-.02-.15-.04-.2-.1-.1-.09-.06-.23-.11-.34-.03-.07,0-.1.11-.1.03,0,.05,0,.08,0,.12-.03.23-.07.21-.16-.02-.06-.04-.12-.12-.15-.07-.02-.1-.07-.08-.14.01-.04.02-.08.01-.11-.02-.11,0-.21.05-.32.03-.07.06-.13.09-.2.03-.08.07-.16.1-.24,0-.02.01-.05-.02-.06-.03,0-.04.01-.06.03-.07.08-.16.15-.24.22-.05.03-.05.08-.07.12-.06.11-.1.22-.19.31h0s-.04.04-.05.06c-.03.04-.06.09-.11.11-.09.05-.16.12-.19.2-.07.07-.17.07-.25.09-.09.02-.11.05-.1.12,0,.02,0,.05.02.07.01.03.03.07-.03.1-.01,0-.03,0-.04.01-.06.09-.15.13-.27.14-.05,0-.11.01-.16.02-.12.01-.23.04-.33.1-.06.04-.07.07-.03.11,0,0,.02.02.03.02.06.03.09.06,0,.11-.01,0-.02.02-.01.03,0,.01.03,0,.05,0,.12,0,.24-.03.35,0,.06.02.07.03.02.08,0,0,0,0-.01,0-.07.04-.13.07-.2.11-.12.06-.26.08-.38.15-.08.04-.16.06-.25.04-.04,0-.09,0-.13,0-.1.01-.18.05-.26.08-.11.05-.22.09-.33.06-.04-.01-.09.01-.14.02-.01,0-.03,0-.03.02,0,.02.02.01.04,0,.05.01.1.02.15.03.04,0,.06.03.05.06-.04.02-.08.04-.13.07.05,0,.07,0,.1-.02.04.01.09,0,.13,0,.11,0,.23-.04.34-.01q.09.02.03.09s-.05.05-.08.06c-.06.03-.12.06-.16.11-.11.07-.24.12-.36.16-.05.02-.1.04-.13.08.07,0,.13,0,.18,0,.26.02.5-.05.74-.16.18-.07.34-.16.51-.24.02-.01.05-.04.08-.02.02.01-.01.04-.02.05-.03.04-.07.07-.09.12-.05.03-.06.07-.1.1l-.23.17c-.09.04-.18.07-.25.13-.1.1-.23.14-.37.19-.09.03-.17.07-.26.1-.04.02-.04.04-.04.07,0,.02.02,0,.04,0,.14.02.29.04.43.06.02,0,.05,0,.05.02,0,.02-.03.02-.05.03-.03.01-.06.02-.09.03-.13.04-.26.06-.38.11.96.2,1.37.27,2.33.47.06.01,0-.22,0-.22Z" style="fill: #4d4c4c;"/>
        </g>
        <g>
          <path d="m65.09,5.8c-.22-.03-.2-.13-.24-.17.03-.05.1-.07.14-.1.1-.08.11-.09,0-.14-.13-.05-.21-.13-.22-.26,0-.05-.03-.09-.04-.14.02-.02,0-.04.02-.05.03,0,.04.02.05.04,0,0,.01.01.02.02.14.19.35.32.67.31-.03-.02-.07-.03-.11-.04-.02,0-.07,0-.05-.03.01-.02.05-.02.08-.03.06-.01.12-.02.18-.06.07-.04.08-.06.03-.1-.04-.03-.09-.06-.15-.07-.25-.13-.37-.36-.56-.53.06,0,.11,0,.14.03.14.09.32.07.51.03.01,0,.03,0,.04-.02,0-.02-.01-.01-.02-.01-.05,0-.09,0-.12-.03-.02-.01-.05-.03-.07-.04-.09-.03-.16-.07-.21-.14-.08-.11-.16-.21-.24-.32-.02-.05,0-.08.08-.09.14-.03.26-.1.33-.21.06-.1.03-.16-.1-.16-.09,0-.16,0-.23-.05-.13-.06-.13-.2-.21-.29-.05-.06-.02-.09.08-.12.02,0,.05-.01.07-.02.11-.05.22-.12.17-.2-.03-.05-.07-.1-.16-.11-.07,0-.12-.04-.12-.11,0-.04,0-.07-.02-.1-.06-.09-.06-.2-.05-.31.01-.07.02-.14.03-.21.01-.08.02-.16.03-.24,0-.02,0-.05-.04-.05-.03,0-.04.02-.05.04-.04.09-.12.17-.18.26-.04.04-.03.09-.04.13-.02.11-.03.22-.1.33h0s-.02.05-.03.07c-.01.05-.03.09-.07.13-.08.07-.13.14-.13.23-.05.08-.15.1-.23.14-.08.04-.1.07-.06.13,0,.02.02.04.04.06.02.03.06.06,0,.1-.02,0-.03,0-.03.02-.04.1-.12.16-.24.19-.05.01-.11.04-.16.05-.11.04-.22.09-.31.16-.05.05-.05.08,0,.11.01,0,.02.01.04.01.07.01.11.04.03.11,0,0-.02.02,0,.03.01,0,.03,0,.05,0,.12-.03.23-.08.35-.08.07,0,.08.02.05.07,0,0,0,0-.01,0-.05.05-.11.1-.17.15-.11.08-.24.13-.34.22-.07.06-.15.09-.24.09-.04,0-.09.01-.13.03-.09.03-.17.09-.24.14-.1.07-.19.13-.32.13-.05,0-.09.03-.13.05-.01,0-.03.02-.02.03.01.01.03,0,.04,0,.05,0,.11,0,.16,0,.04,0,.07.01.07.05-.03.03-.06.06-.11.1.05,0,.08-.01.1-.04.05,0,.09-.02.13-.03.11-.03.22-.09.34-.09.1,0,.1,0,.06.07-.04.02-.03.05-.06.08-.05.04-.1.09-.13.14-.09.09-.2.16-.32.23-.05.03-.09.05-.11.1.07-.02.13-.03.18-.04.26-.04.49-.15.7-.31.16-.1.3-.22.44-.33.02-.02.04-.05.07-.04.02,0,0,.04,0,.06-.02.04-.05.08-.05.13-.04.04-.04.08-.07.12l-.18.21c-.08.05-.16.11-.21.18-.07.11-.19.19-.31.26-.08.05-.15.1-.23.15-.04.02-.02.05-.02.07,0,.02.03,0,.04,0,.15-.01.31-.03.46-.04.02,0,.05-.01.05.01,0,.02-.02.03-.04.04-.03.02-.06.03-.08.04-.12.06-.24.11-.35.19,1.03-.03,1.47-.06,2.5-.09.06,0-.07-.2-.07-.2Z" style="fill: #7ea04c;"/>
          <path d="m61.26,5.23c-.19-.08-.14-.18-.17-.23.05-.04.11-.04.16-.07.12-.06.13-.07.04-.14-.1-.08-.15-.18-.12-.31.01-.05,0-.1,0-.15.02-.01,0-.05.04-.05.03,0,.03.03.04.05,0,0,.01.01.02.02.07.23.23.4.52.46-.02-.03-.06-.04-.09-.07-.01-.01-.07-.01-.04-.05.02-.02.05,0,.08,0,.06,0,.12,0,.18-.01.07-.02.09-.05.06-.1-.03-.04-.06-.08-.12-.11-.19-.19-.24-.45-.36-.67.06,0,.1.03.12.06.1.13.27.15.46.14.01,0,.03,0,.04,0,.01-.02,0-.02-.02-.02-.05,0-.08-.03-.1-.05-.02-.02-.03-.04-.05-.06-.07-.05-.13-.11-.15-.19-.04-.13-.08-.25-.12-.38,0-.06.02-.08.1-.08.14,0,.27-.04.37-.14.09-.09.07-.16-.04-.18-.08-.02-.15-.04-.2-.1-.1-.09-.06-.23-.11-.34-.03-.07,0-.1.11-.1.03,0,.05,0,.08,0,.12-.03.23-.07.21-.16-.02-.06-.04-.12-.12-.15-.07-.02-.1-.07-.08-.14.01-.04.02-.08.01-.11-.02-.11,0-.21.05-.32.03-.07.06-.13.09-.2.03-.08.07-.16.1-.24,0-.02.01-.05-.02-.06-.03,0-.04.01-.06.03-.07.08-.16.15-.24.22-.05.03-.05.08-.07.12-.06.11-.1.22-.19.31h0s-.04.04-.05.06c-.03.04-.06.09-.11.11-.09.05-.16.12-.19.2-.07.07-.17.07-.25.09-.09.02-.11.05-.1.12,0,.02,0,.05.02.07.01.03.03.07-.03.1-.01,0-.03,0-.04.01-.06.09-.15.13-.27.14-.05,0-.11.01-.16.02-.12.01-.23.04-.33.1-.06.04-.07.07-.03.11,0,0,.02.02.03.02.06.03.09.06,0,.11-.01,0-.02.02-.01.03,0,.01.03,0,.05,0,.12,0,.24-.03.35,0,.06.02.07.03.02.08,0,0,0,0-.01,0-.07.04-.13.07-.2.11-.12.06-.26.08-.38.15-.08.04-.16.06-.25.04-.04,0-.09,0-.13,0-.1.01-.18.05-.26.08-.11.05-.22.09-.33.06-.04-.01-.09.01-.14.02-.01,0-.03,0-.03.02,0,.02.02.01.04,0,.05.01.1.02.15.03.04,0,.06.03.05.06-.04.02-.08.04-.13.07.05,0,.07,0,.1-.02.04.01.09,0,.13,0,.11,0,.23-.04.34-.01q.09.02.03.09s-.05.05-.08.06c-.06.03-.12.06-.16.11-.11.07-.24.12-.36.16-.05.02-.1.04-.13.08.07,0,.13,0,.18,0,.26.02.5-.05.74-.16.18-.07.34-.16.51-.24.02-.01.05-.04.08-.02.02.01-.01.04-.02.05-.03.04-.07.07-.09.12-.05.03-.06.07-.1.1l-.23.17c-.09.04-.18.07-.25.13-.1.1-.23.14-.37.19-.09.03-.17.07-.26.1-.04.02-.04.04-.04.07,0,.02.02,0,.04,0,.14.02.29.04.43.06.02,0,.05,0,.05.02,0,.02-.03.02-.05.03-.03.01-.06.02-.09.03-.13.04-.26.06-.38.11.96.2,1.37.27,2.33.47.06.01,0-.22,0-.22Z" style="fill: #4d4c4c;"/>
        </g>
        <g>
          <path d="m58.21,4.68c-.22-.03-.2-.13-.24-.17.03-.05.1-.07.14-.1.1-.08.11-.09,0-.14-.13-.05-.21-.13-.22-.26,0-.05-.03-.09-.04-.14.02-.02,0-.04.02-.05.03,0,.04.02.05.04,0,0,.01.01.02.02.14.19.35.32.67.31-.03-.02-.07-.03-.11-.04-.02,0-.07,0-.05-.03.01-.02.05-.02.08-.03.06-.01.12-.02.18-.06.07-.04.08-.06.03-.1-.04-.03-.09-.06-.15-.07-.25-.13-.37-.36-.56-.53.06,0,.11,0,.14.03.14.09.32.07.51.03.01,0,.03,0,.04-.02,0-.02-.01-.01-.02-.01-.05,0-.09,0-.12-.03-.02-.01-.05-.03-.07-.04-.09-.03-.16-.07-.21-.14-.08-.11-.16-.21-.24-.32-.02-.05,0-.08.08-.09.14-.03.26-.1.33-.21.06-.1.03-.16-.1-.16-.09,0-.16,0-.23-.05-.13-.06-.13-.2-.21-.29-.05-.06-.02-.09.08-.12.02,0,.05-.01.07-.02.11-.05.22-.12.17-.2-.03-.05-.07-.1-.16-.11-.07,0-.12-.04-.12-.11,0-.04,0-.07-.02-.1-.06-.09-.06-.2-.05-.31.01-.07.02-.14.03-.21.01-.08.02-.16.03-.24,0-.02,0-.05-.04-.05-.03,0-.04.02-.05.04-.04.09-.12.17-.18.26-.04.04-.03.09-.04.13-.02.11-.03.22-.1.33h0s-.02.05-.03.07c-.01.05-.03.09-.07.13-.08.07-.13.14-.13.23-.05.08-.15.1-.23.14-.08.04-.1.07-.06.13,0,.02.02.04.04.06.02.03.06.06,0,.1-.02,0-.03,0-.03.02-.04.1-.12.16-.24.19-.05.01-.11.04-.16.05-.11.04-.22.09-.31.16-.05.05-.05.08,0,.11.01,0,.02.01.04.01.07.01.11.04.03.11,0,0-.02.02,0,.03.01,0,.03,0,.05,0,.12-.03.23-.08.35-.08.07,0,.08.02.05.07,0,0,0,0-.01,0-.05.05-.11.1-.17.15-.11.08-.24.13-.34.22-.07.06-.15.09-.24.09-.04,0-.09.01-.13.03-.09.03-.17.09-.24.14-.1.07-.19.13-.32.13-.05,0-.09.03-.13.05-.01,0-.03.02-.02.03.01.01.03,0,.04,0,.05,0,.11,0,.16,0,.04,0,.07.01.07.05-.03.03-.06.06-.11.1.05,0,.08-.01.1-.04.05,0,.09-.02.13-.03.11-.03.22-.09.34-.09.1,0,.1,0,.06.07-.04.02-.03.05-.06.08-.05.04-.1.09-.13.14-.09.09-.2.16-.32.23-.05.03-.09.05-.11.1.07-.02.13-.03.18-.04.26-.04.49-.15.7-.31.16-.1.3-.22.44-.33.02-.02.04-.05.07-.04.02,0,0,.04,0,.06-.02.04-.05.08-.05.13-.04.04-.04.08-.07.12l-.18.21c-.08.05-.16.11-.21.18-.07.11-.19.19-.31.26-.08.05-.15.1-.23.15-.04.02-.02.05-.02.07,0,.02.03,0,.04,0,.15-.01.31-.03.46-.04.02,0,.05-.01.05.01,0,.02-.02.03-.04.04-.03.02-.06.03-.08.04-.12.06-.24.11-.35.19,1.03-.03,1.47-.06,2.5-.09.06,0-.07-.2-.07-.2Z" style="fill: #7ea04c;"/>
          <path d="m54.58,4.34c-.21,0-.19-.12-.23-.16.03-.05.09-.08.13-.12.1-.09.1-.1,0-.14-.12-.05-.2-.12-.21-.25,0-.05-.03-.09-.04-.14.02-.02,0-.05.02-.06.03-.01.04.02.05.03,0,0,.01,0,.02.01.14.19.34.31.64.27-.03-.02-.07-.02-.1-.04-.02,0-.07,0-.05-.03.01-.02.05-.03.07-.03.06-.02.12-.04.17-.07.06-.05.07-.07.02-.11-.04-.03-.08-.06-.14-.06-.24-.12-.36-.35-.54-.52.06-.02.1,0,.14.02.14.09.3.05.48-.02.01,0,.03,0,.03-.02,0-.02-.01-.01-.02-.01-.04,0-.08,0-.11-.02-.02-.01-.04-.03-.07-.04-.08-.03-.16-.06-.2-.13-.08-.11-.16-.21-.23-.32-.02-.05,0-.08.07-.1.13-.05.24-.13.31-.26.06-.11.02-.17-.1-.16-.08.01-.16,0-.22-.03-.12-.05-.12-.2-.2-.29-.05-.06-.03-.09.07-.13.02-.01.05-.02.07-.03.1-.06.2-.15.15-.22-.03-.05-.07-.1-.15-.1-.07,0-.11-.03-.12-.1,0-.04,0-.08-.02-.11-.06-.09-.06-.2-.05-.32,0-.07.02-.15.03-.22,0-.09.02-.17.02-.26,0-.02,0-.05-.04-.05-.03,0-.04.02-.05.04-.04.1-.11.19-.16.29-.04.05-.03.09-.03.14-.02.12-.02.24-.09.36h0s-.02.05-.03.08c-.01.05-.03.1-.07.14-.07.08-.12.16-.12.26-.05.09-.14.12-.21.17-.08.05-.09.08-.06.15,0,.02.02.04.04.06.02.03.05.06,0,.11-.01,0-.03,0-.03.02-.03.11-.1.18-.22.22-.05.02-.1.05-.15.07-.11.05-.2.11-.28.2-.05.05-.05.09,0,.11.01,0,.02,0,.03.01.07,0,.11.03.03.11,0,0-.02.03,0,.03.01,0,.03,0,.04,0,.11-.05.21-.11.33-.11.06,0,.08,0,.05.07,0,0,0,0-.01,0-.05.06-.1.11-.16.17-.1.1-.22.16-.32.27-.06.07-.14.11-.22.12-.04,0-.08.02-.13.04-.09.04-.15.1-.22.17-.09.08-.18.16-.3.17-.05,0-.08.04-.12.06-.01,0-.03.02-.02.03,0,.01.03,0,.04,0,.05,0,.1-.01.15-.02.04,0,.06,0,.06.05-.03.03-.06.07-.1.11.04-.01.07-.02.09-.05.04,0,.08-.03.12-.05.11-.05.21-.11.32-.13.09-.01.09-.01.06.07-.03.02-.03.06-.06.09-.05.05-.1.1-.12.16-.08.11-.19.19-.3.27-.04.03-.08.07-.1.12.06-.02.12-.05.17-.06.25-.07.46-.21.65-.39.15-.12.27-.26.41-.39.02-.02.04-.05.07-.04.02,0,0,.04,0,.06-.01.05-.04.09-.05.14-.03.04-.04.09-.06.13l-.17.24c-.07.06-.15.13-.19.21-.07.13-.18.21-.29.3-.07.06-.14.12-.21.18-.03.03-.02.05-.02.08,0,.02.03,0,.04,0,.14-.03.29-.06.43-.08.02,0,.05-.02.05,0,0,.02-.02.03-.03.04-.03.02-.05.04-.08.05-.11.08-.23.14-.33.23.97-.12,1.38-.2,2.35-.32.06,0-.07-.21-.07-.21Z" style="fill: #4d4c4c;"/>
        </g>
        <path d="m51.16,4.33c-.22-.03-.2-.13-.24-.17.03-.05.1-.07.14-.1.1-.08.11-.09,0-.14-.13-.05-.21-.13-.22-.26,0-.05-.03-.09-.04-.14.02-.02,0-.04.02-.05.03,0,.04.02.05.04,0,0,.01.01.02.02.14.19.35.32.67.31-.03-.02-.07-.03-.11-.04-.02,0-.07,0-.05-.03.01-.02.05-.02.08-.03.06-.01.12-.02.18-.06.07-.04.08-.06.03-.1-.04-.03-.09-.06-.15-.07-.25-.13-.37-.36-.56-.53.06,0,.11,0,.14.03.14.09.32.07.51.03.01,0,.03,0,.04-.02,0-.02-.01-.01-.02-.01-.05,0-.09,0-.12-.03-.02-.01-.05-.03-.07-.04-.09-.03-.16-.07-.21-.14-.08-.11-.16-.21-.24-.32-.02-.05,0-.08.08-.09.14-.03.26-.1.33-.21.06-.1.03-.16-.1-.16-.09,0-.16,0-.23-.05-.13-.06-.13-.2-.21-.29-.05-.06-.02-.09.08-.12.02,0,.05-.01.07-.02.11-.05.22-.12.17-.2-.03-.05-.07-.1-.16-.11-.07,0-.12-.04-.12-.11,0-.04,0-.07-.02-.1-.06-.09-.06-.2-.05-.31.01-.07.02-.14.03-.21.01-.08.02-.16.03-.24,0-.02,0-.05-.04-.05-.03,0-.04.02-.05.04-.04.09-.12.17-.18.26-.04.04-.03.09-.04.13-.02.11-.03.22-.1.33h0s-.02.05-.03.07c-.01.05-.03.09-.07.13-.08.07-.13.14-.13.23-.05.08-.15.1-.23.14-.08.04-.1.07-.06.13,0,.02.02.04.04.06.02.03.06.06,0,.1-.02,0-.03,0-.03.02-.04.1-.12.16-.24.19-.05.01-.11.04-.16.05-.11.04-.22.09-.31.16-.05.05-.05.08,0,.11.01,0,.02.01.04.01.07.01.11.04.03.11,0,0-.02.02,0,.03.01,0,.03,0,.05,0,.12-.03.23-.08.35-.08.07,0,.08.02.05.07,0,0,0,0-.01,0-.05.05-.11.1-.17.15-.11.08-.24.13-.34.22-.07.06-.15.09-.24.09-.04,0-.09.01-.13.03-.09.03-.17.09-.24.14-.1.07-.19.13-.32.13-.05,0-.09.03-.13.05-.01,0-.03.02-.02.03.01.01.03,0,.04,0,.05,0,.11,0,.16,0,.04,0,.07.01.07.05-.03.03-.06.06-.11.1.05,0,.08-.01.1-.04.05,0,.09-.02.13-.03.11-.03.22-.09.34-.09.1,0,.1,0,.06.07-.04.02-.03.05-.06.08-.05.04-.1.09-.13.14-.09.09-.2.16-.32.23-.05.03-.09.05-.11.1.07-.02.13-.03.18-.04.26-.04.49-.15.7-.31.16-.1.3-.22.44-.33.02-.02.04-.05.07-.04.02,0,0,.04,0,.06-.02.04-.05.08-.05.13-.04.04-.04.08-.07.12l-.18.21c-.08.05-.16.11-.21.18-.07.11-.19.19-.31.26-.08.05-.15.1-.23.15-.04.02-.02.05-.02.07,0,.02.03,0,.04,0,.15-.01.31-.03.46-.04.02,0,.05-.01.05.01,0,.02-.02.03-.04.04-.03.02-.06.03-.08.04-.12.06-.24.11-.35.19,1.03-.03,1.47-.06,2.5-.09.06,0-.07-.2-.07-.2Z" style="fill: #7ea04c;"/>
      </g>
      <path d="m85.52,12.69C51.03-2.66,23.27,6.31.16,13.01c-.31,12.76-.1,49.29.1,50.35,6.25,0,62.04.02,85.27,0,0,0,.51-44.94,0-50.67Z" style="fill: url(#_未命名漸層_4);"/>
    </g>
  </g>
</svg>