<svg xmlns="http://www.w3.org/2000/svg" viewBox="0 0 1038.96 1041.44"><defs><style>.cls-1{fill:#b51c31;}</style></defs><g id="圖層_2" data-name="圖層 2"><g id="圖層_1-2" data-name="圖層 1"><path class="cls-1" d="M982.71,160.88q-358.12-.06-716.27,0c-74.91,0-75.88.2-90.89-71.74C156.16-3.82,160.27-.49,64.36.19,21.17.49.13,13.88,0,41.85-.12,68.51,20.05,83,62.09,81.22c22.15-.91,30,7.36,34.39,27.64Q163.32,418.61,231.42,728.1c8.17,37.36,19.23,46.47,57.93,46.53q144.12.24,288.25.06,141.23,0,282.44,0c50,0,56.4-4.82,67-52.83Q981.63,473.45,1035.84,225C1046.1,177.92,1031.79,160.89,982.71,160.88Zm-40,108.83Q897.38,469.51,855,670c-3.79,17.77-11.2,23-29,23q-247.41-1-494.81,0c-18,.08-25.06-5.79-28.74-22.91q-43.33-201.75-88.28-403.14c-4.31-19.27.08-24.55,20.16-24.39,115.45.89,230.91.43,346.36.43,113.52,0,227,.64,340.54-.53C944.4,242.21,947.69,247.69,942.69,269.71Z"/><path class="cls-1" d="M277,798.84c-59.3-2.12-110.33,50.69-113.21,117.18-2.84,65.58,46.83,123.37,107.75,125.36,61.37,2,112.76-50.89,115-118.38C388.7,857.69,338.72,801,277,798.84Zm-2.36,159.21c-20.75-.6-27.49-18.19-27.84-36.09.47-20.32,5.75-38.56,27.3-39,23.43-.46,29.53,19,29.38,38.66C303.31,940.41,296,958.67,274.62,958.05Z"/><path class="cls-1" d="M880.79,798.78c-59.54.42-108.71,55.16-108.73,121.05,0,68.1,48.83,121.63,110.92,121.55,61-.07,111.51-55.69,111-122.31C993.53,852.75,942.31,798.34,880.79,798.78Zm2.47,159c-22.45.07-29.77-18.51-29-39.11.73-19,7-36.27,29.14-35.88,22.53.4,25.61,19.77,28.9,35.61C909.94,938.65,904.1,957.68,883.26,957.75Z"/></g></g></svg>