<?xml version="1.0" encoding="UTF-8"?>
<svg id="_圖層_2" data-name="圖層 2" xmlns="http://www.w3.org/2000/svg" viewBox="0 0 163.21 73.19">
  <defs>
    <style>
      .cls-1 {
        fill: #d52131;
      }

      .cls-2 {
        fill: #dd636d;
      }

      .cls-3 {
        fill: #cf1c2c;
      }

      .cls-4 {
        fill: #cd1828;
      }

      .cls-5 {
        fill: #d1172d;
      }

      .cls-6 {
        fill: #cd1829;
      }

      .cls-7 {
        fill: #ce192a;
      }

      .cls-8 {
        fill: #cc1223;
      }

      .cls-9 {
        fill: #fdf9f9;
      }

      .cls-10 {
        fill: #cb0b1d;
      }

      .cls-11 {
        fill: #d1142c;
      }

      .cls-12 {
        fill: #ea9ca2;
      }

      .cls-13 {
        fill: #cb1020;
      }

      .cls-14 {
        fill: #fefcfd;
      }

      .cls-15 {
        fill: #d01b2e;
      }

      .cls-16 {
        fill: #cc1324;
      }

      .cls-17 {
        fill: #fefdfd;
      }

      .cls-18 {
        fill: #ea9fa6;
      }

      .cls-19 {
        fill: #d1152d;
      }

      .cls-20 {
        fill: #ca0a1b;
      }

      .cls-21 {
        fill: #cb0c1c;
      }

      .cls-22 {
        fill: #ca0a1c;
      }

      .cls-23 {
        fill: #d1192e;
      }

      .cls-24 {
        fill: #cc1425;
      }

      .cls-25 {
        fill: #d0182e;
      }

      .cls-26 {
        fill: #cf1e2e;
      }

      .cls-27 {
        fill: #bd1e2d;
      }

      .cls-28 {
        fill: #ce1a2b;
      }

      .cls-29 {
        fill: #fcf8f7;
      }

      .cls-30 {
        fill: #d0182d;
      }

      .cls-31 {
        fill: #cb0c1d;
      }

      .cls-32 {
        fill: #cf2030;
      }

      .cls-33 {
        fill: #faf0ef;
      }

      .cls-34 {
        fill: #cb0d1e;
      }

      .cls-35 {
        fill: #cd1627;
      }

      .cls-36 {
        fill: #f6dedf;
      }

      .cls-37 {
        fill: #ce1829;
      }

      .cls-38 {
        fill: #cd1324;
      }

      .cls-39 {
        fill: #cd1223;
      }

      .cls-40 {
        fill: #ca091a;
      }

      .cls-41 {
        fill: #cd192a;
      }

      .cls-42 {
        fill: #ce1b2c;
      }

      .cls-43 {
        fill: #c12;
      }

      .cls-44 {
        fill: #d01a2e;
      }

      .cls-45 {
        fill: #eba4aa;
      }

      .cls-46 {
        fill: #cb1021;
      }

      .cls-47 {
        fill: #d1162d;
      }

      .cls-48 {
        fill: #ca0719;
      }

      .cls-49 {
        fill: #d0192e;
      }

      .cls-50 {
        fill: #cb1122;
      }

      .cls-51 {
        fill: #f3cdd0;
      }

      .cls-52 {
        fill: #e5858e;
      }

      .cls-53 {
        fill: #ce1728;
      }

      .cls-54 {
        fill: #d84b58;
      }

      .cls-55 {
        fill: #eca7ae;
      }

      .cls-56 {
        fill: #cd1728;
      }

      .cls-57 {
        fill: #cc1021;
      }

      .cls-58 {
        fill: #ce1c2c;
      }

      .cls-59 {
        fill: #cb0f20;
      }

      .cls-60 {
        fill: #cd1626;
      }

      .cls-61 {
        fill: #cb0c1e;
      }
    </style>
  </defs>
  <g id="_圖層_1-2" data-name="圖層 1">
    <g>
      <path class="cls-15" d="m163.21,18.95v2.1c-.32.45-.58,1-1.29.88-.33-.22-.57-.51-.72-.88-.31-3.07-1.12-6.18.64-9.11.77-.38,1.04.23,1.38.7v2.1c-.57,1.4-.57,2.8,0,4.2Z"/>
      <path class="cls-51" d="m163.21,12.65c-.27-.22-.55-.45-.82-.67-1.21-1.89-1.25-3.76.08-5.61l.74-.02v6.3Z"/>
      <path class="cls-9" d="m.59,11.95h-.29s-.29,0-.29,0v-4.9c.2,0,.4,0,.6.03.15.13.3.27.46.4.67,1.58.93,3.12-.47,4.48Z"/>
      <path class="cls-29" d="m163.21,29.45h-.29s-.29,0-.29,0c-1.42-1.42-1.16-3.01-.49-4.64.28-.39.64-.48,1.07-.26v4.9Z"/>
      <path class="cls-36" d="m163.21,18.95c-1.12-1.4-1.07-2.8,0-4.2v4.2Z"/>
      <path class="cls-33" d="m163.21,24.55h-.29s-.29,0-.29,0c-.98-.86-.89-1.81-.23-2.8.27-.23.54-.47.81-.7v3.5Z"/>
      <path class="cls-32" d="m162.47,6.37c-.03,1.87-.05,3.74-.08,5.61-1.2,3.2-.3,6.52-.58,9.77.61,4.73.47,9.45.06,14.18-.04,2.05-.08,4.09-.12,6.14-.51,6.05-.43,12.11-.05,18.17-.46,6.63-.28,8.51-7.9,8.58-3.55.03-7.12.76-10.72.6-1.63.72-3.44-.18-5.06.57l-2.63.13c-1.63.71-3.44-.16-5.07.55-1.11.05-2.23.1-3.34.14-2.11.75-4.36-.19-6.46.55-7.2,1.33-14.54.42-21.76,1.37-8.4-.36-16.8-.52-25.2.09-4.44.8-8.87,0-13.3-.07-.19-.16-.26-.36-.21-.58-1.29-.21-2.63.12-3.89-.38-2.13.12-4.28-.29-6.39.25-1.97-.02-4,.6-5.89-.46-.99-1.01-2.24-.24-3.34-.5-1.36.12-2.74-.26-4.07.25-1.01.19-1.96.09-2.85-.47-2.04-.97-4.15-.41-6.24-.29-1.02.06-2.04.1-2.95-.47-1.32-.84-2.7-.41-4.07-.17-1.04.04-2.08.06-3.02-.49-1.06-.79-2.17-.52-3.29-.19-2.93.44-5.74-.68-8.66-.69-1.52,0-2.71-1.11-3.11-2.76.46-5.28.03-10.58.21-15.36,0,.02-.03.52-.47.89-.7-3.08-.44-6.21-.48-9.33.55-4.41.09-8.83.24-13.24,0-1.92,0-3.86,0-5.79,0-.47.07.13-.02-.33-.07-.36-.26-.36-.44-.03-.68-3.31-.7-6.65-.49-10.01.43-1.86.32-3.72.08-5.59l-.29.05c.63-.79,1.06-1.82,2.24-1.98.61.33,1.28.19,1.93.21.32.01.65.04.96-.11-.4.13-.71.02-.96-.31.93-.6,1.96-.52,2.99-.47,1.25.4,2.54.15,3.81.18.46,0,.74-.18.28-.11-.02,0-.07-.21-.1-.32.7-.54,1.52-.5,2.33-.44,1.87.22,3.74.53,5.57-.21,3.57-1.32,7.36-.82,11.03-1.2,8.2-.84,16.47-1.01,24.72-1.45,1.62.35,3.24.45,4.85-.05C72.51-.37,84.83,0,97.14.3c.79.02,1.57.35,2.35.54,2.82.74,5.74-.21,8.55.55.65.04,1.3.07,1.94.11,2.79.55,5.58.43,8.37.06,4.94,1.09,10.01.35,15.02,1.09,3.36.5,6.84.5,10.24.98,1.63.71,3.44-.15,5.08.55.41.04.81.08,1.22.11,1.86.82,3.91-.16,5.77.59,2.38-.06,4.8-.29,6.78,1.49Z"/>
      <path class="cls-47" d="m108.05,1.38c-2.85-.19-5.77.7-8.55-.55,2.86.1,5.78-.8,8.55.55Z"/>
      <path class="cls-49" d="m118.36,1.56c-2.8.89-5.59,1.02-8.37-.06,2.79.02,5.58.04,8.37.06Z"/>
      <path class="cls-57" d="m11.73,4.15c.29.19,1.04.57.71.61-1.55.18-3.2.65-4.69-.36,1.33-.08,2.65-.17,3.98-.25Z"/>
      <path class="cls-23" d="m155.69,4.88c-1.93-.17-3.96.71-5.77-.59,1.94.08,3.96-.71,5.77.59Z"/>
      <path class="cls-20" d="m19.63,3.5c-1.81,1.21-3.68.97-5.57.21,1.86-.07,3.71-.14,5.57-.21Z"/>
      <path class="cls-22" d="m60.22.81c-1.61.99-3.22.92-4.85.05,1.62-.02,3.23-.03,4.85-.05Z"/>
      <path class="cls-5" d="m148.7,4.18c-1.7-.14-3.49.64-5.08-.55,1.71.03,3.49-.65,5.08.55Z"/>
      <path class="cls-8" d="m4.77,4.88c.21.06.45.07.62.18.34.23.3.52-.11.54-.85.05-1.75.25-2.43-.51.64-.07,1.28-.14,1.92-.21Z"/>
      <path class="cls-44" d="m73.55,72.84c.7-.86,1.68-.67,2.6-.67,6.77,0,13.54,0,20.31,0,.81,0,1.65-.1,2.29.59-8.4.03-16.8.06-25.2.09Z"/>
      <path class="cls-34" d="m2,51.34c.11-1.23.22-2.45.33-3.68.13,6.07,1.13,12.13-.07,18.15-.09-4.82-.18-9.65-.27-14.47Z"/>
      <path class="cls-30" d="m161.7,60.24c-.94-6.06-1.02-12.11.05-18.17-.02,6.06-.04,12.11-.05,18.17Z"/>
      <path class="cls-19" d="m161.88,35.93c-.02-4.73-.04-9.46-.06-14.18.2,0,.39,0,.59,0,.08.93.15,1.87.23,2.8,0,1.63,0,3.27,0,4.9-.56,2.12.66,4.46-.76,6.48Z"/>
      <path class="cls-48" d="m2.09,28.06c-.33,4.65.74,9.35-.57,13.96-.02-4.65-.05-9.31-.07-13.96.21-.32.43-.32.64,0Z"/>
      <path class="cls-34" d="m2.09,28.06c-.21,0-.43,0-.64,0-.05-1.81-.1-3.62-.15-5.43.08-.44.17-.89.25-1.33.18-.01.36-.03.53-.04v6.8Z"/>
      <path class="cls-7" d="m49.76,72.06c2.24-1.21,4.66-.33,6.98-.6.22.15.33.35.33.62-.07.29-.25.38-.52.3-2.26-.11-4.53-.21-6.79-.32Z"/>
      <path class="cls-40" d="m27.37,70.59c2.12-.71,4.22-1.15,6.24.29-2.08-.1-4.16-.2-6.24-.29Z"/>
      <path class="cls-15" d="m120.5,71.38c2.07-1.23,4.31-.38,6.46-.55-2.06,1.26-4.3.46-6.46.55Z"/>
      <path class="cls-57" d="m.89,7.03c.76,1.87.9,3.74-.08,5.59-.08-.22-.15-.44-.23-.67.1-1.64.2-3.28.3-4.92Z"/>
      <path class="cls-61" d="m20.34,69.95c1.44-1.09,3.09-.41,4.65-.53.05,0,.11.13.17.2-.25.17-.5.34-.75.5-1.36-.06-2.71-.11-4.07-.17Z"/>
      <path class="cls-25" d="m138.01,70c1.57-1.22,3.37-.42,5.06-.57-1.57,1.22-3.36.53-5.06.57Z"/>
      <path class="cls-11" d="m130.31,70.68c1.58-1.19,3.38-.41,5.07-.55-1.58,1.22-3.36.51-5.07.55Z"/>
      <path class="cls-37" d="m40.63,70.77c1.27,0,2.54-.02,3.81.05.57.03.37.38.08.59-.18.13-.43.14-.66.2-1.08-.07-2.16-.14-3.24-.21-.23-.14-.3-.28-.23-.42.08-.14.15-.21.23-.21Z"/>
      <path class="cls-38" d="m14.03,69.27c1.13-1.06,2.66-.85,3.75-.47,1.03.36-.3.4-.46.66-1.1-.06-2.2-.13-3.29-.19Z"/>
      <path class="cls-43" d="m40.63,70.77c0,.21,0,.42,0,.63-1.39-.01-2.78-.03-4.17-.04,1.27-1.09,2.78-.39,4.18-.59Z"/>
      <path class="cls-27" d="m60.24,72.17c0,.2,0,.41.01.61-1.25,0-2.55.55-3.7-.39,0,0,.22-.25.22-.25,1.16-.45,2.32-.51,3.47.04Z"/>
      <path class="cls-17" d="m101.6,38.55c.16-1.65-.33-3.17-1.36-5.64,0,8.12-.17,15.24.08,22.35.11,3.16-1.58,2.9-3.65,2.93-2.14.03-3.64.12-3.59-2.97.19-12.58.15-25.17.02-37.75-.02-2.39.78-2.85,2.97-2.85,8.24,0,8.21-.07,9.77,8.02.81,4.21,1.73,8.4,2.6,12.6,1.02.78.75,1.61.28,2.4,1.13-.92,0-2.85,1.35-3.81,1.59-5.35,2.06-10.92,3.08-16.38.39-2.1,1.05-3,3.29-2.82,2.89.23,5.8.13,8.71.18.8.43.57,1.2.57,1.86.01,13.01.01,26.02,0,39.04,0,.58.02,1.16-.41,1.64-2.15,1.64-4.58.52-6.88.72-.85-.68-.74-1.65-.75-2.57-.04-6.35.1-12.71-.29-19.02-.16,1.21-.13,2.46-1.21,3.3-1.17,5.19-2.48,10.35-3.45,15.57-.44,2.35-1.5,2.86-3.72,2.9-2.31.04-3.13-.7-3.64-2.95-.84-3.75-.72-7.8-3.02-11.17-1.3-1.72-1.45-3.59-.77-5.58Z"/>
      <path class="cls-14" d="m47.03,31.55c4.55,1.75,5.5,1.18,5.5-3.31,0-3.6.11-7.21-.04-10.81-.09-2.06.41-3.04,2.67-2.79,1.84.2,3.71.11,5.57.15.86.57.54,1.46.54,2.23.02,12.98.02,25.95,0,38.93,0,.74.39,1.66-.59,2.16q-8.14.19-8.14-7.94c0-2.08,0-4.16,0-6.23,0-4.45-.99-5.04-5.51-3.27.26.36.43.76.53,1.19-.17,5.2.78,10.45-.57,15.61-2.24,1.43-4.71.47-7.07.64-1.34.1-1.29-1.04-1.29-1.99,0-13.14.01-26.27-.03-39.41,0-1.47.44-2.13,1.98-2.05,2.09.11,4.18.09,6.27.12,1.38,1.72.71,3.74.75,5.63.08,3.31.13,6.63-.05,9.94-.09.43-.27.83-.52,1.2Z"/>
      <path class="cls-17" d="m79.32,14.79q8.13-.43,8.13,7.64c0,8.27.03,16.54-.02,24.81-.02,4.31-.43,8.56-5,10.68-4.53,2.11-11.31.82-14.91-2.64-.88-.71-1.67-1.45-.98-2.72-.09-11.63-.02-23.27-.34-34.89-.12-4.19,2.58-2.75,4.57-3,2.4-.3,3.74.06,3.66,3.18-.24,9.42-.1,18.85-.07,28.28,0,1.24-.38,2.58.56,3.69v-.02c2.17,2.28,2.93,2.14,4.19-.75-.66-8.33-.21-16.68-.25-25.02-.01-3.07-.63-6.21.45-9.24Z"/>
      <path class="cls-17" d="m139.39,50.48c2.34,1.58,3.36.43,3.75-1.85.56-3.26-.94-5.51-3.51-7.36-2.79-2-5.45-4.25-7.16-7.24-3.07-5.36-2.77-11.12-.12-16.37,2.43-4.81,7.46-3.96,11.84-3.58,3.78.33,5.64,2.85,6.03,6.44.26,2.42.23,4.87.33,7.31-2.53.95-5.07.86-7.61.05-.06-1.62-.05-3.25-.22-4.86-.11-1.03-.89-1.65-1.91-1.71-1.06-.07-1.88.55-2,1.56-.32,2.65-.74,5.35,1.87,7.31,1.93,1.45,3.78,3.01,5.65,4.53,5.31,4.3,5.47,10.11,4.71,16.18-.1.8-.28,1.59-.42,2.39-.73,4.41-4.31,5.37-7.81,6.44-1.3.09-2.61.13-3.91-.06-.57-.13-1.07-.37-1.4-.89-6.01-2.3-8.34-6.46-7.35-12.89.18-1.15.56-1.67,1.73-1.62.81.04,1.64.1,2.44-.02,2.82-.39,4.54.3,3.94,3.63-.07.4.24.87.38,1.3.55.27.29.99.74,1.31Z"/>
      <path class="cls-17" d="m25.34,50.03c1.16-1.95.55-4.09.56-6.14.01-1.77.47-2.49,2.37-2.42,7.01.24,6.03-1.06,5.88,5.81-.2,9.04-4.04,12.27-13.04,11.37-5.61-.56-8.25-2.96-8.39-8.56-.22-8.97-.27-17.95.02-26.92.2-6.12,3.69-9.22,10.2-9.33,6.66-.11,10.26,2.92,10.9,9.15.09.93.18,1.86.18,2.79-.04,5.91.47,4.64-4.71,4.98-2.89.19-3.73-.85-3.38-3.52.14-1.03.03-2.1-.03-3.14-.08-1.26-.57-2.31-1.95-2.54-1.33-.22-2.62-.19-2.93,1.57,0,8.87-.03,17.73.04,26.6.99,2.18,2.4,1.99,4,.7-.15-.3-.06-.44.27-.42Z"/>
      <path class="cls-28" d="m21.06,49.75c-.8-8.86-.74-17.73-.04-26.6.23.5.65,1.01.65,1.52.04,7.85.04,15.7,0,23.54,0,.51-.4,1.02-.62,1.54Z"/>
      <path class="cls-35" d="m92.36,15.67v41.55c-.11,0-.23,0-.34,0V15.55c.11.04.23.09.34.13Z"/>
      <path class="cls-10" d="m60.67,58.11c.02-14.44.04-28.87.06-43.31,1.24.62.9,1.78.9,2.78.02,12.6.02,25.2,0,37.8,0,1,.32,2.17-.96,2.74Z"/>
      <path class="cls-41" d="m37.73,15.68v41.55c-.12,0-.23,0-.35,0V15.54c.12.05.23.09.35.14Z"/>
      <path class="cls-42" d="m125.32,57.34c-.06-14.18-.11-28.36-.17-42.53.76.32.92.96.93,1.7,0,13.43.01,26.86,0,40.3,0,.2-.06.48-.19.59-.1.09-.38-.02-.57-.05Z"/>
      <path class="cls-32" d="m142.9,58.86c3.49-.61,6.18-2.31,7.73-5.59.66.49.76,1.1.41,1.81-1.66,3.34-8.99,7.04-12.71,6.28-1.08-.22-2.42-.7-2.51-2-.05-.79,1.11-.38,1.7-.6.39.03.79.07,1.18.1,1.4.57,2.8.58,4.2,0Z"/>
      <path class="cls-58" d="m46.99,41.37c0-.24.02-.47.03-.71,5.34.05,4.78-.52,4.8,4.92.02,3.93,0,7.85-.69,11.79,0-4.32.04-8.64-.03-12.96-.02-1.12.62-2.96-1.44-2.88-1.99.08-1.28,1.89-1.31,3.01-.11,4.28-.11,8.57-.16,12.86,0,.06-.15.16-.24.17-.11,0-.22-.06-.33-.1-.73-3.99-.13-8.01-.35-12.01-.07-1.36.29-2.76-.29-4.09Z"/>
      <path class="cls-26" d="m65.85,52.56c-.22-.39-.63-.78-.63-1.18-.03-11.94-.03-23.88.63-35.83v37h0Z"/>
      <path class="cls-50" d="m74.92,49.82V15.13c1.1,1.27.71,2.27.71,3.14.04,9.31.04,18.62,0,27.92,0,1.22.46,2.59-.72,3.6,0,0,0,.02,0,.02Z"/>
      <path class="cls-16" d="m79.32,14.79c-.07,11.42-.14,22.84-.21,34.26-.84-.7-.65-1.68-.65-2.59,0-9.63-.01-19.25,0-28.88,0-.99-.33-2.14.85-2.8Z"/>
      <path class="cls-3" d="m47,30.86c-.05-5.36-.11-10.72-.16-16.08,1.98.22,1.46,1.76,1.47,2.92.05,4.38.02,8.77.02,13.15-.44.39-.88.42-1.33,0Z"/>
      <path class="cls-45" d="m117,35.09c-.05-.88-.38-1.85,1.44-2.92,0,8.95,0,17.42,0,25.9-.25.03-.5.07-.75.1-.71-2.02-.35-4.12-.32-6.17.08-5.64-.28-11.27-.37-16.9Z"/>
      <path class="cls-56" d="m117,35.09c1.25.85.63,2.12.64,3.19.06,6.63.04,13.26.05,19.88-1.42-1.74-.54-3.78-.69-5.67-.34-4.24.63-8.55-.82-12.72-.17-1.64.24-3.17.81-4.68Z"/>
      <path class="cls-24" d="m11.71,24.04v25.66c-.11,0-.23,0-.34,0v-25.72l.34.06Z"/>
      <path class="cls-21" d="m101.6,38.55c.26,1.86.51,3.72.77,5.58-1.63,2.57-.5,5.42-.77,8.13-.15,1.48-.03,2.98-.36,4.46.12-6.06-1.2-12.14.37-18.16Z"/>
      <path class="cls-3" d="m46.99,41.37c1.38,3.92.32,7.96.62,11.94.11,1.38.02,2.77.02,4.16-.22,0-.43,0-.65,0,0-5.36,0-10.73.01-16.09Z"/>
      <path class="cls-4" d="m51.13,30.85v-15.25c.22,0,.43,0,.65,0v15.28c-.22.25-.44.23-.65-.02Z"/>
      <path class="cls-59" d="m124.6,13.88h-10.32c0-.11,0-.22,0-.33h10.32c0,.11,0,.22,0,.33Z"/>
      <path class="cls-2" d="m152.67,58.83c1.84-1.26,2.67.11,3.54,1.37.67,1.22.12,1.91-1.01,2.36-1.13-.18-1.49-1.23-2.17-1.94-.35-.55-.77-1.09-.36-1.8Z"/>
      <path class="cls-54" d="m152.67,58.83c.23.42.46.84.69,1.26-.07,1.24.85,2.23.87,3.45-.47.61-1,.76-1.62.21-.52.22-1.11.76-1.36-.29-.64-1.56-.35-3.01.53-4.39.29-.08.58-.17.88-.25Z"/>
      <path class="cls-59" d="m103.51,13.86h-9.63c0-.11,0-.23,0-.34h9.62c0,.11,0,.23,0,.34Z"/>
      <path class="cls-37" d="m25.34,50.03c.03.22-.06.36-.27.42-1.26-2.76-.2-5.56-.58-8.34.28,0,.57-.01.85-.02v7.93Z"/>
      <path class="cls-31" d="m110.08,33.84c-.07,1.55-.16,3.1-1.35,5.05-.13-1.64-.2-2.64-.28-3.64.26-.59.52-1.17.79-1.76.1-.23.03-.73.48-.49.21.12.25.55.37.84Z"/>
      <path class="cls-6" d="m46.21,59.39h-6.82c2.26-.69,4.54-.59,6.82,0Z"/>
      <path class="cls-13" d="m39.26,13.53h6.79v.27h-6.77c0-.09,0-.18-.01-.27Z"/>
      <path class="cls-13" d="m60.04,13.86h-6.78c0-.11,0-.23,0-.34h6.82c-.01.11-.03.23-.04.34Z"/>
      <path class="cls-13" d="m86.66,13.86h-6.78c0-.11,0-.23,0-.34h6.82c-.01.11-.03.23-.04.34Z"/>
      <path class="cls-6" d="m60.04,59.39h-6.79c0-.12,0-.23,0-.35h6.82c-.01.12-.02.23-.04.35Z"/>
      <path class="cls-42" d="m26.94,40.09h6.55c-2.28.72-4.56.66-6.55,0Z"/>
      <path class="cls-53" d="m24.71,30.09v-6.17c.1,0,.2,0,.31,0v6.17c-.1,0-.2,0-.31,0Z"/>
      <path class="cls-46" d="m67.44,13.52h6.09c0,.11,0,.23,0,.34h-6.14c.02-.11.03-.23.05-.34Z"/>
      <path class="cls-43" d="m144.28,13.15h-6.1c0-.09,0-.19-.01-.28h6.1c0,.09,0,.19,0,.28Z"/>
      <path class="cls-28" d="m35.59,42.23v6c-.12,0-.23,0-.35,0v-6.04c.12.01.23.02.35.04Z"/>
      <path class="cls-58" d="m131.19,42.93h6.09c0,.12,0,.23,0,.35h-6.13c.02-.12.03-.23.05-.35Z"/>
      <path class="cls-6" d="m124.54,59.44h-6c0-.12,0-.23,0-.35h6c0,.12,0,.23,0,.35Z"/>
      <path class="cls-8" d="m142.94,27.87c2.54-.02,5.07-.03,7.61-.05-2.53,1.55-5.06,1.46-7.61.05Z"/>
      <path class="cls-6" d="m99.32,59.44h-5.31c0-.11,0-.23,0-.34h5.31c0,.11,0,.23,0,.34Z"/>
      <path class="cls-59" d="m25.79,13.19h-4.61c0-.11,0-.22-.01-.33h4.59l.03.33Z"/>
      <path class="cls-55" d="m154.79,62.49c1.07-.39,1.41-1.24,1.42-2.29,1.43,1.5.85,2.64-.67,3.59-.56.29-.82-.05-1.03-.49-.06-.32.04-.59.28-.82Z"/>
      <path class="cls-6" d="m111.24,59.44h-4.63c0-.12,0-.23,0-.35h4.63c0,.12,0,.23,0,.35Z"/>
      <path class="cls-60" d="m139.39,50.48c-.69-.19-.77-.72-.74-1.31,0-1.38,0-2.76,0-4.14.25,0,.49-.02.74-.02v5.47Z"/>
      <path class="cls-18" d="m151.8,59.08c-.18,1.46-.36,2.93-.53,4.39-1.47-1.67-.98-3.09.53-4.39Z"/>
      <path class="cls-52" d="m154.83,63.02c.24.26.48.52.72.77-.99,1.42-1.97,2.23-2.92-.03.57-.01,1.16,0,1.43-.66.23-.27.49-.28.78-.08Z"/>
      <path class="cls-1" d="m60.24,72.17c-1.16-.01-2.31-.02-3.47-.04-.02-.22-.02-.44-.03-.67h4.93c-.18.29-.26.56-.4.6-.33.09-.69.08-1.03.1Z"/>
      <path class="cls-39" d="m51.13,30.85c.22,0,.43,0,.65.02-1.43,1.32-3.18.4-4.75.68l-.02-.69c.44,0,.89,0,1.33,0,.93,0,1.86,0,2.8,0Z"/>
      <path class="cls-26" d="m66.54,52.56c.33.91.65,1.81.98,2.72-1.57-.29-1.7-1.46-1.67-2.72,0,0,0,0,0,0,.23,0,.46,0,.69,0Z"/>
      <path class="cls-32" d="m142.9,58.86c-1.4,1.07-2.8,1.06-4.2,0,1.4,0,2.8,0,4.2,0Z"/>
      <path class="cls-12" d="m154.83,63.02c-.26.03-.52.05-.78.08-2.11-.57-1.65-1.73-.69-3.01.99.49,1.46,1.3,1.43,2.4.02.18.03.35.03.53Z"/>
    </g>
  </g>
</svg>