<?xml version="1.0" encoding="UTF-8"?>
<svg id="_圖層_2" data-name="圖層 2" xmlns="http://www.w3.org/2000/svg" viewBox="0 0 321.6 409.15">
  <defs>
    <style>
      .cls-1 {
        fill: #fff;
      }

      .cls-2 {
        fill: #090909;
      }

      .cls-3 {
        fill: #848484;
      }

      .cls-4 {
        fill: #a5a5a5;
      }

      .cls-5 {
        fill: #f6f6f6;
      }

      .cls-6 {
        fill: #33261b;
      }

      .cls-7 {
        fill: #8c8c8c;
      }

      .cls-8 {
        fill: #959595;
      }

      .cls-9 {
        fill: #020202;
      }

      .cls-10 {
        fill: #cd1214;
      }

      .cls-11 {
        fill: #111;
      }

      .cls-12 {
        fill: #929292;
      }

      .cls-13 {
        fill: #969696;
      }

      .cls-14 {
        fill: #101010;
      }

      .cls-15 {
        fill: #0d0d0d;
      }

      .cls-16 {
        fill: #080808;
      }

      .cls-17 {
        fill: #787878;
      }

      .cls-18 {
        fill: #e0a977;
      }

      .cls-19 {
        fill: #fbfbfb;
      }

      .cls-20 {
        fill: #171717;
      }

      .cls-21 {
        fill: #878787;
      }

      .cls-22 {
        fill: #141414;
      }

      .cls-23 {
        fill: #bbb;
      }

      .cls-24 {
        fill: #454545;
      }

      .cls-25 {
        fill: #484848;
      }

      .cls-26 {
        fill: #686868;
      }

      .cls-27 {
        fill: #666;
      }

      .cls-28 {
        fill: #010101;
      }

      .cls-29 {
        fill: #888;
      }

      .cls-30 {
        fill: #fefefe;
      }
    </style>
  </defs>
  <g id="_圖層_1-2" data-name="圖層 1">
    <g>
      <path d="m243.24,315.96c-.16.08-.34.13-.52.16-.76,6.58-2.11,12.96-6,18.52-6.73,10.12-13.21,20.44-23.77,27.2-.17.11-.47.02-.72.02-1.16.58-2.32,1.16-3.48,1.74-1.23.87-2.58.67-3.93.45-1.22,0-2.43,0-3.65,0-2.1.25-4.18.22-6.22-.33-.15.06-.34,0-.59-.17-3.05-.24-5.96-1.06-8.78-2.22-1.28-.07-2.62.07-3.65-.97-9.05-2.35-16.67-6.97-22.62-14.26-3.18-3.9-6.37-7.79-9.53-11.71-4-4.95-8.82-8.7-15.09-10.31-1.76.02-3.52.04-5.28.06-1.46.3-2.91.6-4.37.9-.93,1.29-2.71.3-3.71,1.39-.85.76-1.86,1.17-2.96,1.39-1.94.78-3.89,1.56-5.83,2.34-.41.98-1.57.85-2.21,1.48-1.36,1.03-2.82,1.84-4.53,2.14-1.23.57-2.46,1.14-3.69,1.71-1.4,5.85-1.4,5.92,4.36,5.72,3.08-.11,6.06.51,9.08.81h0c4.92-1.03,8.69-4.48,13.29-6.25,5.95-2.3,6.75-2.47,10.78,2.24,7.21,8.4,14.21,16.98,23.64,23.08,1.49.96,1.78,2.23.17,3.17-3.49,2.02-6.34,4.96-10.4,6.2-6.68,2.04-13.46,3.91-19.76,7.06-2.6,1.3-4.64,2.93-4.38,6.15.25,3.11,2.44,4.82,5.04,5.8,3.55,1.33,7.25,2.4,10.89,3.27,7.48,1.79,14.34,4.97,21.19,8.22,5,2.37,9.79,5.19,14.75,7.66,3.18,1.58,10.17-.53,11.29-3.62,2.76-7.59,3.39-15.34-1.45-22.31-2.04-2.94-2.72-5.94-3.21-9.23-.31-2.09.54-2.59,2.51-2.3,6.27.92,12.51,1.23,18.39-1.83,5.5-2.86,12.98-1.41,16.88-7.81.28-.46,1-.75,1.57-.93,3.55-1.1,5.69-3.72,7.45-6.78-1.68-.05-2.67.85-3.47,2.27-.98,1.75-2.44,1.45-3.72.39-1.36-1.13-1.56-2.5-.09-3.74,2.05-1.73,3.16-4.41,5.8-5.57.6-.26,1.27-1,1.38-1.61.81-4.43,3.6-7.82,6.13-11.22,2.62-3.54,2.93-7.76,4.36-11.63.86-2.34-.5-4.55-1.33-6.72Zm-63.26,83.48c-1.24-.13-2.52-.35-3.43-1.21-8.69-8.26-20.13-10.43-30.89-14.12-1.35-.46-3.26-.52-3.28-2.41-.02-1.76,1.77-2.27,3.12-2.71,3.27-1.08,6.45-2.44,9.7-3.48,4.61-1.48,8.07-4.65,12.05-7,5.56-3.27,11.73-.87,12.25,5.83.57,7.27,2.48,13.97,5.42,20.52,1.08,2.41-1.45,4.63-4.94,4.57Z"/>
      <path class="cls-28" d="m184.92,394.87c1.08,2.41-1.45,4.63-4.94,4.57-1.24-.13-2.52-.35-3.43-1.21-8.69-8.26-20.13-10.43-30.89-14.12-1.35-.46-3.26-.52-3.28-2.41-.02-1.76,1.77-2.27,3.12-2.71,3.27-1.08,6.45-2.44,9.7-3.48,4.61-1.48,8.07-4.65,12.05-7,5.56-3.27,11.73-.87,12.25,5.83.57,7.27,2.48,13.97,5.42,20.52Z"/>
      <path class="cls-28" d="m245.88,322.75s0,.02,0,.03c-.08.66-.21,1.36-.4,2.09-1.36,5.51-3.68,10.46-7.23,14.83,0,0,0,0,0,0-.14.17-.28.34-.42.5-.39.47-1.08.97-1.08,1.45-.1,5.16-3.99,7.92-7.87,11.57,2.41-.21,4.18-1.42,5.31.57-1.68-.05-2.67.85-3.47,2.27-.98,1.75-2.44,1.45-3.72.39-1.36-1.13-1.56-2.5-.09-3.74,2.05-1.73,3.16-4.41,5.8-5.57.6-.26,1.27-1,1.38-1.61.81-4.43,3.6-7.82,6.13-11.22,2.62-3.54,2.93-7.76,4.36-11.63.86-2.34-.5-4.55-1.33-6.72-.16.08-.34.13-.52.16-.76,6.58-2.11,12.96-6,18.52-6.73,10.12-13.21,20.44-23.77,27.2-.17.11-.47.02-.72.02-1.16.58-2.32,1.16-3.48,1.74-1.23.87-2.58.67-3.93.45-1.22,0-2.43,0-3.65,0-2.1.25-4.18.22-6.22-.33-.15.06-.34,0-.59-.17-3.05-.24-5.96-1.06-8.78-2.22-1.28-.07-2.62.07-3.65-.97-9.05-2.35-16.67-6.97-22.62-14.26-3.18-3.9-6.37-7.79-9.53-11.71-4-4.95-8.82-8.7-15.09-10.31-1.76.02-3.52.04-5.28.06-1.46.3-2.91.6-4.37.9-.93,1.29-2.71.3-3.71,1.39-.85.76-1.86,1.17-2.96,1.39-1.94.78-3.89,1.56-5.83,2.34-.41.98-1.57.85-2.21,1.48-1.36,1.03-2.82,1.84-4.53,2.14-1.23.57-2.46,1.14-3.69,1.71-1.4,5.85-1.4,5.92,4.36,5.72,3.08-.11,6.06.51,9.08.81-4.19.38-8.4.07-12.6,1.09-2.33.57-3.85-1.33-3.43-3.94.2-1.27.67-2.49,1.27-3.65h0c.08-.16.16-.31.25-.46.08-.13.16-.26.24-.39.83-1.25,1.97-2.09,3.51-2.35.61-.05,1.2-.13,1.77-.27.41-.11.8-.25,1.18-.44.22-.11.43-.23.63-.38.13-.09.26-.2.39-.31.21-.19.42-.4.6-.65.66-.85,1.49-1.48,2.52-1.81,2.01-.52,3.72-1.85,5.79-2.24.34-.02.67-.04.99-.1.58-.09,1.12-.27,1.61-.58.25-.16.49-.37.71-.62,1.14-.85,2.4-1.37,3.81-1.5.11-.01.23-.02.34-.03.22.06.44.1.65.1,1.38.04,2.46-1.07,3.77-1.27,1.56.09,3.12.19,4.63.66,6.66.69,10.93,5.31,15.52,9.44,4.61,4.14,7.7,9.47,11.56,14.18,5.31,6.47,12.39,10.49,20.63,12.24h0c.15.03.3.06.46.1.16.04.32.07.49.1,1.14.22,2.32.29,3.44.64.55.33,1.1.67,1.65.99.65.38,1.32.73,2,1,0,0,0,0,0,0,.65.26,1.31.45,2,.53,0,0,0,0,0,0,.63.08,1.29.06,1.98-.08.24-.05.49-.11.74-.19,2.13-.38,4.25-.07,6.37.09,1.1.22,2.2.35,3.31.13.08,0,.16-.02.23-.03h.01c.97-.1,1.94-.19,2.91-.37.04,0,.09-.02.13-.03.11-.02.22-.04.32-.06.46-.05.9-.16,1.34-.3.85-.26,1.67-.62,2.53-.84.02-.01.05-.02.07-.04,5.34-2.95,9.1-7.58,12.92-12.16,3.2-3.84,5.55-8.38,9.47-11.64.55-.45.72-1.05.83-1.67.08-.46.13-.93.26-1.37.07-.08.14-.17.21-.25,0-.01.02-.02.03-.03.4-.49.78-.99,1.12-1.51t0,0c2.15-3.22,3.17-6.86,3.58-10.78.1-.93.24-1.86.52-2.76,0,0,0,0,0,0,.24-.76.57-1.49,1.06-2.17.04-.06.09-.12.13-.18.23-.18.48-.3.75-.36.08-.02.17-.03.26-.04.07.05.14.1.21.15,2.26,1.64,3.02,3.96,2.63,7.11Z"/>
      <path class="cls-9" d="m67.69,325.41s0,.05,0,.08c0,.02,0,.05,0,.08-.09.19-.17.38-.24.58-.86,2.36-.72,5.17-3.03,6.9-2.57-.12-4.34,1.23-5.93,3.07-3.75,4.34-7.55,8.64-11.34,12.94-2.92,3.3-6.45,4.7-10.82,3.38-1.2-1.31-2.39-2.62-3.59-3.92,0,0,0,0,0,0h0s0,0,0,0h0s0,0,0,0c.07-5.56-3.63-9.48-6.33-13.7-2.93-4.58-6.06-9.1-9.88-13.05,0,0,0,0,0,0-.14-.07-.25-.16-.32-.24-.23-.28-.13-.62.1-.99-1.65-3.39-3.44-6.67-7.14-8.3-2.53-3.22-3.44-6.92-3.3-10.95.39-5.03.4-5.11,5.36-4.54,7.33.83,14.51,2.3,21.34,5.26,1.57.68,3.55,2.23,5.13.71,1.79-1.72.57-4-.21-5.87-4.05-9.73-2.83-19.77-1.94-29.8.65.07,1.18.25,1.62.52,1.09.67,1.54,1.89,1.6,3.31.22,5.04,1.18,10.03.91,15.11-.21,3.95-.25,7.89,2.2,11.38.72,1.02.85,2.4.58,3.58-.73,3.26.85,4.87,3.53,6.39,2.64,1.49,5.35,3.06,7.4,5.44,1.63,1.9,3.63,1.19,5.57.85.09-.02.19-.03.28-.05.29,0,.55.03.79.09,1.83.43,2.33,2.34,3.25,3.67,1.59,2.28,3.37,4.47,4.38,7.11.02.15.03.29.04.44,0,.16.01.33.01.49Z"/>
      <path class="cls-28" d="m297.82,282.65c5.34-2.82,11.06-4.56,16.86-6.11,1.27-.34,2.97-1.18,3.8.03,1.02,1.48-1.01,2.17-1.7,3.21-5,7.49-11.25,13.92-17.71,20.07-6.11,5.82-12.69,11.39-20.15,15.25-6.48,3.36-11.82,9.22-19.95,9.43-3.44.09-6.03,2.91-7.78,5.74-3.08,5-5.74,10.26-8.57,15.42-.33.47-.66.94-.99,1.41-.31,3.62-1.94,5.06-5.3,4.71-1.83-1.8-1.62-3.69-.03-5.45.98-1.09,1.79-2.28,2.55-3.52,1.98-4.8,5.41-8.74,7.8-13.34,3.11-5.96,9.12-8.34,15.35-9.83,2.49-.59,4.73-1.55,6.34-3.5,2.23-2.7,5.65-3.38,8.41-5.18,4.94-3.23,9.35-7.16,14.36-10.24,3.1-1.91,5.49-4.53,7.66-7.39.69-.94,1.9-.98,2.75-1.64,2.95-1.96,5.54-4.34,7.84-7.02.53-.61,1.15-1.5.41-2.28-.6-.63-1.33.01-2,.28-2.27.91-4.64,1.43-7.05,1.78-1.42.2-2.75.07-2.92-1.83Z"/>
      <path class="cls-28" d="m243.55,334.64s0,0,0,0c-.55.95-1.15,1.89-1.82,2.81,0,0,0,0,0,0,0,0,0,0,0,0-.14.2-.29.4-.44.6-.65.86-1.45,1.86-1.57,2.9h0c-.1.82.22,1.66,1.34,2.49-.26,1.12-.84,2.07-1.83,2.66-2.03,1.2-2.79,2.99-2.61,5.26.02.19,0,.35-.07.47-.12.24-.37.36-.7.41-.56.52-1.12,1.04-1.68,1.56-1.68-.05-2.67.85-3.47,2.27-.98,1.75-2.44,1.45-3.72.39-1.36-1.13-1.56-2.5-.09-3.74,2.05-1.73,3.16-4.41,5.8-5.57.6-.26,1.27-1,1.38-1.61.81-4.43,3.6-7.82,6.13-11.22,2.62-3.54,2.93-7.76,4.36-11.63.86-2.34-.5-4.55-1.33-6.72-.18-.14-.33-.28-.46-.43-.72-.83-.7-1.89-.57-2.97.02-.07.03-.13.04-.2.02-.11.04-.21.06-.32.04-.22.08-.45.11-.67.12-.88.2-1.77.33-2.65t0,0c.11-.67.25-1.34.48-1.98.34-.14.66-.25.96-.33,0,0,.02,0,.03,0,2.07-.54,3.23.35,3.51,2.71,1.07,9.06.36,17.7-4.17,25.53Z"/>
      <path class="cls-9" d="m115.55,342.02c-8.49,2.09-17.05,3.62-25.86,2.84-.12-.19-.22-.39-.31-.6-.05-1.49,1.9-1.36,2.18-2.59-5.44-2.48-5.98-2.72-4.88-4.91,0-.02.02-.04.03-.06.04-.09.09-.18.14-.27h0c.08-.15.16-.3.25-.46,3.13-.68,6.37.08,9.49-.73.11-.03.22-.06.33-.09.06-.02.13-.04.19-.06,1.01-.11,2.03-.22,3.03-.43.19-.04.38-.08.57-.13.2.03.39.07.57.14.37.14.66.4.84.81-1.4,5.85-1.4,5.92,4.36,5.72,3.08-.11,6.06.51,9.08.81Z"/>
      <path class="cls-12" d="m106.35.17c-.47.09-.9.05-1.29-.08.43.02.86.05,1.29.08Z"/>
      <path d="m244.78,243.06c.43-.16.89-.25,1.39-.28-.5-.53-1.01-.83-1.55-.93.08.4.14.8.16,1.2Z"/>
      <path class="cls-9" d="m282.48,47.19c-.51.48-.98.67-1.4.67-.9,0-1.65-.8-2.4-1.4-6.3-5.05-13.35-8.74-20.87-11.59-1.17-.12-2.14-.47-2.55-1.42-.08-.19-.14-.41-.18-.65h0s-.01-.09-.02-.13h0s0-.03,0-.04c0-.09-.01-.18-.02-.28.7-2.27,3.03-3.07,4.34-4.81.56-.75,1.63-.91,2.3-.27,1.57,1.51,2.97,1.49,4.81.38.69-.41,1.59-.53,2.43-.37.28.06.55.14.8.26,0,0,0,0,0,0,.22.1.42.23.61.37,1.15.92,2.34,1.23,3.56,1.23.86,0,1.74-.14,2.64-.32,1.62.44,3.1,1.17,4.46,2.15-.28.4-.61.69-.99.91-.53.32-1.13.53-1.74.76-2.64,1.03-1.63,3.53-1.87,5.41-.27,2.16,1.64,1.09,2.62,1.32,3.56.85,4.98,4.02,3.46,7.79Z"/>
      <path class="cls-9" d="m319.38,79.18h0c-.89,2.19.12,4.54-.58,6.74-.22,2.02.17,4.12-.81,6.03-.31-1.07-.58-2.14-.82-3.21-.95-4.29-1.37-8.65-1.55-13.1-.41-9.74-3.73-18.37-11.54-24.76-3.7-3.03-7.3-6.12-10.44-9.79-1.21-1.42-2.52-2.84-4.08-3.93-.56-.4-1.16-.75-1.8-1.05-.44-.2-.89-.38-1.37-.53-.64-.19-1.2-.51-1.62-.95-.47-.49-.78-1.14-.84-1.97h0c8.39,3.8,15.11,9.79,21.38,16.37.13.16.27.32.4.48.85,1.02,1.7,2.04,2.55,3.06,1.38.51,1.79,1.76,2.27,2.95.31.49.61.98.92,1.46,2.74,1.05,2.93,3.6,3.47,5.95.48,3.28,1.49,6.36,3.17,9.21.09.16.19.32.29.47.34.72.68,1.43,1.01,2.15.6,1.47.61,2.94,0,4.42Z"/>
      <path class="cls-25" d="m318.8,85.91c-.17-2.28-.41-4.56.58-6.73.08,2.27.28,4.55-.58,6.73Z"/>
      <path class="cls-25" d="m319.38,79.18c.33-.55.55-1.1.65-1.65-.04-.61-.1-1.21-.16-1.81-.11-.32-.27-.63-.47-.95,0,1.47,0,2.94,0,4.42Z"/>
      <path class="cls-28" d="m302.4,293.12c.62-3.3,3.76-4.72,5.42-7.25.65-.99,2.25-1.73,1.69-3.01-.67-1.51-2.39-.7-3.66-.8-1.4-.11-2.6.49-3.76,1.26-1.76,1.17-3.45,1.18-4.87-.6.2-.05.4-.07.61-.06.79.35,1.8.94,2.44.38,2.99-2.67,7.26-1.03,10.38-3.22.43-.3,1.3-.44,1.71-.21.79.46.35,1.31.14,2-1.09,3.46-3.85,5.63-6.27,8.06-1.21,1.21-2.53,2.31-3.81,3.46Z"/>
      <path d="m84.63,172.21c-.11.28-.26.55-.43.82,0,0,0,0,0,0t0,0c-.04.06-.08.12-.12.18,0,0,0,0,0,0-.93,1.43-1.76,2.93-2.65,4.38,0,0,0,0,0,0-.18.29-.36.58-.55.87-.11.16-.2.33-.3.5-.34.62-.6,1.27-.89,1.91-.37.84-.77,1.67-1.4,2.36-1.09.83-2.24,1.72-2.61,3.04-1.67,5.9-5.46,11.01-6.07,17.35-.23,2.4-.69,4.27,1.74,5.68,1.2.7,1.4,2.28,2.49,3.51,1.88-1.58,3.73-4,6.47-1.77.09.07.18.15.28.24.09.13.16.25.23.37-.29.04-.6.05-.91.01-1.59,4.76-4.93,8.63-6.77,13.26-1.64,2.37-3.35,4.7-4.35,7.44-8.41,13.87-12.19,29.18-14.06,45.1,0,5.73,0,11.46,0,17.19.57,6.52,1.8,12.89,4.22,18.98.09-.02.19-.03.28-.05.29,0,.55.03.79.09-.15.28-.39.55-.73.8-1.49,1.64-3.86,1.51-5.56,2.8-.75.57-1.38.1-1.54-.84-.91-5.43-5.52-6.95-9.66-8.31-2.58-.85-3.24-1.67-2.46-4.03.99-2.99.9-5.81-1.28-8.34-.85-.98-.93-2.25-.95-3.5-.09-6.03.09-12.06-.65-18.09-.15-1.23-.31-2.43-.55-3.6h0c-.25-1.2-.59-2.37-1.1-3.52.08-1.66.16-3.32.23-4.99h0c-.15-.59-.24-1.16-.27-1.73-.18-3.31,1.47-6.28,2.25-9.42h0s0-.02,0-.03c.02-.35.1-.68.22-.99h0c.13-.35.31-.68.51-1,.04-.1.1-.2.15-.3.29-.55.66-1.05.9-1.62,0,0,0,0,0,0,.05-.11.09-.23.12-.34.45-1.29-.1-2.76.71-3.99.37-.64.72-1.29,1.06-1.95t0,0c1.15-2.22,2.13-4.51,3.09-6.81,0,0,0,0,0,0,.83-1.98,1.64-3.97,2.53-5.92,2.51-2.41,4.52-5.13,5.85-8.28.2-.47.38-.95.55-1.44t0,0c.14-.4.26-.81.38-1.22.2-.4.54-.68.88-.94h0s0,0,0,0c.43-.33.88-.64,1.13-1.14h0c.03-.06.06-.12.08-.18.37-1.32,1.91-1.94,2.24-3.29.04-.17.07-.36.06-.57.05-.21.1-.43.15-.64.49-2.01,1.21-3.84,2.81-5.04h0c.51-.38,1.11-.69,1.82-.92,2-3.65,3.22-7.6,4.5-11.53.09-1.84.97-3.33,2.04-4.75,2.68-6.3,5.27-12.66,8.9-18.49,1.15-1.84.43-2.32-1.23-2.71-2.51-.58-5.21.37-7.63-.92-.43-.65-.9-1.25-1.4-1.82-1.47-1.68-3.22-3.06-5.11-4.27-.33-.21-.65-.41-.99-.61h0c-.23-.24-.45-.48-.67-.72h0c-.24-.26-.48-.51-.71-.76-.46-.8-.92-1.6-1.38-2.4-.6-.03-1.07-.21-1.43-.48-.64-.48-1-1.25-1.34-2.07-.99-2.38-2.03-4.74-3.13-7.07.1-.64.11-1.26.08-1.89h0c-.03-.49-.08-.97-.16-1.45-.2-1.28-.54-2.54-.78-3.82.67-1.5,1.1-3.02,1.38-4.55h0c.03-.16.06-.32.08-.48,0,0,0,0,0,0,0-.06.02-.11.03-.17.8-5.16,0-10.49.71-15.65,0,0,0,0,0-.01.26-2.21.53-4.42.79-6.64h0c-.09-.13-.16-.25-.22-.37-.25-.57-.12-1.15.22-1.72.31-.35.66-.65,1.04-.91h0c.24-.16.48-.31.75-.44,0,0,.02-.01.03-.02.1-.07.2-.14.3-.21.19-.13.38-.25.57-.37.8-.5,1.64-.93,2.52-1.24h0c.36-.13.72-.23,1.09-.32h0c.37-.09.75-.15,1.15-.19,1.93.14,3.23,1.54,4,2.89,1.76,3.11,4.07,5.76,6.21,8.56,0,.05,0,.09,0,.13h0c0,.15-.04.3-.08.44-.1.35-.27.67-.45.99-.09.16-.18.32-.27.48h0c-.09.17-.17.35-.24.53-.49.73-1.31,1.15-1.82,1.87-.62.81-1.04,1.78-1.91,2.38-1.14.8-2.29,1.56-3.44,2.34-1.61,1.48-1.62,3.66-2.44,5.49-.5.83-.92,1.69-.94,2.69-.02.72,0,1.37.07,1.96.19,1.8.77,3.03,1.82,3.78,1.06.76,2.59,1.01,4.7.87,2.4.1,3.82,1.48,4.55,3.64.53,1.57,1.4,2.86,2.79,3.77,1.78,1.89,1.78,4.32,2.03,6.67.17.62.46,1.19.78,1.75.52,1.23,1.59,2.07,2.26,3.21.64,1.82,2.29,2.9,3.25,4.49.68,2.65,1.75,5.62.76,8.04Z"/>
      <path class="cls-28" d="m96.07,341.98c-.22,2.22-2.59,2.21-4.48,2.22-.74,0-1.47.04-2.21.07-1.22.06-2.43.07-3.56-.52h0c-1.27-1.3-3.13-.99-4.62-1.69-.68-.17-1.36-.34-2.04-.51,0,0,0,0,0,0h0c-1.36-1.53-3.14-2.24-5.11-2.55-3.67-1.22-6.33-4.1-9.63-5.93-.6-2.94.38-5.4,2.31-7.56.34-.04.66-.03.96.01.07.01.15.02.22.04,1.18.26,2.03,1.12,2.9,1.98.14.14.28.28.42.42.47.45.95.89,1.46,1.27h0c.6.46,1.25.84,1.97,1.09.48.17,1,.28,1.56.32.95.49,1.52,1.44,2.4,2.01.1.07.2.14.29.21.18.13.35.27.51.42.02.08.04.16.07.23.01.04.02.08.04.11.09.28.2.54.31.77.69,1.36,1.79,1.8,3.02,1.94,1.08.12,2.26,0,3.37.04.02,0,.03,0,.05,0,.04.03.07.07.11.1.09.08.18.16.27.25,0,0,0,0,0,0,0,0,0,0,0,0,0,.02.02.03.02.05,1.08,2.28,3.39,1.95,5.3,2.59,1.55.52,4.34.12,4.09,2.63Z"/>
      <path class="cls-9" d="m74.04,338.97c2.42-.59,3.91.69,5.11,2.56-1.7-.85-3.41-1.7-5.11-2.56Z"/>
      <path class="cls-9" d="m81.2,342.04c1.77-.07,3.47.07,4.63,1.69-1.65-.26-3.26-.65-4.63-1.69Z"/>
      <path class="cls-30" d="m134.31,316.02c.02.27.05.53.12.79h.94c-.31-.35-.67-.6-1.06-.79Zm4.01-6.93c-.21.1-.4.23-.57.36-.78.63-1.19,1.57-1.72,2.4-.09.11-.18.23-.28.34-.2.24-.4.48-.59.73-.04.05-.08.11-.12.16.03.01.06.02.1.03.79.26,1.58.54,2.43,0,.25-.99.49-1.97.74-2.96.16-.38.24-.73.27-1.06-.09,0-.18,0-.27,0Zm22.57.12c-.38.11-.75.15-1.13.15.27.52.74,1.02,1.47,1.53-.1-.53-.28-1.12-.34-1.68Zm6.99,20.19c-.8,2.78.47,3.48,2.96,2.96-1.33-.64-2.63-1.32-2.96-2.96Zm4.44,2.22c1.23.25,2.46.49,3.7.74-1.01-1.34-2.22-1.71-3.7-.74Zm10.03,27.25c-.15-.03-.3-.06-.46-.1h0c-8.24-1.75-15.32-5.77-20.63-12.24-3.87-4.71-6.96-10.04-11.56-14.18-4.6-4.13-8.86-8.75-15.52-9.44-1.51-.47-3.07-.57-4.63-.66-1.32.2-2.39,1.3-3.77,1.27-.21,0-.42-.04-.65-.1-.11,0-.23.01-.34.03-.01.52.07,1.06.25,1.61,1.46-.3,2.91-.6,4.37-.9,1.75-.54,3.52-.41,5.28-.06,6.27,1.62,11.09,5.36,15.09,10.31,3.16,3.92,6.35,7.81,9.53,11.71,5.95,7.28,13.57,11.91,22.62,14.26.39-.47.69-.94.9-1.4-.16-.03-.33-.07-.49-.1Zm12.39-19.35c-.15-1.05-.48-2.03-1.63-2.7-1.94-.89-4.04-1.03-6.11-1.37-1.52-.33-2.85,0-4.07.8-.18.12-.36.25-.54.39-.05.04-.1.08-.15.13-2.11,1.75-2.97,1.1-2.94-1.52,0-.19,0-.38-.02-.57h0c0-.17-.02-.33-.05-.5-.25-.16-.48-.31-.71-.47-.16-.24-.31-.5-.45-.77-.17-.33-.87-.38-1.32-.56,1.05,1.32,1.33,2.77,1.07,4.46-.21,1.35.72,2.28,1.8,2.96,1.23.78,2.07.08,2.77-.87,1.02-1.37,2.49-1.36,3.97-1.36,2.22.25,4.43.49,6.65.74.04.09.08.19.12.28,0,0,0,0,0,0,.49,1.1,1.08,1.99,1.79,2.66-.08-.57-.11-1.15-.19-1.72Zm9.84,22.56c.95-.05,1.92-.18,2.91-.37-.96.18-1.94.27-2.91.37Zm8.36-40.27c-.01.33-.05.66-.11,1-.17.94-.19,1.95.04,2.87.1-.07.2-.15.31-.26,1.02-1,.55-2.49-.24-3.61Zm2.44-11.93c-.46.25-.91.54-1.34.88-.4.31-.79.67-1.16,1.07-.72,1.19-.8,2.56-1.07,3.87.1.6.24,1.18.39,1.77.33-.49.83-.95,1.51-1.39.25-1.23.49-2.47.74-3.7-.45-1,.32-1.57.78-2.26.05-.08.1-.16.15-.23Zm12.51,6.86c-1.14-.09-1.41.79-1.37,1.7.03.76.36,1.48,1.28,1.44.9-.04,1.15-.75,1.21-1.53-.02-.79-.26-1.54-1.13-1.61Zm7.26-19.9c-.05.07-.09.13-.12.2-.01.02-.02.04-.04.07-.71,1.31-.55,2.76-.58,4.17.06-.09.11-.18.16-.27h0c.71-1.31.55-2.76.58-4.18Zm2.22,14.06v-5.18c-.97,1.73-.97,3.45,0,5.18Zm.83-29.99c.07-.27.15-.53.24-.8-.1.25-.19.52-.24.8Zm4.61,30.68c-.05-.03-.11-.06-.16-.09-.08-.04-.15-.07-.23-.11-.17-.07-.34-.14-.52-.19-.05-.02-.1-.04-.15-.06.16.31.35.62.56.92-.02.11-.04.21-.06.32-.01.07-.03.13-.04.2-.13,1.09-.15,2.14.57,2.97-.27.06-.53.18-.75.36-.05.06-.09.12-.13.18-2.23-.1-4.02.36-3.77,3.58.04.51-.49,1.06-.76,1.59-.12.15-.2.3-.27.46h0c-.32.87.12,1.9-.21,2.78h0c-.08.16-.16.31-.27.46-1.1,1.9-2.33,3.75-3.24,5.73-.57,1.24-2.12,2.63-.97,3.99.75.88,1.72.62,2.7.28-.11.62-.29,1.22-.83,1.67-3.92,3.26-6.27,7.8-9.47,11.64-3.82,4.58-7.58,9.21-12.92,12.16-.02.01-.04.03-.07.04-.86.22-1.68.58-2.53.84,1-.17,2-.17,2.95.57.24,0,.54.1.72-.02,10.56-6.75,17.05-17.08,23.77-27.2-.05-.14-.11-.27-.18-.39-.09-.16-.2-.32-.33-.46-.24-.16-.44-.33-.6-.51-.04-.04-.09-.09-.13-.14,0,0,0,0,0,0-1.05-1.27-.53-2.86.16-4.05.61-1.06,1.46-2.06,2.19-3.11h0c.12-.17.23-.34.34-.52.45-.98.2-2.11.65-3.09.02-.04.04-.08.06-.13.15-.27.32-.54.47-.81.76-.89,1.01-2.11,1.47-3.2,0,0,0,0,0,0,.37-.87.88-1.65,1.9-2.11.18-.03.35-.09.52-.16,0-.11,0-.21.01-.32.04-1.09.07-2.18.11-3.26-.12-.32-.3-.59-.55-.82Zm3.69-33.4c-.05-.12-.1-.24-.15-.36-.03-.07-.06-.14-.09-.22-.04-1.73-.08-3.46-.12-5.19-.41-.41-.85-.65-1.32-.71-.43-.06-.88.04-1.36.3-.12.06-.22.12-.32.18-.57.37-.93.86-1.18,1.4-.32.69-.47,1.47-.68,2.21-.09.32-.2.64-.33.94.46.19.78.64.85,1.6.14-.25.26-.51.33-.76,0,0,0,0,0,0,.63-1.47,1.26-2.95,1.89-4.42.32-.11.63-.22.95-.33.17,1.51-.62,3.09.29,4.55.27.14.54.26.8.35-.78,2.39-.71,4.84-.49,7.3-.41,4.26.52,8.58-.67,12.79-.4.16-.69.4-.88.68.28,0,.56,0,.83-.03.62-.06,1.19-.25,1.6-.89,1.64-3.9.34-8.1,1.19-12.08.21-2.54.47-5.08-1.16-7.32Z"/>
      <path class="cls-30" d="m79.98,240.45s-.02.03-.03.05c-.09.15-.17.3-.24.47-.07.18-.13.38-.17.59-.01.03-.02.05-.03.08-.35-.12-.7-.23-1.05-.35.1-.14.21-.28.31-.43.12-.09.24-.16.36-.22.35-.26.63-.31.85-.2Z"/>
      <path class="cls-30" d="m54.72,294.68c-.47-5.73-.45-11.46,0-17.19,0,5.73,0,11.46,0,17.19Z"/>
      <path class="cls-30" d="m89.89,313.35c-.12-.07-.23-.15-.34-.25.08-.08.15-.15.23-.23.04.16.08.31.12.47Z"/>
      <path class="cls-30" d="m96.2,330.13c-.64,1.98-1.84,2.56-3.7,1.48,1.42-.01,2.57-.73,3.7-1.48Z"/>
      <path class="cls-30" d="m106.54,324.2c-1.21.04-2.43-.03-3.62.13-2.93.39-5.29,1.5-6.3,4.16h0c.02.56-.06,1.12-.42,1.64-.03-1.05.09-1.99.34-2.8h0c0-.14-.01-.29,0-.43.02-.84.25-1.36,1.1-1.58,1.5-1.72,4.12-2.28,7.52-1.49,0,0,0,0,0,0,.45.07.91.19,1.38.38Z"/>
      <path class="cls-30" d="m111.72,324.2c-1.23.82-2.46.82-3.7,0h3.7Z"/>
      <path class="cls-30" d="m125.78,323.5c-.23.52-.46,1.05-.73,1.54-.93,1.29-2.71.3-3.71,1.39-1.4-.42-2.34.14-2.96,1.39-1.94.78-3.89,1.56-5.83,2.34-.97.35-1.91.76-2.85,1.18-.21.1-.42.19-.63.29-.42.19-.84.38-1.27.56-.85.3-1.39.99-1.99,1.59-1.23.57-2.46,1.14-3.69,1.71-.44.01-.88.02-1.32.04h0s-.06,0-.09,0c-1.11-.7-2.21-.38-3.32-.1-.17.04-.34.09-.51.12h0s0,0,0,0c-.33.06-.67.09-1,.11-1.17.06-2.35.03-3.52.13-1.83.22-3.64.59-5.48.64h0c-.11,0-.21,0-.32,0-.02,0-.03,0-.05,0-.03,0-.06.02-.1.02-.06.01-.12.03-.18.04-.97.22-1.94.41-2.93.03-.15-.06-.29-.13-.42-.21-.59-.37-1.07-.94-1.57-1.49h0c-.47-.51-.95-.99-1.54-1.24h0c-.08-.04-.16-.07-.25-.09-.49-.15-1.07-.14-1.77.11-.84-.25-1.79-.32-2.21-1.29-.9-1.09-1.83-2.14-2.83-3.11h0c-.6-.59-1.23-1.16-1.88-1.69-.91-.74-1.87-1.4-2.9-1.98-.07-.04-.14-.08-.22-.12-.31-.17-.64-.34-.97-.49-3.47-2.76-4.78-7.08-7.45-10.42-.12-.28-.23-.56-.34-.84.09-.02.19-.03.28-.05.29,0,.55.03.79.09,1.83.43,2.33,2.34,3.25,3.67,1.59,2.28,3.37,4.47,4.38,7.11.02.15.03.29.04.44,3.68.18,5.6,2.46,6.98,5.38.48.17,1,.28,1.56.32.95.49,1.52,1.44,2.4,2.01.1.07.2.14.29.21,2.17-.99,3.39.92,4.65,2.7.81.84,1.86.5,2.83.6,2.04-.52,4.08-1.05,6.12-1.57,1.23-.82,2.46-.82,3.7,0,1.3.11,2.85-.99,3.94.09.19-.04.38-.08.57-.13.2.03.39.07.57.14.83-1.25,1.97-2.09,3.51-2.35.61-.05,1.2-.13,1.77-.27.2-.18.44-.33.73-.44.47-.28.96-.5,1.46-.69.21-.19.42-.4.6-.65.66-.85,1.49-1.48,2.52-1.81,2.01-.52,3.72-1.85,5.79-2.24.34-.02.67-.04.99-.1.26-.78.73-1.12,1.61-.58.25-.16.49-.37.71-.62,1.14-.85,2.4-1.37,3.81-1.5.11-.01.23-.02.34-.03.22.06.44.1.65.1Z"/>
      <path class="cls-30" d="m127.24,318.28c-.69,1.13-1.62,1.95-2.96,2.22.69-1.13,1.62-1.95,2.96-2.22Z"/>
      <path class="cls-30" d="m135.37,316.8h-.94c-.07-.26-.1-.52-.12-.79.39.19.75.43,1.06.79Z"/>
      <path class="cls-30" d="m148.48,328.41c-.55-.01-1.38-.83-1.89-1.6-.14-.21-.28-.41-.43-.6.8.72,1.58,1.45,2.32,2.2Z"/>
      <path class="cls-10" d="m179.98,399.45c-1.24-.13-2.52-.35-3.43-1.21-8.69-8.26-20.13-10.43-30.89-14.12-1.35-.46-3.26-.52-3.28-2.41-.02-1.76,1.77-2.27,3.12-2.71,3.27-1.08,6.45-2.44,9.7-3.48,4.61-1.48,8.07-4.65,12.05-7,5.56-3.27,11.73-.87,12.25,5.83.57,7.27,2.48,13.97,5.42,20.52,1.08,2.41-1.45,4.63-4.94,4.57Z"/>
      <path class="cls-30" d="m158.47,326.31c-.27-.62-.37-1.3-.19-2.07-.15.77-.07,1.45.19,2.07Z"/>
      <path class="cls-30" d="m161.44,331.21c-.49-1.23-1.03-2.44-1.95-3.43-.07-.07-.14-.15-.2-.23.07.08.14.15.21.22.99.97,1.63,2.14,1.93,3.43Z"/>
      <path class="cls-30" d="m212.23,361.86c-1.16.58-2.32,1.16-3.48,1.74-1.24.47-2.6-.07-3.83.41-.03.01-.07.03-.1.04-1.22,0-2.43,0-3.65,0-1.88-.56-3.82-.05-5.72-.31-.11-.07-.22-.13-.33-.19-.11-.06-.22-.12-.33-.18-.93-.51-1.88-.92-2.85-1.25,0,0,0,0,0,0-.66-.22-1.32-.4-2-.53,0,0,0,0,0,0-1.4-.28-2.85-.37-4.35-.27-1.28-.07-2.62.07-3.65-.97.05-.59.04-1.13-.04-1.6.15.03.3.06.46.1.16.04.32.07.49.1.52-1.1.56-2.13.16-2.92,1.95,1.66,4.29,1.95,6.88,1.45,1.55-.3,2.96.14,4.14,1.13,3.19,2.67,6.73,3.66,10.56,3.45h.01c.97-.1,1.94-.19,2.91-.37.04,0,.09-.02.13-.03.55-.11,1.1-.26,1.66-.36.85-.26,1.67-.62,2.53-.84.02-.01.05-.02.07-.04.18.37.3.85.35,1.45Z"/>
      <path class="cls-30" d="m242.72,316.13c-.76,6.58-2.11,12.96-6,18.52l-.18-.16c-.4-.39-.72-.78-.96-1.17-.03-.06-.07-.11-.1-.17,0,0,0,0,0,0-.91-1.64-.47-3.31.94-4.99.6-.71,1.08-1.43,1.4-2.17h0c.64-1.47.62-3.03-.46-4.74.27-.53.79-1.08.76-1.59-.25-3.23,1.54-3.68,3.77-3.58.27.01.55.03.83.06Z"/>
      <path class="cls-30" d="m195.23,363.19c-.03.15-.06.28-.12.37-.05.08-.1.14-.17.17-.15.06-.34,0-.59-.17-3.05-.24-5.96-1.06-8.78-2.22.8-.35,1.59-.6,2.35-.73,2.16-.38,4.16.11,5.99,1.45.45.33.89.71,1.32,1.14Z"/>
      <path class="cls-30" d="m121.33,326.43c-.85.76-1.86,1.17-2.96,1.39.05-.65.14-1.24.29-1.69.26-.78.73-1.12,1.61-.58.3.19.65.47,1.06.89Z"/>
      <path class="cls-30" d="m110.33,331.64c-1.36,1.03-2.82,1.84-4.53,2.14.06-.71.28-1.3.75-1.73.2-.18.44-.33.73-.44.36-.19.72-.32,1.07-.38.45-.08.89-.04,1.34.11.21.07.43.17.64.3Z"/>
      <path class="cls-23" d="m201.17,364.05c-2.1.25-4.18.22-6.22-.33-.2-.05-.39-.11-.59-.17.14-.06.29-.12.43-.17.15-.06.3-.12.45-.18,1.98.28,4.03.06,5.93.86Z"/>
      <path class="cls-30" d="m112.54,330.16c-.41.98-1.57.85-2.21,1.48-.42,0-.85,0-1.27-.01-.45,0-.89,0-1.33-.01-.15,0-.3,0-.45,0,.47-.28.96-.5,1.46-.69,1.21-.45,2.49-.64,3.8-.76Z"/>
      <path class="cls-3" d="m134.7,324.08c-1.76.02-3.52.04-5.28.06,1.75-.98,3.51-1.07,5.28-.06Z"/>
      <path class="cls-23" d="m208.75,363.6c-1.23.87-2.58.67-3.93.45.03-.01.07-.03.1-.04,1.23-.5,2.51-.63,3.83-.41Z"/>
      <path class="cls-30" d="m75.51,332.32c-3.24-1.35-5.58-3.85-8.06-6.17-.24-.23-.48-.45-.72-.67,0-.19,0-.37,0-.56.33-.02.65-.02.95,0,3.68.18,5.6,2.46,6.98,5.38.31.65.59,1.33.86,2.02Z"/>
      <path d="m300.62,292.21h0c-.1.81-.26,1.61-.44,2.39-2.89,3.52-6.34,6.28-10.01,9.02-4.38,3.28-8.7,6.82-13.45,9.37-5.4,2.9-9.46,7.93-16,9.1-6.89,1.24-11.89,5.36-14.47,12.19-1.24,3.29-4.79,5.36-5.21,9.17-1.04.5-2.05,1.75-3.22.94-.11-.08-.23-.18-.35-.3-1.06-1.1.09-2.29.41-3.41.1-.33.21-.65.34-.97,0,0,0,0,0,0,.75-1.85,2-3.42,3.04-5.12,2.31-3.78,3.91-7.7,4.59-11.8,0-.01,0-.02,0-.03.55-3.35.49-6.82-.3-10.43-.43-1.97,1.39-4.45-1.37-5.88,0,0-.02-.02-.02-.03-1.47-1.89-.4-3.99-.47-5.99,0-.19-.02-.38-.05-.56,0-.17.02-.33.04-.48.05-.33.15-.63.32-.89.19-.29.48-.52.88-.68,1.18-4.21.26-8.54.67-12.79.77-2.39-.14-4.9.5-7.3.02-.07.04-.14.06-.2l.13.08c3.53-1.48,4.31-4.49,3.45-7.66-1.74-6.37.21-12.74-.45-19.06-.53-5.13,1.28-10.15.37-15.26-.18-1.03-.19-2.05.96-2.5,1.02-.4,1.61.33,2.05,1.1,2.35,4.08,6.1,6.6,9.89,9.15,2.74,1.85,5.47,3.83,6.58,7.23.29.88.88,1.78,1.8,1.53,3.17-.85,4.66,1.31,6.49,3.17,2.33,2.37,5.7,3.03,8.57,2.67,4.81-.6,8.58,2.87,13.21,2.41-4.55,3.65-8.58-1.69-13.29-.51,1.79,1.7,4.63,3.14,2,6.03-.49.54-1.09,1.38-1.64,1.38-7.36,0-7.6,7.46-11.4,11.14-1.46,1.41.22,4.34,2.1,5.71,3.87,2.79,8.07,4.22,12.79,2.01,3.03-1.42,6.59-2.26,9.13-.18,1.8,1.48,2.03,3.87,1.74,6.26Z"/>
      <path class="cls-30" d="m244.21,306.4s0,.02,0,.04c-.35,1.97.15,4.07-.85,5.94-.27,0-.55-.01-.82-.02-.08-.11-.16-.21-.23-.32-.21-.3-.4-.61-.56-.92h0c-1.75-3.27-1.1-6.81-.26-10.26.25-1.02,1.14-1.66,2.22-1.49.34.05.69.18,1.05.4.33,2.25-.31,4.42-.55,6.63Z"/>
      <path class="cls-30" d="m97.91,336.16c-3.68,1.28-7.46.41-11.2.54-.02,0-.03,0-.04,0h-.01.02s-.02,0-.02,0c-.3,0-.45-.06-.45-.21,0-.01,0-.02,0-.04,0-.04.01-.07.02-.1.03-.15.09-.22.15-.22,2.04-.52,4.08-1.05,6.12-1.57,1.23-.57,2.46-.57,3.7,0,.17.26.44.42.72.58.16.09.32.17.47.28.25.17.45.39.53.74Z"/>
      <path class="cls-30" d="m100.7,335.52c-.83.63-1.8.7-2.79.64-.4-.14-.75-.35-1.04-.61h0c-.1-.1-.2-.2-.29-.31-.15-.2-.29-.42-.39-.67,1.3.11,2.85-.99,3.94.09.21.2.39.48.56.86Z"/>
      <path class="cls-12" d="m13.68,36.39c-4.22,1.02-7.17,3.32-8.18,7.78-.2.89-.87,1.83-1.6,2.42-2.64,2.15-3.33,4.98-3.18,8.18-.2-.57-.46-1.12-.71-1.67.15.47.31.93.49,1.39.03.09.11.28.19.47.03,0,.07.02.1.03.07.02.14.03.21.05.08-.07.19-.12.25-.2.01-.01.02-.03.03-.04,3.09-6.51,5.64-13.41,12.57-17.1.31-.16.43-.52.5-.9.03-.14.04-.27.06-.41-.23.02-.47.02-.72.01Z"/>
      <path class="cls-9" d="m267.47,25.24c-.08-.03-.16-.06-.25-.08-7.34-2.42-14.86-3.19-22.59-3.03-10.56.22-21.12.09-31.68.11h0c-.48-.5-.96-.5-1.45-.01-10.04-.36-19.92-1.76-29.61-4.44-.27-.08-.54-.14-.82-.19h0c-2.95-.56-6.21.25-8.74-2.07,0,0,0,0,0,0h0v-.03c-3.07-1.37-6.62-.55-9.66-2.1-6.48-2.51-13.19-4.25-19.9-5.96-1.73-.42-3.45-.89-5.18-1.33-1.73-.44-3.46-.85-5.21-1.17-8.67-1.58-17.21-4.09-26.03-4.76-.43-.03-.86-.06-1.29-.08-1.66-.09-3.34-.11-5.02-.04-2.56.1-5.83-.14-6.66,2.74-.93,3.26,2.27,4.44,4.61,5.75,7.61,4.26,15.21,8.52,22.82,12.79.17.27.38.41.6.43.44,1.35,1.49,1.6,2.82,1.39,4.69,2.67,9.38,5.33,14.07,8,.99.83,4.14,3.28,4.75,3.65,1.05.63,2.18,1.14,3.43,1.45,2.94,2.47,5.88,4.95,8.82,7.42-.1.18,3.78,4.34,4.16,4.56.26.15.51.33.73.54,11.39,10.9,23.78,20.43,38.03,27.35,1.16.56,2.21,1.29,3.74,2.25-3.06-.05-5.48-.48-7.9-.79-2.64-.28-5.19.51-7.79.78-.76.08-1.52.11-2.29.06-.12,0-.23-.02-.35-.03-1.58-.34-3.17.03-4.75-.03-6.71-.23-12.42,3.34-18.69,4.73-7.95,1-15.91,1.9-23.92,1.76-.21,0-.42,0-.63-.01-1.02-.02-2.05-.07-3.08-.13-2.23-.18-4.36-.99-6.61-1.05-6.15,1.08-12.43,1.04-18.58,2.1-1.01.22-2.03.41-3.07.48-2.19.19-4.38.19-6.56.47-1.1.37-1.98,1.18-3.11,1.49-1.42.45-2.95.34-4.35.86-3,1.34-6.46,1.33-9.3,3.11-.13.08-.26.17-.39.26-.23.28-.43.56-.61.85-.53.85-.88,1.75-1.12,2.7t0,0c-.11.43-.19.86-.25,1.31h0c-.05.38-.09.76-.12,1.15,1.28,3.09,2.98,5.7,6.77,5.9.06-.07.11-.13.17-.2.16-.19.32-.37.49-.55,3.29-3.6,7.17-5.37,12.3-3.59.98.34,2.43.27,3.13-.64,2.86-3.71,6.74-2.87,10.52-2.62,3.98.26,8.03-.31,11.45-1.97,4.9-2.39,9.98-2.65,14.73-1.44,4.31,1.1,7.99,1.43,11.99-.52,1.62-.79,3.87-1.25,4.77,1.07.83,2.14.06,4.27-2.03,5.4-4.58,2.47-7.49,6.68-11.01,10.24-1.41,1.42-1.62,2.98-.25,4.59.06.04.12.07.18.11.25.14.48.22.7.26h0c.91.17,1.65-.36,2.34-1.1,1.83-2,4.02-3.6,6.13-5.24,3.63-2.83,6.95-6.12,11.2-8.1,1.16-.61,1.93-1.83,3.26-2.18,4.26-1.52,8.03-4.27,12.62-5.03,9.25-1.52,18.33-.57,27.41,1.39,3.67.79,7.29,2.26,11.18,1.5.22-.3.42-.6.59-.89.18-.31.34-.63.47-.94,1.03-2.46.47-4.9-1.11-7.36-1.65-2.57-3.84-4.96-3.89-8.23-.05-3.01-1.46-4.56-4.19-5.75-7.99-3.49-13.86-8.97-15.78-17.97-.44-2.06-.42-3.72.58-5.63,1.45-2.74-.16-6.65-2.93-6.64-1.18,0-2.22-.17-3.19-.47.83-.09,1.62-.43,2.25-1.04,3.69-3.6,7.12-2.92,10.97-.48,3.46,2.2,6.73,1.94,9.88-.7,3.07-2.57,6.41-3.85,10.47-3.81,4.54.04,9.06-1.14,13.26,2.11,1.54,1.19,3.84,1.21,4.54-1.21h0c.08-.28.14-.58.17-.92h0s0-.09.01-.13c-.16-.46-.4-.8-.85-.89,1.14-2.76,3.52-2.84,6.37-2.28,3.02.59,6.05,1.28,9.15,1.21.52,0,1.03-.04,1.55-.1.03,0,.05,0,.08,0,.11-.03.22-.07.32-.12.2-.09.39-.22.56-.37.04-.04.07-.09.1-.14.19-.26.34-.55.59-.71,2.12-1.38,4.08-2.16,6.98-2.02,3.27.16,6.49-.48,9.77.79.82.32,1.76.09,2.44-.58.39-.38.69-.91.83-1.57-2.76-1.87-6.21-2-9.08-3.61Zm-44.13,3.5c-4.48-.11-8.95-.51-13.37-1.29,4.46.36,8.94.65,13.37,1.29Zm7.44.23c-.44-.17-1-.26-1.75-.24-.25,0-.5,0-.75.01.89-.23,1.74-.37,2.5.22Z"/>
      <path class="cls-1" d="m86.51,283.8c-.07.2-.14.4-.21.6-.12-.14-.33-.27-.35-.42-.02-.19.12-.4.18-.61.12.14.25.28.38.43Z"/>
      <path class="cls-1" d="m107.17,257.11c0,.32-.19.64-.3.99-.28-.2-.61-.33-.61-.45,0-.34.04-.81.26-.99.44-.35.65.08.64.45Z"/>
      <path class="cls-1" d="m107.6,248.88c0,.5-.22.95-.82,1.06-.76-.18-.89-.81-.83-1.41.04-.41.36-1.12.59-1.13.99-.06,1.08.75,1.07,1.49Z"/>
      <path class="cls-1" d="m136.98,289.14c-.04.69-.42,1.19-1.17,1.08-.56-.08-.81-.56-.75-1.1.07-.55.46-.83,1-.88.56.04.95.33.92.9Z"/>
      <path class="cls-1" d="m138.26,276.52c-.29.12-.62.37-.87.31-.26-.07-.43-.44-.79-.85.51-.12.87-.33,1.1-.23.25.11.38.5.56.77Z"/>
      <path class="cls-1" d="m142.84,286.19c-.35,1.07-1.08,1.8-2.21,2.05-.52.12-1-.15-.98-.74.06-1.22.75-2,1.93-2.25.63-.13,1.17.12,1.26.94Z"/>
      <path class="cls-1" d="m170.13,305.65c-.5.02-.85.09-1.17.03-.17-.03-.31-.27-.46-.42.34-.06.69-.17,1.02-.15.17.01.32.27.61.53Z"/>
      <path class="cls-1" d="m161.24,310.88c-.72-.51-1.2-1.01-1.47-1.53.37,0,.75-.04,1.13-.15.06.56.24,1.15.34,1.68Z"/>
      <path class="cls-1" d="m170.85,332.35c-1.67-.31-3.66-.28-2.96-2.96.33,1.64,1.63,2.32,2.96,2.96Z"/>
      <path class="cls-1" d="m176.02,332.35c-1.13-.74-2.23-1.68-3.7-.74,1.48-.97,2.68-.6,3.7.74Z"/>
      <path class="cls-1" d="m178.52,333.68c-.68-.46-1.29-.91-1.76-1.33.45.18,1.15.24,1.32.56.14.27.29.53.45.77Z"/>
      <path class="cls-1" d="m182.84,325.81c-.06-.03-.12-.07-.17-.12.06.04.12.08.17.12Z"/>
      <path class="cls-1" d="m184.05,316.44c-.01.18-.2.35-.31.53-.09-.2-.25-.39-.24-.59,0-.18.19-.35.31-.54.09.21.25.41.24.6Z"/>
      <path class="cls-1" d="m120.59,225.75c-1.32,1.3-4.37,2.31-.74,4.44-.54-1.61.33-2.99.74-4.44Zm-2.4,17.92c.04-.32.07-.65.1-.98-.27-.87-.43-1.8-.48-2.79-.05-1-.17-2.27-.76-3.1-.13.51-.15,1.04-.02,1.58.83,3.46-.4,7.52,2.83,10.32.26-1.94-1.92-3.05-1.66-5.02Zm6.87,11.53c-.23-.29-.76-.47-1.51-.58.25.74.49,1.48.74,2.22.55-.48.83-.87.89-1.18-.03-.16-.07-.31-.12-.46Zm-.04,9.78c1.96.22,3.13-1.13,4.44-2.22-2.22-.75-2.99,1.41-4.44,2.22Zm11.83,0c-.98,1.53-2.36,1.03-3.7.74.9,1.11,2,1.76,3.41,1.1.83-.39.64-1.15.28-1.84Zm-18.48,45.15c-.32,0-.64.02-.94.06-.39-.03-.78,0-1.17.14.05.05.1.11.16.16.05.05.1.1.15.14.16.15.32.3.48.44.91-.19,1.85-.22,2.8-.21-.49-.25-.99-.49-1.48-.74Zm3.7.74c.21.54.4,1.03.58,1.47.52-.12,1-.34,1.37-.78-.53-.41-1.16-.66-1.95-.68Zm16.26-1.8c-.21.1-.4.23-.57.36-.78.63-1.19,1.57-1.72,2.4-.09.11-.18.23-.28.34-.38-.19-.76-.38-1.13-.57.04.41-.06.85-.14,1.29.19.04.38.1.57.16.03.01.06.02.1.03.79.26,1.58.54,2.43,0,.25-.99.49-1.97.74-2.96.16-.38.24-.73.27-1.06-.09,0-.18,0-.27,0Zm-48.56,3.79c-.08.08-.15.15-.23.23.11.1.23.18.34.25-.03-.16-.07-.32-.12-.47Zm21.21,4.67c-.35.79-.72,1.67-1.8,1.4-1.02-.26-.99-1.23-1.12-2.06-.28-1.82.63-3.98-1.52-5.26,1.07,2.17.48,4.56.95,6.81.22,1.05.88,1.71,1.97,1.87.02,0,.04,0,.07,0,.73-.17,1.54-.72,2.51-1.65-.05-.48-.51-.83-1.06-1.13Zm4.66-6.33s0,0,0-.01c-.03-.16-.06-.33-.08-.49-.03.02-.05.04-.08.06-.26.29-.53.57-.8.85h.74c.09-.04.19-.09.28-.12-.02-.09-.04-.19-.06-.28Zm-31.26-68.43c.42.02.83-.03,1.24-.12-.41.04-.83.08-1.24.12Zm.37-2.26c-1.15.19-2.31.31-3.47.11-.4-.02-.8-.1-1.2-.12-.04,0-.08,0-.12,0-.28,0-.55.03-.82.15-.12.06-.24.13-.36.22-.1.14-.2.29-.31.43.35.12.7.23,1.05.35.39.13.78.26,1.17.39.98,1.53,2.36,1.03,3.7.74,1.14-.79,2.48-1.03,3.61-2.03-1.08-.09-2.16-.31-3.24-.24Zm11.55-.26c-.2-.02-.39-.05-.59-.07-.07.37-.15.74-.25,1.11.42-.29.76-.6,1.02-.93-.06-.04-.12-.08-.18-.12Zm1.38-19.68c-.01.43.02.86.1,1.28-.04-.43-.07-.85-.1-1.28Zm.1,1.28c.29,3.05.93,6.05,1.38,9.09,1.48-3.31-.85-6.07-1.38-9.09Zm24.85-4.05c-2.79-2.4-5.79.47-8.64-.35-2.25-.67-4.5-1.23-6.87-1.17-1.96,1.13-4.01.86-6.06.44-.47.1-.94.2-1.4.32-.2.05-.39.11-.58.18.49.55,1.21,1.04,1.88,1.54.14.13.28.24.42.32,2.08.66,3.99-.12,5.91-.74,2.39-1.2,3.78,1.61,5.91,1.48,3.09.31,5.82-1.54,8.87-1.48-.25,1.73-.49,3.45-.74,5.18.81-.28,1.36-.59,1.71-.93-.01-.84.12-1.7.12-2.55,0-.77-.11-1.53-.53-2.26Zm13.11,35.11s-.08,0-.13.01c-.22.06-.43.12-.63.2-.22.08-.42.18-.61.29-.33.19-.62.41-.87.66.31.84.36,2.19.39,4.25,1.07-1.32.26-3.57,2.22-4.44-.17-.32-.29-.64-.37-.97Zm7.76,21.7c.03-.07.06-.14.08-.21,0,0,0-.02,0-.02.46-1.16.92-2.31,1.39-3.47-1.3.91-1.49,2.27-1.48,3.7Zm.27-11.38s0,0,0,0c-.06-.16-.15-.31-.27-.46,0,1.11-.02,2.22.47,3.23,0,0,0,0,0,0,.06.16.15.31.27.46,0-1.11.02-2.22-.47-3.23Zm-.27,18.04c-1.11,2.38.52,2.69,2.22,2.96-.91-.86-1.98-1.6-2.22-2.96Zm14.04,8.14c1.23-.25,2.46-.49,3.7-.74-1.48-.97-2.68-.6-3.7.74Zm5.91.74c1.62,1.01,3.42.67,5.17.74-1.62-1.01-3.42-.67-5.17-.74Zm11.82,0c-.43-.56-.87-1.1-1.36-1.57-.94.55-2.11.33-3.09.76.22.48.32.97.02,1.55,1.48-.25,2.96-.49,4.43-.74Zm2.22-2.96c-.2.12-.3.32-.35.56-.47.91-.73,1.99-1.87,2.4.25.06.46.1.65.12.02,0,.04,0,.06,0,2.13.19,1.18-1.93,1.51-3.09Zm5.17,2.96c1.48.9,2.96.9,4.43,0h-4.43Zm8.87,0c1.48.9,2.96.9,4.43,0h-4.43Zm3.2,49.35c-.15-1.05-.48-2.03-1.63-2.7-1.94-.89-4.04-1.03-6.11-1.37-1.52-.33-2.85,0-4.07.8,1.39.68,2.65,1.18,3.43,1.3,2.22.25,4.43.49,6.65.74.04.09.08.19.12.28,0,0,0,0,0,0,.49,1.1,1.08,1.99,1.79,2.66-.08-.57-.11-1.15-.19-1.72Zm17.19-55s-.08-.06-.13-.08c-.1-.06-.2-.13-.31-.18-.24.24-.49.49-.73.73.25.74.49,1.48.74,2.22.14-.16.23-.33.28-.5.29-.63.4-1.3.43-1.98-.09-.07-.19-.14-.29-.21Zm.43-1.01s.04.09.06.13c.05.1.1.2.15.3,0,0,0,0,0-.01.03-.06.05-.11.07-.17.36.14.71.09,1.07-.25h-1.35Zm-.16,33.96c-.81,1.22-.54,2.61.64,4.2.03.05.07.09.1.14.06-1.52-.37-2.92-.74-4.34Zm.74,4.34c-.01.33-.05.66-.11,1-.17.94-.19,1.95.04,2.87.1-.07.2-.15.31-.26,1.02-1,.55-2.49-.24-3.61Zm2.44-11.93c-.46.25-.91.54-1.34.88-.4.31-.79.67-1.16,1.07-.72,1.19-.8,2.56-1.07,3.87.1.6.24,1.18.39,1.77.33-.49.83-.95,1.51-1.39.25-1.23.49-2.47.74-3.7-.45-1,.32-1.57.78-2.26.05-.08.1-.16.15-.23Zm1.29-24.89c.01,1.76.04,3.53-.74,5.18,2.15-1.45,1.58-3.3.74-5.18Zm18.1-9.35h0s.07-.05.12-.08c-.12-.25-.33.16-.12.08Zm.14-.36c0,.09,0,.18-.02.27.05-.03.1-.08.17-.12-.04-.06-.09-.11-.15-.15Zm2.46.08h-2.22s-.07.05-.1.07c.14.2.16.48.1.74,0,.05-.02.1-.03.15.06.01.12.03.17.04.7.11,1.4.11,2.11-.03.13-.07.26-.14.38-.21.23-.14.46-.28.69-.43-.32-.18-.7-.28-1.12-.33Zm7.46-3.67c-.43-.06-.88.04-1.36.3-.12.06-.22.12-.32.18-.57.37-.93.86-1.18,1.4.63-.26,1.31-.42,2.06-.43.32-.11.63-.22.95-.33.39-.14.78-.27,1.17-.41-.41-.41-.85-.65-1.32-.71Zm-.19-29.82c.08.4.14.8.16,1.2.43-.16.89-.25,1.39-.28-.5-.53-1.01-.83-1.55-.93Zm1.75,1.57c0,8.7-.01,17.39-.02,26.09.42-8.7.39-17.39.02-26.09Zm-109.53,21.56c-.98,1.53-2.36,1.03-3.7.74.9,1.11,2,1.76,3.41,1.1.83-.39.64-1.15.28-1.84Zm-11.83,0c1.96.22,3.13-1.13,4.44-2.22-2.22-.75-2.99,1.41-4.44,2.22Zm.04-9.78c-.23-.29-.76-.47-1.51-.58.25.74.49,1.48.74,2.22.55-.48.83-.87.89-1.18-.03-.16-.07-.31-.12-.46Zm-2.99-36.86c-.25,1.73-.49,3.45-.74,5.18,1.18-1.59,1.68-3.28.74-5.18Zm-3.88,25.32c.04-.32.07-.65.1-.98-.27-.87-.43-1.8-.48-2.79-.05-1-.17-2.27-.76-3.1-.13.51-.15,1.04-.02,1.58.83,3.46-.4,7.52,2.83,10.32.26-1.94-1.92-3.05-1.66-5.02Zm2.4-17.92c-1.32,1.3-4.37,2.31-.74,4.44-.54-1.61.33-2.99.74-4.44Zm-7.76-6.15c-.63-.28-1.45-.23-1.79-.95-1.1-2.32-2.42-1.24-3.75-.3,2.39-1.2,3.78,1.61,5.91,1.48-.13-.06-.25-.14-.37-.23Z"/>
      <path class="cls-1" d="m91.57,241.94c.06.04.13.08.19.1-.06-.04-.13-.07-.19-.1Z"/>
      <path d="m320.43,240.6c-.29-.05-.61-.06-.97-.03-.1,0-.2-.03-.27-.09-.44-.37-.89-.59-1.33-.7h0c-1.36-.34-2.74.35-4.08.79-14.87,4.87-31.14,7.49-45.94.66h0c-2.69-1.31-4.99-2.91-6.89-4.86,0,0,0,0,0,0-2.01-2.06-3.57-4.51-4.7-7.42h0c-.23-.59-.44-1.2-.63-1.83h0s0,0,0,0c4.77-1.85,7.8-6.08,11.94-8.78.03-.02.06-.03.09-.04.73-.24,3.72-4.9,4.3-6.01h0c.56-2.67,4.42-4.81,3.32-13.85-1.65-13.61-6.41-17.94-7.97-21.61-.64-1.5-.36-2.79.38-4.19,2.03-3.83,4.72-7.11,8.05-9.86h0s0,0,0,0c.98-.99,1.96-1.97,2.94-2.96,0,0,0,0,0,0,1.15-.52,2.27-1.19,3.2-2.01h0c2.22-1.94,3.76-4.57,6.04-6.46.04-.04.08-.08.1-.14.68-1.6,2.51-2.7,2.47-4.6,0-.23-.04-.48-.1-.74-.03-.11,0-.23.07-.32,2.36-2.92,5.02-5.62,6.68-9.06.06-.12.17-.19.3-.21.37-.04.72-.1,1.03-.18h0c2.2-.5,2.91-2.17,2.38-4.31-.02-.08-.01-.16.02-.23,2.83-6.9,7.78-12.6,11-19.28h0c1.77-6.89,5.36-13.2,6.07-20.38,0-.01,0-.02,0-.03.06-1.66-.16-3.34-.39-5h0c-.27-1.94-.56-3.85-.43-5.72h0c.08-.95.24-1.92.27-2.85h0c.1-2.3-.15-4.5-.62-6.65h0c-.84-3.89-2.4-7.6-3.77-11.35-.35-.95-.76-1.85-1.22-2.7h0c-1.53-2.81-3.69-5.14-6.35-7.19,0,0,0,0,0,0-.52-.4-1.08-.79-1.6-1.19h0c-.79-.61-1.55-1.25-2.3-1.91h0c-3.45-3.06-6.54-6.58-10.09-9.55-2.35-1.98-5.54-2.63-7.51-5.11-.03-.04-.07-.07-.11-.09-.92-.52-1.83-1.03-2.75-1.55-.08-.04-.17-.06-.25-.04-.32.07-.64.2-.95.16-.57-.07-1.12-.11-1.64-.1-1.8.03-3.21.7-3.36,3.23-.17,2.85-1.75,6.22,3.05,7.22,2.57.54,3.89,2.24,3.41,4.75h0c-.06.34-.16.69-.29,1.06-.01.03-.02.07-.02.11-.07,1.29.9,2.19,1.71,3.07,5.94,6.58,11.41,13.47,14.18,22.09,0,.03.02.06.04.08,1.28,1.93,1.07,4.19,1.39,6.34,1.35,13.04-2.24,23.66-8.49,34.87-5.18,9.64-12.34,17.73-19.92,25.49-.02.02-.04.05-.06.08-1.84,3.5-4.37,6.48-6.89,9.47h0c-.86,1.02-1.72,2.04-2.54,3.08h0c-.05.06-.09.12-.14.17-.02.02-.03.05-.05.08-1.02,2.28-2.3,4.39-4.01,6.22,0,.03,0,.06-.01.1h0c-.15,1.01-.33,1.92-.56,2.71h0c-1.33,4.63-4.12,5.7-9.39,4.94-.05,0-.1,0-.14,0-1.09.27-2.15.59-2.64,1.76-.03.07-.03.15-.02.23,0,0,0,0,0,0,.05.22-.1.43-.32.46-.44.04-.87.09-1.31.13-.06,0-.12.03-.17.06-.55.37-1.05.72-1.78.92-.69.18-1.38.36-2.07.53,0,0,0,0-.01,0-2.25.56-4.51,1.08-6.75,1.65,0,0,0,0,0,0-1.83.47-3.65.97-5.45,1.57,0,0,0,0,0,0-.44.15-.88.3-1.32.45,0,0,0,0,0,0-1.15.41-2.28.86-3.39,1.38,0,0,0,0,0,0-1.36.62-2.77,1.29-4.24,1.65,0,0,0,0,0,0-1.16.28-2.36.37-3.63.11-.02,0-.05-.01-.07-.02-.44-.18-.64.05-.75.43,0,.03-.02.07-.04.1-1.02,1.66-2.46,2.25-4.34,1.71-.03,0-.07-.02-.11-.02-1.11.03-1.57,1.61-2.83,1.29-.06-.01-.12-.02-.18,0-1.04.22-2.22.09-2.91,1.17-.01.02-.02.04-.03.05-.33,1.53-.78,3.16-2.34,3.86-3.03,1.37-5.44,3.7-8.46,5.12-5.69,2.58-10.3,6.83-11.16,13.15,0,.05,0,.11.01.16.21.72.63,1.28,1.29,1.66.05.03.1.04.15.05.94.08,1.9.21,2.82.38h0c5.57,1.06,10.28,3.82,14.35,8.06,2.32,2.43,4.03,5.7,6.98,7.13,0,0,.01,0,.02,0,2.86,1.47,5.44,2.98,7.13,5.67.04.06.1.11.17.14,1.05.45,2.1.92,3.26.35.03-.01.05-.03.07-.05,1.03-.81,1.92-2.01,3.43-1.61,3.23.81,6.63,1.02,9.83,1.92h0c1.85.52,3.62,1.28,5.2,2.44.06.05.14.07.21.07.48,0,.92-.08,1.28-.32,0,0,0,0,0,0,.18-.12.33-.28.47-.49.08-.13.22-.2.37-.17,2.59.47,5.91-1.32,7.45.54,1.46,1.75,1.04,5.1,1.38,7.75.21,1.67.31,3.35.46,5.02,0,.05.02.11.05.15.1.18.15.37.16.57,0,8.69-.01,17.38-.02,26.07,0,0,0,.02,0,.03-.05.72-.11,1.44-.16,2.16-.02.28-.33.44-.56.29-.07-.04-.14-.08-.21-.12-.26-.13-.56.08-.54.37,0,.06.01.11.01.17,0,.01,0,.03,0,.04.35,1.59-.59,3.26.29,4.81.04.06.09.12.16.15.24.12.47.22.7.3,0,0,0,0,0,0,.03.01.05.02.08.03,2.78,1.01,4.77-.41,5.42-4.03.58-3.14-.85-6.09-.82-9.14.07-6.63.51-13.24.49-19.88,0-2.01.03-4.23,1.07-6.74.11-.27.48-.31.65-.07,2.59,3.66,6.36,5.21,9.43,7.67,1.25,1,2.69,1.99,3.42,3.32,1.71,3.17,3.62,5.68,7.65,5.74,1.06.02,1.72,1.3,2.55,2.02,2.5,2.2,5.22,3.01,8.33,2.49.28-.05.49.22.41.48-.52,1.68,2.61,5.08-1,5.35-1.83.17-2.63,1.49-3.66,2.76-1.94,2.39-3.43,5.1-5.39,7.46-7.14,8.74,7.36,16.19,14.83,13.04,1.15-.43,2.26-.99,3.48-1.19,3.31-.55,4.76.48,5.54,3.75.18.77.08,1.68.3,2.44h0c.15.52.46.98,1.12,1.28.12.05.26.04.36-.03.66-.44,1.33-.89,2-1.33.04-.02.07-.05.09-.09.85-1.17,1.7-2.29,2.78-3.29,1.79-1.65,3.42-3.49,4.94-5.39.72-.9,1.37-2.87-.43-2.8-2.54.1-5.49-1-7.68,1.15-1.28,1.25-2.43,1.33-3.6.79-.44-.21-.84-.48-1.24-.79t0,0h0c-10.57-2.18-9.15,3.02-16.21-.34-1-.45-1.79-1.86-.46-2.1,4.35-.79,6.17-5.1,10-6.61,2.69-1.06,6.3-2.25,7.36-4.42,2.18-4.47,6.22-6.11,9.68-8.71h0c4.83-5.78,10.1-11.22,14.06-17.68.02-.04.04-.09.05-.13,0-.03,0-.05.01-.08.01-.08,0-.16-.04-.23-.28-.53-.57-1.05-.86-1.57-.06-.1-.15-.17-.26-.19Z"/>
      <path class="cls-30" d="m120.59,225.75c-.92,1.37-2.71,2.59-.74,4.44-.54-1.61.33-2.99.74-4.44Zm-2.4,17.92c.04-.32.07-.65.1-.98.18-2.52-.1-5.08.46-7.56-.34.08-.69.15-1.03.24-.31.45-.55.92-.68,1.42-.13.51-.15,1.04-.02,1.58.83,3.46-.4,7.52,2.83,10.32.26-1.94-1.92-3.05-1.66-5.02Zm4.97-23.62c0-.77-.11-1.53-.53-2.26-2.79-2.4-5.79.47-8.64-.35-2.25-.67-4.5-1.23-6.87-1.17-1.96,1.13-4.01.86-6.06.44-.47.1-.94.2-1.4.32.41.7.85,1.31,1.3,1.72.14.13.28.24.42.32,2.08.66,3.99-.12,5.91-.74,1.33-.94,2.65-2.02,3.75.3.34.72,1.16.68,1.79.95.14.06.26.13.37.23,3.09.31,5.82-1.54,8.87-1.48.94,1.9.44,3.59-.74,5.18.81-.28,1.36-.59,1.71-.93.77-.74.61-1.62.12-2.55Zm1.9,35.15c-.23-.29-.76-.47-1.51-.58.74.58,1.72,1.07.74,2.22.55-.48.83-.87.89-1.18.03-.17,0-.33-.12-.46Zm-.04,9.78c1.82-.06,2.53-2.33,4.44-2.22-2.22-.75-2.99,1.41-4.44,2.22Zm8.13.74c1.43.73,3.09,2.62,3.7-.74-.98,1.53-2.36,1.03-3.7.74Zm-24.42-99.21c-.5-.24-1.03-.31-1.56-.37h0c-.23-.02-.47-.05-.7-.08-2.67.38-3.31,2.83-4.28,4.64-2.62,4.85-5.12,9.76-7.79,14.57,0,0,0,.02-.01.02-1.8,3.25-3.68,6.45-5.72,9.56-.5.76-.93,1.52-.98,2.36-.02.41.04.84.25,1.3.02.03.03.07.05.1.08.07.16.14.23.21.12-.18.25-.37.37-.55.4-2.26,2.1-3.78,3.19-5.65,4.9-8.46,9.79-16.93,14.69-25.4.77.01,1.54.02,2.31.03.05-.29.04-.55-.04-.76Zm25.63,86.9c-.33.19-.62.41-.87.66.31.84.36,2.19.39,4.25.26-1.68.76-3.43.48-4.91Zm1.37-.5s-.08,0-.13.01c-.22.06-.43.12-.63.2.32.29.69.54,1.13.76-.17-.32-.29-.64-.37-.97Zm8.03,10.32c.32.87-.12,1.89.2,2.77,0,0,0,0,0,0,.06.16.15.31.27.46,0-1.11.02-2.22-.47-3.23Zm-.27,18.04c-1,2.29,1.16,2.22,2.22,2.96-.91-.86-1.98-1.6-2.22-2.96Zm.09-6.89c.46-1.16.92-2.31,1.39-3.47-.98.95-.96,2.3-1.39,3.47Zm13.95,15.03c1.13-.75,2.23-1.68,3.7-.74-1.48-.97-2.68-.6-3.7.74Zm5.91.74c1.62.98,3.55-.24,5.17.74-1.62-1.01-3.42-.67-5.17-.74Zm10.46-1.57c-1.01-.97-2.2-1.65-3.83-1.67-.18.97.41,1.69.74,2.43.22.48.32.97.02,1.55,1.28-1.41,2.66-2.29,4.43-.74-.43-.56-.87-1.1-1.36-1.57Zm3.24-.83c-.47.91-.73,1.99-1.87,2.4.25.06.46.1.65.12.02,0,.04,0,.06,0,1.67.12.97-1.54,1.17-2.52Zm5.52,2.4c1.48.58,2.96.58,4.43,0h-4.43Zm8.87,0c1.48.58,2.96.58,4.43,0h-4.43Zm20.69-6.66l-.75.75c-.24.24-.49.49-.73.73.33-.15.7-.25,1.03-.4.05-.02.1-.04.14-.07.11-.06.21-.12.3-.2.13-.1.25-.23.34-.39,0,0,0,0,0-.01.03-.06.05-.11.07-.17.03-.08.05-.16.06-.25h-.48Zm22.15-54.16c-1.57-.89-3.28-1.31-5.04-1.48h0c-.25-.03-.51-.05-.77-.06-3.8-.25-4.62.41-5.72,4.09-.74,2.47-1.64,4.88-2.66,7.25-1.59,3.67-3.62,6.95-5.97,9.95,0,0,0,.01-.01.02-3.19,4.07-6.97,7.64-11.02,10.99,0,0-.01,0-.02.02-1.03.85-2.07,1.69-3.13,2.51-5.89,4.59-12.62,6.92-19.89,7.97-2.77.19-5.53.17-8.3.01-5.54.05-10.49-2.31-15.68-3.74-6.35-1.76-10.17-6.01-12.49-11.99-3.61-9.3-6.44-18.84-8.64-28.56-1.57-6.94-5.18-12.38-11.26-16.14-.33-.22-.65-.45-.96-.68-.44-.34-.87-.7-1.29-1.07.16.39.42.78.66,1.16.26.42.43.88.63,1.33,6.85,5.33,10.1,12.55,11.72,20.95,1.58,8.19,4.5,16.05,7.46,23.85,1.53,4.05,3.44,8.32,7.42,10.2,6.96,3.29,14.2,6.1,22.05,6.62,3.04,1,6.07.93,9.11.01,1.21-.2,2.44-.29,3.61-.62,18.46-5.2,31.49-16.97,38.41-34.55,2.29-5.82,4.61-8.75,9.95-8.31.72.36,1.41.79,2.09,1.29.53.02,1.01-.06,1.4-.32.24-.16.44-.39.59-.71h-2.24Zm10.24,12.52c.08.4.14.8.16,1.2.43-.16.89-.25,1.39-.28-.5-.53-1.01-.83-1.55-.93Z"/>
      <path class="cls-30" d="m258.45,159.22c-1.6.53-2.54,1.83-3.57,3.06-1.3,1.54-2.77,1.38-4.16.12-1.45-1.32-2.09-3.08-.44-4.45,3.25-2.71,5.54-6.14,7.94-9.54.83-1.18,1.94-3.05,3.81-1.81,1.62,1.07,1,2.78.35,4.32-.32.77-.38,1.65-.55,2.49-1.13,1.94-2.26,3.87-3.38,5.81Z"/>
      <path class="cls-21" d="m246.35,269.51c0-8.7.01-17.39.02-26.09,1.13,8.7.86,17.39-.02,26.09Z"/>
      <path class="cls-17" d="m300.25,90.33c.02-3.99.05-7.97.07-11.96,1.28,3.99.77,7.98-.07,11.96Z"/>
      <path class="cls-30" d="m255.13,32.65c-.7,2.7-1.67,5.07-4.79,5.92-1.69.46-1.43,1.84-.52,2.94,1.18,1.42,2.59,2.65,3.74,4.09,1.79,2.25,2.16,4.45-.77,6.17-2.23-3.74-4.87-7.12-8.16-10.03-1.58-1.4-3.05-2.83-5.11-3.48-1.16-.6-.98-1.85-1.38-2.82-.22-.23-.43-.47-.65-.7-.9-1.36-2.84-1.49-3.77-3.43,7.4-2.36,14.38,0,21.41,1.35Z"/>
      <path class="cls-9" d="m232.93,34.04c-1.07-3.35-3.19-4.09-6.71-3.83-9.29.68-18.12-1.78-26.88-4.74-6.85-2.31-14.1-2.88-21.31-3.28-5.21-.28-10.05-1.84-14.57-4.43,1.2.24,2.48.3,3.6.75,8.89,3.59,18.53,2.77,27.71,4.69,4.9,1.02,9.63,2.87,14.75,3.05,3.43.12,6.83.97,10.1-.77.41-.22,1.14-.44,1.38-.24,3.03,2.47,6.57,2.34,10.16,2.27,1.47-.03,2.16.94,2.01,2.48-.13,1.35-.16,2.7-.23,4.05Z"/>
      <path class="cls-8" d="m57.34,102.7c-.41-.63-.9-1.21-1.42-1.76,0,0,0,0,0,0-1.26-1.32-2.73-2.48-3.88-3.86-10.11-12.12-21.59-22.59-36.07-29.34-.06-.03-.11-.05-.17-.08-.25-.21-.5-.41-.75-.62-4.68-3.72-10.21-6.48-13.31-11.98-.08-.15-.28-.21-.5-.25-.17-.03-.36-.04-.52-.06-.2-.57-.46-1.12-.71-1.67.15.47.31.93.49,1.39.03.09.11.28.19.47.03,0,.07.02.1.03.12.42.27.82.43,1.22.26.56.53,1.11.81,1.66.76,1.33,1.74,2.52,2.91,3.63,3.02,2.86,6.74,4.71,10.01,7.21,4.86,2.51,9.76,5,14.1,8.33,3.48,2.67,6.32,6.2,9.85,8.78,6.84,4.98,11.29,12.17,17.21,17.97.49.48.66,1.3.98,1.96-.16.77-.32,1.53-.47,2.3h0c-.38.26-.73.56-1.04.91-.33.57-.47,1.15-.22,1.72.05.12.13.25.22.37.04-.08.08-.17.12-.25.2-.42.4-.83.61-1.25.31-.51.72-.94,1.11-1.39.1-.11.19-.22.29-.34.21-.25.4-.52.55-.81.14-.26.25-.54.32-.85-.13-1.34-.58-2.44-1.21-3.42,0,0,0,0,0,0Z"/>
      <path class="cls-24" d="m54.76,117.66c-.01,5.21-.03,10.42-.04,15.63,0,1.96,0,3.93-.01,5.89-.8-1.69-.49-3.51-.64-5.28-.01-.14-.03-.27-.05-.41,0,0,0,0,0,0-.01-.1-.03-.19-.04-.29h0c.34-5.17-.58-10.41.78-15.53,0,0,0,0,0-.01Z"/>
      <path d="m103.9,165.92c-1.41,1.51-2.58,3.21-3.42,5.11-1.2,1.21-.74,2.76-.83,4.19-1.86,3.29-3.53,6.68-5.24,10.05,0,0,0,.02-.01.02-2.06,4.07-4.17,8.11-6.7,11.92-.29.44-.59.88-.9,1.32-.36.51-.74,1.02-1.1,1.55,0,0,0,0,0,0-1.06,1.55-1.99,3.22-1.83,5.22.03.38.1.77.21,1.18.1.38.09.77.02,1.15-.34,1.34-1.07,2.46-2.01,3.45-.39.33-.82.51-1.28.58-.29.04-.6.05-.91.01-3.33-.47-3.92,2.89-5.94,4.25-.88.6-1.56,2.11-2.66,1.63-1.49-.66-.18-1.9.04-2.85.6-2.53-.63-4.03-2.76-4.91-2.5-1.04-2.35-2.31-1.72-4.86,1.43-5.72,4.04-10.95,5.89-16.48.79-2.36,1.76-4.58,3.5-6.39,1.61-.89,3.23-1.77,4.33-3.1.34-.41.63-.86.85-1.37,0,0,0,0,0,0,.28-.64.45-1.37.49-2.22.04-.81.72-1.18,1.4-1.52.32-.16.58-.39.76-.64,0,0,0,0,0,0,.04-.06.08-.12.12-.18t0,0s0,0,0,0c.31-.56.3-1.2-.14-1.58-2.2-1.91-1.12-4.54-1.77-6.75,0,0,0,0,0,0-.04-.13-.08-.25-.13-.37-1.38-.91-2.57-1.98-2.96-3.7-1.44-.87-2.52-2.03-2.96-3.7-.25-.49-.49-.99-.74-1.48-.64-.91-.55-1.88.14-2.61,1.56-1.66.39-2.47-.88-3.31-2.18-.53-3.11-2.18-3.62-4.15-.43-1.67-1.29-2.85-3.04-3.25-1.87,1.75-3.67,1.61-4.65-.74-1.19-2.85-3.1-5.29-4.22-8.15.19-.94.68-1.69,1.48-2.22.91-1.09,1.28-2.35,1.1-3.76-.21-1.64.37-2.87,1.85-3.64,1.42-.01,2.57-.73,3.7-1.48.54-.96.66-2.13,1.48-2.96.74-.25,1.48-.49,2.22-.74.54-.06,1.08-.12,1.62-.18,4.59-.45,9.1-.37,12.81,3.18,1.01.96,2.08,1.53,3.3,1.84h0c.16.04.32.08.49.12.04,0,.08.02.13.02.1.02.19.04.29.05.31.27.6.55.88.84,1.98,2.01,3.42,4.38,4.57,6.97.06.12.11.25.16.37.17.34.33.68.48,1.03.44.98.83,1.99,1.11,3.03.29,2.72-.19,5.33-1.01,7.91-.2.32-.37.62-.49.91,0,0,0,0,0,0-.52,1.21-.41,2.24.13,3.23h0c.38.7.96,1.38,1.69,2.09.22.21.43.43.65.64,0,0,0,0,0,0,1.49,1.47,2.94,2.94,4.67,4.13.08.06.15.11.23.16.1.07.2.14.31.2.04.09.07.18.1.27h0c.32.96.4,2.09,1.14,2.72,3.46,2.92,1.97,5.41-.43,7.97Z"/>
      <path class="cls-6" d="m93.9,131.78c-1.67-2.39-2.5-5.29-4.58-7.43-.11-.36-.07-.69.13-1.01,3.43-.94,3.21-2.28.87-4.59-2.03-2-3.81-4.16-6.75-4.8-.24-.05-.55-.16-.64-.34-2.34-4.93-7.76-7.22-10.23-12.01-.51-.99-1.1-1.92-1.83-2.75-.8-.9-1.49-2.18-2.96-1.71-1.3.41-1.71,1.69-2.04,2.88-.38,1.37.28,2.38,1.31,3.19.69.54,1.5.79,2.32,1.08,1.92.69,6.26,10.95,5.5,12.89-.04.1-.19.14-.29.22-.78.25-1.46.19-1.94-.57-1.7-.74-2.99-1.87-3.96-3.5-1.55-2.59-3.57-4.83-5.94-6.72-2.6-.7-4.34-2.42-6-4.51-2.9-3.65-5.98-7.17-9-10.74-2.75-3.24-2.72-4.38.24-7.55,2.19-2.33,4.54-4.5,6.63-6.93,2.11-2.44,3.47-2.53,5.87-.38,4.85,4.35,9.3,9.11,13.56,14.04,2.14,2.47,4.92,4.49,5.78,7.91,1.44,2.02,3.25,3.69,5.15,5.27,1.73-.54,2.8.54,3.82,1.61,8.73,9.13,17.4,18.32,26.01,27.58.95,1.02,1.7,2.14.97,3.64-5.48,3.39-9.9,2.65-13.5-2.46-1.28-1.81-2.79-2.33-4.76-1.79-1.36.38-2.63.74-3.72-.53Z"/>
      <path class="cls-15" d="m81.43,93.45c-.82,1.57-1.36,3.23-1.5,5.01-.44-.38-.88-.77-1.31-1.17h0c-6.29-5.75-11.56-12.49-17.68-18.41-3.22-3.12-3.13-3.18-5.73.28-1.56,2.08-3.47,3.81-5.43,5.5-2.99,2.58-2.93,2.98-.44,5.89,4.21,4.92,8.35,9.91,12.51,14.88h0c.33.39.66.79.99,1.18-1.73.72-3.46,1.43-5.2,2.15-.14-.2-.22-.41-.26-.63-.03-.19-.04-.38-.03-.57.02-.61.12-1.24-.25-1.77-.01-.02-.03-.04-.05-.06-.32-.66-.49-1.47-.98-1.96-5.92-5.8-10.37-12.98-17.21-17.97-3.54-2.58-6.37-6.1-9.85-8.78-4.33-3.33-9.24-5.82-14.1-8.33-.22-.71-.14-1.23.11-1.64.26-.44.72-.76,1.19-1.07.23-.15.47-.29.69-.45.08-.03.16-.06.24-.09,2.21-.72,3.1,1.64,4.75,2.23.05.03.09.06.14.08.35.21.71.4,1.07.57.02.01.05.02.08.04.8.38,1.63.71,2.44,1.09.06.03.12.06.18.08,0,0,0,0,0,0,.22.11.44.21.66.33.06.03.11.06.17.09,4.68,1.76,8.61,4.63,12.2,8.07,1.65,1.59,3.44,3.56,6.08,2.51,3.24-1.3,5.35-3.96,6.5-7.14.67-1.86-1.16-3.04-2.25-4.35-2.42-2.91-5.6-5.39-5.82-9.62,0-.08,0-.16-.01-.24.03-.14.06-.27.11-.39.05-.15.12-.3.19-.44.04-.07.08-.14.12-.21.04-.04.08-.08.12-.12.42-.42.92-.66,1.44-.82.25-.08.51-.14.78-.19.25-.05.5-.1.75-.15,3.58,1.39,5.59,4.73,7.95,7.31,7.53,8.24,15.04,16.49,22.59,24.71,1.08,1.18,2.77,1.86,3.59,3.28.21.37.37.79.44,1.29Z"/>
      <path class="cls-30" d="m88.22,198.84c-1.45,2.16-2.91,4.32-4.36,6.48.03.38.1.77.21,1.18.1.38.09.77.02,1.15-.34,1.34-1.07,2.46-2.01,3.45-.39.33-.82.51-1.28.58-.29.04-.6.05-.91.01.14-.21.27-.41.41-.62.15-.23.3-.45.44-.68.32-1.26.66-2.5,1.95-3.14.11-.23.22-.46.33-.69.69-2.29,1.13-4.75,2.67-6.46,0,0,0,0,0,0,.57-.64,1.3-1.18,2.25-1.57.21-.09.42-.16.65-.23-.12.18-.25.37-.37.55Z"/>
      <path class="cls-30" d="m101.37,219.09c-.14-.09-.28-.19-.42-.32.14.11.28.21.42.32Z"/>
      <path class="cls-1" d="m246.18,242.78c-.5.03-.97.12-1.39.28-.02-.41-.08-.81-.16-1.2.54.09,1.05.4,1.55.93-.15-1.7-.25-3.41-.47-5.11-.34-2.65.08-6-1.38-7.75-1.6-1.91-5.08.05-7.7-.59-.15.32-.35.55-.59.71-.39.26-.87.34-1.4.32-.67-.5-1.37-.93-2.09-1.29-5.34-.44-7.66,2.49-9.95,8.31-6.93,17.57-19.95,29.34-38.41,34.55-1.17.33-2.4.42-3.61.62-3.04.91-6.08.99-9.11-.01-7.85-.52-15.09-3.33-22.05-6.62-3.98-1.88-5.89-6.15-7.42-10.2-2.95-7.8-5.88-15.66-7.46-23.85-1.62-8.39-4.87-15.61-11.72-20.95-.19-.45-.37-.91-.63-1.33-.24-.38-.49-.76-.66-1.16h0c-1.93-1.71-3.66-3.65-5.92-5.02-11.9-7.21-14.73-19.61-7.35-31.37.39-.63.75-1.27,1.1-1.92.73-1.35.68-2.59-.61-3.6,0,0-.02,0-.02-.01.08.21.09.47.04.76-.77-.01-1.54-.02-2.31-.03-4.9,8.47-9.79,16.93-14.69,25.4-1.08,1.87-2.79,3.39-3.19,5.65-.12.18-.25.37-.37.55-1.45,2.16-2.91,4.32-4.36,6.48.03.38.1.77.21,1.18.1.38.09.77.02,1.15-.34,1.34-1.07,2.46-2.01,3.45-.39.33-.82.51-1.28.58-.29.04-.6.05-.91.01-1.59,4.76-4.93,8.63-6.77,13.26-1.64,2.37-3.35,4.7-4.35,7.44-8.41,13.87-12.19,29.18-14.06,45.1,0,5.73,0,11.46,0,17.19.57,6.52,1.8,12.89,4.22,18.98.09-.02.19-.03.28-.05.29,0,.55.03.79.09,1.83.43,2.33,2.34,3.25,3.67,1.59,2.28,3.37,4.47,4.38,7.11.02.15.03.29.04.44,3.68.18,5.6,2.46,6.98,5.38.48.17,1,.28,1.56.32.95.49,1.52,1.44,2.4,2.01.1.07.2.14.29.21,2.17-.99,3.39.92,4.65,2.7.81.84,1.86.5,2.83.6,2.04-.52,4.08-1.05,6.12-1.57,1.23-.82,2.46-.82,3.7,0,1.3.11,2.85-.99,3.94.09.19-.04.38-.08.57-.13.2.03.39.07.57.14.83-1.25,1.97-2.09,3.51-2.35.61-.05,1.2-.13,1.77-.27.2-.18.44-.33.73-.44.47-.28.96-.5,1.46-.69.21-.19.42-.4.6-.65.66-.85,1.49-1.48,2.52-1.81,2.01-.52,3.72-1.85,5.79-2.24.34-.02.67-.04.99-.1.26-.78.73-1.12,1.61-.58.25-.16.49-.37.71-.62,1.14-.85,2.4-1.37,3.81-1.5.11-.01.23-.02.34-.03.22.06.44.1.65.1,1.38.04,2.46-1.07,3.77-1.27,1.56.09,3.12.19,4.63.66,6.66.69,10.93,5.31,15.52,9.44,4.61,4.14,7.7,9.47,11.56,14.18,5.31,6.47,12.39,10.49,20.63,12.24h0c.15.03.3.06.46.1.16.04.32.07.49.1.52-1.1.56-2.13.16-2.92,1.95,1.66,4.29,1.95,6.88,1.45,1.55-.3,2.96.14,4.14,1.13,3.19,2.67,6.73,3.66,10.56,3.45h.01c.97-.1,1.94-.19,2.91-.37.04,0,.09-.02.13-.03.55-.11,1.1-.26,1.66-.36.85-.26,1.67-.62,2.53-.84.02-.01.05-.02.07-.04,5.34-2.95,9.1-7.58,12.92-12.16,3.2-3.84,5.55-8.38,9.47-11.64.55-.45.72-1.05.83-1.67-.98.34-1.95.6-2.7-.28-1.16-1.36.39-2.75.97-3.99.91-1.99,2.15-3.83,3.24-5.73.1-.15.19-.31.27-.46h0c.32-.88-.12-1.9.21-2.78h0c.06-.16.15-.32.27-.46.27-.53.79-1.08.76-1.59-.25-3.23,1.54-3.68,3.77-3.58.04-.06.09-.12.13-.18.23-.18.48-.3.75-.36-.72-.83-.7-1.89-.57-2.97.02-.07.03-.13.04-.2.02-.11.04-.21.06-.32-.21-.3-.4-.61-.56-.92h0c-1.75-3.27-1.1-6.81-.26-10.26.25-1.02,1.14-1.66,2.22-1.49.05-.33.15-.63.32-.89.19-.29.48-.52.88-.68,1.18-4.21.26-8.54.67-12.79-.22-2.46-.29-4.91.49-7.3-.26-.1-.53-.21-.8-.35-.91-1.46-.13-3.04-.29-4.55-.32.11-.63.22-.95.33-.63,1.47-1.26,2.94-1.89,4.42,0,0,0,0,0,0-.07.25-.18.51-.33.76-.07-.95-.4-1.41-.85-1.6.14-.3.24-.62.33-.94.21-.74.36-1.52.68-2.21.25-.54.61-1.03,1.18-1.4.1-.07.21-.13.32-.18.48-.26.93-.36,1.36-.3.47.06.9.31,1.32.71.07-.96.14-1.92.21-2.88,0-8.7.01-17.39.02-26.09,0-.23-.07-.45-.2-.64Zm-159.05-8.14c.23.22.46.43.81.76-.3.24-.6.61-.71.56-.27-.12-.56-.41-.63-.69-.04-.16.34-.42.52-.63Zm-.82,49.75c-.12-.14-.33-.27-.35-.42-.02-.19.12-.4.18-.61.12.14.25.28.38.43-.07.2-.14.4-.21.6Zm-1.93-41.62c.41-.04.83-.08,1.24-.12-.41.09-.82.14-1.24.12-1.34.29-2.72.79-3.7-.74-.39-.13-.78-.26-1.17-.39-.35-.12-.7-.23-1.05-.35.1-.14.21-.28.31-.43.12-.09.24-.16.36-.22.35-.26.63-.31.85-.2.03.01.06.03.09.06.4.02.81.1,1.2.12,1.16.2,2.32.09,3.47-.11,1.08-.07,2.16.15,3.24.24-1.13,1-2.48,1.24-3.61,2.03Zm5.17,70.32c.08-.08.15-.15.23-.23.04.16.08.31.12.47-.12-.07-.23-.15-.34-.25Zm35.51-57.89c.11.13.15.28.12.46-.06.31-.34.7-.89,1.18-.25-.74-.49-1.48-.74-2.22.75.11,1.29.3,1.51.58Zm-27.38-34.64c.02.43.06.85.1,1.28.52,3.02,2.86,5.78,1.38,9.09-.45-3.03-1.09-6.03-1.38-9.09-.07-.42-.11-.85-.1-1.28Zm1.48,97.57c-.11.17-.2.34-.33.47-.04.04-.28-.04-.28-.07-.02-.18.01-.37.03-.56.19.05.38.1.58.16Zm-1.24-72.23c-.19.86-.33,1.69-.02,2.52.91,2.48-.58,2.8-2.42,3.24-.14-1.79,1.03-2.54,1.49-3.6.31-.71.66-1.43.95-2.16Zm-2.2-5.72c.2.02.39.04.59.07.06.04.12.08.18.12-.26.33-.6.63-1.02.93.1-.37.18-.74.25-1.11Zm7.21,84.14c-2.93.39-5.29,1.5-6.3,4.16h0c.02.56-.06,1.12-.42,1.64-.64,1.98-1.84,2.56-3.7,1.48,1.42-.01,2.57-.73,3.7-1.48-.03-1.05.09-1.99.34-2.8h0c0-.14-.01-.29,0-.43.02-.84.25-1.36,1.1-1.58,1.5-1.72,4.12-2.28,7.52-1.49,0,0,0,0,0,0,.45.07.91.19,1.38.38-1.21.04-2.43-.03-3.62.13Zm3.86-74.39c-.76-.18-.89-.81-.83-1.41.04-.41.36-1.12.59-1.13.99-.06,1.08.75,1.07,1.49,0,.5-.22.95-.82,1.06Zm.39,7.17c0,.32-.19.64-.3.99-.28-.2-.61-.33-.61-.45,0-.34.04-.81.26-.99.44-.35.65.08.64.45Zm.85,67.09h3.7c-1.23.82-2.46.82-3.7,0Zm3.72-4.66c-.54.76-1.37.88-2.22.77-.02,0-.04,0-.07,0-1.08-.16-1.75-.82-1.97-1.87-.46-2.25.13-4.65-.95-6.81,2.15,1.27,1.24,3.44,1.52,5.26.13.83.1,1.8,1.12,2.06,1.08.27,1.44-.61,1.8-1.4.54.3,1.01.64,1.06,1.13.03.25-.05.54-.29.88Zm0-85.57c-.35-1.3-.93-2.51-2.54-4.12,1.87.59,1.83,1.27,1.96,1.84.72,3.1,1.53,4.33,3.54,4.28-.03,0-.07.01-.1.02-2.05.37-2.46-.57-2.86-2.02Zm7.24,84.68c-1.01-.49-1.88-.64-2.66-.53,1.34-.71,2.37-1.76,3.09.7-.15-.04-.29-.1-.44-.16Zm-1.94-7.58c-.46.09-.91.23-1.36.41-.09.04-.19.08-.28.12h-.74c.27-.28.53-.56.8-.85.03-.02.05-.04.08-.06-.08-.53-.11-1.07-.14-1.62.16.38.4.74.69,1.07.05.06.11.12.16.17.39-.14.78-.17,1.17-.14.3-.04.62-.06.94-.06.49.25.99.49,1.48.74-.95-.02-1.89.02-2.8.21Zm2.8-62.38c-3.23-2.79-1.99-6.86-2.83-10.32-.13-.54-.11-1.07.02-1.58-.37-.51-.91-.86-1.72-.87.63-.08,1.37-.25,2.23-.5.06-.02.11-.03.17-.05.34-.09.69-.16,1.03-.24-.56,2.48-.28,5.04-.46,7.56-.02.33-.06.65-.1.98-.26,1.97,1.92,3.08,1.66,5.02Zm0-18.51c-3.63-2.13-.58-3.14.74-4.44-.41,1.45-1.28,2.83-.74,4.44Zm-6.65-10.36c-2.13.13-3.52-2.68-5.91-1.48-1.92.62-3.83,1.39-5.91.74-.14-.09-.28-.19-.42-.32-.67-.5-1.39-.99-1.88-1.54-.53-.6-.78-1.26-.41-2.1.31.66.65,1.32,1,1.92.45-.13.93-.22,1.4-.32,2.06.42,4.11.69,6.06-.44,2.36-.06,4.62.5,6.87,1.17,2.85.81,5.85-2.05,8.64.35.43.73.54,1.49.53,2.26.48.92.65,1.8-.12,2.55-.35.34-.9.66-1.71.93.25-1.73.49-3.45.74-5.18-3.05-.06-5.78,1.79-8.87,1.48Zm9.45,92.51c-.18-.44-.37-.92-.58-1.47.8.02,1.42.27,1.95.68-.37.45-.85.66-1.37.78Zm1.64,8.16c.69-1.13,1.62-1.95,2.96-2.22-.69,1.13-1.62,1.95-2.96,2.22Zm.74-55.52c1.44-.81,2.21-2.97,4.44-2.22-1.3,1.09-2.48,2.44-4.44,2.22Zm18.74-1.76s0,0,0,0c.49,1.01.47,2.12.47,3.23-.12-.15-.21-.3-.27-.46,0,0,0,0,0,0-.49-1.01-.47-2.12-.47-3.23.12.15.21.3.27.46Zm1.21,7.68c-.46,1.16-.92,2.31-1.39,3.47,0,0,0,.02,0,.02-.03.07-.06.14-.08.21,0-1.43.18-2.79,1.48-3.7Zm-7.27,4.84c.25.11.38.5.56.77-.29.12-.62.37-.87.31-.26-.07-.43-.44-.79-.85.51-.12.87-.33,1.1-.23Zm-.72,13.39c-.04.69-.42,1.19-1.17,1.08-.56-.08-.81-.56-.75-1.1.07-.55.46-.83,1-.88.56.04.95.33.92.9Zm-2.61-35.73c.19-.11.39-.2.61-.29.2-.08.41-.14.63-.2.04,0,.09,0,.13-.01.08.33.2.65.37.97-1.96.87-1.15,3.13-2.22,4.44-.03-2.06-.08-3.41-.39-4.25.25-.25.53-.47.87-.66Zm-1.22,12.31c1.34.29,2.72.79,3.7-.74.36.69.55,1.45-.28,1.84-1.41.66-2.51.02-3.41-1.1Zm1.28,51.07c-.07-.26-.1-.52-.12-.79.39.19.75.43,1.06.79h-.94Zm3.9-6.66c-.25.99-.49,1.97-.74,2.96-.85.54-1.64.26-2.43,0-.03-.01-.06-.02-.1-.03-.27.37-.5.77-.64,1.21-.12-.43-.03-.89.06-1.36.09-.44.19-.88.14-1.29.38.19.76.38,1.13.57.09-.11.19-.22.28-.34.53-.84.93-1.78,1.72-2.4.17-.14.36-.26.57-.36.09,0,.18,0,.27,0-.03.33-.11.68-.27,1.06Zm2.31-21.9c-.52.12-1-.15-.98-.74.06-1.22.75-2,1.93-2.25.63-.13,1.17.12,1.26.94-.35,1.07-1.08,1.8-2.21,2.05Zm2.87-6.97c.24,1.36,1.31,2.1,2.22,2.96-1.69-.27-3.33-.58-2.22-2.96Zm3.09,45.54c-.14-.21-.28-.41-.43-.6.8.72,1.58,1.45,2.32,2.2-.55-.01-1.38-.83-1.89-1.6Zm5.08-29.68c-.18-.05-.29-.31-.43-.48.14-.15.27-.42.4-.42.18,0,.45.18.51.35.14.4-.03.68-.49.55Zm9.56-8.45c-1.23.25-2.46.49-3.7.74,1.01-1.34,2.22-1.71,3.7-.74Zm0,22.21c-.72-.51-1.2-1.01-1.47-1.53.37,0,.75-.04,1.13-.15.06.56.24,1.15.34,1.68Zm-2.96,13.35c-.15.77-.07,1.45.19,2.07-.27-.62-.37-1.3-.19-2.07Zm1.22,3.55c-.07-.07-.14-.15-.2-.23.07.08.14.15.21.22.99.97,1.63,2.14,1.93,3.43-.49-1.23-1.03-2.44-1.95-3.43Zm36.48-37.63c-1.48.9-2.96.9-4.43,0h4.43Zm-6.99,41.63c.8,0,1.71.2,2.61.3-.73.08-1.48.04-2.28-.17-.19-.05-.39-.1-.58-.14.08,0,.17,0,.25,0Zm-1.88-41.63c-1.48.9-2.96.9-4.43,0h4.43Zm-3.06,26.29c-.01.18-.2.35-.31.53-.09-.2-.25-.39-.24-.59,0-.18.19-.35.31-.54.09.21.25.41.24.6Zm-1.58,9.1c.07.05.13.1.19.14-.09-.06-.18-.12-.28-.18.03.01.06.02.09.03Zm-12.95-20.42c.17.01.32.27.61.53-.5.02-.85.09-1.17.03-.17-.03-.31-.27-.46-.42.34-.06.69-.17,1.02-.15Zm-6.06-14.97c1.75.07,3.56-.27,5.17.74-1.75-.07-3.56.27-5.17-.74Zm4.43,39.23c.33,1.64,1.63,2.32,2.96,2.96-2.49.52-3.76-.18-2.96-2.96Zm4.44,2.22c1.48-.97,2.68-.6,3.7.74-1.23-.25-2.46-.49-3.7-.74Zm3.66-41.33s-.04,0-.06,0c-.19-.02-.4-.06-.65-.12-1.48.25-2.96.49-4.43.74.3-.57.2-1.06-.02-1.55-.33-.74-.92-1.46-.74-2.43,1.63.02,2.83.7,3.83,1.67.49.47.93,1.01,1.36,1.57,1.14-.41,1.4-1.49,1.87-2.4.05-.24.15-.44.35-.56-.33,1.16.62,3.28-1.51,3.09Zm17.16,48.28s0,0,0,0c-.04-.09-.08-.19-.12-.28-2.22-.25-4.44-.49-6.65-.74-1.47,0-2.95,0-3.97,1.36-.71.95-1.54,1.65-2.77.87-1.07-.68-2-1.61-1.8-2.96.25-1.69-.02-3.14-1.07-4.46.45.18,1.15.24,1.32.56.14.27.29.53.45.77.23.15.47.31.71.47,1.17.75,2.48,1.48,3.7,2.08,1.22-.8,2.55-1.12,4.07-.8,2.06.35,4.17.48,6.11,1.37,1.15.67,1.48,1.65,1.63,2.7.08.56.11,1.15.19,1.72-.71-.67-1.3-1.56-1.79-2.66Zm5.97-9.18c-1.31.32-2.55.94-3.79,1.52.06-.08.11-.16.16-.24,1.48-2.52,3.49-4.74,3.92-7.96-.13,1.58-.09,3.18.09,4.84.08.72.62,1.6-.38,1.85Zm16.27-19.51c-.05.08-.1.15-.15.23-.46.7-1.23,1.26-.78,2.26-.25,1.23-.49,2.47-.74,3.7-.69.44-1.19.9-1.51,1.39.37,1.41.8,2.82.74,4.34.78,1.12,1.25,2.61.24,3.61-.11.11-.21.19-.31.26-.23-.92-.21-1.92-.04-2.87.06-.34.1-.67.11-1-.03-.05-.07-.09-.1-.14-1.18-1.59-1.45-2.97-.64-4.2-.15-.58-.29-1.17-.39-1.77.27-1.32.35-2.68,1.07-3.87.37-.4.76-.76,1.16-1.07.43-.34.88-.63,1.34-.88Zm-1.66-26.37c-.36.34-.71.39-1.07.25-.02.06-.04.11-.07.17,0,0,0,0,0,.01-.1.16-.21.28-.34.39,0,.14,0,.27-.01.41-.04.68-.14,1.35-.43,1.98-.06.17-.15.34-.28.5-.25-.74-.49-1.48-.74-2.22.25-.24.49-.49.73-.73l.75-.75h1.48Zm-1.4-5.32c-.49.65-.66,1.38-.65,2.16-.37-.63-.77-1.26-1.05-1.96.62-.07,1.19-.14,1.7-.2Zm1.83,53.44c-.83-2.03-2.39-3.77-5.34-4.95,1.72.27,3.31,1.64,4.58.28.33.55.8,1.03,1.43,1.4.56.33,1.1.44,1.63.42-1.27.72-1.98,1.71-2.3,2.86Zm1.78-41.45c.78-1.65.75-3.42.74-5.18.84,1.88,1.41,3.73-.74,5.18Zm11.88,29.71c-.93.04-1.25-.68-1.28-1.44-.04-.91.23-1.8,1.37-1.7.87.07,1.11.82,1.13,1.61-.06.78-.31,1.49-1.21,1.53Zm6.76-18.87h0c-.05.09-.1.18-.16.27.03-1.42-.13-2.87.58-4.17.01-.02.02-.04.04-.07.04-.07.08-.14.12-.2-.03,1.42.13,2.87-.58,4.17Zm2.8,9.89c-.97-1.73-.97-3.45,0-5.18v5.18Zm.83-29.99c.05-.28.13-.55.24-.8-.08.27-.16.53-.24.8Zm-.41-4.78c-.13.07-.25.14-.38.21-.7.14-1.4.14-2.11.03-.06-.01-.12-.02-.17-.04,0-.05.02-.1.03-.15.06-.26.04-.54-.1-.74-.07.05-.12.09-.17.12-.05.03-.08.06-.12.08h0c-.21.08,0-.33.12-.08,0-.09.02-.18.02-.27.06.04.11.09.15.15.03-.02.06-.04.1-.07h2.22c.41.05.79.15,1.12.33-.23.15-.46.29-.69.43Z"/>
      <path class="cls-1" d="m91.57,241.94c.06.03.13.07.19.1-.07-.03-.13-.06-.19-.1Z"/>
      <path class="cls-1" d="m182.84,325.81c-.06-.03-.12-.07-.17-.12.06.04.12.08.17.12Z"/>
      <path class="cls-30" d="m85.61,242.66c-.41.09-.82.14-1.24.12.41-.04.83-.08,1.24-.12Z"/>
      <path class="cls-30" d="m87.98,240.75c-1.13,1-2.48,1.24-3.61,2.03-1.34.29-2.72.79-3.7-.74-.31-.39-.59-.87-.97-1.06-.32-.17-.72-.14-1.25.32.1-.14.21-.28.31-.43.12-.09.24-.16.36-.22.35-.26.63-.31.85-.2.03.01.06.03.09.06.4.02.81.1,1.2.12,1.16.2,2.32.09,3.47-.11,1.08-.07,2.16.15,3.24.24Z"/>
      <path class="cls-30" d="m87.94,235.4c-.3.24-.6.61-.71.56-.27-.12-.56-.41-.63-.69-.04-.16.34-.42.52-.63.23.22.46.43.81.76Z"/>
      <path class="cls-30" d="m96.48,240.37c-.26.33-.6.63-1.02.93.1-.37.18-.74.25-1.11.2.02.39.04.59.07.06.04.12.08.18.12Z"/>
      <path class="cls-30" d="m97.77,221.85c-.07-.42-.11-.85-.1-1.28.02.43.06.85.1,1.28Z"/>
      <path d="m72.76,116.83c.67-.01,1.34-.03,2.01-.04.56-.46,1.06-1.02,1.85-1.11,1.26,0,2.35.76,3.6.83.35.05.69.11,1.03.17,1.31.6,2.79.4,4.13.86,1.59,1.85,4.59,2.82,3.85,6.14.06.22.09.44.1.66-.95-.17-2.35,0-2.79-.57-4.03-5.19-10.2-3.92-15.46-5.35.56-.53,1.13-1.06,1.69-1.59Z"/>
      <path d="m82.15,164.32c.9,2.72,2.96,5.69,2.44,8.09-.74,3.36-1.82,7.41-5.91,8.94-.79.3-1.62.49-2.44.73,3.58-2.2,3.8-6.76,6.66-9.5.85-.82-.04-1.85-.34-2.75-.6-1.8-.34-3.67-.4-5.51Z"/>
      <path d="m59.24,133.23c1.86,2,3.78,3.83,4.33,6.8.42,2.3,2.37,2.81,4.54,2.08-1.73,2.64-3.59,2.53-4.98-.13-1.47-2.82-4.01-5.21-3.89-8.75Z"/>
      <path class="cls-13" d="m54.72,294.68c-1.07-5.73-1.14-11.46,0-17.19,0,5.73,0,11.46,0,17.19Z"/>
      <path d="m74.76,149.51c2.03.55,2.92,1.5,1.46,3.57-.45.64-.49,1.56-.72,2.35-1.59-1.81,1.2-4.16-.74-5.92Z"/>
      <path d="m63.68,123.6c-2.15,2-.57,5.5-2.96,7.4.26-1.45.59-2.9.74-4.36.16-1.49.67-2.61,2.21-3.04Z"/>
      <path d="m76.24,156.91c.99,1.23,1.97,2.47,2.96,3.7-1.94-.47-2.86-1.76-2.96-3.7Z"/>
      <path d="m40.79,247.27c-.43-1.56-.16-2.87,1.36-3.72-.2,1.33-.58,2.59-1.36,3.72Z"/>
      <path class="cls-12" d="m57.68,107.79c0,.32-.02.64-.03.97-.46.25-.91.51-1.37.76.1-.5.21-1,.31-1.5h0c.16-.77.32-1.53.47-2.3.02.02.03.04.05.06.36.49.5,1.02.55,1.57.01.14.02.29.02.44Z"/>
      <path d="m68.85,119.16c-.21,1.13-.67,2.13-1.48,2.96.04-1.21.44-2.25,1.48-2.96Z"/>
      <path class="cls-9" d="m86.67,336.71s0,0-.01,0c-4.7,1.49-6.14,1.01-8.2-2.77.38-.18.73-.29,1.07-.34.07,0,.15-.02.22-.02h0c1.5-.1,2.63,1.03,3.82,1.95.81.84,1.86.5,2.83.6.05.1.1.2.15.29.04.09.09.18.14.27,0,0,0,0,0,0Z"/>
      <path class="cls-30" d="m83.56,335.54c-.76-.24-1.51-.47-2.27-.71h0c-.48-.15-.97-.3-1.45-.45-.46-.14-.92-.29-1.38-.43-.25-.11-.49-.23-.74-.34.43-.35.82-.6,1.19-.77,2.17-.99,3.39.92,4.65,2.7Z"/>
      <path class="cls-30" d="m182.65,325.69c-.09-.06-.18-.12-.28-.18.03.01.06.02.09.03.07.05.13.1.19.14Z"/>
      <path class="cls-30" d="m191.6,332.09c-.73.08-1.48.04-2.28-.17-.19-.05-.39-.1-.58-.14.08,0,.17,0,.25,0,.8,0,1.71.2,2.61.3Z"/>
      <path class="cls-30" d="m199.11,329.38c-1.31.32-2.55.94-3.79,1.52.06-.08.11-.16.16-.24,1.48-2.52,3.49-4.74,3.92-7.96-.13,1.58-.09,3.18.09,4.84.08.72.62,1.6-.38,1.85Z"/>
      <path class="cls-30" d="m215.23,310.1c-.46.7-1.23,1.26-.78,2.26-.34-.54-.43-1.08-.41-1.62.43-.34.88-.63,1.34-.88-.05.08-.1.15-.15.23Z"/>
      <path class="cls-30" d="m234.57,300.99h0c-.05.09-.1.18-.16.27.03-1.42-.13-2.87.58-4.17-.61,1.22.18,2.68-.42,3.91Z"/>
      <path class="cls-30" d="m238.48,275.68c-.23.15-.46.29-.69.43-.13.07-.25.14-.38.21-.7.14-1.4.14-2.11.03-.06-.01-.12-.02-.17-.04,0-.05.02-.1.03-.15.06-.26.04-.54-.1-.74.03-.02.06-.04.1-.07h2.22c.41.05.79.15,1.12.33Z"/>
      <path class="cls-30" d="m238.43,280.08c-.08.27-.16.53-.24.8.05-.28.13-.55.24-.8Z"/>
      <path class="cls-30" d="m151.68,297.12c-.18-.05-.29-.31-.43-.48.14-.15.27-.42.4-.42.18,0,.45.18.51.35.14.4-.03.68-.49.55Z"/>
      <path class="cls-30" d="m138.59,309.08c-.03.33-.11.68-.27,1.06-.19-.24-.38-.47-.57-.7.17-.14.36-.26.57-.36.09,0,.18,0,.27,0Z"/>
      <path class="cls-30" d="m161.24,310.88c-.72-.51-1.2-1.01-1.47-1.53.37,0,.75-.04,1.13-.15.06.56.24,1.15.34,1.68Z"/>
      <path class="cls-30" d="m212.94,321.79s-.07-.09-.1-.14c-1.18-1.59-1.45-2.97-.64-4.2.37,1.41.8,2.82.74,4.34Z"/>
      <path class="cls-30" d="m216.45,328.75c-1.27.72-1.98,1.71-2.3,2.86-.83-2.03-2.39-3.77-5.34-4.95,1.72.27,3.31,1.64,4.58.28.33.55.8,1.03,1.43,1.4.56.33,1.1.44,1.63.42Z"/>
      <path class="cls-30" d="m194.93,341.22c-.71-.67-1.3-1.56-1.79-2.66,0,0,0,0,0,0-.04-.09-.08-.19-.12-.28.32.17.7.29.96.53.28.26.53.49.77.7.08.56.11,1.15.19,1.72Z"/>
      <path class="cls-1" d="m237.36,305.7v5.18c-.58-1.73-.58-3.45,0-5.18Z"/>
      <path class="cls-1" d="m244.91,297.8c-.02.22-.03.43-.05.65-.03.44-.07.89-.1,1.33-.42.18-.76.4-1.04.64-1.22,1.08-1.22,2.72-1.14,4.31.07,1.33.16,2.66.17,3.99t0,0c0,.92-.02,1.84-.11,2.75-.03.29-.06.59-.1.88h-.29c.02-.11.04-.21.06-.32-.21-.3-.4-.61-.56-.92h0c-1.75-3.27-1.1-6.81-.26-10.26.25-1.02,1.14-1.66,2.22-1.49.05-.33.15-.63.32-.89.19-.29.48-.52.88-.68Z"/>
      <path class="cls-1" d="m238.43,280.08c-.08.27-.16.53-.24.8.05-.28.13-.55.24-.8Z"/>
      <path class="cls-1" d="m242.13,277.55s0,0,0,0c-.07.25-.18.51-.33.76-.07-.95-.4-1.41-.85-1.6.14-.3.24-.62.33-.94.06.03.13.06.19.1.72.41.84,1.03.66,1.68Z"/>
      <path class="cls-1" d="m238.53,327.37c-1,1.42-1.55,2.88-1.8,4.41t0,0c-.13.8-.19,1.63-.19,2.48,0,.08,0,.16,0,.24h0c-.46.09-.95.28-1.43.45-.98.34-1.95.6-2.7-.28-1.16-1.36.39-2.75.97-3.99.91-1.99,2.15-3.83,3.24-5.73.12-.15.2-.3.27-.46h0c.32-.88-.12-1.9.21-2.78h0c.06-.16.15-.32.27-.46.62.34,1.1.72,1.45,1.13,1.26,1.48.89,3.33-.29,5Z"/>
      <path class="cls-30" d="m238.48,275.68c-.23.15-.46.29-.69.43-.18-.22-.32-.47-.43-.76.41.05.79.15,1.12.33Z"/>
      <path class="cls-30" d="m244.02,273.13c-.63,1.47-1.26,2.94-1.89,4.42,0,0,0,0,0,0-.11.25-.22.51-.33.76-.07-.95-.4-1.41-.85-1.6.14-.3.24-.62.33-.94.21-.74.36-1.52.68-2.21.25-.54.61-1.03,1.18-1.4.27.29.56.61.88.97Z"/>
      <path class="cls-30" d="m124.02,311.56c-.37.45-.85.66-1.37.78-.18-.44-.37-.92-.58-1.47.8.02,1.42.27,1.95.68Z"/>
      <path class="cls-30" d="m135.18,312.91c0,.06-.01.13-.02.19-.03-.01-.06-.02-.1-.03-.27.37-.5.77-.64,1.21-.12-.43-.03-.89.06-1.36.09-.44.19-.88.14-1.29.5.37.58.82.55,1.29Z"/>
      <path class="cls-30" d="m135.37,316.8h-.94c-.07-.26-.1-.52-.12-.79.39.19.75.43,1.06.79Z"/>
      <path class="cls-30" d="m186.37,337.53c-1.47,0-2.95,0-3.97,1.36-.71.95-1.54,1.65-2.77.87-1.07-.68-2-1.61-1.8-2.96.25-1.69-.02-3.14-1.07-4.46.45.18,1.15.24,1.32.56.14.27.29.53.45.77.23.35.49.67.76.96h0c.89.94,1.95,1.55,3.11,1.97,1.24.45,2.6.7,3.97.92Z"/>
      <path class="cls-30" d="m229.01,318.33c-.06.78-.31,1.49-1.21,1.53-.93.04-1.25-.68-1.28-1.44-.04-.91.23-1.8,1.37-1.7.87.07,1.11.82,1.13,1.61Z"/>
      <path class="cls-30" d="m137.59,313.1c-.85.54-1.64.26-2.43,0-.03-.01-.06-.02-.1-.03-.27.37-.5.77-.64,1.21-.12-.43-.03-.89.06-1.36.09-.44.19-.88.14-1.29.38.19.76.38,1.13.57.61.3,1.22.61,1.82.91Z"/>
      <path class="cls-27" d="m245.57,285c-.22-2.46-.29-4.91.49-7.3.02-.07.04-.13.07-.2,0,.08.02.15.02.23.25,2.46.2,4.89-.58,7.27Z"/>
      <path class="cls-30" d="m170.85,332.35c-2.49.52-3.76-.18-2.96-2.96.33,1.64,1.63,2.32,2.96,2.96Z"/>
      <path class="cls-30" d="m237.36,305.7v5.18c-.97-1.73-.97-3.45,0-5.18Z"/>
      <path class="cls-30" d="m176.02,332.35c-1.23-.25-2.46-.49-3.7-.74,1.48-.97,2.68-.6,3.7.74Z"/>
      <path class="cls-30" d="m234.57,300.99h0c-.05.09-.1.18-.16.27.03-1.42-.13-2.87.58-4.17.01-.02.02-.04.04-.07.04-.07.08-.14.12-.2-.03,1.42.13,2.87-.58,4.17Z"/>
      <path class="cls-30" d="m236.89,324.48c.32-.87-.12-1.9.21-2.77h0c.08-.16.16-.31.27-.46,0,1.11.02,2.23-.47,3.24Z"/>
      <path class="cls-30" d="m89.89,313.35c-.12-.07-.23-.15-.34-.25.08-.08.15-.15.23-.23.04.16.08.31.12.47Z"/>
      <path class="cls-30" d="m96.2,330.13c-.9,1.33-1.86,2.5-3.7,1.48,1.42-.01,2.57-.73,3.7-1.48Z"/>
      <path class="cls-30" d="m96.2,330.13c-.03-1.05.09-1.99.34-2.8.02.39.07.78.08,1.16h0c.02.56-.06,1.12-.42,1.64Z"/>
      <path class="cls-30" d="m99.15,318.14c-.11.17-.2.34-.33.47-.04.04-.28-.04-.28-.07-.02-.18.01-.37.03-.56.19.05.38.1.58.16Z"/>
      <path class="cls-30" d="m105.16,323.82c-2.61-.41-5,.87-7.48,1.48-.01,0-.03,0-.04.01,1.5-1.72,4.12-2.28,7.52-1.49Z"/>
      <path class="cls-30" d="m111.72,324.2c-1.23.57-2.46.57-3.7,0h3.7Z"/>
      <path class="cls-30" d="m111.75,319.54c-.54.76-1.37.88-2.22.77-.02,0-.04,0-.07,0-1.08-.16-1.75-.82-1.97-1.87-.46-2.25.13-4.65-.95-6.81,2.13,1.74.75,4.11,1.08,6.17.2,1.21.45,2.27,1.92,2.07,1.27-.17,2.61-.53,1.43-2.32.54.3,1.01.64,1.06,1.13.03.25-.05.54-.29.88Z"/>
      <path class="cls-30" d="m119.85,310.88c-.95-.02-1.89.02-2.8.21-.46.09-.91.23-1.36.41-.09.04-.19.08-.28.12h-.74c.27-.28.53-.56.8-.85.03-.02.05-.04.08-.06.24-.17.48-.29.71-.37.39-.14.78-.17,1.17-.14.22.02.44.05.67.11.58.14,1.17.37,1.75.57Z"/>
      <path class="cls-30" d="m119.42,318.82c-.15-.04-.29-.1-.44-.16-1.01-.49-1.88-.64-2.66-.53,1.34-.71,2.37-1.76,3.09.7Z"/>
      <path class="cls-30" d="m124.02,311.56c-.37.45-.85.66-1.37.78-.18-.44-.37-.92-.58-1.47.8.02,1.42.27,1.95.68Z"/>
      <path class="cls-30" d="m127.24,318.28c-1.03.68-1.92,1.54-2.96,2.22.69-1.13,1.62-1.95,2.96-2.22Z"/>
      <path class="cls-30" d="m119.42,318.82c-.15-.04-.29-.1-.44-.16-1.01-.49-1.88-.64-2.66-.53,1.34-.71,2.37-1.76,3.09.7Z"/>
      <path class="cls-30" d="m106.54,324.2c-1.21.04-2.43-.03-3.62.13-2.93.39-5.29,1.5-6.3,4.16h0c-.19.49-.33,1.03-.42,1.64-.03-1.05.09-1.99.34-2.8h0c.24-.79.61-1.46,1.09-2.01,1.5-1.72,4.12-2.28,7.52-1.49,0,0,0,0,0,0,.45.1.91.23,1.38.38Z"/>
      <path class="cls-30" d="m96.2,330.13c-.64,1.98-1.84,2.56-3.7,1.48,1.42-.01,2.57-.73,3.7-1.48Z"/>
      <path class="cls-30" d="m127.24,318.28c-.69,1.13-1.62,1.95-2.96,2.22.69-1.13,1.62-1.95,2.96-2.22Z"/>
      <path class="cls-30" d="m111.72,324.2c-1.23.82-2.46.82-3.7,0h3.7Z"/>
      <path class="cls-30" d="m96.2,334.57h-3.7c1.23-.82,2.46-.82,3.7,0Z"/>
      <path d="m238.14,35.43c.74.49,1.48.99,2.21,1.48,1.86,2.96,4.51,5.21,7.11,7.41,3.63,3.05,4.16,5.53,1.33,9.29-.88,1.17-1.13,2.62-1.83,3.87-1.7,1.52-3.05,3.3-3.91,5.43-2.93,1.92-3.72,5.9-1.13,10.48,1.73,3.06,3.79,6.2,7.1,8.03,4.52,4.67,9.03,9.35,13.55,14.02-1.18,2.92-2.08,6-4.52,8.23-.25-.02-.49-.03-.74-.05-1.03-1.76-2.61-.29-3.88-.66-1.46-.12-3.03.26-4.27-.91-1.66-.73-3.28-1.65-5.21-1.38-7.26-.91-14.1-3.63-21.3-4.86-2.01-.34-4.15-.2-6.01-1.26-.1-4.77-2.47-8.58-5.15-12.27-.21-.29-.49-.69-.44-1,.91-5.48-3.09-7.23-6.93-8.82-3.4-1.41-5.94-4.06-8.47-6.34-2.38-2.14-3.38-5.96-4.59-9.2-.44-1.18-.48-2.63-.96-3.89-.6-1.6-.82-3.09.78-4.32,1.13-.87,1.35-2.01.67-3.28-.73-1.39-1.95-1.84-3.42-1.6-1.7.28-3.37.74-5.08.96-2.08.27-3.7-.04-2.19-2.72.39-.69.68-1.36.01-1.99-.69-.66-1.66-.89-2.38-.34-2.35,1.78-3.13.98-3.08-1.64,0-.3-.41-.89-.58-.87-3.58.38-6.35-3.7-10.15-1.84-.8.39-1.55.69-2.46.43-3.62-1.04-8.78-7.88-8.59-11.91.2-4.46-4.04-4.06-6.14-5.94-1.68-1.5-2.82.55-3.93,1.56-2.02,1.82-10.24,2.11-12.33.37-1.86-1.56-1.62-3.49.73-4.31,1.41-.49,2.21-.92,1.62-2.56-.39-1.08.09-2.38,1.13-2.29,3.04.27,6.47-1.2,9.01,1.56,1.64,1.78,3.6,2.28,5.91,2.54,3.15.36,6.27,1.08,9.37,1.77,1.1.24,2.01,1.02,2.31,2.19.28,1.1-.55,1.52-1.39,1.83-1.21.45-2.47.97-1.9,2.58.54,1.54,1.96,2.43,3.45,2.37,2.56-.11,5.16-.42,7.64-1.04,5.32-1.33,10.17.54,14.95,2.2,2.79.97,3.29,7.19,1.18,9.67-.7.82-1.97,1.59-.89,2.75,1.04,1.13,2.71,1.12,3.69.1,4.47-4.65,8.89-3.45,13.55-.35,2.4,1.59,4.97,1.41,7.15-.58,3.44-3.15,7.34-4.79,12.09-4.34,1.44.14,3.05.11,4.37-.4,2.97-1.16,5.2-1.3,7.27,1.83,1.39,2.1,3.75,2.19,5.64.01Z"/>
      <path d="m157.32,92.25c-.76-2.46-3.37-2.88-8.08-1.26-.7.24-1.43.45-2.04.83-2.2,1.36-4.2.94-6.6.14-4.96-1.66-10.46-2.04-15.15-.06-6,2.53-11.92,3.4-18.18,2.57-2.34-.31-4.17.18-5.59,1.92-1.57,1.94-3.18,2.09-5.49,1.22-4.68-1.75-9.74,1.19-11.11,6.12.81.91,1.59,1.83,2.42,2.72,9.23,9.93,18.88,19.47,27.74,29.75-.64,2.35.6,3.47,2.67,4.04,1.4-.39,3.06-.22,4.08-1.44,2.62-3.15,6.23-5.53,7.88-9.43.95-2.23,2.47-3.15,4.73-3.18,3.17-2.72,5.01-6.47,7.52-9.7.65-.84.63-1.8-.12-2.66,1.84-5.53,6.2-9.01,10.65-12.08,2.93-2.02,5.7-6.22,4.68-9.5Z"/>
      <path class="cls-30" d="m300.32,78.38c-.25-2.29-.79-4.49-1.8-6.56-3.39-9.48-9.27-17.34-16.03-24.62-7.11-5.93-14.76-10.94-23.69-13.73-1.17-.63-2.73.07-3.74-1.1l.08.29c-2.74,1.13-4.37,3.68-6.78,5.3-1.64,1.1-1.01,3.05.48,4.49,1.12,1.08,2.26,2.13,3.31,3.3,1.64,1.82,1.53,3.11-.51,4.33-1.58,2.52-3.56,4.64-6.16,6.13-1.63,1.82-3.36,3.57-4.12,5.99-.09,1.38-.92,2.5-1.26,3.8.01,1.15.52,2.23.55,3.38.36,3.67,2.42,6.48,4.65,9.19.92,1.11,1.93,2.13,2.12,3.65,4.22,5.02,9.19,9.29,13.78,13.94-.06,2.62.19,5.41-3.36,6.1-.34.04-.68.08-1.02.13-1,.14-2.01.11-3.02.14-.02-.05-.04-.1-.06-.15-1.05-1.41-2.83-1.44-4.19-2.25-1.97.06-3.84-.31-5.59-1.22-7.09-1.36-13.95-3.69-21.07-4.86-2.06-.34-4.31-1.36-6.23.52-6.92-.86-13.58-3.01-20.53-3.86-11.4-1.39-22.23-.68-32,6.09-1.26.07-2.03.98-2.89,1.73-7.33,3.94-13.34,9.55-19.25,15.29-2.75,3.74-5.51,7.48-8.26,11.23-1.58.49-2.48,1.79-3.28,3.05-1.41,2.22-2.59,4.57-4.46,6.5-4.31,4.46-4.23,6.56.37,10.87,1.07,1,2.14,2.04,3.63,2.42,1.22-.13,2.55.23,3.65-.19,7.89-3.05,14.61-.45,20.99,4.09.72.51,1.42,1.09,2.23,1.16,0,.04-.01.07-.02.11.15.54.44.99.81,1.4,1.74,1.47,3.86,2.57,4.67,4.92.74,1.56,1.98,2.75,3.04,4.07,5.97,3.11,10.26,7.58,11.61,14.41,4.07,4.16,9.29,5.86,14.8,6.92,2.24-.54,4,1.47,6.19,1.13.87-.3,1.69-.68,2.39-1.3.77-2.39-.45-4.94,2.27-3.48,1.4.08,3.82-1.26,5.17-1.44,1.57-.21,2.61-1.28,3.92-1.9.47-.13,1.58-.86,1.97-1.15.52-.35,1.21-1.06,1.89-1.09.86,0,1.3,1.51,1.94.91,1.4-.95,3.14-.87,4.66-1.45,1.19-.52,2.3-1.24,3.59-1.51,5.3-1.44,10.46-4.48,16.03-4.76.88-.02,1.31-.13,1.95-.12,1.08-.22,2.15-.44,3.23-.66h0c4.68,1.04,8.12-.13,9.62-5.15.38-1.27,1.22-2.39,1.85-3.59-1.64-1.8-2.78-.12-4.06.58-.54.3-1.15.63-1.64.08-.49-.54-.15-1.17.26-1.62,2.35-2.57,4.27-5.51,6.84-8.35.64,1.41.42,3.05,1.99,3.49,3.13-4.27,6.27-8.55,9.4-12.82,10.42-10.15,19.18-21.48,24.78-35.04,2.02-4.89,4.04-9.81,4.23-15.22.56-3.98.41-7.97.07-11.96Z"/>
      <path class="cls-8" d="m23.11,32.84c-.06.18-.13.36-.2.53-1.47,3.39-5.52,4.97-8.58,3.41-.22-.11-.44-.24-.66-.39.24,0,.48,0,.72-.01,3.02-.19,5.42-2.02,8.05-3.24.22-.1.45-.2.67-.29Z"/>
      <path class="cls-16" d="m40.58,47.84c-.1-.16-.19-.32-.29-.48-1.79-4.09-4.62-7.52-7.56-10.73-2.44-2.67-5.4-5.13-9.62-3.79-.23.09-.45.19-.67.29-2.63,1.22-5.03,3.05-8.05,3.24-.23.02-.47.02-.72.01-4.22,1.02-7.17,3.32-8.18,7.78-.2.89-.87,1.83-1.6,2.42-2.64,2.15-3.33,4.98-3.18,8.18.02.07.04.14.06.21.12.42.27.82.43,1.22.26.56.53,1.11.81,1.66.76,1.33,1.74,2.52,2.91,3.63,3.02,2.86,6.74,4.71,10.01,7.21.34-.32.69-.63,1.03-.95.38-.35.76-.7,1.15-1.05.11-.45.13-.86.06-1.25-.14-.88-.7-1.58-1.49-2.15-1.72-1.27-3.31-2.72-5.15-3.84-.21-.11-.42-.23-.62-.34-.44-.25-.84-.5-1.2-.76-3.41-2.42-3.67-5.21-.99-9.2,1.03-1.53,1.91-3.16,2.97-4.68.68-.97,1.42-1.8,2.26-2.43,1.28-.97,2.79-1.5,4.62-1.43.14,0,.28.01.43.02.56-.12,1.09-.29,1.61-.51.39-.16.77-.34,1.15-.54.63-.33,1.24-.7,1.85-1.07,1.85-1.13,3.62-1.31,5.42.04.17.12.33.23.49.35.33.25.63.52.91.81,0,0,0,0,0,0,.37.37.71.77,1.01,1.2.31.44.59.91.83,1.41.27.55.49,1.14.67,1.75,1.71,2.58,5.46,4.43,3.02,8.51-1.37,2.28-1.66,4.77-.05,6.91,1.79,2.36,4.36,2.47,6.98,1.29.75-.15,1.09-.78,1.48-1.35.13-.19.27-.38.44-.54.08-.07.16-.14.24-.2h0c.16-.11.35-.19.57-.23.84.41,1.6.52,2.03-.55-.18-.3-.36-.59-.54-.89-1.85-3.06-3.69-6.11-5.54-9.17Z"/>
      <path class="cls-30" d="m118.37,310.14c-.08.07-.18.12-.27.17-.46.21-1.03.21-1.53.34-.32.08-.61.2-.84.45,0,0,0,0,0,.01-.03.03-.06.07-.08.1-.09.12-.16.25-.22.42h-.74c.27-.28.53-.56.8-.85.03-.02.05-.04.08-.06-.08-.53-.11-1.07-.14-1.62.16.38.4.74.69,1.07.05.06.11.12.16.17.39-.14.78-.17,1.17-.14.3-.04.62-.06.94-.06Z"/>
      <path class="cls-30" d="m114.71,235.98s-.07.01-.1.02c-2.05.37-2.46-.57-2.86-2.02-.35-1.3-.93-2.51-2.54-4.12,1.87.59,1.83,1.27,1.96,1.84.72,3.1,1.53,4.33,3.54,4.28Z"/>
      <path class="cls-30" d="m119.85,248.7c-3.23-2.79-1.99-6.86-2.83-10.32-.13-.54-.11-1.07.02-1.58-.37-.51-.91-.86-1.72-.87.63-.08,1.37-.25,2.23-.5.06-.02.11-.03.17-.05.34-.09.69-.16,1.03-.24-.56,2.48-.28,5.04-.46,7.56-.02.33-.06.65-.1.98-.26,1.97,1.92,3.08,1.66,5.02Z"/>
      <path class="cls-30" d="m96.48,240.37c-.26.33-.6.63-1.02.93.1-.37.18-.74.25-1.11.2.02.39.04.59.07.06.04.12.08.18.12Z"/>
      <path class="cls-30" d="m95.47,251.67c-.14-1.79,1.03-2.54,1.49-3.6.31-.71.66-1.43.95-2.16-.19.86-.33,1.69-.02,2.52.91,2.48-.58,2.8-2.42,3.24Z"/>
      <path class="cls-30" d="m136.11,253.88c-1.96.87-1.15,3.13-2.22,4.44-.03-2.06-.08-3.41-.39-4.25.25-.25.53-.47.87-.66.19-.11.39-.2.61-.29.2-.08.41-.14.63-.2.04,0,.09,0,.13-.01.08.33.2.65.37.97Z"/>
      <path class="cls-30" d="m212.31,278.17c-.49.65-.66,1.38-.65,2.16-.37-.63-.77-1.26-1.05-1.96.62-.07,1.19-.14,1.7-.2Z"/>
      <path class="cls-30" d="m213.71,283.49c-.36.34-.71.39-1.07.25-.08-.03-.15-.07-.23-.12-.06-.04-.12-.08-.18-.13h1.48Z"/>
      <path class="cls-30" d="m107.17,257.11c0,.32-.19.64-.3.99-.28-.2-.61-.33-.61-.45,0-.34.04-.81.26-.99.44-.35.65.08.64.45Z"/>
      <path class="cls-30" d="m107.6,248.88c0,.5-.22.95-.82,1.06-.76-.18-.89-.81-.83-1.41.04-.41.36-1.12.59-1.13.99-.06,1.08.75,1.07,1.49Z"/>
      <path class="cls-30" d="m213.71,283.49c-.36.34-.71.39-1.07.25-.02.06-.04.11-.07.17,0,0,0,0,0,.01-.1.16-.21.28-.34.39,0,.14,0,.27-.01.41-.04.68-.14,1.35-.43,1.98.22-.66-.03-1.42,0-2.12,0-.05,0-.1.01-.15.04-.33.16-.65.44-.93h1.48Z"/>
      <path class="cls-30" d="m215.93,290.15c.78-1.65.75-3.42.74-5.18.39,1.82,1.1,3.68-.74,5.18Z"/>
      <path class="cls-30" d="m111.75,319.54c-.54.76-1.37.88-2.22.77-.02,0-.04,0-.07,0-1.08-.16-1.75-.82-1.97-1.87-.46-2.25.13-4.65-.95-6.81,2.15,1.27,1.24,3.44,1.52,5.26.13.83.1,1.8,1.12,2.06,1.08.27,1.44-.61,1.8-1.4.54.3,1.01.64,1.06,1.13.03.25-.05.54-.29.88Z"/>
      <path class="cls-30" d="m170.85,290.89c.3-.57.2-1.06-.02-1.55-.33-.74-.92-1.46-.74-2.43,1.63.02,2.83.7,3.83,1.67.49.47.93,1.01,1.36,1.57-1.48.25-2.96.49-4.43.74Z"/>
      <path class="cls-30" d="m142.84,286.19c-.35,1.07-1.08,1.8-2.21,2.05-.52.12-1-.15-.98-.74.06-1.22.75-2,1.93-2.25.63-.13,1.17.12,1.26.94Z"/>
      <path class="cls-30" d="m99.15,230.94c-.45-3.03-1.09-6.03-1.38-9.09.52,3.02,2.86,5.78,1.38,9.09Z"/>
      <path class="cls-30" d="m113.2,219.83c-2.13.13-3.52-2.68-5.91-1.48,2.85-3.59,3.9,0,5.54,1.25.12.09.24.17.37.23Z"/>
      <path class="cls-30" d="m123.03,222.6c-.35.34-.9.66-1.71.93.25-1.73.49-3.45.74-5.18.39.57.8,1.15,1.09,1.7.48.92.65,1.8-.12,2.55Z"/>
      <path class="cls-30" d="m136.98,289.14c-.04.69-.42,1.19-1.17,1.08-.56-.08-.81-.56-.75-1.1.07-.55.46-.83,1-.88.56.04.95.33.92.9Z"/>
      <path class="cls-30" d="m119.85,230.2c-3.63-2.13-.58-3.14.74-4.44-.41,1.45-1.28,2.83-.74,4.44Z"/>
      <path class="cls-30" d="m129.46,262.77c-1.3,1.09-2.48,2.44-4.44,2.22,1.44-.81,2.21-2.97,4.44-2.22Z"/>
      <path class="cls-30" d="m136.56,266.82c-1.41.66-2.51.02-3.41-1.1,1.34.29,2.72.79,3.7-.74.36.69.55,1.45-.28,1.84Z"/>
      <path class="cls-30" d="m138.26,276.52c-.29.12-.62.37-.87.31-.26-.07-.43-.44-.79-.85.51-.12.87-.33,1.1-.23.25.11.38.5.56.77Z"/>
      <path class="cls-30" d="m215.93,290.15c.78-1.65.75-3.42.74-5.18.84,1.88,1.41,3.73-.74,5.18Z"/>
      <path class="cls-30" d="m145.72,284.23c-1.69-.27-3.33-.58-2.22-2.96.24,1.36,1.31,2.1,2.22,2.96Z"/>
      <path class="cls-30" d="m119.85,310.88c-.95-.02-1.89.02-2.8.21-.46.09-.91.23-1.36.41-.09.04-.19.08-.28.12.07-.15.14-.29.22-.41.03-.04.05-.08.08-.12,0,0,0,0,0-.01.2-.26.43-.45.69-.59.31-.16.65-.25,1.01-.3.3-.04.62-.06.94-.06.49.25.99.49,1.48.74Z"/>
      <path class="cls-30" d="m175.98,290.28s-.04,0-.06,0c-.19-.02-.41-.06-.65-.12,1.14-.41,1.4-1.49,1.87-2.4.1-.2.21-.39.35-.56-.33,1.16.62,3.28-1.51,3.09Z"/>
      <path class="cls-30" d="m168.63,290.89c-1.75-.07-3.56.27-5.17-.74,1.75.07,3.56-.27,5.17.74Z"/>
      <path class="cls-30" d="m187.1,290.15c-1.48.9-2.96.9-4.43,0h4.43Z"/>
      <path class="cls-30" d="m195.97,290.15c-1.48.9-2.96.9-4.43,0h4.43Z"/>
      <path class="cls-30" d="m80.68,242.04c-.39-.13-.78-.26-1.17-.39-.35-.12-.7-.23-1.05-.35.25-.29.47-.5.67-.65.35-.26.63-.31.85-.2.03.01.06.03.09.06.3.22.49.76.61,1.53Z"/>
      <path class="cls-30" d="m161.24,288.67c-1.23.25-2.46.49-3.7.74,1.01-1.34,2.22-1.71,3.7-.74Z"/>
      <path class="cls-30" d="m125.17,255.67c-.06.31-.34.7-.89,1.18-.25-.74-.49-1.48-.74-2.22.75.11,1.29.3,1.51.58.11.13.15.28.12.46Z"/>
      <path class="cls-30" d="m170.13,305.65c-.5.02-.85.09-1.17.03-.17-.03-.31-.27-.46-.42.34-.06.69-.17,1.02-.15.17.01.32.27.61.53Z"/>
      <path class="cls-30" d="m212.23,283.49c0,.27,0,.54,0,.82,0,.14,0,.27-.01.41-.04.68-.14,1.35-.43,1.98-.08.17-.17.34-.28.5-.25-.74-.49-1.48-.74-2.22.25-.24.49-.49.73-.73l.75-.75Z"/>
      <path class="cls-30" d="m144.98,270.91c-.46,1.16-.92,2.31-1.39,3.47,0,0,0,.02,0,.02-.03.07-.06.14-.08.21,0-1.43.18-2.79,1.48-3.7Z"/>
      <path class="cls-30" d="m184.05,316.44c-.01.18-.2.35-.31.53-.09-.2-.25-.39-.24-.59,0-.18.19-.35.31-.54.09.21.25.41.24.6Z"/>
      <path class="cls-30" d="m86.51,283.8c-.07.2-.14.4-.21.6-.12-.14-.33-.27-.35-.42-.02-.19.12-.4.18-.61.12.14.25.28.38.43Z"/>
      <path class="cls-30" d="m144.24,266.47c-.1-.15-.19-.31-.27-.46,0,0,0,0,0,0-.49-1.01-.47-2.12-.47-3.23.1.15.19.31.27.46,0,0,0,0,0,0,.49,1.01.47,2.12.47,3.23Z"/>
      <path class="cls-11" d="m130.23,146.41c.84.09,1.64.27,2.52-.12,8.58-3.83,16.03-1.27,22.95,4.14.87.68,1.71,1.4,2.56,2.1.24.23.49.46.73.69,1.88,1.66,4.32,2.79,5.1,5.47.32,1.5,1.57,2.32,2.47,3.4,4.38,4.56,8.13,9.63,11.65,14.86,4.01,3.62,9.19,4.8,14.02,6.73,1.24-.28,2.31-.21,2.72,1.28-.74,1.98-1.57,3.88-3.91,4.46-1.9-1.03-4.17-1.07-6.04-2.22-5.37-1.96-10.57-4.34-14.1-9.02-2.36-3.13-4.59-6.44-6.6-9.77-3.62-5.99-8.6-10.37-14.03-14.44-1.01-.65-2.1-1.18-3.07-1.9-2.13-.4-3.85-2.15-6.18-1.88-.88.04-1.76.11-2.64.13-1.72-.04-3.14,1.42-4.94,1-2.24-.87-4.44-1.77-3.21-4.91Z"/>
      <path d="m190.79,188.74c1.08-1.41,1.35-3.64,3.75-3.72.89-.82,2.15.05,3.06-.67.69-.35,1.38-.69,2.07-1.04.81-.83,1.4-2.25,2.96-1.15-.06,3.26-1.71,5.11-4.57,6.79-3.93,2.31-8.33,4.04-11.7,7.01-2.17,1.92-4.67,4.27-5.17,7.62-3.58-.55-2.09-3.53-2.64-5.53.5-4.83,7.12-9.87,12.25-9.32Z"/>
      <path d="m241.8,168.81c-1.65,3.47-5.42,3.34-8.12,3.73-5.7.83-10.57,3.7-15.96,5.18-1.78.49-3.3.87-4.71-.61.48-.34.96-.68,1.44-1.01.58-.82,1.58-.19,2.26-.67,1.71-.57,3.42-1.13,5.13-1.7.71-1.12,1.61-1.76,2.99-1.18,5.61-1.45,11.05-3.69,16.97-3.75Z"/>
      <path class="cls-30" d="m198.68,174.91c-.22,1.4-.5,2.29-1.35,2.65-1.12.48-1.6-.44-1.83-1.26-.6-2.26-1.92-2.17-3.63-1.32-.69.34-1.48.32-1.96-.42-.38-.6-.06-1.18.26-1.72.69-1.16,1.32-2.37,2.12-3.45.85-1.15,2.15-1.56,3.16-.45,1.66,1.81,1.75,4.48,3.22,5.97Z"/>
      <path class="cls-30" d="m233.17,123.56c-1.54-.03-2.88-.07-3.29-1.52-.47-1.69,1.02-1.92,2.1-2.43,1.54-.72,3.05-1.5,4.59-2.21.69-.32,1.43-.32,2.05.25.66.6.64,1.43.15,1.98-1.61,1.81-3.18,3.74-5.6,3.93Z"/>
      <path class="cls-30" d="m178.22,176.96c-5.39-3.77-8.16-9.61-11.65-14.86.12.02.27,0,.36.06,5,3.99,9.57,8.31,11.3,14.81Z"/>
      <path class="cls-30" d="m227.35,166.97c-1.37-.57-4.04-.32-3.59-2.6.46-2.34,3.28-1.4,5.02-1.84,1.26-.31,1.83,1.05,1.76,2.26-.11,1.92-1.34,2.45-3.19,2.18Z"/>
      <path class="cls-30" d="m206.04,175.55c-1.05.06-1.59-.39-1.53-1.02.23-2.19,2.17-3.04,3.63-4.2.43-.34,1.43.54,1.17.94-1,1.57-2.25,2.98-3.28,4.28Z"/>
      <path class="cls-30" d="m202.63,182.16c-.99.38-1.97.77-2.96,1.15.6-3.05,2.45-3.71,5.16-2.72-.73.52-1.47,1.05-2.2,1.57Z"/>
      <path d="m212.22,177.59c-.54,2.96-1.84,3.98-4.42,1.74,1.47-.58,2.94-1.16,4.42-1.74Z"/>
      <path class="cls-30" d="m164.09,158.7c-1.7-1.82-3.4-3.65-5.1-5.47,2.4,1.17,5.07,2.09,5.1,5.47Z"/>
      <path class="cls-30" d="m197.6,184.35c-.87.92-2.03.47-3.06.67-.77-.45-1.54-.89-2.31-1.34,2.17-2.87,3.48,1.22,5.36.67Z"/>
      <path class="cls-30" d="m224.83,172.56c-1,.39-1.99.79-2.99,1.18.51-1.62.75-3.96,2.99-1.18Z"/>
      <path class="cls-30" d="m216.71,175.44c-.63.63-1.34.99-2.26.67.47-1.17,1.33-1.05,2.26-.67Z"/>
      <path d="m234.39,229.33c-.65-.13-1.26-.21-1.84-.26-5.34-.44-7.66,2.49-9.95,8.31-6.93,17.57-19.95,29.34-38.41,34.55-1.17.33-2.4.42-3.61.62-3.04.35-6.08.37-9.11-.01-7.85-.52-15.09-3.33-22.05-6.62-3.98-1.88-5.89-6.15-7.42-10.2-2.95-7.8-5.88-15.66-7.46-23.85-1.62-8.39-4.87-15.61-11.72-20.95-.19-.45-.37-.91-.63-1.33-.24-.38-.49-.76-.66-1.16h0c-.25-.59-.29-1.2.24-1.86.4-.49.82-.65,1.24-.62.58.03,1.16.38,1.73.65.51.24,1.13.21,1.59.59.03.03.06.05.09.08,8,3.81,12.55,9.74,13.67,18.93,1.06,8.63,4.29,16.85,7.76,24.87,2.95,6.82,7.93,11.23,15.15,13.43,5.98,1.83,11.97,2.23,18.11,1.84,1.24-.58,2.62.07,3.86-.48,7.13-.38,12.81-4.12,18.19-8.25,8.32-6.38,14.2-14.57,17.35-24.67,1.44-4.61,1.56-4.56-2.92-5.77-.26-.07-.51-.17-.76-.29-.31-.14-.61-.3-.92-.44,1.01-2.22,3.04-2.29,4.96-2.12,3.74.34,7.32,1.42,10.86,2.63,1.21.41,2.06,1.24,2.63,2.37Z"/>
      <path d="m178.26,216.93c.48-.37.99-.7,1.44-1.1q5.3-4.71,2.03-10.71c4.46-.22,8.87-.94,12.55,2.96,3.65,3.87,8.26,6.77,11.24,11.41.88,1.37,3.02,1.92,4.58,2.85,1.3.78,2.21,1.92,2.85,3.27-5.33-1.14-10.26-3.36-14.92-6.07-2.4-1.39-3.91-1.31-5.63.83-5.09,6.36-11.36,11.56-17.1,17.28-2.26,2.24-4.29,2.57-6.47.04-.32-.37-.69-.7-1.04-1.04-4.04-4.02-4.07-4.86-.1-8.97,3.49-3.61,7.05-7.17,10.57-10.75Z"/>
      <path d="m135.25,154.65c-.12.13-.23.26-.33.39-.15.22-.27.45-.36.69h0c-.03.09-.06.18-.09.27-.35,1.27-.03,2.7-.54,3.93-.25,1.22-.51,2.44-.76,3.66.2.69.26,1.33.19,1.94h0c-.14,1.28-.83,2.37-1.92,3.29-5.09,4.31-10.68,7.04-17.57,5.55h0c-.06-.01-.12-.02-.17-.04-.99.07-1.55.38-1.86.81-.71.97-.19,2.6-.57,3.74.08,1.89-.65,3.69-.63,5.57,0,.1,0,.2,0,.3.04.59.23,1.11.48,1.58,0,0,0,0,0,0,.44.81,1.08,1.5,1.56,2.29.33,1.04.7,2.07,1.23,3.01.29.52.64,1.01,1.06,1.46.19.43.26.91.37,1.37.16.66.39,1.3,1.12,1.76,1.85,1.18,3.23,2.76,4.38,4.53.66,1.01,1.25,2.07,1.81,3.15,1.22,1.1,2.43,2.19,3.65,3.29.03.03.06.05.09.08-1.12-.1-1.9-.16-2.43-.09-.95.13-1.14.69-1.17,2.31,0,.41,0,.88,0,1.42-.19-.45-.37-.91-.63-1.33-.24-.38-.49-.76-.66-1.16h0c-1.93-1.71-3.66-3.65-5.92-5.02-11.9-7.21-14.73-19.61-7.35-31.37.39-.63.75-1.27,1.1-1.92.73-1.35.68-2.59-.61-3.6,0,0-.02,0-.02-.01.08.21.09.47.04.76-.76-.9-1.53-.51-2.31-.03-4.9,8.47-9.79,16.93-14.69,25.4-1.08,1.87-2.79,3.39-3.19,5.65-.12.18-.25.37-.37.55-1.45,2.16-2.91,4.32-4.36,6.48-.28.41-.56.83-.84,1.24-2-3.7.97-6.54,2.66-8.52,5.1-5.99,7.07-13.39,10.41-20.16.62-1.25,1.1-2.45,2.32-3.2.1-.13.17-.25.22-.39,0,0,0-.01,0-.02.5-1.29-.74-2.87.51-4.04.42-2.43,2.09-4.13,3.58-5.87,1.67-1.95,2.9-3.62.34-5.87-.69-.6-.66-2.02-.96-3.07.1-.27.21-.54.37-.76.02-.02.04-.05.06-.07.03-.03.06-.06.08-.09.12-.12.26-.21.44-.27,3.04.32,4.38,2.91,6.03,4.86,1.98,2.34,4.2,4.44,6.17,6.77,1.57,1.85,3.56,2.17,5.63,1.21,3.27-1.51,6.24-3.42,7.34-7.19.33-1.8.31-3.6.02-5.4-1.57-4.75-6-7.28-8.62-11.21-.68-1.01-1.88-1.82-1.7-3.07.04-.31.17-.65.41-1.02,3.32-4.19,8.89-6.15,11.14-11.45.7-1.64,1.85-3.35,4.24-2.69-.3.46-.61.93-.91,1.39h0c-2.11,3.23-4.21,6.47-6.36,9.68-2.79,4.18-2.79,4.4,1,7.89.9.83,1.85,1.61,2.77,2.41.27.53.6,1.01.96,1.45.75.92,1.68,1.69,2.67,2.38.5.31.85.66,1.1,1.04.6.96.52,2.14.29,3.36Z"/>
      <path class="cls-26" d="m180.58,272.54c-3.04.91-6.08.99-9.11-.01,3.04,0,6.08,0,9.11.01Z"/>
      <path class="cls-5" d="m108.77,167.28c-.77-.01-1.54-.02-2.31-.03.16-.45.37-.86.71-1.09h0c.2-.14.46-.21.78-.17.42.04.67.24.78.54.08.21.09.47.04.76Z"/>
      <path class="cls-30" d="m240.48,152.74c.24.35.41.6.58.85-.25.16-.53.48-.75.44-.24-.04-.42-.41-.62-.64.23-.19.46-.38.79-.66Z"/>
      <path class="cls-6" d="m118.35,139.2c2.97,3.25,5.94,6.49,8.92,9.74,1.33,1.45,2.72,2.85,3.05,4.91.32,2.28.48,4.55-.08,6.82-1.87,4.5-5.45,7.04-9.84,8.73-2.52.97-4.41.34-6.16-1.7-3.74-4.35-7.62-8.58-11.44-12.87-3.43-1.43-4.92-4.87-7.44-7.24-1.08-1.02-.94-2.33-.32-3.59-.09-2.86.36-5.73-.24-8.58-.3-1.21-.61-2.43-.91-3.64.8-.33,1.59-.67,2.39-.97q5.07-1.96,7.88,2.77c1.36,2.29,2.91,4,5.96,2.59,1.64-.76,3.4.22,5.11.03,1.04,1,2.08,2.01,3.12,3.01Z"/>
      <path d="m69.42,131.53c-.56,1.72-.65,4.12-3.19,4.24-1.77.08-2.61-1.44-2.26-3.1.45-2.1,1.42-4.17,3.95-4.13,1.56.02,1.57,1.61,1.5,3Z"/>
      <path d="m95.38,144.44c1.51,4.16,5.27,6.7,7.44,10.38-.23.2-.47.41-.7.61-3.63-1.29-5.53-4.59-8.07-7.11-1.38-1.36-1.58-3.1.78-4.03.14-.15.27-.29.41-.44.05.2.1.39.15.59Z"/>
      <path d="m99.15,170.24c-.03,1.52.15,3.07-.74,4.44-.09-.34-.19-.69-.28-1.03-.38-1.52-3.54.24-2.82-2.17.5-1.66,2.66-.39,3.83-1.24Z"/>
      <path d="m82.69,207.25c-.65,1.05-1.3,2.1-1.95,3.14-.05-1.48.11-2.84,1.95-3.14Z"/>
      <path class="cls-6" d="m89.22,123.69c-1.62-1.59-3.23-3.18-4.85-4.77-.88-1.58-2.45-.96-3.76-1.17h.03c-1.08-1.52-2.64-.29-3.92-.69-.65-.09-1.3-.17-1.96-.26-.28-.98-.76-1.9-1.66-2.36-3.36-1.73-4.37-4.18-2.04-7.94-3.12.08-5-1.52-6.87-3.09-1.51-1.26-2.2-2.62-.54-4.37.66-.69,1.08-1.63,1.51-2.5,1.74-3.49,3.24-3.8,5.62-.83,1.73,2.17,4.01,4.08,4.24,7.19.05.73.47,1.35,1.53.96,3.25-1.2,4.32,1.14,4.69,3.48.46,2.96,1.9,4.39,4.64,5.48,4.13,1.64,6.83,5.09,8.93,8.93.65,1.19,1.05,2.7-.07,3.81-1.28,1.27-2.16-.29-3.18-.79-.77-.38-1.56-.71-2.35-1.07Z"/>
      <path class="cls-18" d="m33.42,42.92c1.2,1.54,2.41,3.07,3.6,4.61,1.59,2.07,3.25,3.97-.45,5.86-1.76.9-1.55,3.19-.76,4.65,1.27,2.35,3.5,2.17,5.68,1.15.99-1.43,1.98-1.45,2.97,0,1.66,4.11,4.59,7.27,7.84,10.11,2.68,2.34,2.58,4.41.21,6.77-1.74,1.73-3.35,3.6-5.13,5.28-3.32,3.12-3.76,3.2-7.28.08-4.41-3.91-8.92-7.65-14.22-10.31-.23-.68-.24-1.39-.23-2.09,0-.25.04-.48.09-.72.22-.96,1.58-2.17.09-2.83-1.48-.65-1.5,1.11-2.01,1.97-.12.21-.27.4-.43.59-.47.59-.97,1.12-1.83.78-1.65-.36-2.6-2.18-4.44-2.13-2.46-2-4.92-4.01-7.38-6.01-2.63-3.29.59-4.46,2.21-6.22,2.12-1.4.78-3.14.46-4.79-.41-1.43-.79-2.85-.58-4.36.3-2.12,1.07-3.98,3.14-4.91,2.31-1.04,3.23.85,4.38,2.25.3.37.88.4,1.34.54.35.04.7.09,1.04.12.8.1,1.61.13,2.41-.03,1.01-.15,1.71-.91,2.59-1.33.53-.15,1.05-.33,1.56-.55,2.21-1.15,3.79-.21,5.14,1.53Z"/>
      <path class="cls-18" d="m26.66,69.51c-.26.54-.52,1.08-.79,1.61-1.38-.88-3.15-1.03-4.32-2.3.2-.42.4-.84.6-1.26,2.52-1.71,3.34.51,4.51,1.95Z"/>
      <path class="cls-18" d="m44.46,59.2c-.99-.62-1.98-.64-2.97,0,.6-2.13,1.82-1.6,3.13-.75-.05.25-.11.5-.16.75Z"/>
      <path class="cls-30" d="m87.94,235.4c-.3.24-.6.61-.71.56-.27-.12-.56-.41-.63-.69-.04-.16.34-.42.52-.63.23.22.46.43.81.76Z"/>
      <path class="cls-30" d="m234.88,275.54s-.08.06-.12.08h0c-.21.08,0-.33.12-.08Z"/>
      <path class="cls-30" d="m235.05,275.42c-.07.05-.12.09-.17.12,0-.09.02-.18.02-.27.06.04.11.09.15.15Z"/>
      <path class="cls-30" d="m151.68,297.12c-.18-.05-.29-.31-.43-.48.14-.15.27-.42.4-.42.18,0,.45.18.51.35.14.4-.03.68-.49.55Z"/>
      <path class="cls-30" d="m99.15,318.14c-.11.17-.2.34-.33.47-.04.04-.28-.04-.28-.07-.02-.18.01-.37.03-.56.19.05.38.1.58.16Z"/>
      <path class="cls-10" d="m54.23,325.43c-2.71-3.34-5.68-6.44-8.12-10.03-1.56-2.29-3.93-3.78-6.68-4.29-2.21-.41-4.19-1.32-6.26-2.1-4.56-1.72-8.65-4.85-12.69-4.8-4.72-.12-5.49,1.05-4.24,4.5.49,1.36,1.43,2.22,2.49,3.1,2.1,1.74,4,3.8,4.73,6.45.57,2.09,2.03,3.15,3.32,4.61,4.35,4.91,8.83,9.83,11.14,16.16,1.05,2.86,2.8,3.64,5.36,2.22,5.29-2.92,7.65-8.55,11.72-12.6,1.11-1.11.02-2.23-.77-3.22Z"/>
      <path class="cls-1" d="m227.63,42.22c.76-.01,1.46-.24,2.08-.72.3-.23.63-.42.99-.53,2.33-.7,3.06,2.08,4.73,2.83,3.8,3.27,4.15,5.44,1.81,9.85-1.82,3.43-2.97,7.53-8.08,7.24-1.43-.63-2.83-.76-4.21.13-4.77.12-9.11-5.2-7.93-9.67,1.26-4.79,4.05-7.89,8.72-8.95.61-.14,1.24-.18,1.87-.19Z"/>
      <path d="m227.02,42.18c-2.48,1.88-5.5,3.03-6.97,6.18-2.78,5.96-1.5,9.34,4.72,11.67.4.45,1.27.02,1.51.8-2.67,2.71-4.71,2.87-6.99.17-1.08-1.27-1.91-1.73-3.37-.81-.49.31-1.15.59-1.71.55-4-.27-10.29-10.13-8.99-13.96.51-1.5,1.27-2.15,2.99-1.87,4.06.65,7.98,1.12,11.86-1.48,1.79-1.2,4.34-2.52,6.95-1.24Z"/>
      <path d="m229.28,60.03c7.31-3,9.71-10.31,5.15-15.69,1.18-2.11,2.89-.81,4.42-.68,3.38,5.99-.22,10.86-2.89,15.61-1.82,3.25-4.98,3.47-8.2,1.59.2-.84,1.11-.37,1.52-.82Z"/>
      <path d="m238.84,43.66c-1.5.03-3.04-.15-4.42.68-1.48-1.02-2.97-2.04-4.45-3.06,1.5-2.9,2.9-3.3,4.23-.88,1.12,2.03,2.95,2.4,4.64,3.26Z"/>
      <path class="cls-18" d="m20.9,45.11c-1.72-.22-2.81-1.25-3.72-2.67-1.15-1.79-2.13-1.23-2.83.42-.94,2.22-1.24,4.47-.2,6.76-.2.3-.33.69-.61.89-2.1,1.52-2.83,3-.02,4.56.43.24.56.77.65,1.25-2.12.79-4.57,1.25-4.43,4.35-3.12-.98-4.62-3.67-6.35-6.1-.46-.65-.34-1.37.1-2.05,2.36-3.64,4.48-7.48,7.17-10.87,1.61-2.04,4.47-2.31,7.06-2.55,3.71-.11,4.63,1,4.08,4.95-.27.37-.57.72-.88,1.06Z"/>
      <path class="cls-18" d="m20.76,44.42c-1.37-1.57.38-4.94-3.06-5.32,1.92-.93,4-1.36,5.74-2.86,2.16-1.86,3.99-.28,5.52,1.45.84,1.87.52,3.59-.64,5.21-.28.25-.56.51-.85.76-2.54-2.47-4.67-1.22-6.71.76Z"/>
      <path class="cls-18" d="m28.31,42.9c.04-1.76-.21-3.55.64-5.21,1.78,1.49,3.85,2.74,4.46,5.24-1.7-.79-3.4-.89-5.1-.02Z"/>
      <path class="cls-30" d="m107.6,248.88c0,.5-.22.95-.82,1.06-.76-.18-.89-.81-.83-1.41.04-.41.36-1.12.59-1.13.99-.06,1.08.75,1.07,1.49Z"/>
      <path class="cls-30" d="m107.17,257.11c0,.32-.19.64-.3.99-.28-.2-.61-.33-.61-.45,0-.34.04-.81.26-.99.44-.35.65.08.64.45Z"/>
      <path class="cls-18" d="m179.69,197.63c-1.32.31-2.67.66-3.9-.23-1.83-1.32-4.01-3.03-2.96-5.32,1-2.17,3-4.45,6.05-3.82,2.86.59,5.08.03,6.73-2.43,1.87.7,4.24.52,5.17,2.9-3.89,2.73-8.79,4.18-11.09,8.89Z"/>
      <path class="cls-18" d="m148.06,150.94c-.11.06-.21.14-.33.16-2.12.49.3,4.42-2.13,3.64-2.23-.71-3.95-3.14-4.33-5.91,2.59-.36,4.7.83,6.78,2.1Z"/>
      <path class="cls-18" d="m215.93,226.45c-1.15.27-2.01-.48-2.98-.84-4.44-3.24-9.74-4.89-14.39-7.73-3.09-1.9-5.4-1.22-7.67,1.53-4.64,5.61-10.12,10.43-15.23,15.59-2.03,2.05-4.17,2.47-6.44.23-2.4-2.38-1.89-4.52.29-6.7,2.61-2.61,5.26-5.2,7.81-7.88,1-1.05,2.3-1.94,2.25-3.65.02-.08.04-.16.06-.24,2.66-.7,6.21-3.34,6.64-5.34.8-3.69-1.58-5.24-4.53-6.3-.63-.35-.58-.94-.55-1.53-1.28-1.79-1.35-3.88-1.49-5.96-.34-.51-.61-1.07-1.22-1.33-1.61-.68-3.55-1.34-2.93-3.56.65-2.29,2.71-2.57,4.82-2.38,1.38.13,2.7-.11,3.89-.88,1.34-.87,2.32-1.9,1.36-3.64-6.68-2.81-12.64-6.48-16.49-12.95-2.77-4.65-6.06-8.95-9.46-13.16-2.41-2.98-5.2-5.53-8.77-7.09-.94-.56-1.88-1.13-2.83-1.69-2.34-.43-5.08.41-6.78-2.1-.99.01-1.97.03-2.96.04-.69.66-1.6,1.24-1.48,2.35.29,2.56-1.49,3.59-3.26,4.65-1.25,1.01-1.17,2.43-1.19,3.83.05,1.39-1.24,2.72-.23,4.17.13.18.26.36.4.54-.65.9-1.29,1.82-2.02,2.66-4.3,4.97-12.12,7.07-17.35,4.72-1.06.88-1.71,2.33-1.35,3.34,1.49,4.22.31,8.76,1.68,12.9.71,2.15.69,4-.39,5.92,2.03,3.78,5.12,6.55,8.43,9.1.07.34.12.68.16,1.03,1.09,1.74,2.38,3.34,3.81,4.82,7.69,3.74,11.69,9.71,12.9,18.37,1.17,8.4,4.06,16.49,7.61,24.26,3.35,7.31,8.63,12.34,16.46,14.8,6.12,1.92,12.32,2.12,18.61,1.95,1.35-.04,2.69-.05,4.02-.34,19.3-4.41,31.07-16.94,37.32-35.16,1.91-5.56-.53-7.69-6.52-6.32Zm-58.31-42.42c.43,1.42.4,2.86.21,4.31-.6,2.58-1.86,4.79-3.7,6.7-1.09,1.13-2.74,1.75-3.42,3.26-.71-.34-1.57-.19-2.34,0-7.67,1.86-13.66-3.16-15.14-10.32-.08-1.32-.09-2.65.04-3.96.18-1.31.85-2.45,1.28-3.68.58-2.12,2.42-3.15,3.87-4.52.56-.53,1.28-.99,1.62-1.64,3.19-.13,6.33-1.1,9.55-.59.37.1.74.17,1.12.2,2.85-1.65,4.7-.03,6.63,1.84,2.13,2.07.63,3.88-.12,5.8-.07.9.21,1.75.39,2.62Z"/>
      <path class="cls-15" d="m131.58,183.27c-.05-1.36.56-2.46,1.35-3.5,1.56-1.07,2.88-.86,3.95.74.39.73.75,1.48.58,2.35-2.02,3.4-2.09,5.63,1.68,8.3,4.66,4.89,10.06,4.55,13.59-.89.57-.55,1.13-1.12,1.29-1.95.28-1.27.19-2.56.2-3.84-.41-3.17-2.13-5.2-5.23-6.03-.48-.32-.84-.75-1.12-1.25-.15-.38-.24-.76-.27-1.16-.33-2.03.57-3.14,2.55-3.46.26-.04.51-.09.77-.13,5.44.83,7.7,3.28,8.13,8.85.15.78-.41,1.78.69,2.27.74,1.69.41,3.42.18,5.15-1.43,4.55-4.17,8.07-8.28,10.5-8.43,2.53-13.83,1.04-17.82-4.93-1.24-1.86-2.06-3.88-2.19-6.14-.53-1.62-.44-3.25-.04-4.88Z"/>
      <path class="cls-22" d="m136.12,181.37c-.78-1.11-1.92-1.49-3.19-1.6,1.32-3.46,4.23-5.34,7.17-7.17,3.35-.6,6.7-1.73,10.05-.02-.51,1.24-1.02,2.49-1.54,3.73-1.51,1.49-4,.69-5.45,2.33-1.51.42-2.99.89-4.19,2.01-.8.75-1.65,1.5-2.86.72Z"/>
      <path class="cls-18" d="m159.04,181.3c-1.46-4.1-4.53-6.72-8.13-8.85,2.68-1.23,4.8-.43,6.87,1.55,2.31,2.22,2.31,4.61,1.26,7.29Z"/>
      <path class="cls-18" d="m141.28,160.15c.02,1.19-.65,1.5-1.4,1.59-1.15.13-1.87-.46-2.05-1.59-.12-.77.06-1.61.96-1.64,1.23-.04,1.79,1.06,2.49,1.65Z"/>
      <path class="cls-30" d="m159.91,188.72c.07-1.72.38-3.45-.18-5.15,1.02,1.68.93,3.41.18,5.15Z"/>
      <path class="cls-18" d="m138.84,152.48c-.14-1.2-.34-2.4-.51-3.59-1.71-.28-3.16.29-4.46,1.36.05,1.44.1,2.88.15,4.32.06.08.1.17.13.27-.04-.09-.09-.18-.13-.27-.03,1.79-.05,3.57-.08,5.36,1.11-1.06.59-2.5.85-3.75,3.57.55,4.46-.25,4.05-3.7Z"/>
      <path class="cls-29" d="m184.98,265.87c-1.22.67-2.52.75-3.86.48,1.23-.63,2.51-.79,3.86-.48Z"/>
      <path class="cls-19" d="m190.81,215.43c-.25,1.36-.83,2.47-1.69,3.34-4.74,4.79-9.49,9.59-14.34,14.28-1.23,1.19-2.67,2.95-4.63.86-1.93-2.06-.18-3.35,1.07-4.61,4.6-4.59,9.23-9.15,13.91-13.66.87-.84,1.91-1.6,3.01-2.06,1.75-.73,2.4.44,2.67,1.85Z"/>
      <path class="cls-18" d="m113.2,171.79c2.06,5.96.54,12.53,3.12,18.42.51,1.16,1.78,2.39.62,3.69-1.1,1.23-2.52.15-3.8.05-1.09-1.31-1.87-2.77-2.17-4.46-.4-2.49-1.01-4.93-1.83-7.31.06-1.32-.19-2.65.2-3.95.49-2.62.26-5.68,3.86-6.44Z"/>
      <path class="cls-18" d="m109.43,182.82c2.07,1.86,1.88,4.25,1.54,6.67-.99-1.27-1.36-2.76-1.6-4.31-.3-.79-.36-1.58.06-2.36Z"/>
      <path class="cls-12" d="m130.24,160.66c.03-2.27.05-4.54.08-6.82,1.04,2.29,1.05,4.56-.08,6.82Z"/>
      <path class="cls-4" d="m109.43,182.82c-.02.79-.04,1.57-.06,2.36-1.09-2.31-.91-4.63-.03-6.96l.09,4.6Z"/>
      <path class="cls-14" d="m26.66,69.51c-1.9.28-3.16-.93-4.51-1.95-1.67-2.91.76-4.09,2.51-5.06,1.7-.95,3.35.12,4.32,1.75,1.64,2.77-.51,3.96-2.32,5.26Z"/>
      <path class="cls-2" d="m14.16,56.32c-.86-.02-1.74.08-2.57-.08-2.01-.4-3.41-1.53-3.3-3.75.12-2.23,1.84-2.67,3.64-2.85.73-.07,1.47-.02,2.21-.02,2.68,2.23,2.06,4.47.01,6.7Z"/>
      <path class="cls-20" d="m20.76,44.42c.53-1.89-1.23-4.75,2.22-5.39,3.24-.6,4.69.93,4.49,4.63-.68.54-1.36,1.09-2.04,1.63-1.34.86-2.63.39-3.92-.12-.2-.01-.41-.03-.61-.07-.01-.24-.06-.46-.14-.68Z"/>
      <path class="cls-18" d="m21.51,45.17c1.31.04,2.62.08,3.92.12-1.41,3.08-2.64.55-3.92-.12Z"/>
      <path class="cls-22" d="m131.58,183.27c.01,1.63.03,3.25.04,4.88-.81-1.62-1.06-3.24-.04-4.88Z"/>
      <path class="cls-30" d="m136.12,181.37c1.62-1.89,2.86-4.27,5.76-4.54,2.28.14,4.56,0,6.84.05.48.08.95.17,1.43.25,4.18,3.75,4.69,8.7,4.54,13.87-4.13,6.97-11.81,7.59-17.08,1.38-1.62-2.98-1.56-6.32-2.05-9.54.19-.49.38-.98.56-1.47Z"/>
      <path class="cls-30" d="m154.68,191c-.16-.18-.43-.35-.47-.56-.84-4.6-1.68-9.19-4.07-13.31,2.7,1.67,4.88,3.73,5.24,7.12.53,1.52.38,3.06.1,4.59-.23.73-.03,1.62-.8,2.15Z"/>
      <path class="cls-30" d="m135.55,182.85c2.71,2.74,1.63,6.3,2.05,9.54-2.85-2.71-3.41-5.92-2.05-9.54Z"/>
      <path class="cls-30" d="m148.72,176.88c-2.29,1.01-4.57,1.41-6.84-.05,2.16-1.22,4.47-.56,6.73-.52.02.19.05.38.11.57Z"/>
      <path class="cls-7" d="m155.49,188.85c-.03-1.53-.07-3.06-.1-4.59.99,1.51.86,3.05.1,4.59Z"/>
    </g>
  </g>
</svg>