<svg xmlns="http://www.w3.org/2000/svg" xmlns:xlink="http://www.w3.org/1999/xlink" viewBox="0 0 2342 2818.15"><defs><style>.cls-1{fill:none;}.cls-2{fill:#b61f33;}.cls-3{clip-path:url(#clip-path);}.cls-4{fill:#fff;}.cls-5{font-size:354.88px;fill:#fff8f9;font-family:GenSenRoundedTW-M, GenSenRounded TW;letter-spacing:-0.03em;}.cls-6{letter-spacing:0em;}</style><clipPath id="clip-path" transform="translate(0 -7)"><circle class="cls-1" cx="1171" cy="1171" r="1171"/></clipPath></defs><g id="圖層_2" data-name="圖層 2"><g id="圖層_1-2" data-name="圖層 1"><circle class="cls-2" cx="1171" cy="1171" r="1171"/><g class="cls-3"><path d="M991.4,2671.31c8.59,5.18,13.55,13.82,20,21l-.26-.37a106.33,106.33,0,0,1,32.27,61.26c.34,2.1.78,4.21,1,6.33,1.12,13.41-6.93,20.85-20.18,18.46-10.75-1.95-20.7-6.89-31.85-7.72-34.09-2.54-68.18-4.69-102.41-4.62-26.17,0-52.34-.58-78.32,3.49-5,.78-10,1.52-15,2.38-8.45,1.47-18.8-2.48-21.87-8.43-3.21-6.22-1-13.38,6.69-20.46,20.59-19.08,42.36-36.77,64.5-54,15-11.7,25.15-26.62,32.12-44.07q7.88-19.71,16.38-39.17a52.81,52.81,0,0,1,7.23-11.46c5.94-7.4,12.64-8.83,21.39-5.13,4.81,2,9.17,5.18,11.65,9.51,14.11,24.57,34.38,44.16,52.33,65.64,1.84,2.21,3,5,4.49,7.5Z" transform="translate(0 -7)"/><path d="M1234.23,2717.08c8.16-24.32,14.26-48.8,26.65-70.8,11-19.59,29.47-29.35,50.78-32.83,14.38-2.35,26.43,5.07,36.85,14.53,7.31,6.64,14.25,13.69,21.45,20.45,23.21,21.78,50.1,39.19,73,61.4,10,9.67,20.34,18.93,30.66,28.24,3.87,3.49,6.15,7.16,4.64,12.64s-5,8.45-10.49,9.69c-5.33,1.19-10.61,1-16,.69-29.06-1.81-57.92-6.58-87.12-6.39-34.19.22-68.45-1.25-102.47,3.78a85.83,85.83,0,0,1-8.76.92c-18.68.84-30-14.07-21.22-33.32,2.2,2.19,1.18,4.56.92,6.73-1.55,13,3.69,19.16,16.56,19.13a210.26,210.26,0,0,1,26.42,1.07c6.89.86,13.85,1,20.35-2.58,3.71-2,7.7-1.59,11.72-.51a45.89,45.89,0,0,0,9.42,1.63c2.6.15,5.92,0,6-3.65.09-3.26-2.84-4.76-5.51-4.73-6.07.07-9.07-2.77-12.34-7.88-4.42-6.9-12.59-4-19.32-3.7-4.66.23-7.12,3.37-7.3,8-.15,3.89-2.26,5-5.82,4.72-7.64-.54-15.95.61-19-9.49-.4-1.36-2.8-2.81-4.42-3-6.63-.79-9.19-3.37-7.61-10.59C1243.64,2715.38,1240.73,2714,1234.23,2717.08Z" transform="translate(0 -7)"/><path class="cls-4" d="M1918.39,939.34c-4.69-11.26-13.93-18-24.14-23.6-17.44-9.6-36.39-15.51-55.31-20.94-61.58-17.65-124.41-29.91-187.52-40.47-46.8-7.82-93.93-13.64-140.75-21.34-54.48-9-107.22-24.39-157-48.41-34.13-16.46-67.08-35.33-101.09-52.05C1180.92,697.32,1105.11,686,1026,694.77c-55.77,6.16-107.88,22.53-155.13,53.46-29.94,19.6-55.26,43.73-74.5,74-30,47.1-42.82,99.2-42.7,154.47.06,29.6,1.15,59.24,3.6,88.83,3.2,38.59,6.81,77.09,13.29,115.27,6.6,38.91,15.1,77.38,26.56,115.22a763.32,763.32,0,0,0,35.19,93.56c4.93,10.89,3.26,17.09-6.41,24.16-2.15,1.57-4.51,2.87-6.81,4.22-18.63,11-39.32,16.29-59.94,21.82-18.28,4.9-36.92,8.38-54.64,15.46a52.77,52.77,0,0,0-27.6,24.16c-15,26.49-30.95,52.43-46.13,78.82-25,43.51-49,87.61-71.31,132.56-16.77,33.73-32.91,67.73-43,104.19-3.13,11.28-7.08,22.6-5.67,34.53,3.57,30.23,9.68,60,16.78,89.59,15.06,62.78,32.59,124.92,50.07,187,20.57,73.15,42.34,146,63.93,218.82,22.51,75.93,45.77,151.63,70.37,226.92,7.63,23.35,16,46.38,26.06,68.79,2.18,4.84,5.54,6.72,10.75,6.38a26.23,26.23,0,0,0,14.18-4.71,61.7,61.7,0,0,0,17.46-19.58c19-32.8,37.91-65.68,57.28-98.28,16.5-27.78,33.64-55.17,50.38-82.81,4.17-6.87,8.32-14.21,7.5-22.44a191.08,191.08,0,0,0-16.59-60.65c-2.27-5-5.73-9.81-11.71-9.65-5.23.14-8.13,4.86-10.24,9.2-11.11,22.86-25.63,43.8-37.21,66.35-3.73,7.27-8.72,8.07-15.5,7.91s-9.84-4.5-12.16-9.86a75.3,75.3,0,0,1-3-8.24Q769.25,2328,749.49,2261.7c-3.58-12-6.78-24.13-10.77-36-4.9-14.56,2.74-26,8.75-37.75,18.46-36,42.47-68.51,64.17-102.47,31.8-49.74,64.68-98.79,91.33-151.63,20.38-40.43,37.14-82.09,44.66-127,1.73-10.32,2.86-20.52.91-31-5.13-27.61-16.53-52.88-28.68-77.86-13.78-28.31-28.75-56.08-38.88-86-3.36-9.92-5.44-20-4.32-30.57,2.27-21.47,12.93-38.87,26.92-54.31,13.63-15,28-29.35,42.3-43.79,5.24-5.31,7.43-11.25,7.23-18.71-.35-12.47-3.25-24.36-7.45-35.9-11.88-32.63-26.65-64-40.95-95.63-15.08-33.3-30.51-66.44-40.56-101.76-16.39-57.59-28.6-115.87-32.19-175.85-2.73-45.62-1.18-90.65,11.58-134.91,10.91-37.82,29.38-71.1,58.58-97.67,49.27-44.83,108.78-66.31,174-73.6a330.86,330.86,0,0,1,82.28,1.2c31.09,4.3,61.36,11.27,90.08,24.2a38.34,38.34,0,0,1,7,3.79c2.67,2,4.52,4.66,4,8.22s-3.49,4.12-6.4,5c-14.81,4.55-29.89,7.9-45.07,11-19.62,4-39,8.83-57.13,17.61-10.87,5.27-14,11.35-12.84,23.18a107.25,107.25,0,0,0,2.68,15.73c4.3,16.78,9.37,33.37,13.24,50.25,4.56,19.87-.46,30.93-17.41,42.35-16.7,11.25-34.72,19.88-53.3,27.46-25.46,10.38-51.52,19.25-76.51,30.81-10.26,4.74-11.9,6.81-11.59,18.29.1,4,1.41,8.1.8,11.93-1.13,7,2.63,11.08,7.38,14.82,7.61,6,17,7.64,26,10,20.69,5.36,42.09,6.75,63,10.71,48.42,9.17,96.76,18.77,145.17,28,52.9,10.1,98.55,33.9,136.81,71.8,32.22,31.91,57.1,69.07,77.28,109.46,27.18,54.4,44.69,111,41.27,173a649.08,649.08,0,0,1-8,73.1c-8.23,48.42-22.2,95.48-34.65,142.9-3.77,14.39-8.69,28.62-9.28,43.71-1.26,32.82-3.63,65.57-3.93,98.46s-2.58,65.71-4.21,98.55q-2.31,46.45-5.07,92.88c-2.82,46.68-6.41,93.31-10.37,139.91-3.32,38.94-7.4,77.56-22.37,114.25-5.11,12.52-8.07,25.8-11,39.16-3,13.83-10.51,26.74-16.5,39.85q-42.6,93.21-85.51,186.27c-8,17.24-17.1,33.83-29.49,48.45-6.22,7.35-14,10.47-23.34,10.06-10.35-.45-19.47-3.16-27.77-10.35a706.53,706.53,0,0,1-64.61-63.37c-9.21-10.32-10.71-19.91-3.09-31.54,4.67-7.12,8-15.13,12.26-22.51,4-6.86,4.5-14.12,3.78-21.7-.48-5-.86-10.11-1.36-15.16-1.48-15-5.06-29.43-12.44-42.7-5.19-9.35-10.6-10-18.29-2.33a52.17,52.17,0,0,0-9.49,12.85q-20,37.92-39.82,75.88c-19,36.45-37.58,73.14-61.23,107-5,7.2-10.93,8.83-18.22,8.07-7.67-.79-12.78-4.83-15.63-12.78-6.44-18-18.93-30.78-36.86-37.77a37.34,37.34,0,0,0-21.15-2.21c-17.42,3.38-30.09,13-39.07,28-13.7,22.89-27.53,45.71-41.14,68.65-14.61,24.63-35.62,43.12-57.67,60.64-19.88,15.8-39.51,31.89-57.19,50.18C706.45,2748.5,695,2764,690.91,2784c-4,19.43,3,32.9,20.26,37.65a84.4,84.4,0,0,0,15,2.4c18.59,1.66,36.79-1.82,55-3.88,33.19-3.75,66.37-7.18,99.8-7.53,17.1-.18,34.17.35,51.27,1.34,31.76,1.83,63.31,5.28,94.81,9.43,16.33,2.15,32.5,4.29,47.08-6.08,5.44-3.87,10.63-8.08,15.94-12.12,11.62-8.82,14.74-21.63,14.55-34.93-.38-28.15-9.62-53.24-28-74.94-9-10.62-18.51-20.73-28.19-30.69-7.1-7.28-8.9-14.75-4.84-24.62,11.91-29,27-56.27,43.72-82.68,6.67-10.54,8.3-10.71,17.44-1.8a595.44,595.44,0,0,1,76.07,90.75c10.4,15.21,15.41,31.59,12.94,50-1.49,11.15-4.8,21.86-8.08,32.59-5.37,17.6-11.07,35.13-7.74,54.08,4.47,25.54,20.4,38.61,42.87,34.14,44.39-8.82,89.27-9,134.15-7.12,41.09,1.74,82.12,5,117.09,7.13,22.14.23,38.2.86,54.17-1.26,15.43-2.05,29.56-7.32,41-18.2,12.49-11.86,13.29-19.9,4.13-34.64-9.57-15.4-22.68-27.68-35.79-39.82-39.27-36.34-82.22-68.3-123.23-102.57-18.68-15.61-36.8-31.77-51.83-51.12-5.27-6.78-7.35-13.92-5.57-22.4a111.85,111.85,0,0,1,9.49-27.08c32.32-65.12,69.74-127.39,106-190.31,25.63-44.47,53.77-87.57,71.31-136.41,14.54-40.46,27.53-81.43,41.47-122.08,40.43-117.92,80.16-236.07,120.48-354A289.54,289.54,0,0,0,1715,1673.9c3.84-21.52,6.55-43.28,11.29-64.59,6.55-29.39-2.25-52.6-23.88-72.7-16.32-15.17-33.87-28.54-52.16-41.11-19.39-13.31-38.91-26.43-56.42-42.27a44.23,44.23,0,0,1-14.12-24.46c-1.88-8.84-.09-17.6-.84-26.36-2.69-31.33-13.06-60.46-26.64-88.4-35-72-85-132.5-144.42-185.31-36.48-32.43-78.51-55.24-126.76-65.41-6-1.26-12.06-2.24-18-3.63-3-.7-5.55-2.45-5.2-6.09.32-3.45,1.94-6.17,5.65-6.87a34,34,0,0,1,6.36-.6,782.67,782.67,0,0,0,96-4.95c26.23-3.09,52.39-6.46,78.27-12,43.87-9.38,86.71-22.64,130.08-33.91,30.25-7.87,60.73-14.5,91.74-18.17,32.87-3.87,65.9-6.33,98.76-10.17,35.56-4.16,71.23-6.67,106.89-9.44,13.27-1,26.55-2.35,39.68-4.43C1920,951.63,1921.78,947.48,1918.39,939.34ZM1282,899.47c-2.06,16.91-13.42,29.63-28.11,31.56-17.89,2.34-34.77-6.72-41.21-22.34-4.62-11.21-7.23-22.68-5.45-35.06,2.44-17,12.54-27.46,28.39-30.74,14.38-3,26.7,3.79,35.81,15,7.82,9.63,11,21.2,11.07,34.76C1282.37,894.15,1282.3,896.83,1282,899.47Z" transform="translate(0 -7)"/><path d="M1011.18,2691.94c-.42,1-.78,2-2.12,1.9-.13,0-.39-.44-.33-.57.55-1.22,1.67-1,2.7-1Z" transform="translate(0 -7)"/><path d="M856.63,2743.73c10.35,2.95,21.1.68,31.92-.93a43.81,43.81,0,0,1,18.26.94c1.91.53,4.91.61,4.58,3.41-.29,2.53-3.16,2.44-5.19,2.77a32.47,32.47,0,0,1-5.57.38c-7.26-.1-14.23.24-20.62,4.69-4.07,2.83-9.31,1.61-14.08,1.78-3.19.11-6.41,0-9.58.32-9,.88-11-.16-10.94-7C845.45,2742.3,851.76,2744.83,856.63,2743.73Z" transform="translate(0 -7)"/><path d="M820.83,2764.18c-12.52-.43-13.23-.91-16.58-12.58-1.1-3.8-3.21-4.43-6.62-3.19-3,1.08-6.4,2.59-8.63-.93-1.48-2.34.92-4,2.58-5.13,3.21-2.17,5.9-8.77,10.28-4.65,6.57,6.18,13.53,6.13,21.46,5.4,7-.64,8.94,2.28,6.63,9.42C828.31,2757.57,829.58,2765.43,820.83,2764.18Z" transform="translate(0 -7)"/><path d="M965.6,2645c-2.94.1-7.05-4.37-5.68,3,.78,4.22-.92,7.54-5.31,8.5-4.62,1-8-1.17-9.08-5.7-1.29-5.49-4.44-9.56-8.31-13.36-4.14-4.07-6.36-8.27.23-12.23a5.22,5.22,0,0,0,2.75-3.75c.49-3.15,3-2.86,3.62-1C947.47,2631.81,958.31,2636.68,965.6,2645Z" transform="translate(0 -7)"/><path d="M921.12,2760.57c5.23-1.81,10.78-1.92,16.26-2.48,5.18-.52,8.74-2.27,7.45-8.6-.57-2.85,1.47-4.54,4.1-5a34.81,34.81,0,0,1,20.35,2.38c2.76,1.26,4.8,3.62,4.54,6.94-.23,2.91-2.87,3.48-5.07,4.45-2.67,1.17-5.2,2.67-7.86,3.86-1.67.76-4.17,2.26-5.11,1.64C944.65,2756.39,932.58,2766.9,921.12,2760.57Z" transform="translate(0 -7)"/><path d="M1037.89,2771.51c-2.52,2.91-3.62,2.8-8.22,1.15-8.77-3.16-16.68-7.3-24.72-11.68-2.47-1.35-5.62.65-8.29,2-1.86.93-3.93,2.1-5.89,2.06-3.4-.06-7.83-.47-8.3-4.57-.53-4.64,3.61-6.24,7.53-6.38a50.53,50.53,0,0,1,11.09,1c9.4,1.76,18.75,3.41,28.38,3.83,8.91.4,10.59,3.67,8.3,12.75l-.39-.47Z" transform="translate(0 -7)"/><path d="M894.84,2630.17c2.5,6.84,2.27,13.44,1.43,20.06a7.07,7.07,0,0,1-4.67,6.07,14.2,14.2,0,0,0-8.75,7.61c-1.38,2.88-4.15,4.92-7.11,2.33s-1.14-6.56,1-7.66c6.24-3.17,5.19-8,5.11-13.43C881.78,2637.07,888,2633.44,894.84,2630.17Z" transform="translate(0 -7)"/><path d="M921,2598c2.9,2.32,6.18,4.48,0,7-7.56,3.1-7.34,11.09-10.28,17.09-.9,1.83-.64,4.81-3.19,5s-2.77-2.72-3.74-4.49c-.38-.69-.62-1.48-1-2.13-8.46-12.76-8.06-14.51,5.27-22.51l1.08.14a54.34,54.34,0,0,0,10.82,0Z" transform="translate(0 -7)"/><path d="M817.43,2733.93c-3.57-.58-7.69-.21-9.47-3.57-2.13-4,2.44-5.79,4.12-8.54,2.61-4.28,7.85-5.35,10.85-9.07,1.93-2.39,3.08-.45,4.57.46,4.59,2.8,5.63,7,4.14,11.7C829.45,2731.83,823.67,2733.51,817.43,2733.93Z" transform="translate(0 -7)"/><path d="M1031.09,2745.26c-5.57,0-8.57-2.7-8.65-8.18-.05-3.07.73-6.42,4.57-6,5,.53,9.21,3,10,8.6C1037.53,2743.85,1034.45,2745,1031.09,2745.26Z" transform="translate(0 -7)"/><path d="M1028,2721.63c-8.47-2.07-13.37-7-17.09-13.32-1.09-1.84-1.46-4.28.62-5.76s4.35-.25,5.43,1.58C1020.31,2709.85,1028,2712.77,1028,2721.63Z" transform="translate(0 -7)"/><path d="M868.92,2672.08c2.75.49,3.37,2.45,3.31,4.68-.09,3.37-1.69,5.58-5.33,5.38-2.42-.13-4.1-1.57-3.53-4.15A7.2,7.2,0,0,1,868.92,2672.08Z" transform="translate(0 -7)"/><path d="M838.84,2708.87a3.59,3.59,0,0,1-4,3c-3.37-.17-4.45-2.48-4.31-5.49.08-1.62,1.38-4.18,2.21-3.65C835.09,2704.28,836.83,2706.75,838.84,2708.87Z" transform="translate(0 -7)"/><path d="M988.09,2688.9c-2.67-.12-3.59-1.61-3.71-3.59-.13-2.38.92-4.08,3.51-4.22,2-.11,3.8.54,3.9,2.85C991.9,2686.66,990.16,2688.14,988.09,2688.9Z" transform="translate(0 -7)"/><path d="M978.88,2661.65c-4.93,1.68-8,1.28-9.55-2.8-.28-.76.31-2.68.68-2.73C974,2655.6,975.92,2658.49,978.88,2661.65Z" transform="translate(0 -7)"/><path d="M855.32,2712.47a2.55,2.55,0,0,1,2.07,2.81c0,1.71-.8,3.12-2.8,2.69-1.46-.31-1.88-1.66-1.71-3S853.73,2712.52,855.32,2712.47Z" transform="translate(0 -7)"/><path d="M908,2598c4.32-3.76,8.65-3.79,13,0l.06-.17a12.24,12.24,0,0,1-13.09,0Z" transform="translate(0 -7)"/><path d="M779.57,2761.14c-.55.37-1,.88-1.22.79a1.82,1.82,0,0,1-1-1c-.08-.3.35-.74.55-1.12Z" transform="translate(0 -7)"/><path d="M984.33,2669.05l.8,1.1a5.48,5.48,0,0,1-1,.42c-.1,0-.44-.41-.4-.52A5.66,5.66,0,0,1,984.33,2669.05Z" transform="translate(0 -7)"/><path d="M991.4,2671.31l-1.36,3.14-.77-.51c.75-.82,1.51-1.64,2.26-2.47Z" transform="translate(0 -7)"/><path d="M854.74,2688.93l-.63.13c0-.34.08-.68.13-1,.19.09.48.12.56.27S854.77,2688.72,854.74,2688.93Z" transform="translate(0 -7)"/><path d="M1280.29,2657.67c-4.48-1.35-10.89-1.26-13.37-7.26-2.33-5.62,1.57-9.55,5.41-13.11,4.27-4,7.85-8.72,13.63-10.8,1.66-.59,3.08-2.79,5-1.14a4.09,4.09,0,0,1,.34,5.86c-4.43,5.15-5.26,9.19,0,15C1295.72,2651.13,1289.64,2657.71,1280.29,2657.67Z" transform="translate(0 -7)"/><path d="M1396.35,2731c2.39.23,4.8.31,7.16.72s4.69,1.66,5.48,4.17c1.88,6-2.07,10.26-5,14.54-2.63,3.92-6.55,2.69-10,.59-4.12-2.52-8.75-1.94-13.22-2.49-4.25-.52-6.69-1.34-2.75-6.37C1382.94,2735.94,1386.55,2728.72,1396.35,2731Z" transform="translate(0 -7)"/><path d="M1315.73,2617.45c6.83,0,12.26-1.07,14.46,6.52,1.14,3.94,6.6,4.51,10.19,6.42,1.79,1,6.14-1.9,4.77,3.43-1.1,4.29-1.27,10.22-7.29,9.7s-12-3.4-18.57-2.11c-2,.39-2.58-2.38-2.17-4.33.71-3.37.68-7.48,2.66-9.89C1324.05,2622,1325.19,2618.77,1315.73,2617.45Z" transform="translate(0 -7)"/><path d="M1266,2684.06c.11,5.07-5.18,12.59-8.83,11.79-5.71-1.26-7.93-6-8.28-11.34a11,11,0,0,1,10.33-12C1263.49,2672.35,1265.89,2676.43,1266,2684.06Z" transform="translate(0 -7)"/><path d="M1411.53,2687.44a9.89,9.89,0,0,1-4.69,7.14c-2.4,1.56-4.68.94-6.43-1.09a15.88,15.88,0,0,1-3-4.69c-1.4-3.89-4.6-7.46-2.82-12,.44-1.11,1.88-.7,2.77,0C1402.23,2680.38,1407,2684,1411.53,2687.44Z" transform="translate(0 -7)"/><path d="M1364.37,2654.93c3.53.64,7.51.48,10,3.83,1.45,2,2.15,4.58.52,6.65s-3.32,0-4.95-.63c-2.2-.86-4.41-1.71-6.63-2.5s-5.45-.7-5.15-3.81C1358.43,2655.17,1361.59,2655,1364.37,2654.93Z" transform="translate(0 -7)"/><path d="M1436.9,2710.15c-1.17,3.66-3.58,5.32-6.68,5.17-3.66-.19-7.13-2-7.13-6s3.87-4.67,7.06-4.6C1433.73,2704.79,1435.42,2707.6,1436.9,2710.15Z" transform="translate(0 -7)"/><path d="M1454.86,2738.24c-2.09-.13-4.14-.51-4.29-2.83-.19-2.91,2.09-3.46,4.34-3.23,2,.2,5.09-.3,5.17,2.44C1460.16,2737.56,1457.11,2737.84,1454.86,2738.24Z" transform="translate(0 -7)"/><path d="M1475.21,2743.33c-2.77.89-5.5,2-8.32,2.59a3.27,3.27,0,0,1-3.94-2,4.2,4.2,0,0,1,1.68-4.94c2.22-1.67,2.35.54,3.15,1.84,1.68,2.74,6-1.35,7.33,2.61Z" transform="translate(0 -7)"/><path d="M1265.62,2662.23c-.39,1.7-1.32,3-3.17,2.84-2.27-.18-3.19-1.72-2.68-3.85a3,3,0,0,1,3.5-2.44C1265.19,2659,1265.8,2660.41,1265.62,2662.23Z" transform="translate(0 -7)"/><path d="M1416.36,2751.51c-.06,2-1.42,2.66-3.08,2.78s-3.3-.33-3.54-2.19,1.37-2.61,3-2.74S1415.84,2749.63,1416.36,2751.51Z" transform="translate(0 -7)"/><path d="M1383.66,2677.07c-2.31-2.62-2.3-4.83-.88-7a2.1,2.1,0,0,1,2-.18C1386.43,2672.28,1386.56,2674.63,1383.66,2677.07Z" transform="translate(0 -7)"/><path d="M1337,2747.54h15.34c0,.25,0,.51,0,.76h-15.46Z" transform="translate(0 -7)"/><path d="M1351.93,2751.55h-13.46l0-.93c4.34,0,8.67,0,13,0C1351.62,2750.66,1351.76,2751.22,1351.93,2751.55Z" transform="translate(0 -7)"/><path d="M1349.63,2665.58c-.69.63-1.18,1.4-1.69,1.43a2.05,2.05,0,0,1-1.62-1.08,1.35,1.35,0,0,1,1.59-1.81C1348.46,2664.19,1348.93,2665,1349.63,2665.58Z" transform="translate(0 -7)"/><path d="M1421.38,2700.69c-.85-1.28-2.26-2.41-1.23-4.21a.72.72,0,0,1,.69-.11c1.45,1.36.41,3,.4,4.48Z" transform="translate(0 -7)"/><path d="M1366.71,2745l.73.05c-.16.34-.31.68-.46,1-.2-.15-.51-.26-.55-.44S1366.61,2745.24,1366.71,2745Z" transform="translate(0 -7)"/><path d="M1421.24,2700.85c1.47,0,3.09-1.12,4.3.58a.72.72,0,0,1-.16.7c-1.89,1.1-2.82-.51-4-1.45Z" transform="translate(0 -7)"/><path d="M1475.11,2743.44c-.2,1.6,1.66,3.26-.11,4.93-1.62-1.82-.41-3.41.19-5C1475.21,2743.33,1475.11,2743.44,1475.11,2743.44Z" transform="translate(0 -7)"/><path d="M1365.89,2751.38l-.14-.53a1.68,1.68,0,0,1,.66-.06c.09,0,.1.33.15.51Z" transform="translate(0 -7)"/><path d="M1262.2,2652.27c.14.37.29.57.27.77s-.31.17-.48.26Z" transform="translate(0 -7)"/><path d="M1037.89,2771.51c-1-2-3.08-3.68-1.66-7,2.29,2.3,1.54,4.82,1.54,7.15Z" transform="translate(0 -7)"/><path d="M908,2597.85H921C916.68,2601.81,912.32,2601.85,908,2597.85Z" transform="translate(0 -7)"/><path d="M867.49,2678.76l-.34.6-.7-.76c.21-.1.42-.31.6-.29S867.34,2678.6,867.49,2678.76Z" transform="translate(0 -7)"/></g><text class="cls-5" transform="translate(598.09 562.79)">L<tspan class="cls-6" x="185.96" y="0">OGIN</tspan></text></g></g></svg>