<svg xmlns="http://www.w3.org/2000/svg" viewBox="0 0 210.06 132.73"><defs><style>.cls-1{fill:#fff;}</style></defs><g id="圖層_2" data-name="圖層 2"><g id="圖層_1-2" data-name="圖層 1"><path class="cls-1" d="M53.45,132.73l2-.71c-1.14-.61-2.27-.86-3.38.07Z"/><path class="cls-1" d="M126.49,93.11c2.89-1.45,6.15-2.28,6.61-6.5.3-2.77,4-2.92,6.53-.08a14.65,14.65,0,0,0,5.91,3.84,1.84,1.84,0,0,0,2.35-.61,1.58,1.58,0,0,0-.07-2.09c-3.62-3.6.11-4.83,2.16-6.3,1.37-1,3.5-1.11,3.36-3.43s-2.57-1.46-3.75-2.36a5.11,5.11,0,0,1-.89-1.15c2.2-1.43,1.72-5,4.72-6,.26,1.46-1.29,3,.3,4.19,4.37,0,3.82-4.28,5.6-6.52A33,33,0,0,1,169,70.07c2.21,1.26,4.53,2.9,7.29,1.14-.35-2.74-3-2.68-4.65-3.83A46.8,46.8,0,0,0,157.3,62.3c-7.66-1.15-13.44,5.08-11.57,12.58.37,1.46.84,2.88,0,4.3a2.58,2.58,0,0,1-2.65.82,8.3,8.3,0,0,0-1,0c-1.22.32-2.36-.17-3.53-.41-3.35-.53-5.56.5-6.37,4.1s-3.69,5.58-5.72,8.26A1.77,1.77,0,0,0,126.49,93.11Z"/><path class="cls-1" d="M114.51,35.68c.44,5.22,4.38,8.26,7.36,11.92,1,1.23,2.56,2.59,1.37,4.28s-2.92.18-4.44.11c-6.1-.29-8.12-4.18-9.76-9.35A23.53,23.53,0,0,0,91.63,26.47c-6-1.45-12.27-3.75-18.8-2.65a3.45,3.45,0,0,0-2.89,2.51c-1,2.4-2.2,4.77-5.25,1.69-1.13-1.14-2.76-1.39-3.62.67,2.25,1.28,4.38,2.82,7,3.33a4.87,4.87,0,0,0,2.75-.91c2.86-3.38,6.6-4.29,10.81-3.74,7.54,1,14.86,2.48,20.09,8.75,1.88,1.94,2,4.82,3.6,6.89,1.25,1,1,2.35,1,3.65a9.18,9.18,0,0,0,2,4.66c3.78,3.42,8,5.42,13.3,4.76,3.21-.4,5.14-1.8,5-5.27a7,7,0,0,0-1.25-3.37c-2.83-4.31-5.85-8.48-9.86-11.82A2.28,2.28,0,0,0,114.51,35.68Z"/><path class="cls-1" d="M24,62.85c-.26.25-.6.76-.77.71-1.68-.51-3.51-1.86-4.49.88-.73,2-2.71,4,0,6.21,1.19,1,.64,2.17-.75,2.47-2.55.56-4.4,1.43-4.24,4.58.08,1.45-1.21,1.23-2.22.93a1.73,1.73,0,0,0-.5,2,2.81,2.81,0,0,0,2.38,2,2.17,2.17,0,0,0,1-.24c1.58-1.17,3.13-2.34,3.32-4.55.11-1.15,1-1.59,2-1.77a6.65,6.65,0,0,0,1-.25c2.83.36,5.65.73,8.17,2.23a7.2,7.2,0,0,0,4,.94c2.18-.07,3.6-1.12,3.6-3.42s-.54-4.49-3.46-4.25c-2.29.19-3.26-.12-2.59-2.71.45-1.7-.53-3.12-1.89-4.21C27,64.17,25.86,62.39,24,62.85Z"/><path class="cls-1" d="M17.85,107.49l4.38-.37a.72.72,0,0,0,.39-.87c-.71-.84-1.75-.9-2.7-1.18-6.61-1.94-8.66-6-7.16-12.81.72-3.27.54-5.83,5.38-6,5.1-.16,5.07-1,3-5.77a1.41,1.41,0,0,1,.12-1.11c3.58,1.36,7.53.79,11.14,2.13a1.38,1.38,0,0,0,1.73-1.78,2.24,2.24,0,0,0-.89-.78c-4.36-1.64-8.56-3.79-13.37-3.86h0c-1.77.24-2.87,1.42-2.67,3,.33,2.7-1.39,3.41-3.25,4.19h0c-1.39.22-2.67-.92-4.09-.29a4.08,4.08,0,0,0-2.09,5.36,6.54,6.54,0,0,1-.26,5.07C5,98,5.12,98.59,9.51,103.09a12.31,12.31,0,0,1,4.23,3A4.56,4.56,0,0,0,17.85,107.49Z"/><path class="cls-1" d="M9.34,102.6c-3-3-3.57-6.35-1.13-10a5.71,5.71,0,0,0,.43-4.67c-.53-2.3-.08-4.17,1.94-5.54a1.7,1.7,0,0,0,1-2.07l0-1.68C6.88,74,2.8,74.75.57,80.61c-.3.79-1,1.69-.15,2.4s1.44-.34,2-.9A6,6,0,0,1,4,81.1a1.24,1.24,0,0,1,1.63.53c.86,1.17-.31.89-.81,1.3-1.37,1.11-.86,1.29.42,3s3.86,3.55,1.5,6.27c-1.77,2-.94,4.81-2.08,7-.48.91.38,1.33,1,1.65A7.63,7.63,0,0,1,9,103.3C9.53,103.27,9.64,103,9.34,102.6Z"/><path class="cls-1" d="M176,71.5c-4-1.58-8.27-2.6-11.87-5.31-1.11-.84-3.16-1.77-4.77-.07a4.67,4.67,0,0,0,2.63,2c3.63.69,5.85,2.13,7.4,6.12,1.07,2.76,5.52,3.91,9.12,4.27l.63-.07c2.32-1.29,2.64-3.17,1.61-5.46C179.38,71.72,178,70.72,176,71.5Z"/><path class="cls-1" d="M75.28,79.66c3.62,2.3,7.86.25,11.66,1.71,1.62.62,3.19,1.23,5.38,2.22a30.54,30.54,0,0,0-3.55.12,1.73,1.73,0,0,0-1.59,1.4c-.13.91.61,1.29,1.29,1.62,1.92.93,3.84,1.84,5.78,2.73.7.33,1.45.54,2.08-.11.44-.47.75-1.15.29-1.7-2.3-2.72-.51-2.65,1.63-2.52.82.06,1.33-.59,1.74-1.25-1.76-2.57-4.88-2.38-7.32-3.56-1-.5-2.36-.55-3.44-1.16a6.93,6.93,0,0,0-3.45-.92c-2.76.49-5.4-.13-8-.85a3.3,3.3,0,0,0-1.13.11,2.4,2.4,0,0,0-1.31,1A1.43,1.43,0,0,0,75.28,79.66Z"/><path class="cls-1" d="M53.26,25.81l-2.37-.27c-4.2-1.15-5,2.66-6.91,4.78-.85,2.38-2.14,4.36-4.63,5.36a2.89,2.89,0,0,0-2.16,2.67c1.68,1.55,3.6,3.14,5.9,2,3.1-1.58,3.15-4.69,2.79-7.78,1.25.6,2.54.24,3.75.56s2.67,1,3.52-.08c1.08-1.42-.61-2.4-1.37-3.73,3.08.65,5.73,1.53,8,3.63,2.52,2.28,5,2,6.76-.38a2.71,2.71,0,0,0-.73-1C61.67,29.6,57.74,27.1,53.26,25.81Z"/><path class="cls-1" d="M67.49,94.33c1.39-3.37,2-7.14,4.63-9.89,1.62-1.69-2.34-2.44-.53-4a2.68,2.68,0,0,0-1.87-1.85c-3.86-.16-4,2.75-4.42,5.4.19,1.11.27,2.23.43,3.34.89,6.11-.61,8.09-6.81,9.11-4.49.74-5.9,2.61-5.42,7.16a1.33,1.33,0,0,0,.93.61c1.69-.67,1.74-2.9,3.41-3.59h0c1.18-.88,2.61-.66,3.94-.89C64.88,99.18,67.05,97.68,67.49,94.33Z"/><path class="cls-1" d="M176,71.5l4.77,2.27c.4.7,1.17.85,1.81,1.19a1.17,1.17,0,0,1,.69,1.5.91.91,0,0,1-1.14.68c-1.61-.51-2.41.94-3.62,1.4h0c1.61,2.56.56,5.08.27,7.78-.4,3.67,3.12,5.2,5.81,6.77,1.42.84,3.29,2.4,4.67-.28-.38-1.77-2-2.07-3.29-2.78s-3.07-1.17-3.86-2.79c-1-2.8-.49-4.79,2.26-6.61,4.11-2.73,3.53-7.09-1-9.32-3.77-1.88-7.51-3.88-11.88-4a.92.92,0,0,0-.7.94C172.49,69.36,174.88,69.4,176,71.5Z"/><path class="cls-1" d="M88.43,80,100,83.88a32.41,32.41,0,0,0,3.58,1c5.19.92,7.78,5.22,11,8.62.92,1,1.26,2.42,2.94,2.3a1.32,1.32,0,0,0,1.31-1.14c.15-1.53-1.48-1.47-2.14-2.29-.29-.37-.56-.76-1.2-1.62,4,1,7.25,3.19,11,2.33l.33-.73c-4.72-2.14-9.47-4.25-14.29-6.09-6.14-2.35-12.2-5-18.65-6.51C92.05,79.35,90.15,78.05,88.43,80Z"/><path class="cls-1" d="M202.29,72.33c5.51-2.61,5.31-8.57,7.6-13a1.91,1.91,0,0,0-1-2.5c-3.62-1.86-6.6-4.78-10.41-6.32a.83.83,0,0,0-.46.94c1.1,2.54,3.71,3.92,4.85,6.5a13.54,13.54,0,0,1,.11,10.4c-.41,1.15-1.2,2.2-.91,3.53C202.11,72,202.2,72.16,202.29,72.33Z"/><path class="cls-1" d="M44.93,31c1-2.95,3.25-4.44,6-5.48-2.13-2.23-3.57-2.05-5.46.67-2.45,3.53-4.25,7.94-9.07,9.25-.59.16-1.33.64-1.76.44-4.28-2-6.89,1.46-10.08,3,.06.18.13.36.19.53,1.09,1.29,2.5,1,3.84.68a44.58,44.58,0,0,0,12.58-4.61C43,34.41,43.51,32.37,44.93,31Z"/><path class="cls-1" d="M67.49,94.33c-1.25,3.5-4.17,4.31-7.39,4.41-1.41,0-2.49,0-2.26,1.86,1.81.74,2.57,1.85,1.55,3.8-.93,1.77-1.73,3.61-2.54,5.44-.4.92-.28,1.75.78,2.15.86.32,1.42-.16,1.83-.86.2-.32.34-.67.53-1,2.4-4.14,3.1-9.18,6.77-12.68A2.84,2.84,0,0,0,67.49,94.33Z"/><path class="cls-1" d="M191.68,15.52c-1.35-3.14-4.44-4.38-7.08-5.71-5.21-2.62-10.26-5.66-16-7-1.5-.36-2.76-1.64-4.25-2.16-3.87-1.37-7.4-.3-10.68,1.88,1.6,2.51,4.22.49,6.2,1.4a4.31,4.31,0,0,0,1.19,0,48.77,48.77,0,0,1,25.18,9.58c1.52,1.11,2.82,2.51,4.92,2.34Z"/><path class="cls-1" d="M160,3c-2.06-1.26-4.35.43-6.42-.52l-2.69.43a6.53,6.53,0,0,0-5.66,3.13h0c-3.65,1.6-4.27,4.64-3.86,8.16a2.82,2.82,0,0,0,3.43-1.49c1-2.42,3.34-3.27,4.9-5a6.6,6.6,0,0,1,5-2.1C156.8,5.55,159,5.36,160,3Z"/><path class="cls-1" d="M191.22,92.1c1.44-1.72-.58-3.65.33-5.42,2-3.81,2.94-8.24,7-10.69a8.12,8.12,0,0,0,3.69-3.66v0c-4.46-.06-10.17,4.44-12.31,9.69-.25,1.86-.68,3.69-.91,5.56a10.51,10.51,0,0,0,.1,2.24C189.5,90.87,189.77,92,191.22,92.1Z"/><path class="cls-1" d="M153.72,72.64c-.3-2.18.9-3.5,2.82-4.43-3.87-2.15-4.78-1.85-6.65,1.94a8.08,8.08,0,0,0-1.19,4.28Q152.12,76.07,153.72,72.64Z"/><path class="cls-1" d="M142.05,14.54c-.9-3.58,1.43-5.93,3.22-8.49-3,.43-4.69,1.35-4.78,5.2-.06,2.37-1.45,5.06-1.8,7.82,1.47.63.71-1.34,1.79-1.29.48,1.7,1,3.42.07,5.22a1.34,1.34,0,0,0,1.31.86c1.26-.54,1.3-1.69,1.44-2.8a25.59,25.59,0,0,0-.9-6.14Z"/><path class="cls-1" d="M201,29.17c.6-1.68-.31-3.55,1.31-5.25,1.31-1.37-.79-2.35-1.72-3.14-2.66-2.26-6.36-2.81-8.94-5.26h0c-1,2,.81,2.71,1.59,3.91a5.62,5.62,0,0,0,.71.75c1.63,1.66,3.6,3,4.32,5.44a5.05,5.05,0,0,0,.37,1C199.27,27.61,199.42,29.08,201,29.17Z"/><path class="cls-1" d="M22.55,106.39c-.11.24-.22.49-.32.73,3.13,1,6.34.46,9.52.56a25.06,25.06,0,0,1,4,.77c3.05-.13,6.09.17,9.13.16h0c1.12-.23,2.92,1.07,3.08-1.36a3.59,3.59,0,0,0-3.82-1.89c-6,.81-12-.78-18,0C24.85,105.58,23.55,105.43,22.55,106.39Z"/><path class="cls-1" d="M114.51,35.68l.72.33c2.06-.5,2.35-4,5.22-3.09a5.65,5.65,0,0,0,1,0c2.55-.26,5,.53,7.56.56a2.62,2.62,0,0,0,1-.28.84.84,0,0,0,.29-.91c-2.58-1.74-6.41-.29-8.54-3.6-.67-1-6,2.46-6.42,4.13C115.13,33.82,114.79,34.74,114.51,35.68Z"/><path class="cls-1" d="M141.93,23.64,140.55,23c0,1.67.2,3.13-1.51,4.59-1.09.93-2.35,3.23-.68,5.21,2.92,1,3.43-1.44,4.4-3.14a6.31,6.31,0,0,0,.86-4.25C143.41,24.49,143,23.75,141.93,23.64Z"/><path class="cls-1" d="M19.89,43.36c-4.77,4.78-4.79,9.51-.05,12.5,1.52-1.62-.18-3.25,0-4.86a6.65,6.65,0,0,0-.11-1c-.7-2.15,1.54-4.09.45-6.26Z"/><path class="cls-1" d="M53.26,25.81c4.55,1.62,8.16,5,12.6,6.81.79-.46,2.21.19,2.36-1.37-2.59-.27-3.91-4.08-7.15-2.56C58.43,27.83,56.31,25.56,53.26,25.81Z"/><path class="cls-1" d="M201,29.17l-1.72-3.35a4.49,4.49,0,0,0-2.39,5.57c.67,2.08.44,4.11.69,6.15a.76.76,0,0,0,.93.45A17.55,17.55,0,0,0,201,29.17Z"/><path class="cls-1" d="M145.27,6.05c1.81-1.17,4.25-1.24,5.66-3.14a4,4,0,0,0-4.81-1.13C144.28,2.65,145.15,4.53,145.27,6.05Z"/><path class="cls-1" d="M142.94,25c-.67,3.11-1,6.42-4.58,7.82-.75.49-1.84.4-2.31,1.36,0,.2.09.39.14.58,1.55,1.85,3.05,1.81,4.61,0,1.75-2.06,4.08-3.76,4-6.88,0-1.35.12-2.78-1.31-3.63Q142.75,24.26,142.94,25Z"/><path class="cls-1" d="M47.89,107.59l-3,1c.33,2.78.24,2.63,3.26,1,1-.55,2.55-.09,3.84-.09,1.24-1.64,3.08-3,2.59-5.45l-.66-.31c-1.9.27-2.23,2.85-4.28,2.91A3,3,0,0,0,47.89,107.59Z"/><path class="cls-1" d="M198.54,38l-.68-.32c-2.84.79-4.52,3-6.13,5.21-2.45,3.32-1.93,5.21,1.75,7.51,1.55.27,2.93,1.62,4.67.75.1-.22.19-.45.29-.68-7-3.29-6.94-3.27-1.85-9.3A23.61,23.61,0,0,0,198.54,38Z"/><path class="cls-1" d="M24,62.85c1.35.68,2,2.74,4.09,1.94a2.25,2.25,0,0,0,0-1.71c-1.76-1.94-3.13-4.42-6.21-4.57-1,.08-1.91.38-.89,1.53S23,61.92,24,62.85Z"/><path class="cls-1" d="M54.54,104c-.86,1.82-1.72,3.63-2.59,5.45,2.35.39,2.2-1.92,3-3a39.15,39.15,0,0,0,2.92-5.87C55.6,100.66,55.34,102.61,54.54,104Z"/><path class="cls-1" d="M21.91,58.51l5.83,5.27c.82,1,1.66,1.92,3.13,1.7.5-.26.77-.8.44-1.18-2.82-3.12-5.25-6.72-9.59-8l-.57.25Z"/><path class="cls-1" d="M191.22,92.1l-1.36-2.35a9.09,9.09,0,0,1-5-1c-1.28-.66-2.59-1.55-4.16-.79,2.12,2.85,5.73,3.12,8.49,4.87C190,92.92,191,93.69,191.22,92.1Z"/><path class="cls-1" d="M9.34,102.6l-.35.7a10,10,0,0,1,4.11,3c1.22,1.51,2.72,2.58,4.75,1.22C14.66,106.48,12.44,103.78,9.34,102.6Z"/><path class="cls-1" d="M19,50.48c-.8,2,.87,3.53.84,5.38l1.31.66.05,0c2.48-.43,3.51-1.49,1.26-3.49C21.41,52.06,20.7,50.55,19,50.48Z"/><path class="cls-1" d="M44.85,108.61a16.76,16.76,0,0,0-9.13-.16A19.31,19.31,0,0,0,44.85,108.61Z"/><path class="cls-1" d="M24.52,38.89c-3,0-3.63,2.42-4.63,4.47l0,0c2.91-.06,4.61-1.37,4.63-4.44Z"/><path class="cls-1" d="M130.31,32.34c-.12.22-.23.44-.34.67,2.25,2.84,3.35,3.06,6.09,1.22v-.06Z"/><path class="cls-1" d="M69.51,79.42l2.08,1c1.09-.94,2.42-.69,3.69-.76l.33-.68c-1.69-2.35-3.73-1.07-5.7-.56A1,1,0,0,0,69.51,79.42Z"/><path class="cls-1" d="M88.43,80c5.2.07,9.89,2.31,14.7,3.81a139.39,139.39,0,0,1,15.52,6.43c2.64,1.18,5.19,2.4,8.17,2.1,2.88-1.95,5.36-4.43,6.09-7.81.8-3.76,2.85-4.55,6.14-3.87,1.12-.08,2.25.31,3.37-.06h0c1.12-.18,2.26.53,3.38-.06,2.5-1.26,1.67-3.36,1.21-5.24-2-8,3-13.18,11.16-11.69A47.56,47.56,0,0,1,170.8,68.2q.19-.32.36-.63a2.14,2.14,0,0,0-.49-1.13,19.94,19.94,0,0,0-4.25-2.38c-.69-.32-1.38-.63-2-1a4.09,4.09,0,0,1-1.61-2.33c-.73-2-2.07-2.57-4-1.62-1,.7-1.74,2.07-3.34,1.71a9.3,9.3,0,0,0-2.1.27c-2.71.41-5.18,1.31-6.93,3.58a13.74,13.74,0,0,0-2.52,5.47,33.44,33.44,0,0,0,0,3.61c0,2.29-.83,3.23-3.42,3.08-5.67-.33-8.15,1.51-10.23,6.79-2.39,6-5.33,7.36-11.06,4.5A168.32,168.32,0,0,0,95.38,78.8a47.19,47.19,0,0,0-13-2.65c-1.66-.05-3.6-.69-4.5,1.54,2.26,1.73,5.09,1,7.57,1.74C86.55,78.93,87.46,79.64,88.43,80Z"/><path class="cls-1" d="M145.8,80.58a4.19,4.19,0,0,0-3.38.06C143.55,81.08,144.7,82.1,145.8,80.58Z"/><path class="cls-1" d="M142.42,80.64a4.29,4.29,0,0,0-3.37.06C140.18,81.31,141.31,81.57,142.42,80.64Z"/><path class="cls-1" d="M102.71,35.92c-2.3-4.83-7.19-6.05-11.5-7.75A38.11,38.11,0,0,0,81,26.09c-4.54-.43-8.09.72-10.77,4.42a2.34,2.34,0,0,0-1.14,1.76c1.88,1.65,3.22-.18,4.49-1,1.44-.87,2.1-.69,3,.63a1.6,1.6,0,0,0,2.83.14c3-4.36,6.89-3,10.79-2a17.45,17.45,0,0,1,8,3.8A10.8,10.8,0,0,0,101,36,2.09,2.09,0,0,0,102.71,35.92Z"/><path class="cls-1" d="M102.71,35.92l-1.37-.64c-1.6,1.73-.94,3.77-.54,5.62.71,3.26,2.37,6.21,3.43,9.38.62,1.85,2.11,2.81,4,1.09a1.24,1.24,0,0,0,.18-1.09,8.75,8.75,0,0,0-1.44-4,11.64,11.64,0,0,0-.78-3.68C104.64,40.58,105,37.54,102.71,35.92Z"/><path class="cls-1" d="M121.18,32.16c-3.92-1.71-4.81,1.26-6,3.85l9.32,11.9a2.77,2.77,0,0,0,1-2c-.9-2.62-2.76-4.74-4.44-6.72C118.86,36.46,118.86,34.49,121.18,32.16Z"/><path class="cls-1" d="M108.43,50.28l-.35.71a4.94,4.94,0,0,0,3.27,4.25c4.3,1.8,8.69,3.38,13.46,1.72,1.51-.92,2-2.49,2.6-4a3.18,3.18,0,0,0,.07-1.19c-.22-.8-.59-1.46-1.55-1.48.07,3.86-2.37,4.68-5.61,4.86C115.55,55.39,112,52.77,108.43,50.28Z"/><path class="cls-1" d="M125.93,50.28l1,1.33c1.73,0,2.26-1,1.4-2.34-.74-1.16-1.49-2.56-3.19-2.68-.82.15-.56.82-.64,1.32Z"/><path class="cls-1" d="M69.25,32.57l1-2.06-2,.74c-.79.45-1.88.38-2.36,1.37l.7.34C67.61,33.88,68.56,34.13,69.25,32.57Z"/><path class="cls-1" d="M106.21,42.6a3.65,3.65,0,0,0,.78,3.68C107.7,44.85,107.85,43.53,106.21,42.6Z"/><path class="cls-1" d="M31.12,65.42l-3.38-1.64c.11.34.23.68.35,1,1.38,1.83,2.05,3.7.6,5.85-.39.58-.91,1.38-.32,2.07s1.6.26,2.45.2c1.58-.11,3.75-2.3,4.48,1,.24,1.11,1,2.49-.39,3.49a3.89,3.89,0,0,1-4.61,0c-2.24-1.64-4.87-1.58-7.25-2.48-1.14-.42-2.17-.62-3.18.21,4.58,1.43,9.42,2.11,13.58,4.74,3.44-.52,5.07-2.59,4.34-5.82a12.22,12.22,0,0,0-6.08-8.46Z"/><path class="cls-1" d="M14,82.31c2.66.31,4.82.29,3.79-3.56-.41-1.54.89-2.73,2.13-3.65-1.29-.46-2.76.26-2.77,1.14C17.09,78.92,14.68,80.14,14,82.31Z"/><path class="cls-1" d="M11.55,80.31l-1,2.07A4.59,4.59,0,0,0,14,82.3Z"/><path class="cls-1" d="M69.25,32.57,66.56,33c-2.92.5-5.29.39-7.51-2.41-1.84-2.33-5.56-1.9-8.3-3.13a1.38,1.38,0,0,0-1.79,1c-.31.91.43,1.3,1.07,1.73.95.65,2.49.65,2.64,2.34-1.44.41-2.31-.85-3.47-1-2.32-.32-4.75-.61-4.39,3a4,4,0,0,1-.41,2.9c-.93,1.27-1.36,4-3.86,1.31-.56-.6-2.12-.27-3.22-.37-2.28-.72-5.58-.48-6,1.13-.81,2.89-2.22,1-3,.92C24,39.68,19.13,42.91,19,50.48h0c1.08,1.16,1.22,2.79,3.19,3.66,2.37,1-1.23,1.25-1,2.35,3.63,2.61,6.69,5.87,9.92,8.93h0c2.48,2.09,5,4.11,6.12,7.37,1.62,1.14.87,2.46.29,3.77a6.42,6.42,0,0,1-3.39,3.64c-2.16,1.49-3.81-.24-5.53-1s-3.47-1.62-5.23,1.59c.29-2.78-.17-4.06-2.2-3.51-1.4.38-2.68.87-1.5,2.85.59,1-.94,3.41,2,2.75.1,0,.47.58.47.88,0,.72-.72,1.42-1.16,1.21-2.45-1.15-5.12,3.14-7.65-.52-.64-.91-1.82.87-1.47,2,.87,2.86-.08,5.33-1.09,8-1.7,4.39,3.67,11.31,9.14,12a21,21,0,0,0,2.63,0c6.78,0,13.57.84,20.34.16a8,8,0,0,1,5,1l1.66,0c2.45-.68,3.06-2.87,3.63-4.84,1.62-5.59,3.11-5.74,8.15-6.41,3.56-.47,5.14-2.25,4.92-6.27-1.76-1.86-1.11-4-.69-6.09,0-.34,0-.68,0-1-1.45-2.47-.33-3.63,2.09-4.13,1.85-1.88,4-1.32,6.14-.77a8.24,8.24,0,0,0,3.13-.08h0c.33-.14.77.07,1-.35,4.9.08,9.62.07,14.53,1.65A200.7,200.7,0,0,1,122,90.9c2.38,1.2,6.39-.69,8-3.39a20.82,20.82,0,0,0,1.74-3.74c1.65-4.89,5.26-6.83,10.2-5.39,3,.88,3.28.42,3.09-4.88a2.46,2.46,0,0,1-.39-2.69l2.91-6.13c1.32-2.73,3.92-2.59,6.34-2.83l1.69,0c1.45,0,2.37-.9,3.34-1.76,1.56-.84,3-1.32,2.69,1.38-.23,1.75,1.09,2,2.11,2.57a1.34,1.34,0,0,1,2.05,1l4.76,2.25a1.26,1.26,0,0,0-.28-2.08c1,1.63,2.86,2.36,5,2.68,3.79.56,6.59,3.44,10.29,4.39,1.61.42,1.53,2.71,1.16,4.28a8.1,8.1,0,0,1-3.47,5.15c-1.69,1.13-3.27,3-2,5.07s3.9,2.9,6.27,3.5c.87.22,1.57-.7,1.58-1.72a14.13,14.13,0,0,1,.38-3c.7-1.34.52-3,1.26-4.25,1.52-2.65,3-4.93,6.16-6.52,8.72-4.44,8.91-11.45,3.82-18.59A28.6,28.6,0,0,0,194,49.22c-3.66-1.12-3.08-3.26-1.33-5.65,1.55-2.11,4.2-3.26,5.15-5.9,1-2.12,2.27-3.92.06-6.44-1.22-1.38,1.08-3.51,1.39-5.41h0c-1.73-1.91-2.82-4.35-4.82-6-.07-.08-.29.14-.31-.14.17-.2.15-.36,0-.5h0c-4.57-4.15-9.07-8.5-14.93-10.75C173,6.06,166.87,3.19,160,3h0c-2.42.75-4.68,2.15-7.45,1.42a3,3,0,0,0-2.36.91c-2.77,3-6.37,5.33-8.18,9.2h0a47.06,47.06,0,0,1,.73,6.37,8,8,0,0,0,.51,3.39c.73,4.51-.93,9-4.18,10.77-1.14.64-2-.55-3.05-.83-2.21.52-4.17-.25-6.09-1.22h0c-2.93-.24-5.89-.16-8.78-.85h0c-4.66,1.47-4.43,2.38-1.48,6.58,1.82,2.59,3.79,5.14,5.49,7.85,1,.9.81,2.45,2.33,3.16s-.14,1.27-.54,1.86h0a7.92,7.92,0,0,1-2.26,4.77,46.18,46.18,0,0,1-11-1.45c-2.66-.74-3.46-3.12-5.62-3.94-1.51.72-2.64.57-3-1.31-1-4.87-4.16-9.17-3.73-14.4a5.46,5.46,0,0,0-2.4-2c-3.34-.59-5.65-3.33-8.85-4.2-6.66-2.55-8.73-2.06-12.58,3.35-.43-5.31-2.29-4.65-5.17-1.79A7.53,7.53,0,0,1,69.25,32.57Z"/><path class="cls-1" d="M34.14,80.19c2.58.54,2.84-1.85,4-3.13.08-1.48,1-3-.43-4.37-.79-3.69-3.36-5.78-6.58-7.28,1.27,2.55,4,4,5.05,6.76,1.35,3.52.73,6-2.72,7.67Z"/><path class="cls-1" d="M178.47,78.54c1.24.23,2.41-1.71,3.89.18.5.64,2.23-.79,2.56-2a2.37,2.37,0,0,0-1.65-3.2,7.71,7.71,0,0,0-2.54.22C180.05,75.4,180,77.31,178.47,78.54Z"/><path class="cls-1" d="M77.93,77.59l-1,.35a14.28,14.28,0,0,0,8.47,1.49C83.11,78,80.29,78.73,77.93,77.59Z"/><path class="cls-1" d="M76.93,77.94l-3-.59c-1.42.25-3.35-.95-4,1.43,1.89.62,3.85-.67,5.73.2Z"/><path class="cls-1" d="M19,50.48a18.94,18.94,0,0,1,1.69-5.3c1.66-3.08,3.8-4.8,7.54-3.43,1.22.44,2.65.29,4.45.46-1.69-1.88-1.55-3.12,1-3.4,1.24-.14,2.46-.34,3.69-.52,2.81-2.14,6.75-3.09,7.61-7.27-4.43,6.38-11.81,6.37-18.26,8.35-.61.19-1.41-.26-2.13-.41-1.08,1.95-2.87,3.19-4.63,4.44C20.13,45.83,17.41,47.88,19,50.48Z"/><path class="cls-1" d="M65.38,90c.94,3.85-.44,5.43-4.21,4.83-2.33-.38-7.33,3.62-8.67,6.89-.83,2-1.2,4.28-3,5.84,2.9.37,3.32-2.06,4.33-3.82.32-4,1.84-6.3,6.48-6.35s7.27-3.8,6.73-8.42c-.18-1.48-.54-2.93-.81-4.39l-.53.18C64.14,86.39,65.11,88.21,65.38,90Z"/><path class="cls-1" d="M69.88,78.78c1.12-1.09,2.71-.87,4-1.43-2.34-.78-4.83-2.43-6.4,1.13-2,1-2.24,2.83-2.26,4.77l-.33.68a1,1,0,0,0,1.34.65h0c.38-2.16,0-4.8,3.23-5.15C69.63,79.2,69.76,79,69.88,78.78Z"/><path class="cls-1" d="M188.72,85.07c-.05.11-.07.26-.16.34-1.2,1.18,1,4-1.32,4-1.72.08-3.77-1.23-5.2-2.47-1.59-1.38-.21-2.88,1-3.69,3.81-2.49,4.29-6.36,4.75-10.36.17-1.54-.75-2.52-1.74-2.27-2.54.65-4-1-5.68-2.12-3.58-2.33-8.21-1.76-12.07-5.13.81,1.87,2.4,2.32,2.15,3.8l.69.35c4,2.2,8.56,2.74,12.47,5.05,3,1.79,3.47,5.21.36,6.81-3.93,2-4,5-3.26,8.51,1.92.91,3.87,1.79,5.77,2.76,1.47.76,2.63.74,3.36-1,0-.56,0-1.11,0-1.67-.24-.94.35-2-.23-2.86A.79.79,0,0,0,188.72,85.07Z"/><path class="cls-1" d="M188.72,85.07l.68.32a3,3,0,0,0,1.3-2.73c1.73-5.83,7.2-7.48,11.58-10.36,2.81-5.42,4.49-10.86.76-16.64a16.21,16.21,0,0,0-4.89-4.52L194,49.22c1.66,4.35,6.12,6.71,7.73,11.17,2.52,7,2.39,9.69-4.47,13.13C191.74,76.31,191,80.84,188.72,85.07Z"/><path class="cls-1" d="M160,3c5.62.22,10.22,3.86,15.83,4.52,3.26.38,6.45,2.37,9.17,4.71,2.88,2.49,6.05,4.64,9.09,6.94-.45-1.47-2.23-2-2.47-3.65-5.21-2.9-9.72-6.95-15.44-9.06a125.75,125.75,0,0,0-12.13-3.73A6.3,6.3,0,0,0,160,3Z"/><path class="cls-1" d="M190.7,82.66c-.44.91-.87,1.82-1.3,2.73.14.9.29,1.8.44,2.69A13,13,0,0,0,190.7,82.66Z"/><path class="cls-1" d="M143.21,20.91c-.17-2.16.38-4.46-1.16-6.38-.64,2.08-.07,4.07.46,6.07C142.59,21,142.82,21.14,143.21,20.91Z"/><path class="cls-1" d="M143.21,20.91l-.7-.31c-.19,1-.38,2-.58,3l1,1.34.35-.69C143.84,23.15,143.2,22,143.21,20.91Z"/><path class="cls-1" d="M194.13,19.17l-.35.7c2.59,1.29,2.31,5.24,5.52,5.95C198.81,22.65,196.43,20.94,194.13,19.17Z"/><path class="cls-1" d="M121.18,32.16c.63,2,2,1.23,3.4,1.11,1.78-.14,3.61.4,5.38-.26C127.09,32.17,124.2,31.51,121.18,32.16Z"/><path class="cls-1" d="M153.83,61.85c-2.73-.45-5.41-.77-6.34,2.83C149.21,62.84,151.73,62.81,153.83,61.85Z"/><path class="cls-1" d="M144.58,70.81C143,72,142.29,73,145,73.5Z"/><path class="cls-1" d="M165.71,65c.17-.72.3-1.44-.62-1.74-.7-.22-1.07.3-1.43.77Z"/><path class="cls-1" d="M158.86,60.05l-3.34,1.76C157.29,62.48,158.21,61.53,158.86,60.05Z"/><path class="cls-1" d="M90.09,29.1c.63.38,1.64.63,1.82,1.17,1.27,3.64,4.29,3,7,3A13.7,13.7,0,0,0,90.09,29.1Z"/><path class="cls-1" d="M124.72,56.38A4.46,4.46,0,0,0,127,51.61Q125.84,54,124.72,56.38Z"/><path class="cls-1" d="M65.24,83.25l2.26-4.77c-3.16-1.67-4,1-4.93,2.87-.51,1,.14,1.77,1.31,1S64.76,83,65.24,83.25Z"/><path class="cls-1" d="M66.25,84.58l-1.34-.65c-1.41,3.39-1.36,4,.47,6.06C66.56,88.33,65.11,86.24,66.25,84.58Z"/><path class="cls-1" d="M37.7,72.69l.43,4.37,2-4.23Z"/><path class="cls-1" d="M191.42,19.52a4,4,0,0,0,1,.82,1.06,1.06,0,0,0,1-.27c.35-.68-.44-.49-.69-.64S192,18.73,191.42,19.52Z"/><path class="cls-1" d="M156.77,59.48c.18-.14.54-.31.52-.41a3.82,3.82,0,0,0-.39-.94c-.18.15-.45.27-.53.46A.61.61,0,0,0,156.77,59.48Z"/></g></g></svg>